%TF.GenerationSoftware,KiCad,Pcbnew,10.0.2-rc1*%
%TF.CreationDate,2026-08-12T02:26:04+09:00*%
%TF.ProjectId,Cantor_he,43616e74-6f72-45f6-9865-2e6b69636164,rev1.6*%
%TF.SameCoordinates,PX78114e0PY44b6550*%
%TF.FileFunction,Soldermask,Bot*%
%TF.FilePolarity,Negative*%
%FSLAX46Y46*%
G04 Gerber Fmt 4.6, Leading zero omitted, Abs format (unit mm)*
G04 Created by KiCad (PCBNEW 10.0.2-rc1) date 2026-08-12 02:26:04*
%MOMM*%
%LPD*%
G01*
G04 APERTURE LIST*
G04 Aperture macros list*
%AMRoundRect*
0 Rectangle with rounded corners*
0 $1 Rounding radius*
0 $2 $3 $4 $5 $6 $7 $8 $9 X,Y pos of 4 corners*
0 Add a 4 corners polygon primitive as box body*
4,1,4,$2,$3,$4,$5,$6,$7,$8,$9,$2,$3,0*
0 Add four circle primitives for the rounded corners*
1,1,$1+$1,$2,$3*
1,1,$1+$1,$4,$5*
1,1,$1+$1,$6,$7*
1,1,$1+$1,$8,$9*
0 Add four rect primitives between the rounded corners*
20,1,$1+$1,$2,$3,$4,$5,0*
20,1,$1+$1,$4,$5,$6,$7,0*
20,1,$1+$1,$6,$7,$8,$9,0*
20,1,$1+$1,$8,$9,$2,$3,0*%
%AMHorizOval*
0 Thick line with rounded ends*
0 $1 width*
0 $2 $3 position (X,Y) of the first rounded end (center of the circle)*
0 $4 $5 position (X,Y) of the second rounded end (center of the circle)*
0 Add line between two ends*
20,1,$1,$2,$3,$4,$5,0*
0 Add two circle primitives to create the rounded ends*
1,1,$1,$2,$3*
1,1,$1,$4,$5*%
%AMFreePoly0*
4,1,28,-0.850000,0.400000,0.000000,1.250000,0.114750,1.242219,0.293119,1.197860,0.457783,1.116195,0.601041,1.001041,0.716195,0.857783,0.797860,0.693119,0.842219,0.514750,0.850000,0.400000,0.850000,-0.400000,0.842219,-0.514750,0.797860,-0.693119,0.716195,-0.857783,0.601041,-1.001041,0.457783,-1.116195,0.293119,-1.197860,0.114750,-1.242219,0.000000,-1.250000,-0.114750,-1.242219,
-0.293119,-1.197860,-0.457783,-1.116195,-0.601041,-1.001041,-0.716195,-0.857783,-0.797860,-0.693119,-0.842219,-0.514750,-0.850000,-0.400000,-0.850000,0.400000,-0.850000,0.400000,$1*%
%AMFreePoly1*
4,1,28,-0.850000,0.400000,-0.842219,0.514750,-0.797860,0.693119,-0.716195,0.857783,-0.601041,1.001041,-0.457783,1.116195,-0.293119,1.197860,-0.114750,1.242219,0.000000,1.250000,0.114750,1.242219,0.293119,1.197860,0.457783,1.116195,0.601041,1.001041,0.716195,0.857783,0.797860,0.693119,0.842219,0.514750,0.850000,0.400000,0.850000,-0.400000,0.842219,-0.514750,0.797860,-0.693119,
0.716195,-0.857783,0.601041,-1.001041,0.457783,-1.116195,0.293119,-1.197860,0.114750,-1.242219,0.000000,-1.250000,-0.850000,-0.400000,-0.850000,0.400000,-0.850000,0.400000,$1*%
%AMFreePoly2*
4,1,6,1.000000,0.000000,0.500000,-0.750000,-0.500000,-0.750000,-0.500000,0.750000,0.500000,0.750000,1.000000,0.000000,1.000000,0.000000,$1*%
%AMFreePoly3*
4,1,6,0.500000,-0.750000,-0.650000,-0.750000,-0.150000,0.000000,-0.650000,0.750000,0.500000,0.750000,0.500000,-0.750000,0.500000,-0.750000,$1*%
G04 Aperture macros list end*
%ADD10C,1.701800*%
%ADD11HorizOval,0.600000X0.000000X0.000000X0.000000X0.000000X0*%
%ADD12RoundRect,0.150000X-0.150000X0.700000X-0.150000X-0.700000X0.150000X-0.700000X0.150000X0.700000X0*%
%ADD13RoundRect,0.149998X-0.149998X0.700002X-0.149998X-0.700002X0.149998X-0.700002X0.149998X0.700002X0*%
%ADD14RoundRect,0.149999X-0.149999X0.700001X-0.149999X-0.700001X0.149999X-0.700001X0.149999X0.700001X0*%
%ADD15RoundRect,0.250000X-0.337500X-0.475000X0.337500X-0.475000X0.337500X0.475000X-0.337500X0.475000X0*%
%ADD16RoundRect,0.250000X-0.294817X-0.502608X0.377615X-0.443777X0.294817X0.502608X-0.377615X0.443777X0*%
%ADD17RoundRect,0.250000X-0.506623X-0.287863X0.105135X-0.573130X0.506623X0.287863X-0.105135X0.573130X0*%
%ADD18RoundRect,0.150000X-0.825000X-0.150000X0.825000X-0.150000X0.825000X0.150000X-0.825000X0.150000X0*%
%ADD19HorizOval,0.600000X0.000000X0.000000X0.000000X0.000000X0*%
%ADD20RoundRect,0.150000X-0.210438X0.684263X-0.088420X-0.710410X0.210438X-0.684263X0.088420X0.710410X0*%
%ADD21RoundRect,0.149998X-0.210436X0.684265X-0.088418X-0.710411X0.210436X-0.684265X0.088418X0.710411X0*%
%ADD22RoundRect,0.149999X-0.210437X0.684264X-0.088419X-0.710411X0.210437X-0.684264X0.088419X0.710411X0*%
%ADD23RoundRect,0.250000X0.475000X-0.337500X0.475000X0.337500X-0.475000X0.337500X-0.475000X-0.337500X0*%
%ADD24C,1.200000*%
%ADD25FreePoly0,270.000000*%
%ADD26FreePoly1,270.000000*%
%ADD27O,2.500000X1.700000*%
%ADD28RoundRect,0.250000X-0.414856X-0.409177X0.249890X-0.526390X0.414856X0.409177X-0.249890X0.526390X0*%
%ADD29HorizOval,0.600000X0.000000X0.000000X0.000000X0.000000X0*%
%ADD30RoundRect,0.150000X0.159887X0.697808X-0.431779X-0.571023X-0.159887X-0.697808X0.431779X0.571023X0*%
%ADD31RoundRect,0.149998X0.159889X0.697809X-0.431778X-0.571025X-0.159889X-0.697809X0.431778X0.571025X0*%
%ADD32RoundRect,0.149999X0.159888X0.697809X-0.431778X-0.571024X-0.159888X-0.697809X0.431778X0.571024X0*%
%ADD33R,1.700000X1.700000*%
%ADD34C,1.700000*%
%ADD35HorizOval,0.600000X0.000000X0.000000X0.000000X0.000000X0*%
%ADD36RoundRect,0.150000X-0.026167X0.715413X-0.269275X-0.663318X0.026167X-0.715413X0.269275X0.663318X0*%
%ADD37RoundRect,0.149998X-0.026165X0.715414X-0.269273X-0.663321X0.026165X-0.715414X0.269273X0.663321X0*%
%ADD38RoundRect,0.149999X-0.026166X0.715413X-0.269274X-0.663319X0.026166X-0.715413X0.269274X0.663319X0*%
%ADD39FreePoly2,270.000000*%
%ADD40FreePoly3,270.000000*%
%TA.AperFunction,Profile*%
%ADD41C,0.100000*%
%TD*%
G04 APERTURE END LIST*
%TO.C,JP2*%
G36*
X68100000Y-41825000D02*
G01*
X69600000Y-41825000D01*
X69600000Y-44275000D01*
X68100000Y-44275000D01*
X68100000Y-41825000D01*
G37*
%TD*%
D10*
%TO.C,K25*%
X33020000Y-26050000D03*
X43180000Y-26050000D03*
D11*
X38850000Y-26250000D03*
D12*
X38850000Y-27300000D03*
D11*
X36950000Y-26250000D03*
D13*
X36950004Y-27300000D03*
D11*
X37901653Y-26249864D03*
D14*
X37900002Y-25200000D03*
%TD*%
D15*
%TO.C,C22*%
X-19237500Y-27600000D03*
X-17162500Y-27600000D03*
%TD*%
D10*
%TO.C,K24*%
X13970000Y-24050000D03*
X24130000Y-24050000D03*
D11*
X19800000Y-24250000D03*
D12*
X19800000Y-25300000D03*
D11*
X17900000Y-24250000D03*
D13*
X17900004Y-25300000D03*
D11*
X18851653Y-24249864D03*
D14*
X18850002Y-23200000D03*
%TD*%
D10*
%TO.C,K21*%
X-43180000Y-36050000D03*
X-33020000Y-36050000D03*
D11*
X-37350000Y-36250000D03*
D12*
X-37350000Y-37300000D03*
D11*
X-39250000Y-36250000D03*
D13*
X-39249996Y-37300000D03*
D11*
X-38298347Y-36249864D03*
D14*
X-38299998Y-35200000D03*
%TD*%
D10*
%TO.C,K02*%
X-24130000Y14050000D03*
X-13970000Y14050000D03*
D11*
X-18300000Y13850000D03*
D12*
X-18300000Y12800000D03*
D11*
X-20200000Y13850000D03*
D13*
X-20199996Y12800000D03*
D11*
X-19248347Y13850136D03*
D14*
X-19249998Y14900000D03*
%TD*%
D10*
%TO.C,K10*%
X-62230000Y-17000000D03*
X-52070000Y-17000000D03*
D11*
X-56400000Y-17200000D03*
D12*
X-56400000Y-18250000D03*
D11*
X-58300000Y-17200000D03*
D13*
X-58299996Y-18250000D03*
D11*
X-57348347Y-17199864D03*
D14*
X-57349998Y-16150000D03*
%TD*%
D16*
%TO.C,C30*%
X15166448Y-50890424D03*
X17233552Y-50709576D03*
%TD*%
D10*
%TO.C,K04*%
X13970000Y14050000D03*
X24130000Y14050000D03*
D11*
X19800000Y13850000D03*
D12*
X19800000Y12800000D03*
D11*
X17900000Y13850000D03*
D13*
X17900004Y12800000D03*
D11*
X18851653Y13850136D03*
D14*
X18850002Y14900000D03*
%TD*%
D10*
%TO.C,K12*%
X-24130000Y-5000000D03*
X-13970000Y-5000000D03*
D11*
X-18300000Y-5200000D03*
D12*
X-18300000Y-6250000D03*
D11*
X-20200000Y-5200000D03*
D13*
X-20199996Y-6250000D03*
D11*
X-19248347Y-5199864D03*
D14*
X-19249998Y-4150000D03*
%TD*%
D17*
%TO.C,C32*%
X56259706Y-58361534D03*
X58140294Y-59238466D03*
%TD*%
D18*
%TO.C,U2*%
X11000004Y-6204996D03*
X11000001Y-7474998D03*
X11000003Y-8744995D03*
X11000004Y-10014995D03*
X11000004Y-11284994D03*
X11000002Y-12554999D03*
X11000003Y-13824996D03*
X11000003Y-15094995D03*
X6050004Y-15095000D03*
X6050001Y-13824998D03*
X6050003Y-12555001D03*
X6050004Y-11285001D03*
X6050004Y-10015002D03*
X6050002Y-8744997D03*
X6050003Y-7475000D03*
X6050003Y-6205001D03*
%TD*%
D10*
%TO.C,K30*%
X9839331Y-47592751D03*
X19960669Y-46707249D03*
D19*
X15664577Y-47283872D03*
D20*
X15756091Y-48329877D03*
D19*
X13771807Y-47449468D03*
D21*
X13863325Y-48495472D03*
D19*
X14719827Y-47366391D03*
D22*
X14626681Y-46320665D03*
%TD*%
D18*
%TO.C,U1*%
X11100004Y12875005D03*
X11100001Y11605003D03*
X11100003Y10335006D03*
X11100004Y9065006D03*
X11100004Y7795007D03*
X11100002Y6525002D03*
X11100003Y5255005D03*
X11100003Y3985006D03*
X6150004Y3985001D03*
X6150001Y5255003D03*
X6150003Y6525000D03*
X6150004Y7795000D03*
X6150004Y9064999D03*
X6150002Y10335004D03*
X6150003Y11605001D03*
X6150003Y12875000D03*
%TD*%
D15*
%TO.C,C24*%
X18762500Y-27600000D03*
X20837500Y-27600000D03*
%TD*%
%TO.C,C03*%
X-137500Y15600000D03*
X1937500Y15600000D03*
%TD*%
D10*
%TO.C,K01*%
X-43180000Y2050000D03*
X-33020000Y2050000D03*
D11*
X-37350000Y1850000D03*
D12*
X-37350000Y800000D03*
D11*
X-39250000Y1850000D03*
D13*
X-39249996Y800000D03*
D11*
X-38298347Y1850136D03*
D14*
X-38299998Y2900000D03*
%TD*%
D15*
%TO.C,C11*%
X-38237500Y-20600000D03*
X-36162500Y-20600000D03*
%TD*%
%TO.C,C14*%
X18762500Y-8600000D03*
X20837500Y-8600000D03*
%TD*%
D23*
%TO.C,CU1*%
X6100000Y14512500D03*
X6100000Y16587500D03*
%TD*%
D10*
%TO.C,K14*%
X13970000Y-5000000D03*
X24130000Y-5000000D03*
D11*
X19800000Y-5200000D03*
D12*
X19800000Y-6250000D03*
D11*
X17900000Y-5200000D03*
D13*
X17900004Y-6250000D03*
D11*
X18851653Y-5199864D03*
D14*
X18850002Y-4150000D03*
%TD*%
D10*
%TO.C,K23*%
X-5080000Y-19050000D03*
X5080000Y-19050000D03*
D11*
X750000Y-19250000D03*
D12*
X750000Y-20300000D03*
D11*
X-1150000Y-19250000D03*
D13*
X-1149996Y-20300000D03*
D11*
X-198347Y-19249864D03*
D14*
X-199998Y-18200000D03*
%TD*%
D10*
%TO.C,K03*%
X-5080000Y19050000D03*
X5080000Y19050000D03*
D11*
X750000Y18850000D03*
D12*
X750000Y17800000D03*
D11*
X-1150000Y18850000D03*
D13*
X-1149996Y17800000D03*
D11*
X-198347Y18850136D03*
D14*
X-199998Y19900000D03*
%TD*%
D15*
%TO.C,C04*%
X18962500Y10600000D03*
X21037500Y10600000D03*
%TD*%
%TO.C,C05*%
X37962500Y8600000D03*
X40037500Y8600000D03*
%TD*%
%TO.C,C23*%
X-237500Y-22600000D03*
X1837500Y-22600000D03*
%TD*%
D18*
%TO.C,U3*%
X11030004Y-25354996D03*
X11030001Y-26624998D03*
X11030003Y-27894995D03*
X11030004Y-29164995D03*
X11030004Y-30434994D03*
X11030002Y-31704999D03*
X11030003Y-32974996D03*
X11030003Y-34244995D03*
X6080004Y-34245000D03*
X6080001Y-32974998D03*
X6080003Y-31705001D03*
X6080004Y-30435001D03*
X6080004Y-29165002D03*
X6080002Y-27894997D03*
X6080003Y-26625000D03*
X6080003Y-25355001D03*
%TD*%
D10*
%TO.C,K22*%
X-24130000Y-24050000D03*
X-13970000Y-24050000D03*
D11*
X-18300000Y-24250000D03*
D12*
X-18300000Y-25300000D03*
D11*
X-20200000Y-24250000D03*
D13*
X-20199996Y-25300000D03*
D11*
X-19248347Y-24249864D03*
D14*
X-19249998Y-23200000D03*
%TD*%
D24*
%TO.C,J1*%
X73460000Y-34320000D03*
X66460000Y-34320000D03*
X73460000Y-36070000D03*
X66460000Y-36070000D03*
D25*
X63160000Y-33970000D03*
D26*
X64660000Y-38170000D03*
D27*
X71660000Y-38170000D03*
X68660000Y-38170000D03*
%TD*%
D15*
%TO.C,C10*%
X-57337500Y-20550000D03*
X-55262500Y-20550000D03*
%TD*%
%TO.C,C13*%
X-137500Y-3600000D03*
X1937500Y-3600000D03*
%TD*%
%TO.C,C02*%
X-19237500Y10500000D03*
X-17162500Y10500000D03*
%TD*%
D10*
%TO.C,K15*%
X33020000Y-7000000D03*
X43180000Y-7000000D03*
D11*
X38850000Y-7200000D03*
D12*
X38850000Y-8250000D03*
D11*
X36950000Y-7200000D03*
D13*
X36950004Y-8250000D03*
D11*
X37901653Y-7199864D03*
D14*
X37900002Y-6150000D03*
%TD*%
D15*
%TO.C,C00*%
X-57337500Y-1500000D03*
X-55262500Y-1500000D03*
%TD*%
%TO.C,C25*%
X37900000Y-29600000D03*
X39975000Y-29600000D03*
%TD*%
D23*
%TO.C,CU2*%
X6100000Y-4587500D03*
X6100000Y-2512500D03*
%TD*%
D15*
%TO.C,C15*%
X37962500Y-10500000D03*
X40037500Y-10500000D03*
%TD*%
D28*
%TO.C,C31*%
X35978262Y-51819840D03*
X38021738Y-52180160D03*
%TD*%
D15*
%TO.C,C20*%
X-57237500Y-39600000D03*
X-55162500Y-39600000D03*
%TD*%
D10*
%TO.C,K32*%
X53295956Y-53003099D03*
X62504044Y-57296901D03*
D29*
X58495207Y-55648225D03*
D30*
X58051458Y-56599848D03*
D29*
X56773222Y-54845251D03*
D31*
X56329477Y-55796875D03*
D29*
X57635771Y-55247314D03*
D32*
X58077966Y-54295116D03*
%TD*%
D10*
%TO.C,K11*%
X-43180000Y-17000000D03*
X-33020000Y-17000000D03*
D11*
X-37350000Y-17200000D03*
D12*
X-37350000Y-18250000D03*
D11*
X-39250000Y-17200000D03*
D13*
X-39249996Y-18250000D03*
D11*
X-38298347Y-17199864D03*
D14*
X-38299998Y-16150000D03*
%TD*%
D33*
%TO.C,MCU1*%
X71035000Y21450000D03*
D34*
X71035000Y18910000D03*
X71035000Y16370000D03*
X71035000Y13830000D03*
X71035000Y11290000D03*
X71035000Y8750000D03*
X71035000Y6210000D03*
X71035000Y3670000D03*
X71035000Y1130000D03*
X71035000Y-1410000D03*
X71035000Y-3950000D03*
X71035000Y-6490000D03*
X71035000Y-9030000D03*
X71035000Y-11570000D03*
X71035000Y-14110000D03*
X71035000Y-16650000D03*
X71035000Y-19190000D03*
X71035000Y-21730000D03*
X71035000Y-24270000D03*
X71035000Y-26810000D03*
X55795000Y-26810000D03*
X55795000Y-24270000D03*
X55795000Y-21730000D03*
X55795000Y-19190000D03*
X55795000Y-16650000D03*
X55795000Y-14110000D03*
X55795000Y-11570000D03*
X55795000Y-9030000D03*
X55795000Y-6490000D03*
X55795000Y-3950000D03*
X55795000Y-1410000D03*
X55795000Y1130000D03*
X55795000Y3670000D03*
X55795000Y6210000D03*
X55795000Y8750000D03*
X55795000Y11290000D03*
X55795000Y13830000D03*
X55795000Y16370000D03*
X55795000Y18910000D03*
X55795000Y21450000D03*
%TD*%
D15*
%TO.C,C01*%
X-38337500Y-1500000D03*
X-36262500Y-1500000D03*
%TD*%
%TO.C,C21*%
X-38237500Y-39600000D03*
X-36162500Y-39600000D03*
%TD*%
D10*
%TO.C,K05*%
X33020000Y12050000D03*
X43180000Y12050000D03*
D11*
X38850000Y11850000D03*
D12*
X38850000Y10800000D03*
D11*
X36950000Y11850000D03*
D13*
X36950004Y10800000D03*
D11*
X37901653Y11850136D03*
D14*
X37900002Y12900000D03*
%TD*%
D10*
%TO.C,K20*%
X-62230000Y-36050000D03*
X-52070000Y-36050000D03*
D11*
X-56400000Y-36250000D03*
D12*
X-56400000Y-37300000D03*
D11*
X-58300000Y-36250000D03*
D13*
X-58299996Y-37300000D03*
D11*
X-57348347Y-36249864D03*
D14*
X-57349998Y-35200000D03*
%TD*%
D10*
%TO.C,K13*%
X-5080000Y0D03*
X5080000Y0D03*
D11*
X750000Y-200000D03*
D12*
X750000Y-1250000D03*
D11*
X-1150000Y-200000D03*
D13*
X-1149996Y-1250000D03*
D11*
X-198347Y-199864D03*
D14*
X-199998Y850000D03*
%TD*%
D10*
%TO.C,K00*%
X-62230000Y2050000D03*
X-52070000Y2050000D03*
D11*
X-56400000Y1850000D03*
D12*
X-56400000Y800000D03*
D11*
X-58300000Y1850000D03*
D13*
X-58299996Y800000D03*
D11*
X-57348347Y1850136D03*
D14*
X-57349998Y2900000D03*
%TD*%
D15*
%TO.C,C12*%
X-19237500Y-8600000D03*
X-17162500Y-8600000D03*
%TD*%
D23*
%TO.C,CU3*%
X6100000Y-23737500D03*
X6100000Y-21662500D03*
%TD*%
D10*
%TO.C,K31*%
X31897177Y-47267867D03*
X41902823Y-49032133D03*
D35*
X37603876Y-48477198D03*
D36*
X37421546Y-49511246D03*
D35*
X35732741Y-48147266D03*
D37*
X35550415Y-49181315D03*
D35*
X36669961Y-48312385D03*
D38*
X36850641Y-47278184D03*
%TD*%
D39*
%TO.C,JP2*%
X68850000Y-42325000D03*
D40*
X68850000Y-43775000D03*
%TD*%
D41*
X-67896552Y11570000D02*
G75*
G02*
X-66660000Y12806552I1236552J0D01*
G01*
X-67896552Y-45533448D02*
X-67896552Y11570000D01*
X-66670000Y-46750000D02*
G75*
G02*
X-67896540Y-45533448I-9900J1216600D01*
G01*
X-66660000Y12806552D02*
X-49851507Y12807782D01*
X-49851507Y12807782D02*
G75*
G02*
X-48624978Y11591230I9907J-1216582D01*
G01*
X-49841592Y-46750040D02*
X-66670000Y-46750000D01*
X-48625040Y-45523488D02*
G75*
G02*
X-49841592Y-46750100I-1216660J-9912D01*
G01*
X-48625040Y-45523488D02*
G75*
G02*
X-48125040Y-45023560I499940J-12D01*
G01*
X-48625000Y-28025000D02*
X-48625040Y-42523488D01*
X-48625000Y-28025000D02*
G75*
G02*
X-48125000Y-27525000I500000J0D01*
G01*
X-48624955Y-8974517D02*
X-48625000Y-25025000D01*
X-48624955Y-8974517D02*
G75*
G02*
X-48124955Y-8474545I499955J17D01*
G01*
X-48624915Y8581270D02*
X-48624955Y-5974517D01*
X-48624915Y8581270D02*
G75*
G02*
X-48124915Y9081215I499915J30D01*
G01*
X-48125040Y-43023488D02*
G75*
G02*
X-48625088Y-42523488I40J500088D01*
G01*
X-48125040Y-45023488D02*
G75*
G02*
X-47624983Y-45533448I-60J-500212D01*
G01*
X-48125000Y-25525000D02*
G75*
G02*
X-48625000Y-25025000I0J500000D01*
G01*
X-48125000Y-27525000D02*
G75*
G02*
X-47625000Y-28025000I0J-500000D01*
G01*
X-48124955Y-6474517D02*
G75*
G02*
X-48625017Y-5974517I55J500117D01*
G01*
X-48124955Y-8474517D02*
G75*
G02*
X-47624917Y-8974517I-45J-500083D01*
G01*
X-48124915Y11081270D02*
G75*
G02*
X-48624933Y11591230I15J500130D01*
G01*
X-48124915Y9081270D02*
G75*
G02*
X-47624930Y8581270I15J-499970D01*
G01*
X-47625040Y-42523488D02*
G75*
G02*
X-48125040Y-43023460I-499960J-12D01*
G01*
X-47625040Y-42523488D02*
X-47625000Y-28025000D01*
X-47625000Y-25025000D02*
G75*
G02*
X-48125000Y-25525000I-500000J0D01*
G01*
X-47625000Y-25025000D02*
X-47624955Y-8974517D01*
X-47624955Y-5974517D02*
G75*
G02*
X-48124955Y-6474445I-500045J117D01*
G01*
X-47624955Y-5974517D02*
X-47624915Y8581270D01*
X-47624915Y11581270D02*
G75*
G02*
X-48124915Y11081215I-499985J-70D01*
G01*
X-47624915Y11581270D02*
G75*
G02*
X-46408363Y12807856I1216615J9930D01*
G01*
X-46408363Y12807822D02*
X-30964374Y12807822D01*
X-46398448Y-46750000D02*
G75*
G02*
X-47624940Y-45533448I-9852J1216600D01*
G01*
X-46398448Y-46750000D02*
X-19400000Y-46750000D01*
X-29730000Y23570000D02*
X-29727822Y14044374D01*
X-29730000Y23570000D02*
G75*
G02*
X-28480000Y24806527I1236600J0D01*
G01*
X-29727822Y14044374D02*
G75*
G02*
X-30964374Y12807822I-1236578J26D01*
G01*
X-28480000Y24806552D02*
X-11910000Y24806552D01*
X-19400000Y-46750000D02*
G75*
G02*
X3790002Y-57089998I809300J-29359600D01*
G01*
X-10673448Y28570000D02*
X-10673448Y26043104D01*
X-10673448Y28570000D02*
G75*
G02*
X-9436896Y29806548I1236548J0D01*
G01*
X-10673448Y26043104D02*
G75*
G02*
X-11910000Y24806548I-1236552J-4D01*
G01*
X-9436896Y29806552D02*
X9530000Y29806552D01*
X7610000Y-58540000D02*
G75*
G02*
X3789969Y-57090030I-380000J4755900D01*
G01*
X9530000Y29806552D02*
G75*
G02*
X10766552Y28570000I0J-1236552D01*
G01*
X10766552Y28570000D02*
X10766552Y25980000D01*
X12003104Y24750000D02*
G75*
G02*
X10766583Y25980000I-6504J1230000D01*
G01*
X12003104Y24750000D02*
X28690000Y24750000D01*
X15940000Y-57820000D02*
X7610000Y-58540000D01*
X15940000Y-57820000D02*
G75*
G02*
X53910001Y-64959998I6272100J-71176300D01*
G01*
X28690000Y24750000D02*
G75*
G02*
X29900008Y23770002I0J-1237000D01*
G01*
X31110000Y22759999D02*
G75*
G02*
X29900001Y23770000I0J1229801D01*
G01*
X53910000Y-64960000D02*
X61613868Y-68641488D01*
X57485000Y10240000D02*
G75*
G02*
X58485000Y11240000I1000200J-200D01*
G01*
X57485000Y4640000D02*
X57485000Y10240000D01*
X58485000Y11240000D02*
X65677893Y11240000D01*
X58485000Y3640000D02*
G75*
G02*
X57485000Y4640000I10000J1010000D01*
G01*
X63630000Y-68110000D02*
G75*
G02*
X61613882Y-68641448I-1393000J1194600D01*
G01*
X63630000Y-68110000D02*
X74248728Y-45663239D01*
X65677893Y11240000D02*
G75*
G02*
X66677900Y10240000I7J-1000000D01*
G01*
X65685000Y3640000D02*
X58485000Y3640000D01*
X66677893Y10240000D02*
X66685000Y4640000D01*
X66685000Y4640000D02*
G75*
G02*
X65685000Y3640000I-1000000J0D01*
G01*
X73670000Y22760000D02*
X31110000Y22760000D01*
X73670000Y22760000D02*
G75*
G02*
X74960028Y21510000I49000J-1240100D01*
G01*
X74960000Y-42840000D02*
G75*
G02*
X74248732Y-45663241I-6436300J120300D01*
G01*
X74960000Y-42840000D02*
X74960000Y21510000D01*
M02*
