M48
; DRILL file KiCad 10.0.2-rc1 date 2026-08-12T02:26:00
; FORMAT={-:-/ absolute / metric / decimal}
; #@! TF.CreationDate,2026-08-12T02:26:00+09:00
; #@! TF.GenerationSoftware,Kicad,Pcbnew,10.0.2-rc1
; #@! TF.FileFunction,Plated,1,2,PTH
FMAT,2
METRIC
; #@! TA.AperFunction,Plated,PTH,ComponentDrill
T1C0.300
; #@! TA.AperFunction,Plated,PTH,ViaDrill
T2C0.400
; #@! TA.AperFunction,Plated,PTH,ComponentDrill
T3C1.000
%
G90
G05
T1
X-58.3Y1.85
X-58.3Y-17.2
X-58.3Y-36.25
X-57.35Y1.85
X-57.35Y-17.2
X-57.35Y-36.25
X-57.337Y-1.5
X-57.337Y-20.55
X-57.237Y-39.6
X-56.4Y1.85
X-56.4Y-17.2
X-56.4Y-36.25
X-55.262Y-1.5
X-55.262Y-20.55
X-55.162Y-39.6
X-39.25Y1.85
X-39.25Y-17.2
X-39.25Y-36.25
X-38.337Y-1.5
X-38.3Y1.85
X-38.3Y-17.2
X-38.3Y-36.25
X-38.237Y-20.6
X-38.237Y-39.6
X-37.35Y1.85
X-37.35Y-17.2
X-37.35Y-36.25
X-36.262Y-1.5
X-36.163Y-20.6
X-36.163Y-39.6
X-20.2Y13.85
X-20.2Y-5.2
X-20.2Y-24.25
X-19.25Y13.85
X-19.25Y-5.2
X-19.25Y-24.25
X-19.238Y10.5
X-19.238Y-8.6
X-19.238Y-27.6
X-18.3Y13.85
X-18.3Y-5.2
X-18.3Y-24.25
X-17.162Y10.5
X-17.162Y-8.6
X-17.162Y-27.6
X-1.15Y18.85
X-1.15Y-0.2
X-1.15Y-19.25
X-0.237Y-22.6
X-0.2Y18.85
X-0.2Y-0.2
X-0.2Y-19.25
X-0.137Y15.6
X-0.137Y-3.6
X0.75Y18.85
X0.75Y-0.2
X0.75Y-19.25
X1.837Y-22.6
X1.938Y15.6
X1.938Y-3.6
X2.075Y-6.205
X2.075Y-7.475
X2.075Y-8.745
X2.075Y-10.015
X2.075Y-11.285
X2.105Y-25.355
X2.105Y-26.625
X2.105Y-27.895
X2.105Y-29.165
X2.105Y-30.435
X2.175Y12.875
X2.175Y11.605
X2.175Y10.335
X2.175Y9.065
X2.175Y7.795
X6.05Y-13.825
X6.05Y-8.745
X6.05Y-6.205
X6.05Y-7.475
X6.05Y-12.555
X6.05Y-10.015
X6.05Y-11.285
X6.05Y-15.095
X6.08Y-32.975
X6.08Y-27.895
X6.08Y-25.355
X6.08Y-26.625
X6.08Y-31.705
X6.08Y-29.165
X6.08Y-30.435
X6.08Y-34.245
X6.1Y16.587
X6.1Y14.512
X6.1Y-2.512
X6.1Y-4.587
X6.1Y-21.662
X6.1Y-23.737
X6.15Y5.255
X6.15Y10.335
X6.15Y12.875
X6.15Y11.605
X6.15Y6.525
X6.15Y9.065
X6.15Y7.795
X6.15Y3.985
X10.025Y-6.205
X10.025Y-7.475
X10.025Y-8.745
X10.025Y-10.015
X10.025Y-11.285
X10.055Y-25.355
X10.055Y-26.625
X10.055Y-27.895
X10.055Y-29.165
X10.055Y-30.435
X10.125Y12.875
X10.125Y11.605
X10.125Y10.335
X10.125Y9.065
X10.125Y7.795
X13.772Y-47.449
X14.718Y-47.367
X15.166Y-50.89
X15.665Y-47.284
X17.234Y-50.71
X17.9Y13.85
X17.9Y-5.2
X17.9Y-24.25
X18.762Y-8.6
X18.762Y-27.6
X18.85Y13.85
X18.85Y-5.2
X18.85Y-24.25
X18.962Y10.6
X19.8Y13.85
X19.8Y-5.2
X19.8Y-24.25
X20.837Y-8.6
X20.837Y-27.6
X21.037Y10.6
X35.733Y-48.147
X35.978Y-51.82
X36.668Y-48.312
X36.95Y11.85
X36.95Y-7.2
X36.95Y-26.25
X37.604Y-48.477
X37.9Y11.85
X37.9Y-7.2
X37.9Y-26.25
X37.9Y-29.6
X37.962Y8.6
X37.962Y-10.5
X38.022Y-52.18
X38.85Y11.85
X38.85Y-7.2
X38.85Y-26.25
X39.975Y-29.6
X40.038Y8.6
X40.038Y-10.5
X56.26Y-58.362
X56.773Y-54.845
X57.634Y-55.247
X58.14Y-59.238
X58.495Y-55.648
T2
X-1.05Y-32.3
X8.3Y17.8
X8.55Y-1.35
X8.7Y-19.55
X33.75Y-30.5
X33.9Y-11.3
X33.95Y7.8
X46.4Y17.5
X46.85Y-34.3
X46.9Y-33.05
X46.95Y-31.75
X49.0Y7.45
X49.0Y-10.5
X50.0Y6.5
X50.0Y-11.4
X50.7Y-39.45
X50.75Y-37.4
X50.75Y-38.45
X50.9Y5.45
X50.9Y-12.5
X59.55Y-9.03
X59.55Y-11.57
X59.55Y-14.11
X62.2Y18.91
X65.55Y-25.54
X71.125Y-42.325
X73.4Y17.6
T3
X53.135Y21.43
X53.135Y18.89
X53.135Y16.35
X53.135Y13.81
X53.135Y11.27
X53.135Y8.73
X53.135Y6.19
X53.135Y3.65
X53.135Y1.11
X53.135Y-1.43
X53.135Y-3.97
X53.135Y-6.51
X53.135Y-9.05
X53.135Y-11.59
X53.135Y-14.13
X53.135Y-16.67
X53.135Y-19.21
X53.135Y-21.75
X53.135Y-24.29
X53.135Y-26.83
X55.795Y21.45
X55.795Y18.91
X55.795Y16.37
X55.795Y13.83
X55.795Y11.29
X55.795Y8.75
X55.795Y6.21
X55.795Y3.67
X55.795Y1.13
X55.795Y-1.41
X55.795Y-3.95
X55.795Y-6.49
X55.795Y-9.03
X55.795Y-11.57
X55.795Y-14.11
X55.795Y-16.65
X55.795Y-19.19
X55.795Y-21.73
X55.795Y-24.27
X55.795Y-26.81
X68.375Y21.43
X68.375Y18.89
X68.375Y16.35
X68.375Y13.81
X68.375Y11.27
X68.375Y8.73
X68.375Y6.19
X68.375Y3.65
X68.375Y1.11
X68.375Y-1.43
X68.375Y-3.97
X68.375Y-6.51
X68.375Y-9.05
X68.375Y-11.59
X68.375Y-14.13
X68.375Y-16.67
X68.375Y-19.21
X68.375Y-21.75
X68.375Y-24.29
X68.375Y-26.83
X71.035Y21.45
X71.035Y18.91
X71.035Y16.37
X71.035Y13.83
X71.035Y11.29
X71.035Y8.75
X71.035Y6.21
X71.035Y3.67
X71.035Y1.13
X71.035Y-1.41
X71.035Y-3.95
X71.035Y-6.49
X71.035Y-9.03
X71.035Y-11.57
X71.035Y-14.11
X71.035Y-16.65
X71.035Y-19.19
X71.035Y-21.73
X71.035Y-24.27
X71.035Y-26.81
T3
G00X63.41Y-33.97
M15
G01X62.91Y-33.97
M16
G05
G00X63.41Y-36.42
M15
G01X62.91Y-36.42
M16
G05
G00X64.91Y-32.22
M15
G01X64.41Y-32.22
M16
G05
G00X64.91Y-38.17
M15
G01X64.41Y-38.17
M16
G05
G00X68.91Y-32.22
M15
G01X68.41Y-32.22
M16
G05
G00X68.91Y-38.17
M15
G01X68.41Y-38.17
M16
G05
G00X71.91Y-32.22
M15
G01X71.41Y-32.22
M16
G05
G00X71.91Y-38.17
M15
G01X71.41Y-38.17
M16
G05
M30
