%TF.GenerationSoftware,KiCad,Pcbnew,10.0.2-rc1*%
%TF.CreationDate,2026-08-12T02:26:04+09:00*%
%TF.ProjectId,Cantor_he,43616e74-6f72-45f6-9865-2e6b69636164,rev1.6*%
%TF.SameCoordinates,PX78114e0PY44b6550*%
%TF.FileFunction,Paste,Top*%
%TF.FilePolarity,Positive*%
%FSLAX46Y46*%
G04 Gerber Fmt 4.6, Leading zero omitted, Abs format (unit mm)*
G04 Created by KiCad (PCBNEW 10.0.2-rc1) date 2026-08-12 02:26:04*
%MOMM*%
%LPD*%
G01*
G04 APERTURE LIST*
G04 Aperture macros list*
%AMRoundRect*
0 Rectangle with rounded corners*
0 $1 Rounding radius*
0 $2 $3 $4 $5 $6 $7 $8 $9 X,Y pos of 4 corners*
0 Add a 4 corners polygon primitive as box body*
4,1,4,$2,$3,$4,$5,$6,$7,$8,$9,$2,$3,0*
0 Add four circle primitives for the rounded corners*
1,1,$1+$1,$2,$3*
1,1,$1+$1,$4,$5*
1,1,$1+$1,$6,$7*
1,1,$1+$1,$8,$9*
0 Add four rect primitives between the rounded corners*
20,1,$1+$1,$2,$3,$4,$5,0*
20,1,$1+$1,$4,$5,$6,$7,0*
20,1,$1+$1,$6,$7,$8,$9,0*
20,1,$1+$1,$8,$9,$2,$3,0*%
G04 Aperture macros list end*
%ADD10RoundRect,0.150000X-0.150000X0.693750X-0.150000X-0.693750X0.150000X-0.693750X0.150000X0.693750X0*%
%ADD11RoundRect,0.150553X-0.150553X0.692800X-0.150553X-0.692800X0.150553X-0.692800X0.150553X0.692800X0*%
%ADD12RoundRect,0.150000X-0.149999X0.693750X-0.149999X-0.693750X0.149999X-0.693750X0.149999X0.693750X0*%
%ADD13RoundRect,0.250000X-0.337500X-0.475000X0.337500X-0.475000X0.337500X0.475000X-0.337500X0.475000X0*%
%ADD14RoundRect,0.250000X-0.294817X-0.502608X0.377615X-0.443777X0.294817X0.502608X-0.377615X0.443777X0*%
%ADD15RoundRect,0.250000X-0.506623X-0.287863X0.105135X-0.573130X0.506623X0.287863X-0.105135X0.573130X0*%
%ADD16RoundRect,0.150000X-0.825000X-0.150000X0.825000X-0.150000X0.825000X0.150000X-0.825000X0.150000X0*%
%ADD17C,0.600000*%
%ADD18RoundRect,0.150000X-0.209894X0.678037X-0.088965X-0.704183X0.209894X-0.678037X0.088965X0.704183X0*%
%ADD19RoundRect,0.150553X-0.210362X0.677042X-0.089599X-0.703285X0.210362X-0.677042X0.089599X0.703285X0*%
%ADD20RoundRect,0.150000X-0.209893X0.678037X-0.088964X-0.704183X0.209893X-0.678037X0.088964X0.704183X0*%
%ADD21RoundRect,0.250000X0.475000X-0.337500X0.475000X0.337500X-0.475000X0.337500X-0.475000X-0.337500X0*%
%ADD22RoundRect,0.250000X-0.414856X-0.409177X0.249890X-0.526390X0.414856X0.409177X-0.249890X0.526390X0*%
%ADD23RoundRect,0.150000X0.157245X0.692144X-0.429138X-0.565358X-0.157245X-0.692144X0.429138X0.565358X0*%
%ADD24RoundRect,0.150553X0.156343X0.691516X-0.429237X-0.564264X-0.156343X-0.691516X0.429237X0.564264X0*%
%ADD25RoundRect,0.150000X0.157246X0.692143X-0.429137X-0.565359X-0.157246X-0.692143X0.429137X0.565359X0*%
%ADD26RoundRect,0.150000X-0.027253X0.709258X-0.268190X-0.657163X0.027253X-0.709258X0.268190X0.657163X0*%
%ADD27RoundRect,0.150553X-0.027962X0.708418X-0.268569X-0.656132X0.027962X-0.708418X0.268569X0.656132X0*%
%ADD28RoundRect,0.150000X-0.027252X0.709257X-0.268189X-0.657163X0.027252X-0.709257X0.268189X0.657163X0*%
%TA.AperFunction,Profile*%
%ADD29C,0.100000*%
%TD*%
G04 APERTURE END LIST*
D10*
%TO.C,K25*%
X38850000Y-25193750D03*
D11*
X36951115Y-25194147D03*
D12*
X37900001Y-27306250D03*
%TD*%
D13*
%TO.C,C22*%
X-19237500Y-27600000D03*
X-17162500Y-27600000D03*
%TD*%
D10*
%TO.C,K24*%
X19800000Y-23193750D03*
D11*
X17901115Y-23194147D03*
D12*
X18850001Y-25306250D03*
%TD*%
D10*
%TO.C,K21*%
X-37350000Y-35193750D03*
D11*
X-39248885Y-35194147D03*
D12*
X-38299999Y-37306250D03*
%TD*%
D10*
%TO.C,K02*%
X-18300000Y14906250D03*
D11*
X-20198885Y14905853D03*
D12*
X-19249999Y12793750D03*
%TD*%
D10*
%TO.C,K10*%
X-56400000Y-16143750D03*
D11*
X-58298885Y-16144147D03*
D12*
X-57349999Y-18256250D03*
%TD*%
D14*
%TO.C,C30*%
X15166448Y-50890424D03*
X17233552Y-50709576D03*
%TD*%
D10*
%TO.C,K04*%
X19800000Y14906250D03*
D11*
X17901115Y14905853D03*
D12*
X18850001Y12793750D03*
%TD*%
D10*
%TO.C,K12*%
X-18300000Y-4143750D03*
D11*
X-20198885Y-4144147D03*
D12*
X-19249999Y-6256250D03*
%TD*%
D15*
%TO.C,C32*%
X56259706Y-58361534D03*
X58140294Y-59238466D03*
%TD*%
D16*
%TO.C,U2*%
X1100002Y-6205002D03*
D17*
X2075002Y-6205002D03*
X10025004Y-6204996D03*
D16*
X1100005Y-7475004D03*
D17*
X2075002Y-7475004D03*
X10025004Y-7474998D03*
D16*
X1100003Y-8745001D03*
D17*
X2075002Y-8745001D03*
X10025004Y-8744995D03*
D16*
X1100002Y-10015001D03*
D17*
X2075002Y-10015001D03*
X10025004Y-10014995D03*
D16*
X1100002Y-11285000D03*
D17*
X2075002Y-11285000D03*
X10025004Y-11284994D03*
D16*
X1100004Y-12555005D03*
X1100003Y-13825002D03*
X1100003Y-15095001D03*
X6050004Y-15095000D03*
X6050001Y-13824998D03*
X6050003Y-12555001D03*
X6050004Y-11285001D03*
X6050004Y-10015002D03*
X6050002Y-8744997D03*
X6050003Y-7475000D03*
X6050003Y-6205001D03*
%TD*%
D18*
%TO.C,K30*%
X15572519Y-46231641D03*
D19*
X13680894Y-46397536D03*
D20*
X14810251Y-48418901D03*
%TD*%
D16*
%TO.C,U1*%
X1200002Y12874999D03*
D17*
X2175002Y12874999D03*
X10125004Y12875005D03*
D16*
X1200005Y11604997D03*
D17*
X2175002Y11604997D03*
X10125004Y11605003D03*
D16*
X1200003Y10335000D03*
D17*
X2175002Y10335000D03*
X10125004Y10335006D03*
D16*
X1200002Y9065000D03*
D17*
X2175002Y9065000D03*
X10125004Y9065006D03*
D16*
X1200002Y7795001D03*
D17*
X2175002Y7795001D03*
X10125004Y7795007D03*
D16*
X1200004Y6524996D03*
X1200003Y5254999D03*
X1200003Y3985000D03*
X6150004Y3985001D03*
X6150001Y5255003D03*
X6150003Y6525000D03*
X6150004Y7795000D03*
X6150004Y9064999D03*
X6150002Y10335004D03*
X6150003Y11605001D03*
X6150003Y12875000D03*
%TD*%
D13*
%TO.C,C24*%
X18762500Y-27600000D03*
X20837500Y-27600000D03*
%TD*%
%TO.C,C03*%
X-137500Y15600000D03*
X1937500Y15600000D03*
%TD*%
D10*
%TO.C,K01*%
X-37350000Y2906250D03*
D11*
X-39248885Y2905853D03*
D12*
X-38299999Y793750D03*
%TD*%
D13*
%TO.C,C11*%
X-38237500Y-20600000D03*
X-36162500Y-20600000D03*
%TD*%
%TO.C,C14*%
X18762500Y-8600000D03*
X20837500Y-8600000D03*
%TD*%
D21*
%TO.C,CU1*%
X6100000Y14512500D03*
X6100000Y16587500D03*
%TD*%
D10*
%TO.C,K14*%
X19800000Y-4143750D03*
D11*
X17901115Y-4144147D03*
D12*
X18850001Y-6256250D03*
%TD*%
D10*
%TO.C,K23*%
X750000Y-18193750D03*
D11*
X-1148885Y-18194147D03*
D12*
X-199999Y-20306250D03*
%TD*%
D10*
%TO.C,K03*%
X750000Y19906250D03*
D11*
X-1148885Y19905853D03*
D12*
X-199999Y17793750D03*
%TD*%
D13*
%TO.C,C04*%
X18962500Y10600000D03*
X21037500Y10600000D03*
%TD*%
%TO.C,C05*%
X37962500Y8600000D03*
X40037500Y8600000D03*
%TD*%
%TO.C,C23*%
X-237500Y-22600000D03*
X1837500Y-22600000D03*
%TD*%
D16*
%TO.C,U3*%
X1130002Y-25355002D03*
D17*
X2105002Y-25355002D03*
X10055004Y-25354996D03*
D16*
X1130005Y-26625004D03*
D17*
X2105002Y-26625004D03*
X10055004Y-26624998D03*
D16*
X1130003Y-27895001D03*
D17*
X2105002Y-27895001D03*
X10055004Y-27894995D03*
D16*
X1130002Y-29165001D03*
D17*
X2105002Y-29165001D03*
X10055004Y-29164995D03*
D16*
X1130002Y-30435000D03*
D17*
X2105002Y-30435000D03*
X10055004Y-30434994D03*
D16*
X1130004Y-31705005D03*
X1130003Y-32975002D03*
X1130003Y-34245001D03*
X6080004Y-34245000D03*
X6080001Y-32974998D03*
X6080003Y-31705001D03*
X6080004Y-30435001D03*
X6080004Y-29165002D03*
X6080002Y-27894997D03*
X6080003Y-26625000D03*
X6080003Y-25355001D03*
%TD*%
D10*
%TO.C,K22*%
X-18300000Y-23193750D03*
D11*
X-20198885Y-23194147D03*
D12*
X-19249999Y-25306250D03*
%TD*%
D13*
%TO.C,C10*%
X-57337500Y-20550000D03*
X-55262500Y-20550000D03*
%TD*%
%TO.C,C13*%
X-137500Y-3600000D03*
X1937500Y-3600000D03*
%TD*%
%TO.C,C02*%
X-19237500Y10500000D03*
X-17162500Y10500000D03*
%TD*%
D10*
%TO.C,K15*%
X38850000Y-6143750D03*
D11*
X36951115Y-6144147D03*
D12*
X37900001Y-8256250D03*
%TD*%
D13*
%TO.C,C00*%
X-57337500Y-1500000D03*
X-55262500Y-1500000D03*
%TD*%
%TO.C,C25*%
X37900000Y-29600000D03*
X39975000Y-29600000D03*
%TD*%
D21*
%TO.C,CU2*%
X6100000Y-4587500D03*
X6100000Y-2512500D03*
%TD*%
D13*
%TO.C,C15*%
X37962500Y-10500000D03*
X40037500Y-10500000D03*
%TD*%
D22*
%TO.C,C31*%
X35978262Y-51819840D03*
X38021738Y-52180160D03*
%TD*%
D13*
%TO.C,C20*%
X-57237500Y-39600000D03*
X-55162500Y-39600000D03*
%TD*%
D23*
%TO.C,K32*%
X58941598Y-54690938D03*
D24*
X57220456Y-53888794D03*
D25*
X57187825Y-56204026D03*
%TD*%
D10*
%TO.C,K11*%
X-37350000Y-16143750D03*
D11*
X-39248885Y-16144147D03*
D12*
X-38299999Y-18256250D03*
%TD*%
D13*
%TO.C,C01*%
X-38337500Y-1500000D03*
X-36262500Y-1500000D03*
%TD*%
%TO.C,C21*%
X-38237500Y-39600000D03*
X-36162500Y-39600000D03*
%TD*%
D10*
%TO.C,K05*%
X38850000Y12906250D03*
D11*
X36951115Y12905853D03*
D12*
X37900001Y10793750D03*
%TD*%
D10*
%TO.C,K20*%
X-56400000Y-35193750D03*
D11*
X-58298885Y-35194147D03*
D12*
X-57349999Y-37306250D03*
%TD*%
D10*
%TO.C,K13*%
X750000Y856250D03*
D11*
X-1148885Y855853D03*
D12*
X-199999Y-1256250D03*
%TD*%
D10*
%TO.C,K00*%
X-56400000Y2906250D03*
D11*
X-58298885Y2905853D03*
D12*
X-57349999Y793750D03*
%TD*%
D13*
%TO.C,C12*%
X-19237500Y-8600000D03*
X-17162500Y-8600000D03*
%TD*%
D21*
%TO.C,CU3*%
X6100000Y-23737500D03*
X6100000Y-21662500D03*
%TD*%
D26*
%TO.C,K31*%
X37787292Y-47436994D03*
D27*
X35917186Y-47107650D03*
D28*
X36484894Y-49352435D03*
%TD*%
D29*
X-67896552Y11570000D02*
G75*
G02*
X-66660000Y12806552I1236552J0D01*
G01*
X-67896552Y-45533448D02*
X-67896552Y11570000D01*
X-66670000Y-46750000D02*
G75*
G02*
X-67896540Y-45533448I-9900J1216600D01*
G01*
X-66660000Y12806552D02*
X-49851507Y12807782D01*
X-49851507Y12807782D02*
G75*
G02*
X-48624978Y11591230I9907J-1216582D01*
G01*
X-49841592Y-46750040D02*
X-66670000Y-46750000D01*
X-48625040Y-45523488D02*
G75*
G02*
X-49841592Y-46750100I-1216660J-9912D01*
G01*
X-48625040Y-45523488D02*
G75*
G02*
X-48125040Y-45023560I499940J-12D01*
G01*
X-48625000Y-28025000D02*
X-48625040Y-42523488D01*
X-48625000Y-28025000D02*
G75*
G02*
X-48125000Y-27525000I500000J0D01*
G01*
X-48624955Y-8974517D02*
X-48625000Y-25025000D01*
X-48624955Y-8974517D02*
G75*
G02*
X-48124955Y-8474545I499955J17D01*
G01*
X-48624915Y8581270D02*
X-48624955Y-5974517D01*
X-48624915Y8581270D02*
G75*
G02*
X-48124915Y9081215I499915J30D01*
G01*
X-48125040Y-43023488D02*
G75*
G02*
X-48625088Y-42523488I40J500088D01*
G01*
X-48125040Y-45023488D02*
G75*
G02*
X-47624983Y-45533448I-60J-500212D01*
G01*
X-48125000Y-25525000D02*
G75*
G02*
X-48625000Y-25025000I0J500000D01*
G01*
X-48125000Y-27525000D02*
G75*
G02*
X-47625000Y-28025000I0J-500000D01*
G01*
X-48124955Y-6474517D02*
G75*
G02*
X-48625017Y-5974517I55J500117D01*
G01*
X-48124955Y-8474517D02*
G75*
G02*
X-47624917Y-8974517I-45J-500083D01*
G01*
X-48124915Y11081270D02*
G75*
G02*
X-48624933Y11591230I15J500130D01*
G01*
X-48124915Y9081270D02*
G75*
G02*
X-47624930Y8581270I15J-499970D01*
G01*
X-47625040Y-42523488D02*
G75*
G02*
X-48125040Y-43023460I-499960J-12D01*
G01*
X-47625040Y-42523488D02*
X-47625000Y-28025000D01*
X-47625000Y-25025000D02*
G75*
G02*
X-48125000Y-25525000I-500000J0D01*
G01*
X-47625000Y-25025000D02*
X-47624955Y-8974517D01*
X-47624955Y-5974517D02*
G75*
G02*
X-48124955Y-6474445I-500045J117D01*
G01*
X-47624955Y-5974517D02*
X-47624915Y8581270D01*
X-47624915Y11581270D02*
G75*
G02*
X-48124915Y11081215I-499985J-70D01*
G01*
X-47624915Y11581270D02*
G75*
G02*
X-46408363Y12807856I1216615J9930D01*
G01*
X-46408363Y12807822D02*
X-30964374Y12807822D01*
X-46398448Y-46750000D02*
G75*
G02*
X-47624940Y-45533448I-9852J1216600D01*
G01*
X-46398448Y-46750000D02*
X-19400000Y-46750000D01*
X-29730000Y23570000D02*
X-29727822Y14044374D01*
X-29730000Y23570000D02*
G75*
G02*
X-28480000Y24806527I1236600J0D01*
G01*
X-29727822Y14044374D02*
G75*
G02*
X-30964374Y12807822I-1236578J26D01*
G01*
X-28480000Y24806552D02*
X-11910000Y24806552D01*
X-19400000Y-46750000D02*
G75*
G02*
X3790002Y-57089998I809300J-29359600D01*
G01*
X-10673448Y28570000D02*
X-10673448Y26043104D01*
X-10673448Y28570000D02*
G75*
G02*
X-9436896Y29806548I1236548J0D01*
G01*
X-10673448Y26043104D02*
G75*
G02*
X-11910000Y24806548I-1236552J-4D01*
G01*
X-9436896Y29806552D02*
X9530000Y29806552D01*
X7610000Y-58540000D02*
G75*
G02*
X3789969Y-57090030I-380000J4755900D01*
G01*
X9530000Y29806552D02*
G75*
G02*
X10766552Y28570000I0J-1236552D01*
G01*
X10766552Y28570000D02*
X10766552Y25980000D01*
X12003104Y24750000D02*
G75*
G02*
X10766583Y25980000I-6504J1230000D01*
G01*
X12003104Y24750000D02*
X28690000Y24750000D01*
X15940000Y-57820000D02*
X7610000Y-58540000D01*
X15940000Y-57820000D02*
G75*
G02*
X53910001Y-64959998I6272100J-71176300D01*
G01*
X28690000Y24750000D02*
G75*
G02*
X29900008Y23770002I0J-1237000D01*
G01*
X31110000Y22759999D02*
G75*
G02*
X29900001Y23770000I0J1229801D01*
G01*
X53910000Y-64960000D02*
X61613868Y-68641488D01*
X57485000Y10240000D02*
G75*
G02*
X58485000Y11240000I1000200J-200D01*
G01*
X57485000Y4640000D02*
X57485000Y10240000D01*
X58485000Y11240000D02*
X65677893Y11240000D01*
X58485000Y3640000D02*
G75*
G02*
X57485000Y4640000I10000J1010000D01*
G01*
X63630000Y-68110000D02*
G75*
G02*
X61613882Y-68641448I-1393000J1194600D01*
G01*
X63630000Y-68110000D02*
X74248728Y-45663239D01*
X65677893Y11240000D02*
G75*
G02*
X66677900Y10240000I7J-1000000D01*
G01*
X65685000Y3640000D02*
X58485000Y3640000D01*
X66677893Y10240000D02*
X66685000Y4640000D01*
X66685000Y4640000D02*
G75*
G02*
X65685000Y3640000I-1000000J0D01*
G01*
X73670000Y22760000D02*
X31110000Y22760000D01*
X73670000Y22760000D02*
G75*
G02*
X74960028Y21510000I49000J-1240100D01*
G01*
X74960000Y-42840000D02*
G75*
G02*
X74248732Y-45663241I-6436300J120300D01*
G01*
X74960000Y-42840000D02*
X74960000Y21510000D01*
M02*
