%TF.GenerationSoftware,KiCad,Pcbnew,10.0.2-rc1*%
%TF.CreationDate,2026-08-12T02:26:04+09:00*%
%TF.ProjectId,Cantor_he,43616e74-6f72-45f6-9865-2e6b69636164,rev1.6*%
%TF.SameCoordinates,PX78114e0PY44b6550*%
%TF.FileFunction,Legend,Top*%
%TF.FilePolarity,Positive*%
%FSLAX46Y46*%
G04 Gerber Fmt 4.6, Leading zero omitted, Abs format (unit mm)*
G04 Created by KiCad (PCBNEW 10.0.2-rc1) date 2026-08-12 02:26:04*
%MOMM*%
%LPD*%
G01*
G04 APERTURE LIST*
%ADD10C,0.160000*%
%ADD11C,0.150000*%
%ADD12C,0.120000*%
%ADD13C,1.200000*%
%TA.AperFunction,Profile*%
%ADD14C,0.100000*%
%TD*%
G04 APERTURE END LIST*
D10*
X31993358Y-32224299D02*
X31993358Y-31224299D01*
X32564786Y-32224299D02*
X32136215Y-31652870D01*
X32564786Y-31224299D02*
X31993358Y-31795727D01*
X32945739Y-31319537D02*
X32993358Y-31271918D01*
X32993358Y-31271918D02*
X33088596Y-31224299D01*
X33088596Y-31224299D02*
X33326691Y-31224299D01*
X33326691Y-31224299D02*
X33421929Y-31271918D01*
X33421929Y-31271918D02*
X33469548Y-31319537D01*
X33469548Y-31319537D02*
X33517167Y-31414775D01*
X33517167Y-31414775D02*
X33517167Y-31510013D01*
X33517167Y-31510013D02*
X33469548Y-31652870D01*
X33469548Y-31652870D02*
X32898120Y-32224299D01*
X32898120Y-32224299D02*
X33517167Y-32224299D01*
X34421929Y-31224299D02*
X33945739Y-31224299D01*
X33945739Y-31224299D02*
X33898120Y-31700489D01*
X33898120Y-31700489D02*
X33945739Y-31652870D01*
X33945739Y-31652870D02*
X34040977Y-31605251D01*
X34040977Y-31605251D02*
X34279072Y-31605251D01*
X34279072Y-31605251D02*
X34374310Y-31652870D01*
X34374310Y-31652870D02*
X34421929Y-31700489D01*
X34421929Y-31700489D02*
X34469548Y-31795727D01*
X34469548Y-31795727D02*
X34469548Y-32033822D01*
X34469548Y-32033822D02*
X34421929Y-32129060D01*
X34421929Y-32129060D02*
X34374310Y-32176680D01*
X34374310Y-32176680D02*
X34279072Y-32224299D01*
X34279072Y-32224299D02*
X34040977Y-32224299D01*
X34040977Y-32224299D02*
X33945739Y-32176680D01*
X33945739Y-32176680D02*
X33898120Y-32129060D01*
D11*
X-15342858Y-27959580D02*
X-15390477Y-28007200D01*
X-15390477Y-28007200D02*
X-15533334Y-28054819D01*
X-15533334Y-28054819D02*
X-15628572Y-28054819D01*
X-15628572Y-28054819D02*
X-15771429Y-28007200D01*
X-15771429Y-28007200D02*
X-15866667Y-27911961D01*
X-15866667Y-27911961D02*
X-15914286Y-27816723D01*
X-15914286Y-27816723D02*
X-15961905Y-27626247D01*
X-15961905Y-27626247D02*
X-15961905Y-27483390D01*
X-15961905Y-27483390D02*
X-15914286Y-27292914D01*
X-15914286Y-27292914D02*
X-15866667Y-27197676D01*
X-15866667Y-27197676D02*
X-15771429Y-27102438D01*
X-15771429Y-27102438D02*
X-15628572Y-27054819D01*
X-15628572Y-27054819D02*
X-15533334Y-27054819D01*
X-15533334Y-27054819D02*
X-15390477Y-27102438D01*
X-15390477Y-27102438D02*
X-15342858Y-27150057D01*
X-14961905Y-27150057D02*
X-14914286Y-27102438D01*
X-14914286Y-27102438D02*
X-14819048Y-27054819D01*
X-14819048Y-27054819D02*
X-14580953Y-27054819D01*
X-14580953Y-27054819D02*
X-14485715Y-27102438D01*
X-14485715Y-27102438D02*
X-14438096Y-27150057D01*
X-14438096Y-27150057D02*
X-14390477Y-27245295D01*
X-14390477Y-27245295D02*
X-14390477Y-27340533D01*
X-14390477Y-27340533D02*
X-14438096Y-27483390D01*
X-14438096Y-27483390D02*
X-15009524Y-28054819D01*
X-15009524Y-28054819D02*
X-14390477Y-28054819D01*
X-14009524Y-27150057D02*
X-13961905Y-27102438D01*
X-13961905Y-27102438D02*
X-13866667Y-27054819D01*
X-13866667Y-27054819D02*
X-13628572Y-27054819D01*
X-13628572Y-27054819D02*
X-13533334Y-27102438D01*
X-13533334Y-27102438D02*
X-13485715Y-27150057D01*
X-13485715Y-27150057D02*
X-13438096Y-27245295D01*
X-13438096Y-27245295D02*
X-13438096Y-27340533D01*
X-13438096Y-27340533D02*
X-13485715Y-27483390D01*
X-13485715Y-27483390D02*
X-14057143Y-28054819D01*
X-14057143Y-28054819D02*
X-13438096Y-28054819D01*
X70104819Y-43883333D02*
X70819104Y-43883333D01*
X70819104Y-43883333D02*
X70961961Y-43930952D01*
X70961961Y-43930952D02*
X71057200Y-44026190D01*
X71057200Y-44026190D02*
X71104819Y-44169047D01*
X71104819Y-44169047D02*
X71104819Y-44264285D01*
X71104819Y-43407142D02*
X70104819Y-43407142D01*
X70104819Y-43407142D02*
X70104819Y-43026190D01*
X70104819Y-43026190D02*
X70152438Y-42930952D01*
X70152438Y-42930952D02*
X70200057Y-42883333D01*
X70200057Y-42883333D02*
X70295295Y-42835714D01*
X70295295Y-42835714D02*
X70438152Y-42835714D01*
X70438152Y-42835714D02*
X70533390Y-42883333D01*
X70533390Y-42883333D02*
X70581009Y-42930952D01*
X70581009Y-42930952D02*
X70628628Y-43026190D01*
X70628628Y-43026190D02*
X70628628Y-43407142D01*
X71104819Y-41883333D02*
X71104819Y-42454761D01*
X71104819Y-42169047D02*
X70104819Y-42169047D01*
X70104819Y-42169047D02*
X70247676Y-42264285D01*
X70247676Y-42264285D02*
X70342914Y-42359523D01*
X70342914Y-42359523D02*
X70390533Y-42454761D01*
D10*
X12943358Y-30224299D02*
X12943358Y-29224299D01*
X13514786Y-30224299D02*
X13086215Y-29652870D01*
X13514786Y-29224299D02*
X12943358Y-29795727D01*
X13895739Y-29319537D02*
X13943358Y-29271918D01*
X13943358Y-29271918D02*
X14038596Y-29224299D01*
X14038596Y-29224299D02*
X14276691Y-29224299D01*
X14276691Y-29224299D02*
X14371929Y-29271918D01*
X14371929Y-29271918D02*
X14419548Y-29319537D01*
X14419548Y-29319537D02*
X14467167Y-29414775D01*
X14467167Y-29414775D02*
X14467167Y-29510013D01*
X14467167Y-29510013D02*
X14419548Y-29652870D01*
X14419548Y-29652870D02*
X13848120Y-30224299D01*
X13848120Y-30224299D02*
X14467167Y-30224299D01*
X15324310Y-29557632D02*
X15324310Y-30224299D01*
X15086215Y-29176680D02*
X14848120Y-29890965D01*
X14848120Y-29890965D02*
X15467167Y-29890965D01*
X-44206642Y-42224299D02*
X-44206642Y-41224299D01*
X-43635214Y-42224299D02*
X-44063785Y-41652870D01*
X-43635214Y-41224299D02*
X-44206642Y-41795727D01*
X-43254261Y-41319537D02*
X-43206642Y-41271918D01*
X-43206642Y-41271918D02*
X-43111404Y-41224299D01*
X-43111404Y-41224299D02*
X-42873309Y-41224299D01*
X-42873309Y-41224299D02*
X-42778071Y-41271918D01*
X-42778071Y-41271918D02*
X-42730452Y-41319537D01*
X-42730452Y-41319537D02*
X-42682833Y-41414775D01*
X-42682833Y-41414775D02*
X-42682833Y-41510013D01*
X-42682833Y-41510013D02*
X-42730452Y-41652870D01*
X-42730452Y-41652870D02*
X-43301880Y-42224299D01*
X-43301880Y-42224299D02*
X-42682833Y-42224299D01*
X-41730452Y-42224299D02*
X-42301880Y-42224299D01*
X-42016166Y-42224299D02*
X-42016166Y-41224299D01*
X-42016166Y-41224299D02*
X-42111404Y-41367156D01*
X-42111404Y-41367156D02*
X-42206642Y-41462394D01*
X-42206642Y-41462394D02*
X-42301880Y-41510013D01*
X-25156642Y7875701D02*
X-25156642Y8875701D01*
X-24585214Y7875701D02*
X-25013785Y8447130D01*
X-24585214Y8875701D02*
X-25156642Y8304273D01*
X-23966166Y8875701D02*
X-23870928Y8875701D01*
X-23870928Y8875701D02*
X-23775690Y8828082D01*
X-23775690Y8828082D02*
X-23728071Y8780463D01*
X-23728071Y8780463D02*
X-23680452Y8685225D01*
X-23680452Y8685225D02*
X-23632833Y8494749D01*
X-23632833Y8494749D02*
X-23632833Y8256654D01*
X-23632833Y8256654D02*
X-23680452Y8066178D01*
X-23680452Y8066178D02*
X-23728071Y7970940D01*
X-23728071Y7970940D02*
X-23775690Y7923320D01*
X-23775690Y7923320D02*
X-23870928Y7875701D01*
X-23870928Y7875701D02*
X-23966166Y7875701D01*
X-23966166Y7875701D02*
X-24061404Y7923320D01*
X-24061404Y7923320D02*
X-24109023Y7970940D01*
X-24109023Y7970940D02*
X-24156642Y8066178D01*
X-24156642Y8066178D02*
X-24204261Y8256654D01*
X-24204261Y8256654D02*
X-24204261Y8494749D01*
X-24204261Y8494749D02*
X-24156642Y8685225D01*
X-24156642Y8685225D02*
X-24109023Y8780463D01*
X-24109023Y8780463D02*
X-24061404Y8828082D01*
X-24061404Y8828082D02*
X-23966166Y8875701D01*
X-23251880Y8780463D02*
X-23204261Y8828082D01*
X-23204261Y8828082D02*
X-23109023Y8875701D01*
X-23109023Y8875701D02*
X-22870928Y8875701D01*
X-22870928Y8875701D02*
X-22775690Y8828082D01*
X-22775690Y8828082D02*
X-22728071Y8780463D01*
X-22728071Y8780463D02*
X-22680452Y8685225D01*
X-22680452Y8685225D02*
X-22680452Y8589987D01*
X-22680452Y8589987D02*
X-22728071Y8447130D01*
X-22728071Y8447130D02*
X-23299499Y7875701D01*
X-23299499Y7875701D02*
X-22680452Y7875701D01*
X-63256642Y-23174299D02*
X-63256642Y-22174299D01*
X-62685214Y-23174299D02*
X-63113785Y-22602870D01*
X-62685214Y-22174299D02*
X-63256642Y-22745727D01*
X-61732833Y-23174299D02*
X-62304261Y-23174299D01*
X-62018547Y-23174299D02*
X-62018547Y-22174299D01*
X-62018547Y-22174299D02*
X-62113785Y-22317156D01*
X-62113785Y-22317156D02*
X-62209023Y-22412394D01*
X-62209023Y-22412394D02*
X-62304261Y-22460013D01*
X-61113785Y-22174299D02*
X-61018547Y-22174299D01*
X-61018547Y-22174299D02*
X-60923309Y-22221918D01*
X-60923309Y-22221918D02*
X-60875690Y-22269537D01*
X-60875690Y-22269537D02*
X-60828071Y-22364775D01*
X-60828071Y-22364775D02*
X-60780452Y-22555251D01*
X-60780452Y-22555251D02*
X-60780452Y-22793346D01*
X-60780452Y-22793346D02*
X-60828071Y-22983822D01*
X-60828071Y-22983822D02*
X-60875690Y-23079060D01*
X-60875690Y-23079060D02*
X-60923309Y-23126680D01*
X-60923309Y-23126680D02*
X-61018547Y-23174299D01*
X-61018547Y-23174299D02*
X-61113785Y-23174299D01*
X-61113785Y-23174299D02*
X-61209023Y-23126680D01*
X-61209023Y-23126680D02*
X-61256642Y-23079060D01*
X-61256642Y-23079060D02*
X-61304261Y-22983822D01*
X-61304261Y-22983822D02*
X-61351880Y-22793346D01*
X-61351880Y-22793346D02*
X-61351880Y-22555251D01*
X-61351880Y-22555251D02*
X-61304261Y-22364775D01*
X-61304261Y-22364775D02*
X-61256642Y-22269537D01*
X-61256642Y-22269537D02*
X-61209023Y-22221918D01*
X-61209023Y-22221918D02*
X-61113785Y-22174299D01*
D11*
X19077609Y-50909196D02*
X19034322Y-50960784D01*
X19034322Y-50960784D02*
X18896158Y-51020673D01*
X18896158Y-51020673D02*
X18801283Y-51028973D01*
X18801283Y-51028973D02*
X18654819Y-50993986D01*
X18654819Y-50993986D02*
X18551643Y-50907411D01*
X18551643Y-50907411D02*
X18495904Y-50816686D01*
X18495904Y-50816686D02*
X18431865Y-50631084D01*
X18431865Y-50631084D02*
X18419414Y-50488771D01*
X18419414Y-50488771D02*
X18450251Y-50294869D01*
X18450251Y-50294869D02*
X18489388Y-50195843D01*
X18489388Y-50195843D02*
X18575964Y-50092667D01*
X18575964Y-50092667D02*
X18714127Y-50032778D01*
X18714127Y-50032778D02*
X18809003Y-50024478D01*
X18809003Y-50024478D02*
X18955466Y-50059465D01*
X18955466Y-50059465D02*
X19007054Y-50102753D01*
X19330819Y-49978825D02*
X19947511Y-49924871D01*
X19947511Y-49924871D02*
X19648648Y-50333426D01*
X19648648Y-50333426D02*
X19790962Y-50320975D01*
X19790962Y-50320975D02*
X19889988Y-50360112D01*
X19889988Y-50360112D02*
X19941576Y-50403400D01*
X19941576Y-50403400D02*
X19997314Y-50494125D01*
X19997314Y-50494125D02*
X20018065Y-50731315D01*
X20018065Y-50731315D02*
X19978928Y-50830341D01*
X19978928Y-50830341D02*
X19935641Y-50881929D01*
X19935641Y-50881929D02*
X19844915Y-50937667D01*
X19844915Y-50937667D02*
X19560288Y-50962569D01*
X19560288Y-50962569D02*
X19461262Y-50923431D01*
X19461262Y-50923431D02*
X19409674Y-50880144D01*
X20564203Y-49870918D02*
X20659078Y-49862617D01*
X20659078Y-49862617D02*
X20758104Y-49901755D01*
X20758104Y-49901755D02*
X20809693Y-49945042D01*
X20809693Y-49945042D02*
X20865431Y-50035768D01*
X20865431Y-50035768D02*
X20929470Y-50221369D01*
X20929470Y-50221369D02*
X20950221Y-50458558D01*
X20950221Y-50458558D02*
X20919384Y-50652459D01*
X20919384Y-50652459D02*
X20880247Y-50751485D01*
X20880247Y-50751485D02*
X20836960Y-50803074D01*
X20836960Y-50803074D02*
X20746234Y-50858812D01*
X20746234Y-50858812D02*
X20651359Y-50867112D01*
X20651359Y-50867112D02*
X20552333Y-50827975D01*
X20552333Y-50827975D02*
X20500744Y-50784688D01*
X20500744Y-50784688D02*
X20445006Y-50693962D01*
X20445006Y-50693962D02*
X20380967Y-50508361D01*
X20380967Y-50508361D02*
X20360216Y-50271172D01*
X20360216Y-50271172D02*
X20391053Y-50077270D01*
X20391053Y-50077270D02*
X20430190Y-49978244D01*
X20430190Y-49978244D02*
X20473477Y-49926656D01*
X20473477Y-49926656D02*
X20564203Y-49870918D01*
D10*
X12943358Y7875701D02*
X12943358Y8875701D01*
X13514786Y7875701D02*
X13086215Y8447130D01*
X13514786Y8875701D02*
X12943358Y8304273D01*
X14133834Y8875701D02*
X14229072Y8875701D01*
X14229072Y8875701D02*
X14324310Y8828082D01*
X14324310Y8828082D02*
X14371929Y8780463D01*
X14371929Y8780463D02*
X14419548Y8685225D01*
X14419548Y8685225D02*
X14467167Y8494749D01*
X14467167Y8494749D02*
X14467167Y8256654D01*
X14467167Y8256654D02*
X14419548Y8066178D01*
X14419548Y8066178D02*
X14371929Y7970940D01*
X14371929Y7970940D02*
X14324310Y7923320D01*
X14324310Y7923320D02*
X14229072Y7875701D01*
X14229072Y7875701D02*
X14133834Y7875701D01*
X14133834Y7875701D02*
X14038596Y7923320D01*
X14038596Y7923320D02*
X13990977Y7970940D01*
X13990977Y7970940D02*
X13943358Y8066178D01*
X13943358Y8066178D02*
X13895739Y8256654D01*
X13895739Y8256654D02*
X13895739Y8494749D01*
X13895739Y8494749D02*
X13943358Y8685225D01*
X13943358Y8685225D02*
X13990977Y8780463D01*
X13990977Y8780463D02*
X14038596Y8828082D01*
X14038596Y8828082D02*
X14133834Y8875701D01*
X15324310Y8542368D02*
X15324310Y7875701D01*
X15086215Y8923320D02*
X14848120Y8209035D01*
X14848120Y8209035D02*
X15467167Y8209035D01*
X-25156642Y-11174299D02*
X-25156642Y-10174299D01*
X-24585214Y-11174299D02*
X-25013785Y-10602870D01*
X-24585214Y-10174299D02*
X-25156642Y-10745727D01*
X-23632833Y-11174299D02*
X-24204261Y-11174299D01*
X-23918547Y-11174299D02*
X-23918547Y-10174299D01*
X-23918547Y-10174299D02*
X-24013785Y-10317156D01*
X-24013785Y-10317156D02*
X-24109023Y-10412394D01*
X-24109023Y-10412394D02*
X-24204261Y-10460013D01*
X-23251880Y-10269537D02*
X-23204261Y-10221918D01*
X-23204261Y-10221918D02*
X-23109023Y-10174299D01*
X-23109023Y-10174299D02*
X-22870928Y-10174299D01*
X-22870928Y-10174299D02*
X-22775690Y-10221918D01*
X-22775690Y-10221918D02*
X-22728071Y-10269537D01*
X-22728071Y-10269537D02*
X-22680452Y-10364775D01*
X-22680452Y-10364775D02*
X-22680452Y-10460013D01*
X-22680452Y-10460013D02*
X-22728071Y-10602870D01*
X-22728071Y-10602870D02*
X-23299499Y-11174299D01*
X-23299499Y-11174299D02*
X-22680452Y-11174299D01*
D11*
X59637485Y-60333371D02*
X59574202Y-60356404D01*
X59574202Y-60356404D02*
X59424605Y-60339188D01*
X59424605Y-60339188D02*
X59338290Y-60298938D01*
X59338290Y-60298938D02*
X59228942Y-60195407D01*
X59228942Y-60195407D02*
X59182877Y-60068842D01*
X59182877Y-60068842D02*
X59179968Y-59962403D01*
X59179968Y-59962403D02*
X59217310Y-59769648D01*
X59217310Y-59769648D02*
X59277684Y-59640175D01*
X59277684Y-59640175D02*
X59401340Y-59487670D01*
X59401340Y-59487670D02*
X59484747Y-59421480D01*
X59484747Y-59421480D02*
X59611311Y-59375414D01*
X59611311Y-59375414D02*
X59760908Y-59392630D01*
X59760908Y-59392630D02*
X59847223Y-59432880D01*
X59847223Y-59432880D02*
X59956571Y-59536411D01*
X59956571Y-59536411D02*
X59979604Y-59599694D01*
X60321956Y-59654251D02*
X60883004Y-59915872D01*
X60883004Y-59915872D02*
X60419904Y-60120260D01*
X60419904Y-60120260D02*
X60549376Y-60180634D01*
X60549376Y-60180634D02*
X60615567Y-60264040D01*
X60615567Y-60264040D02*
X60638599Y-60327323D01*
X60638599Y-60327323D02*
X60641508Y-60433762D01*
X60641508Y-60433762D02*
X60540884Y-60649550D01*
X60540884Y-60649550D02*
X60457477Y-60715740D01*
X60457477Y-60715740D02*
X60394195Y-60738773D01*
X60394195Y-60738773D02*
X60287755Y-60741681D01*
X60287755Y-60741681D02*
X60028810Y-60620933D01*
X60028810Y-60620933D02*
X59962620Y-60537526D01*
X59962620Y-60537526D02*
X59939587Y-60474244D01*
X61188015Y-60163185D02*
X61251297Y-60140152D01*
X61251297Y-60140152D02*
X61357736Y-60137244D01*
X61357736Y-60137244D02*
X61573524Y-60237867D01*
X61573524Y-60237867D02*
X61639714Y-60321274D01*
X61639714Y-60321274D02*
X61662747Y-60384556D01*
X61662747Y-60384556D02*
X61665655Y-60490996D01*
X61665655Y-60490996D02*
X61625406Y-60577311D01*
X61625406Y-60577311D02*
X61521874Y-60686659D01*
X61521874Y-60686659D02*
X60762488Y-60963053D01*
X60762488Y-60963053D02*
X61323536Y-61224674D01*
X5288099Y-16094820D02*
X5288099Y-16904343D01*
X5288099Y-16904343D02*
X5335718Y-16999581D01*
X5335718Y-16999581D02*
X5383337Y-17047201D01*
X5383337Y-17047201D02*
X5478575Y-17094820D01*
X5478575Y-17094820D02*
X5669051Y-17094820D01*
X5669051Y-17094820D02*
X5764289Y-17047201D01*
X5764289Y-17047201D02*
X5811908Y-16999581D01*
X5811908Y-16999581D02*
X5859527Y-16904343D01*
X5859527Y-16904343D02*
X5859527Y-16094820D01*
X6288099Y-16190058D02*
X6335718Y-16142439D01*
X6335718Y-16142439D02*
X6430956Y-16094820D01*
X6430956Y-16094820D02*
X6669051Y-16094820D01*
X6669051Y-16094820D02*
X6764289Y-16142439D01*
X6764289Y-16142439D02*
X6811908Y-16190058D01*
X6811908Y-16190058D02*
X6859527Y-16285296D01*
X6859527Y-16285296D02*
X6859527Y-16380534D01*
X6859527Y-16380534D02*
X6811908Y-16523391D01*
X6811908Y-16523391D02*
X6240480Y-17094820D01*
X6240480Y-17094820D02*
X6859527Y-17094820D01*
D10*
X9354721Y-53833032D02*
X9267565Y-52836837D01*
X9923975Y-53783229D02*
X9447231Y-53251327D01*
X9836819Y-52787034D02*
X9317368Y-53406092D01*
X10168884Y-52757982D02*
X10785576Y-52704029D01*
X10785576Y-52704029D02*
X10486713Y-53112583D01*
X10486713Y-53112583D02*
X10629027Y-53100133D01*
X10629027Y-53100133D02*
X10728053Y-53139270D01*
X10728053Y-53139270D02*
X10779641Y-53182557D01*
X10779641Y-53182557D02*
X10835379Y-53273283D01*
X10835379Y-53273283D02*
X10856131Y-53510472D01*
X10856131Y-53510472D02*
X10816994Y-53609498D01*
X10816994Y-53609498D02*
X10773706Y-53661086D01*
X10773706Y-53661086D02*
X10682981Y-53716825D01*
X10682981Y-53716825D02*
X10398353Y-53741726D01*
X10398353Y-53741726D02*
X10299328Y-53702589D01*
X10299328Y-53702589D02*
X10247739Y-53659301D01*
X11402268Y-52650075D02*
X11497144Y-52641775D01*
X11497144Y-52641775D02*
X11596170Y-52680912D01*
X11596170Y-52680912D02*
X11647758Y-52724199D01*
X11647758Y-52724199D02*
X11703496Y-52814925D01*
X11703496Y-52814925D02*
X11767535Y-53000526D01*
X11767535Y-53000526D02*
X11788287Y-53237715D01*
X11788287Y-53237715D02*
X11757450Y-53431617D01*
X11757450Y-53431617D02*
X11718313Y-53530643D01*
X11718313Y-53530643D02*
X11675025Y-53582231D01*
X11675025Y-53582231D02*
X11584300Y-53637969D01*
X11584300Y-53637969D02*
X11489424Y-53646270D01*
X11489424Y-53646270D02*
X11390398Y-53607133D01*
X11390398Y-53607133D02*
X11338810Y-53563845D01*
X11338810Y-53563845D02*
X11283071Y-53473120D01*
X11283071Y-53473120D02*
X11219032Y-53287518D01*
X11219032Y-53287518D02*
X11198281Y-53050329D01*
X11198281Y-53050329D02*
X11229118Y-52856428D01*
X11229118Y-52856428D02*
X11268255Y-52757402D01*
X11268255Y-52757402D02*
X11311543Y-52705814D01*
X11311543Y-52705814D02*
X11402268Y-52650075D01*
D11*
X5388099Y2985181D02*
X5388099Y2175658D01*
X5388099Y2175658D02*
X5435718Y2080420D01*
X5435718Y2080420D02*
X5483337Y2032800D01*
X5483337Y2032800D02*
X5578575Y1985181D01*
X5578575Y1985181D02*
X5769051Y1985181D01*
X5769051Y1985181D02*
X5864289Y2032800D01*
X5864289Y2032800D02*
X5911908Y2080420D01*
X5911908Y2080420D02*
X5959527Y2175658D01*
X5959527Y2175658D02*
X5959527Y2985181D01*
X6959527Y1985181D02*
X6388099Y1985181D01*
X6673813Y1985181D02*
X6673813Y2985181D01*
X6673813Y2985181D02*
X6578575Y2842324D01*
X6578575Y2842324D02*
X6483337Y2747086D01*
X6483337Y2747086D02*
X6388099Y2699467D01*
X22657142Y-27959580D02*
X22609523Y-28007200D01*
X22609523Y-28007200D02*
X22466666Y-28054819D01*
X22466666Y-28054819D02*
X22371428Y-28054819D01*
X22371428Y-28054819D02*
X22228571Y-28007200D01*
X22228571Y-28007200D02*
X22133333Y-27911961D01*
X22133333Y-27911961D02*
X22085714Y-27816723D01*
X22085714Y-27816723D02*
X22038095Y-27626247D01*
X22038095Y-27626247D02*
X22038095Y-27483390D01*
X22038095Y-27483390D02*
X22085714Y-27292914D01*
X22085714Y-27292914D02*
X22133333Y-27197676D01*
X22133333Y-27197676D02*
X22228571Y-27102438D01*
X22228571Y-27102438D02*
X22371428Y-27054819D01*
X22371428Y-27054819D02*
X22466666Y-27054819D01*
X22466666Y-27054819D02*
X22609523Y-27102438D01*
X22609523Y-27102438D02*
X22657142Y-27150057D01*
X23038095Y-27150057D02*
X23085714Y-27102438D01*
X23085714Y-27102438D02*
X23180952Y-27054819D01*
X23180952Y-27054819D02*
X23419047Y-27054819D01*
X23419047Y-27054819D02*
X23514285Y-27102438D01*
X23514285Y-27102438D02*
X23561904Y-27150057D01*
X23561904Y-27150057D02*
X23609523Y-27245295D01*
X23609523Y-27245295D02*
X23609523Y-27340533D01*
X23609523Y-27340533D02*
X23561904Y-27483390D01*
X23561904Y-27483390D02*
X22990476Y-28054819D01*
X22990476Y-28054819D02*
X23609523Y-28054819D01*
X24466666Y-27388152D02*
X24466666Y-28054819D01*
X24228571Y-27007200D02*
X23990476Y-27721485D01*
X23990476Y-27721485D02*
X24609523Y-27721485D01*
X3757142Y15240420D02*
X3709523Y15192800D01*
X3709523Y15192800D02*
X3566666Y15145181D01*
X3566666Y15145181D02*
X3471428Y15145181D01*
X3471428Y15145181D02*
X3328571Y15192800D01*
X3328571Y15192800D02*
X3233333Y15288039D01*
X3233333Y15288039D02*
X3185714Y15383277D01*
X3185714Y15383277D02*
X3138095Y15573753D01*
X3138095Y15573753D02*
X3138095Y15716610D01*
X3138095Y15716610D02*
X3185714Y15907086D01*
X3185714Y15907086D02*
X3233333Y16002324D01*
X3233333Y16002324D02*
X3328571Y16097562D01*
X3328571Y16097562D02*
X3471428Y16145181D01*
X3471428Y16145181D02*
X3566666Y16145181D01*
X3566666Y16145181D02*
X3709523Y16097562D01*
X3709523Y16097562D02*
X3757142Y16049943D01*
X4376190Y16145181D02*
X4471428Y16145181D01*
X4471428Y16145181D02*
X4566666Y16097562D01*
X4566666Y16097562D02*
X4614285Y16049943D01*
X4614285Y16049943D02*
X4661904Y15954705D01*
X4661904Y15954705D02*
X4709523Y15764229D01*
X4709523Y15764229D02*
X4709523Y15526134D01*
X4709523Y15526134D02*
X4661904Y15335658D01*
X4661904Y15335658D02*
X4614285Y15240420D01*
X4614285Y15240420D02*
X4566666Y15192800D01*
X4566666Y15192800D02*
X4471428Y15145181D01*
X4471428Y15145181D02*
X4376190Y15145181D01*
X4376190Y15145181D02*
X4280952Y15192800D01*
X4280952Y15192800D02*
X4233333Y15240420D01*
X4233333Y15240420D02*
X4185714Y15335658D01*
X4185714Y15335658D02*
X4138095Y15526134D01*
X4138095Y15526134D02*
X4138095Y15764229D01*
X4138095Y15764229D02*
X4185714Y15954705D01*
X4185714Y15954705D02*
X4233333Y16049943D01*
X4233333Y16049943D02*
X4280952Y16097562D01*
X4280952Y16097562D02*
X4376190Y16145181D01*
X5042857Y16145181D02*
X5661904Y16145181D01*
X5661904Y16145181D02*
X5328571Y15764229D01*
X5328571Y15764229D02*
X5471428Y15764229D01*
X5471428Y15764229D02*
X5566666Y15716610D01*
X5566666Y15716610D02*
X5614285Y15668991D01*
X5614285Y15668991D02*
X5661904Y15573753D01*
X5661904Y15573753D02*
X5661904Y15335658D01*
X5661904Y15335658D02*
X5614285Y15240420D01*
X5614285Y15240420D02*
X5566666Y15192800D01*
X5566666Y15192800D02*
X5471428Y15145181D01*
X5471428Y15145181D02*
X5185714Y15145181D01*
X5185714Y15145181D02*
X5090476Y15192800D01*
X5090476Y15192800D02*
X5042857Y15240420D01*
D10*
X-44206642Y-4124299D02*
X-44206642Y-3124299D01*
X-43635214Y-4124299D02*
X-44063785Y-3552870D01*
X-43635214Y-3124299D02*
X-44206642Y-3695727D01*
X-43016166Y-3124299D02*
X-42920928Y-3124299D01*
X-42920928Y-3124299D02*
X-42825690Y-3171918D01*
X-42825690Y-3171918D02*
X-42778071Y-3219537D01*
X-42778071Y-3219537D02*
X-42730452Y-3314775D01*
X-42730452Y-3314775D02*
X-42682833Y-3505251D01*
X-42682833Y-3505251D02*
X-42682833Y-3743346D01*
X-42682833Y-3743346D02*
X-42730452Y-3933822D01*
X-42730452Y-3933822D02*
X-42778071Y-4029060D01*
X-42778071Y-4029060D02*
X-42825690Y-4076680D01*
X-42825690Y-4076680D02*
X-42920928Y-4124299D01*
X-42920928Y-4124299D02*
X-43016166Y-4124299D01*
X-43016166Y-4124299D02*
X-43111404Y-4076680D01*
X-43111404Y-4076680D02*
X-43159023Y-4029060D01*
X-43159023Y-4029060D02*
X-43206642Y-3933822D01*
X-43206642Y-3933822D02*
X-43254261Y-3743346D01*
X-43254261Y-3743346D02*
X-43254261Y-3505251D01*
X-43254261Y-3505251D02*
X-43206642Y-3314775D01*
X-43206642Y-3314775D02*
X-43159023Y-3219537D01*
X-43159023Y-3219537D02*
X-43111404Y-3171918D01*
X-43111404Y-3171918D02*
X-43016166Y-3124299D01*
X-41730452Y-4124299D02*
X-42301880Y-4124299D01*
X-42016166Y-4124299D02*
X-42016166Y-3124299D01*
X-42016166Y-3124299D02*
X-42111404Y-3267156D01*
X-42111404Y-3267156D02*
X-42206642Y-3362394D01*
X-42206642Y-3362394D02*
X-42301880Y-3410013D01*
D11*
X-34342858Y-20959580D02*
X-34390477Y-21007200D01*
X-34390477Y-21007200D02*
X-34533334Y-21054819D01*
X-34533334Y-21054819D02*
X-34628572Y-21054819D01*
X-34628572Y-21054819D02*
X-34771429Y-21007200D01*
X-34771429Y-21007200D02*
X-34866667Y-20911961D01*
X-34866667Y-20911961D02*
X-34914286Y-20816723D01*
X-34914286Y-20816723D02*
X-34961905Y-20626247D01*
X-34961905Y-20626247D02*
X-34961905Y-20483390D01*
X-34961905Y-20483390D02*
X-34914286Y-20292914D01*
X-34914286Y-20292914D02*
X-34866667Y-20197676D01*
X-34866667Y-20197676D02*
X-34771429Y-20102438D01*
X-34771429Y-20102438D02*
X-34628572Y-20054819D01*
X-34628572Y-20054819D02*
X-34533334Y-20054819D01*
X-34533334Y-20054819D02*
X-34390477Y-20102438D01*
X-34390477Y-20102438D02*
X-34342858Y-20150057D01*
X-33390477Y-21054819D02*
X-33961905Y-21054819D01*
X-33676191Y-21054819D02*
X-33676191Y-20054819D01*
X-33676191Y-20054819D02*
X-33771429Y-20197676D01*
X-33771429Y-20197676D02*
X-33866667Y-20292914D01*
X-33866667Y-20292914D02*
X-33961905Y-20340533D01*
X-32438096Y-21054819D02*
X-33009524Y-21054819D01*
X-32723810Y-21054819D02*
X-32723810Y-20054819D01*
X-32723810Y-20054819D02*
X-32819048Y-20197676D01*
X-32819048Y-20197676D02*
X-32914286Y-20292914D01*
X-32914286Y-20292914D02*
X-33009524Y-20340533D01*
X22657142Y-8959580D02*
X22609523Y-9007200D01*
X22609523Y-9007200D02*
X22466666Y-9054819D01*
X22466666Y-9054819D02*
X22371428Y-9054819D01*
X22371428Y-9054819D02*
X22228571Y-9007200D01*
X22228571Y-9007200D02*
X22133333Y-8911961D01*
X22133333Y-8911961D02*
X22085714Y-8816723D01*
X22085714Y-8816723D02*
X22038095Y-8626247D01*
X22038095Y-8626247D02*
X22038095Y-8483390D01*
X22038095Y-8483390D02*
X22085714Y-8292914D01*
X22085714Y-8292914D02*
X22133333Y-8197676D01*
X22133333Y-8197676D02*
X22228571Y-8102438D01*
X22228571Y-8102438D02*
X22371428Y-8054819D01*
X22371428Y-8054819D02*
X22466666Y-8054819D01*
X22466666Y-8054819D02*
X22609523Y-8102438D01*
X22609523Y-8102438D02*
X22657142Y-8150057D01*
X23609523Y-9054819D02*
X23038095Y-9054819D01*
X23323809Y-9054819D02*
X23323809Y-8054819D01*
X23323809Y-8054819D02*
X23228571Y-8197676D01*
X23228571Y-8197676D02*
X23133333Y-8292914D01*
X23133333Y-8292914D02*
X23038095Y-8340533D01*
X24466666Y-8388152D02*
X24466666Y-9054819D01*
X24228571Y-8007200D02*
X23990476Y-8721485D01*
X23990476Y-8721485D02*
X24609523Y-8721485D01*
X6459580Y18359524D02*
X6507200Y18311905D01*
X6507200Y18311905D02*
X6554819Y18169048D01*
X6554819Y18169048D02*
X6554819Y18073810D01*
X6554819Y18073810D02*
X6507200Y17930953D01*
X6507200Y17930953D02*
X6411961Y17835715D01*
X6411961Y17835715D02*
X6316723Y17788096D01*
X6316723Y17788096D02*
X6126247Y17740477D01*
X6126247Y17740477D02*
X5983390Y17740477D01*
X5983390Y17740477D02*
X5792914Y17788096D01*
X5792914Y17788096D02*
X5697676Y17835715D01*
X5697676Y17835715D02*
X5602438Y17930953D01*
X5602438Y17930953D02*
X5554819Y18073810D01*
X5554819Y18073810D02*
X5554819Y18169048D01*
X5554819Y18169048D02*
X5602438Y18311905D01*
X5602438Y18311905D02*
X5650057Y18359524D01*
X5554819Y18788096D02*
X6364342Y18788096D01*
X6364342Y18788096D02*
X6459580Y18835715D01*
X6459580Y18835715D02*
X6507200Y18883334D01*
X6507200Y18883334D02*
X6554819Y18978572D01*
X6554819Y18978572D02*
X6554819Y19169048D01*
X6554819Y19169048D02*
X6507200Y19264286D01*
X6507200Y19264286D02*
X6459580Y19311905D01*
X6459580Y19311905D02*
X6364342Y19359524D01*
X6364342Y19359524D02*
X5554819Y19359524D01*
X6554819Y20359524D02*
X6554819Y19788096D01*
X6554819Y20073810D02*
X5554819Y20073810D01*
X5554819Y20073810D02*
X5697676Y19978572D01*
X5697676Y19978572D02*
X5792914Y19883334D01*
X5792914Y19883334D02*
X5840533Y19788096D01*
D10*
X12943358Y-11174299D02*
X12943358Y-10174299D01*
X13514786Y-11174299D02*
X13086215Y-10602870D01*
X13514786Y-10174299D02*
X12943358Y-10745727D01*
X14467167Y-11174299D02*
X13895739Y-11174299D01*
X14181453Y-11174299D02*
X14181453Y-10174299D01*
X14181453Y-10174299D02*
X14086215Y-10317156D01*
X14086215Y-10317156D02*
X13990977Y-10412394D01*
X13990977Y-10412394D02*
X13895739Y-10460013D01*
X15324310Y-10507632D02*
X15324310Y-11174299D01*
X15086215Y-10126680D02*
X14848120Y-10840965D01*
X14848120Y-10840965D02*
X15467167Y-10840965D01*
X-6106642Y-25224299D02*
X-6106642Y-24224299D01*
X-5535214Y-25224299D02*
X-5963785Y-24652870D01*
X-5535214Y-24224299D02*
X-6106642Y-24795727D01*
X-5154261Y-24319537D02*
X-5106642Y-24271918D01*
X-5106642Y-24271918D02*
X-5011404Y-24224299D01*
X-5011404Y-24224299D02*
X-4773309Y-24224299D01*
X-4773309Y-24224299D02*
X-4678071Y-24271918D01*
X-4678071Y-24271918D02*
X-4630452Y-24319537D01*
X-4630452Y-24319537D02*
X-4582833Y-24414775D01*
X-4582833Y-24414775D02*
X-4582833Y-24510013D01*
X-4582833Y-24510013D02*
X-4630452Y-24652870D01*
X-4630452Y-24652870D02*
X-5201880Y-25224299D01*
X-5201880Y-25224299D02*
X-4582833Y-25224299D01*
X-4249499Y-24224299D02*
X-3630452Y-24224299D01*
X-3630452Y-24224299D02*
X-3963785Y-24605251D01*
X-3963785Y-24605251D02*
X-3820928Y-24605251D01*
X-3820928Y-24605251D02*
X-3725690Y-24652870D01*
X-3725690Y-24652870D02*
X-3678071Y-24700489D01*
X-3678071Y-24700489D02*
X-3630452Y-24795727D01*
X-3630452Y-24795727D02*
X-3630452Y-25033822D01*
X-3630452Y-25033822D02*
X-3678071Y-25129060D01*
X-3678071Y-25129060D02*
X-3725690Y-25176680D01*
X-3725690Y-25176680D02*
X-3820928Y-25224299D01*
X-3820928Y-25224299D02*
X-4106642Y-25224299D01*
X-4106642Y-25224299D02*
X-4201880Y-25176680D01*
X-4201880Y-25176680D02*
X-4249499Y-25129060D01*
X-6106642Y12875701D02*
X-6106642Y13875701D01*
X-5535214Y12875701D02*
X-5963785Y13447130D01*
X-5535214Y13875701D02*
X-6106642Y13304273D01*
X-4916166Y13875701D02*
X-4820928Y13875701D01*
X-4820928Y13875701D02*
X-4725690Y13828082D01*
X-4725690Y13828082D02*
X-4678071Y13780463D01*
X-4678071Y13780463D02*
X-4630452Y13685225D01*
X-4630452Y13685225D02*
X-4582833Y13494749D01*
X-4582833Y13494749D02*
X-4582833Y13256654D01*
X-4582833Y13256654D02*
X-4630452Y13066178D01*
X-4630452Y13066178D02*
X-4678071Y12970940D01*
X-4678071Y12970940D02*
X-4725690Y12923320D01*
X-4725690Y12923320D02*
X-4820928Y12875701D01*
X-4820928Y12875701D02*
X-4916166Y12875701D01*
X-4916166Y12875701D02*
X-5011404Y12923320D01*
X-5011404Y12923320D02*
X-5059023Y12970940D01*
X-5059023Y12970940D02*
X-5106642Y13066178D01*
X-5106642Y13066178D02*
X-5154261Y13256654D01*
X-5154261Y13256654D02*
X-5154261Y13494749D01*
X-5154261Y13494749D02*
X-5106642Y13685225D01*
X-5106642Y13685225D02*
X-5059023Y13780463D01*
X-5059023Y13780463D02*
X-5011404Y13828082D01*
X-5011404Y13828082D02*
X-4916166Y13875701D01*
X-4249499Y13875701D02*
X-3630452Y13875701D01*
X-3630452Y13875701D02*
X-3963785Y13494749D01*
X-3963785Y13494749D02*
X-3820928Y13494749D01*
X-3820928Y13494749D02*
X-3725690Y13447130D01*
X-3725690Y13447130D02*
X-3678071Y13399511D01*
X-3678071Y13399511D02*
X-3630452Y13304273D01*
X-3630452Y13304273D02*
X-3630452Y13066178D01*
X-3630452Y13066178D02*
X-3678071Y12970940D01*
X-3678071Y12970940D02*
X-3725690Y12923320D01*
X-3725690Y12923320D02*
X-3820928Y12875701D01*
X-3820928Y12875701D02*
X-4106642Y12875701D01*
X-4106642Y12875701D02*
X-4201880Y12923320D01*
X-4201880Y12923320D02*
X-4249499Y12970940D01*
D11*
X22857142Y10240420D02*
X22809523Y10192800D01*
X22809523Y10192800D02*
X22666666Y10145181D01*
X22666666Y10145181D02*
X22571428Y10145181D01*
X22571428Y10145181D02*
X22428571Y10192800D01*
X22428571Y10192800D02*
X22333333Y10288039D01*
X22333333Y10288039D02*
X22285714Y10383277D01*
X22285714Y10383277D02*
X22238095Y10573753D01*
X22238095Y10573753D02*
X22238095Y10716610D01*
X22238095Y10716610D02*
X22285714Y10907086D01*
X22285714Y10907086D02*
X22333333Y11002324D01*
X22333333Y11002324D02*
X22428571Y11097562D01*
X22428571Y11097562D02*
X22571428Y11145181D01*
X22571428Y11145181D02*
X22666666Y11145181D01*
X22666666Y11145181D02*
X22809523Y11097562D01*
X22809523Y11097562D02*
X22857142Y11049943D01*
X23476190Y11145181D02*
X23571428Y11145181D01*
X23571428Y11145181D02*
X23666666Y11097562D01*
X23666666Y11097562D02*
X23714285Y11049943D01*
X23714285Y11049943D02*
X23761904Y10954705D01*
X23761904Y10954705D02*
X23809523Y10764229D01*
X23809523Y10764229D02*
X23809523Y10526134D01*
X23809523Y10526134D02*
X23761904Y10335658D01*
X23761904Y10335658D02*
X23714285Y10240420D01*
X23714285Y10240420D02*
X23666666Y10192800D01*
X23666666Y10192800D02*
X23571428Y10145181D01*
X23571428Y10145181D02*
X23476190Y10145181D01*
X23476190Y10145181D02*
X23380952Y10192800D01*
X23380952Y10192800D02*
X23333333Y10240420D01*
X23333333Y10240420D02*
X23285714Y10335658D01*
X23285714Y10335658D02*
X23238095Y10526134D01*
X23238095Y10526134D02*
X23238095Y10764229D01*
X23238095Y10764229D02*
X23285714Y10954705D01*
X23285714Y10954705D02*
X23333333Y11049943D01*
X23333333Y11049943D02*
X23380952Y11097562D01*
X23380952Y11097562D02*
X23476190Y11145181D01*
X24666666Y10811848D02*
X24666666Y10145181D01*
X24428571Y11192800D02*
X24190476Y10478515D01*
X24190476Y10478515D02*
X24809523Y10478515D01*
X41857142Y8240420D02*
X41809523Y8192800D01*
X41809523Y8192800D02*
X41666666Y8145181D01*
X41666666Y8145181D02*
X41571428Y8145181D01*
X41571428Y8145181D02*
X41428571Y8192800D01*
X41428571Y8192800D02*
X41333333Y8288039D01*
X41333333Y8288039D02*
X41285714Y8383277D01*
X41285714Y8383277D02*
X41238095Y8573753D01*
X41238095Y8573753D02*
X41238095Y8716610D01*
X41238095Y8716610D02*
X41285714Y8907086D01*
X41285714Y8907086D02*
X41333333Y9002324D01*
X41333333Y9002324D02*
X41428571Y9097562D01*
X41428571Y9097562D02*
X41571428Y9145181D01*
X41571428Y9145181D02*
X41666666Y9145181D01*
X41666666Y9145181D02*
X41809523Y9097562D01*
X41809523Y9097562D02*
X41857142Y9049943D01*
X42476190Y9145181D02*
X42571428Y9145181D01*
X42571428Y9145181D02*
X42666666Y9097562D01*
X42666666Y9097562D02*
X42714285Y9049943D01*
X42714285Y9049943D02*
X42761904Y8954705D01*
X42761904Y8954705D02*
X42809523Y8764229D01*
X42809523Y8764229D02*
X42809523Y8526134D01*
X42809523Y8526134D02*
X42761904Y8335658D01*
X42761904Y8335658D02*
X42714285Y8240420D01*
X42714285Y8240420D02*
X42666666Y8192800D01*
X42666666Y8192800D02*
X42571428Y8145181D01*
X42571428Y8145181D02*
X42476190Y8145181D01*
X42476190Y8145181D02*
X42380952Y8192800D01*
X42380952Y8192800D02*
X42333333Y8240420D01*
X42333333Y8240420D02*
X42285714Y8335658D01*
X42285714Y8335658D02*
X42238095Y8526134D01*
X42238095Y8526134D02*
X42238095Y8764229D01*
X42238095Y8764229D02*
X42285714Y8954705D01*
X42285714Y8954705D02*
X42333333Y9049943D01*
X42333333Y9049943D02*
X42380952Y9097562D01*
X42380952Y9097562D02*
X42476190Y9145181D01*
X43714285Y9145181D02*
X43238095Y9145181D01*
X43238095Y9145181D02*
X43190476Y8668991D01*
X43190476Y8668991D02*
X43238095Y8716610D01*
X43238095Y8716610D02*
X43333333Y8764229D01*
X43333333Y8764229D02*
X43571428Y8764229D01*
X43571428Y8764229D02*
X43666666Y8716610D01*
X43666666Y8716610D02*
X43714285Y8668991D01*
X43714285Y8668991D02*
X43761904Y8573753D01*
X43761904Y8573753D02*
X43761904Y8335658D01*
X43761904Y8335658D02*
X43714285Y8240420D01*
X43714285Y8240420D02*
X43666666Y8192800D01*
X43666666Y8192800D02*
X43571428Y8145181D01*
X43571428Y8145181D02*
X43333333Y8145181D01*
X43333333Y8145181D02*
X43238095Y8192800D01*
X43238095Y8192800D02*
X43190476Y8240420D01*
X3657142Y-22959580D02*
X3609523Y-23007200D01*
X3609523Y-23007200D02*
X3466666Y-23054819D01*
X3466666Y-23054819D02*
X3371428Y-23054819D01*
X3371428Y-23054819D02*
X3228571Y-23007200D01*
X3228571Y-23007200D02*
X3133333Y-22911961D01*
X3133333Y-22911961D02*
X3085714Y-22816723D01*
X3085714Y-22816723D02*
X3038095Y-22626247D01*
X3038095Y-22626247D02*
X3038095Y-22483390D01*
X3038095Y-22483390D02*
X3085714Y-22292914D01*
X3085714Y-22292914D02*
X3133333Y-22197676D01*
X3133333Y-22197676D02*
X3228571Y-22102438D01*
X3228571Y-22102438D02*
X3371428Y-22054819D01*
X3371428Y-22054819D02*
X3466666Y-22054819D01*
X3466666Y-22054819D02*
X3609523Y-22102438D01*
X3609523Y-22102438D02*
X3657142Y-22150057D01*
X4038095Y-22150057D02*
X4085714Y-22102438D01*
X4085714Y-22102438D02*
X4180952Y-22054819D01*
X4180952Y-22054819D02*
X4419047Y-22054819D01*
X4419047Y-22054819D02*
X4514285Y-22102438D01*
X4514285Y-22102438D02*
X4561904Y-22150057D01*
X4561904Y-22150057D02*
X4609523Y-22245295D01*
X4609523Y-22245295D02*
X4609523Y-22340533D01*
X4609523Y-22340533D02*
X4561904Y-22483390D01*
X4561904Y-22483390D02*
X3990476Y-23054819D01*
X3990476Y-23054819D02*
X4609523Y-23054819D01*
X4942857Y-22054819D02*
X5561904Y-22054819D01*
X5561904Y-22054819D02*
X5228571Y-22435771D01*
X5228571Y-22435771D02*
X5371428Y-22435771D01*
X5371428Y-22435771D02*
X5466666Y-22483390D01*
X5466666Y-22483390D02*
X5514285Y-22531009D01*
X5514285Y-22531009D02*
X5561904Y-22626247D01*
X5561904Y-22626247D02*
X5561904Y-22864342D01*
X5561904Y-22864342D02*
X5514285Y-22959580D01*
X5514285Y-22959580D02*
X5466666Y-23007200D01*
X5466666Y-23007200D02*
X5371428Y-23054819D01*
X5371428Y-23054819D02*
X5085714Y-23054819D01*
X5085714Y-23054819D02*
X4990476Y-23007200D01*
X4990476Y-23007200D02*
X4942857Y-22959580D01*
X5318099Y-35244820D02*
X5318099Y-36054343D01*
X5318099Y-36054343D02*
X5365718Y-36149581D01*
X5365718Y-36149581D02*
X5413337Y-36197201D01*
X5413337Y-36197201D02*
X5508575Y-36244820D01*
X5508575Y-36244820D02*
X5699051Y-36244820D01*
X5699051Y-36244820D02*
X5794289Y-36197201D01*
X5794289Y-36197201D02*
X5841908Y-36149581D01*
X5841908Y-36149581D02*
X5889527Y-36054343D01*
X5889527Y-36054343D02*
X5889527Y-35244820D01*
X6270480Y-35244820D02*
X6889527Y-35244820D01*
X6889527Y-35244820D02*
X6556194Y-35625772D01*
X6556194Y-35625772D02*
X6699051Y-35625772D01*
X6699051Y-35625772D02*
X6794289Y-35673391D01*
X6794289Y-35673391D02*
X6841908Y-35721010D01*
X6841908Y-35721010D02*
X6889527Y-35816248D01*
X6889527Y-35816248D02*
X6889527Y-36054343D01*
X6889527Y-36054343D02*
X6841908Y-36149581D01*
X6841908Y-36149581D02*
X6794289Y-36197201D01*
X6794289Y-36197201D02*
X6699051Y-36244820D01*
X6699051Y-36244820D02*
X6413337Y-36244820D01*
X6413337Y-36244820D02*
X6318099Y-36197201D01*
X6318099Y-36197201D02*
X6270480Y-36149581D01*
D10*
X-25156642Y-30224299D02*
X-25156642Y-29224299D01*
X-24585214Y-30224299D02*
X-25013785Y-29652870D01*
X-24585214Y-29224299D02*
X-25156642Y-29795727D01*
X-24204261Y-29319537D02*
X-24156642Y-29271918D01*
X-24156642Y-29271918D02*
X-24061404Y-29224299D01*
X-24061404Y-29224299D02*
X-23823309Y-29224299D01*
X-23823309Y-29224299D02*
X-23728071Y-29271918D01*
X-23728071Y-29271918D02*
X-23680452Y-29319537D01*
X-23680452Y-29319537D02*
X-23632833Y-29414775D01*
X-23632833Y-29414775D02*
X-23632833Y-29510013D01*
X-23632833Y-29510013D02*
X-23680452Y-29652870D01*
X-23680452Y-29652870D02*
X-24251880Y-30224299D01*
X-24251880Y-30224299D02*
X-23632833Y-30224299D01*
X-23251880Y-29319537D02*
X-23204261Y-29271918D01*
X-23204261Y-29271918D02*
X-23109023Y-29224299D01*
X-23109023Y-29224299D02*
X-22870928Y-29224299D01*
X-22870928Y-29224299D02*
X-22775690Y-29271918D01*
X-22775690Y-29271918D02*
X-22728071Y-29319537D01*
X-22728071Y-29319537D02*
X-22680452Y-29414775D01*
X-22680452Y-29414775D02*
X-22680452Y-29510013D01*
X-22680452Y-29510013D02*
X-22728071Y-29652870D01*
X-22728071Y-29652870D02*
X-23299499Y-30224299D01*
X-23299499Y-30224299D02*
X-22680452Y-30224299D01*
D11*
X-53442858Y-20909580D02*
X-53490477Y-20957200D01*
X-53490477Y-20957200D02*
X-53633334Y-21004819D01*
X-53633334Y-21004819D02*
X-53728572Y-21004819D01*
X-53728572Y-21004819D02*
X-53871429Y-20957200D01*
X-53871429Y-20957200D02*
X-53966667Y-20861961D01*
X-53966667Y-20861961D02*
X-54014286Y-20766723D01*
X-54014286Y-20766723D02*
X-54061905Y-20576247D01*
X-54061905Y-20576247D02*
X-54061905Y-20433390D01*
X-54061905Y-20433390D02*
X-54014286Y-20242914D01*
X-54014286Y-20242914D02*
X-53966667Y-20147676D01*
X-53966667Y-20147676D02*
X-53871429Y-20052438D01*
X-53871429Y-20052438D02*
X-53728572Y-20004819D01*
X-53728572Y-20004819D02*
X-53633334Y-20004819D01*
X-53633334Y-20004819D02*
X-53490477Y-20052438D01*
X-53490477Y-20052438D02*
X-53442858Y-20100057D01*
X-52490477Y-21004819D02*
X-53061905Y-21004819D01*
X-52776191Y-21004819D02*
X-52776191Y-20004819D01*
X-52776191Y-20004819D02*
X-52871429Y-20147676D01*
X-52871429Y-20147676D02*
X-52966667Y-20242914D01*
X-52966667Y-20242914D02*
X-53061905Y-20290533D01*
X-51871429Y-20004819D02*
X-51776191Y-20004819D01*
X-51776191Y-20004819D02*
X-51680953Y-20052438D01*
X-51680953Y-20052438D02*
X-51633334Y-20100057D01*
X-51633334Y-20100057D02*
X-51585715Y-20195295D01*
X-51585715Y-20195295D02*
X-51538096Y-20385771D01*
X-51538096Y-20385771D02*
X-51538096Y-20623866D01*
X-51538096Y-20623866D02*
X-51585715Y-20814342D01*
X-51585715Y-20814342D02*
X-51633334Y-20909580D01*
X-51633334Y-20909580D02*
X-51680953Y-20957200D01*
X-51680953Y-20957200D02*
X-51776191Y-21004819D01*
X-51776191Y-21004819D02*
X-51871429Y-21004819D01*
X-51871429Y-21004819D02*
X-51966667Y-20957200D01*
X-51966667Y-20957200D02*
X-52014286Y-20909580D01*
X-52014286Y-20909580D02*
X-52061905Y-20814342D01*
X-52061905Y-20814342D02*
X-52109524Y-20623866D01*
X-52109524Y-20623866D02*
X-52109524Y-20385771D01*
X-52109524Y-20385771D02*
X-52061905Y-20195295D01*
X-52061905Y-20195295D02*
X-52014286Y-20100057D01*
X-52014286Y-20100057D02*
X-51966667Y-20052438D01*
X-51966667Y-20052438D02*
X-51871429Y-20004819D01*
X3757142Y-3959580D02*
X3709523Y-4007200D01*
X3709523Y-4007200D02*
X3566666Y-4054819D01*
X3566666Y-4054819D02*
X3471428Y-4054819D01*
X3471428Y-4054819D02*
X3328571Y-4007200D01*
X3328571Y-4007200D02*
X3233333Y-3911961D01*
X3233333Y-3911961D02*
X3185714Y-3816723D01*
X3185714Y-3816723D02*
X3138095Y-3626247D01*
X3138095Y-3626247D02*
X3138095Y-3483390D01*
X3138095Y-3483390D02*
X3185714Y-3292914D01*
X3185714Y-3292914D02*
X3233333Y-3197676D01*
X3233333Y-3197676D02*
X3328571Y-3102438D01*
X3328571Y-3102438D02*
X3471428Y-3054819D01*
X3471428Y-3054819D02*
X3566666Y-3054819D01*
X3566666Y-3054819D02*
X3709523Y-3102438D01*
X3709523Y-3102438D02*
X3757142Y-3150057D01*
X4709523Y-4054819D02*
X4138095Y-4054819D01*
X4423809Y-4054819D02*
X4423809Y-3054819D01*
X4423809Y-3054819D02*
X4328571Y-3197676D01*
X4328571Y-3197676D02*
X4233333Y-3292914D01*
X4233333Y-3292914D02*
X4138095Y-3340533D01*
X5042857Y-3054819D02*
X5661904Y-3054819D01*
X5661904Y-3054819D02*
X5328571Y-3435771D01*
X5328571Y-3435771D02*
X5471428Y-3435771D01*
X5471428Y-3435771D02*
X5566666Y-3483390D01*
X5566666Y-3483390D02*
X5614285Y-3531009D01*
X5614285Y-3531009D02*
X5661904Y-3626247D01*
X5661904Y-3626247D02*
X5661904Y-3864342D01*
X5661904Y-3864342D02*
X5614285Y-3959580D01*
X5614285Y-3959580D02*
X5566666Y-4007200D01*
X5566666Y-4007200D02*
X5471428Y-4054819D01*
X5471428Y-4054819D02*
X5185714Y-4054819D01*
X5185714Y-4054819D02*
X5090476Y-4007200D01*
X5090476Y-4007200D02*
X5042857Y-3959580D01*
X-15342858Y10140420D02*
X-15390477Y10092800D01*
X-15390477Y10092800D02*
X-15533334Y10045181D01*
X-15533334Y10045181D02*
X-15628572Y10045181D01*
X-15628572Y10045181D02*
X-15771429Y10092800D01*
X-15771429Y10092800D02*
X-15866667Y10188039D01*
X-15866667Y10188039D02*
X-15914286Y10283277D01*
X-15914286Y10283277D02*
X-15961905Y10473753D01*
X-15961905Y10473753D02*
X-15961905Y10616610D01*
X-15961905Y10616610D02*
X-15914286Y10807086D01*
X-15914286Y10807086D02*
X-15866667Y10902324D01*
X-15866667Y10902324D02*
X-15771429Y10997562D01*
X-15771429Y10997562D02*
X-15628572Y11045181D01*
X-15628572Y11045181D02*
X-15533334Y11045181D01*
X-15533334Y11045181D02*
X-15390477Y10997562D01*
X-15390477Y10997562D02*
X-15342858Y10949943D01*
X-14723810Y11045181D02*
X-14628572Y11045181D01*
X-14628572Y11045181D02*
X-14533334Y10997562D01*
X-14533334Y10997562D02*
X-14485715Y10949943D01*
X-14485715Y10949943D02*
X-14438096Y10854705D01*
X-14438096Y10854705D02*
X-14390477Y10664229D01*
X-14390477Y10664229D02*
X-14390477Y10426134D01*
X-14390477Y10426134D02*
X-14438096Y10235658D01*
X-14438096Y10235658D02*
X-14485715Y10140420D01*
X-14485715Y10140420D02*
X-14533334Y10092800D01*
X-14533334Y10092800D02*
X-14628572Y10045181D01*
X-14628572Y10045181D02*
X-14723810Y10045181D01*
X-14723810Y10045181D02*
X-14819048Y10092800D01*
X-14819048Y10092800D02*
X-14866667Y10140420D01*
X-14866667Y10140420D02*
X-14914286Y10235658D01*
X-14914286Y10235658D02*
X-14961905Y10426134D01*
X-14961905Y10426134D02*
X-14961905Y10664229D01*
X-14961905Y10664229D02*
X-14914286Y10854705D01*
X-14914286Y10854705D02*
X-14866667Y10949943D01*
X-14866667Y10949943D02*
X-14819048Y10997562D01*
X-14819048Y10997562D02*
X-14723810Y11045181D01*
X-14009524Y10949943D02*
X-13961905Y10997562D01*
X-13961905Y10997562D02*
X-13866667Y11045181D01*
X-13866667Y11045181D02*
X-13628572Y11045181D01*
X-13628572Y11045181D02*
X-13533334Y10997562D01*
X-13533334Y10997562D02*
X-13485715Y10949943D01*
X-13485715Y10949943D02*
X-13438096Y10854705D01*
X-13438096Y10854705D02*
X-13438096Y10759467D01*
X-13438096Y10759467D02*
X-13485715Y10616610D01*
X-13485715Y10616610D02*
X-14057143Y10045181D01*
X-14057143Y10045181D02*
X-13438096Y10045181D01*
D10*
X31993358Y-13174299D02*
X31993358Y-12174299D01*
X32564786Y-13174299D02*
X32136215Y-12602870D01*
X32564786Y-12174299D02*
X31993358Y-12745727D01*
X33517167Y-13174299D02*
X32945739Y-13174299D01*
X33231453Y-13174299D02*
X33231453Y-12174299D01*
X33231453Y-12174299D02*
X33136215Y-12317156D01*
X33136215Y-12317156D02*
X33040977Y-12412394D01*
X33040977Y-12412394D02*
X32945739Y-12460013D01*
X34421929Y-12174299D02*
X33945739Y-12174299D01*
X33945739Y-12174299D02*
X33898120Y-12650489D01*
X33898120Y-12650489D02*
X33945739Y-12602870D01*
X33945739Y-12602870D02*
X34040977Y-12555251D01*
X34040977Y-12555251D02*
X34279072Y-12555251D01*
X34279072Y-12555251D02*
X34374310Y-12602870D01*
X34374310Y-12602870D02*
X34421929Y-12650489D01*
X34421929Y-12650489D02*
X34469548Y-12745727D01*
X34469548Y-12745727D02*
X34469548Y-12983822D01*
X34469548Y-12983822D02*
X34421929Y-13079060D01*
X34421929Y-13079060D02*
X34374310Y-13126680D01*
X34374310Y-13126680D02*
X34279072Y-13174299D01*
X34279072Y-13174299D02*
X34040977Y-13174299D01*
X34040977Y-13174299D02*
X33945739Y-13126680D01*
X33945739Y-13126680D02*
X33898120Y-13079060D01*
D11*
X-53442858Y-1859580D02*
X-53490477Y-1907200D01*
X-53490477Y-1907200D02*
X-53633334Y-1954819D01*
X-53633334Y-1954819D02*
X-53728572Y-1954819D01*
X-53728572Y-1954819D02*
X-53871429Y-1907200D01*
X-53871429Y-1907200D02*
X-53966667Y-1811961D01*
X-53966667Y-1811961D02*
X-54014286Y-1716723D01*
X-54014286Y-1716723D02*
X-54061905Y-1526247D01*
X-54061905Y-1526247D02*
X-54061905Y-1383390D01*
X-54061905Y-1383390D02*
X-54014286Y-1192914D01*
X-54014286Y-1192914D02*
X-53966667Y-1097676D01*
X-53966667Y-1097676D02*
X-53871429Y-1002438D01*
X-53871429Y-1002438D02*
X-53728572Y-954819D01*
X-53728572Y-954819D02*
X-53633334Y-954819D01*
X-53633334Y-954819D02*
X-53490477Y-1002438D01*
X-53490477Y-1002438D02*
X-53442858Y-1050057D01*
X-52823810Y-954819D02*
X-52728572Y-954819D01*
X-52728572Y-954819D02*
X-52633334Y-1002438D01*
X-52633334Y-1002438D02*
X-52585715Y-1050057D01*
X-52585715Y-1050057D02*
X-52538096Y-1145295D01*
X-52538096Y-1145295D02*
X-52490477Y-1335771D01*
X-52490477Y-1335771D02*
X-52490477Y-1573866D01*
X-52490477Y-1573866D02*
X-52538096Y-1764342D01*
X-52538096Y-1764342D02*
X-52585715Y-1859580D01*
X-52585715Y-1859580D02*
X-52633334Y-1907200D01*
X-52633334Y-1907200D02*
X-52728572Y-1954819D01*
X-52728572Y-1954819D02*
X-52823810Y-1954819D01*
X-52823810Y-1954819D02*
X-52919048Y-1907200D01*
X-52919048Y-1907200D02*
X-52966667Y-1859580D01*
X-52966667Y-1859580D02*
X-53014286Y-1764342D01*
X-53014286Y-1764342D02*
X-53061905Y-1573866D01*
X-53061905Y-1573866D02*
X-53061905Y-1335771D01*
X-53061905Y-1335771D02*
X-53014286Y-1145295D01*
X-53014286Y-1145295D02*
X-52966667Y-1050057D01*
X-52966667Y-1050057D02*
X-52919048Y-1002438D01*
X-52919048Y-1002438D02*
X-52823810Y-954819D01*
X-51871429Y-954819D02*
X-51776191Y-954819D01*
X-51776191Y-954819D02*
X-51680953Y-1002438D01*
X-51680953Y-1002438D02*
X-51633334Y-1050057D01*
X-51633334Y-1050057D02*
X-51585715Y-1145295D01*
X-51585715Y-1145295D02*
X-51538096Y-1335771D01*
X-51538096Y-1335771D02*
X-51538096Y-1573866D01*
X-51538096Y-1573866D02*
X-51585715Y-1764342D01*
X-51585715Y-1764342D02*
X-51633334Y-1859580D01*
X-51633334Y-1859580D02*
X-51680953Y-1907200D01*
X-51680953Y-1907200D02*
X-51776191Y-1954819D01*
X-51776191Y-1954819D02*
X-51871429Y-1954819D01*
X-51871429Y-1954819D02*
X-51966667Y-1907200D01*
X-51966667Y-1907200D02*
X-52014286Y-1859580D01*
X-52014286Y-1859580D02*
X-52061905Y-1764342D01*
X-52061905Y-1764342D02*
X-52109524Y-1573866D01*
X-52109524Y-1573866D02*
X-52109524Y-1335771D01*
X-52109524Y-1335771D02*
X-52061905Y-1145295D01*
X-52061905Y-1145295D02*
X-52014286Y-1050057D01*
X-52014286Y-1050057D02*
X-51966667Y-1002438D01*
X-51966667Y-1002438D02*
X-51871429Y-954819D01*
X41794642Y-29959580D02*
X41747023Y-30007200D01*
X41747023Y-30007200D02*
X41604166Y-30054819D01*
X41604166Y-30054819D02*
X41508928Y-30054819D01*
X41508928Y-30054819D02*
X41366071Y-30007200D01*
X41366071Y-30007200D02*
X41270833Y-29911961D01*
X41270833Y-29911961D02*
X41223214Y-29816723D01*
X41223214Y-29816723D02*
X41175595Y-29626247D01*
X41175595Y-29626247D02*
X41175595Y-29483390D01*
X41175595Y-29483390D02*
X41223214Y-29292914D01*
X41223214Y-29292914D02*
X41270833Y-29197676D01*
X41270833Y-29197676D02*
X41366071Y-29102438D01*
X41366071Y-29102438D02*
X41508928Y-29054819D01*
X41508928Y-29054819D02*
X41604166Y-29054819D01*
X41604166Y-29054819D02*
X41747023Y-29102438D01*
X41747023Y-29102438D02*
X41794642Y-29150057D01*
X42175595Y-29150057D02*
X42223214Y-29102438D01*
X42223214Y-29102438D02*
X42318452Y-29054819D01*
X42318452Y-29054819D02*
X42556547Y-29054819D01*
X42556547Y-29054819D02*
X42651785Y-29102438D01*
X42651785Y-29102438D02*
X42699404Y-29150057D01*
X42699404Y-29150057D02*
X42747023Y-29245295D01*
X42747023Y-29245295D02*
X42747023Y-29340533D01*
X42747023Y-29340533D02*
X42699404Y-29483390D01*
X42699404Y-29483390D02*
X42127976Y-30054819D01*
X42127976Y-30054819D02*
X42747023Y-30054819D01*
X43651785Y-29054819D02*
X43175595Y-29054819D01*
X43175595Y-29054819D02*
X43127976Y-29531009D01*
X43127976Y-29531009D02*
X43175595Y-29483390D01*
X43175595Y-29483390D02*
X43270833Y-29435771D01*
X43270833Y-29435771D02*
X43508928Y-29435771D01*
X43508928Y-29435771D02*
X43604166Y-29483390D01*
X43604166Y-29483390D02*
X43651785Y-29531009D01*
X43651785Y-29531009D02*
X43699404Y-29626247D01*
X43699404Y-29626247D02*
X43699404Y-29864342D01*
X43699404Y-29864342D02*
X43651785Y-29959580D01*
X43651785Y-29959580D02*
X43604166Y-30007200D01*
X43604166Y-30007200D02*
X43508928Y-30054819D01*
X43508928Y-30054819D02*
X43270833Y-30054819D01*
X43270833Y-30054819D02*
X43175595Y-30007200D01*
X43175595Y-30007200D02*
X43127976Y-29959580D01*
X6459580Y-740476D02*
X6507200Y-788095D01*
X6507200Y-788095D02*
X6554819Y-930952D01*
X6554819Y-930952D02*
X6554819Y-1026190D01*
X6554819Y-1026190D02*
X6507200Y-1169047D01*
X6507200Y-1169047D02*
X6411961Y-1264285D01*
X6411961Y-1264285D02*
X6316723Y-1311904D01*
X6316723Y-1311904D02*
X6126247Y-1359523D01*
X6126247Y-1359523D02*
X5983390Y-1359523D01*
X5983390Y-1359523D02*
X5792914Y-1311904D01*
X5792914Y-1311904D02*
X5697676Y-1264285D01*
X5697676Y-1264285D02*
X5602438Y-1169047D01*
X5602438Y-1169047D02*
X5554819Y-1026190D01*
X5554819Y-1026190D02*
X5554819Y-930952D01*
X5554819Y-930952D02*
X5602438Y-788095D01*
X5602438Y-788095D02*
X5650057Y-740476D01*
X5554819Y-311904D02*
X6364342Y-311904D01*
X6364342Y-311904D02*
X6459580Y-264285D01*
X6459580Y-264285D02*
X6507200Y-216666D01*
X6507200Y-216666D02*
X6554819Y-121428D01*
X6554819Y-121428D02*
X6554819Y69048D01*
X6554819Y69048D02*
X6507200Y164286D01*
X6507200Y164286D02*
X6459580Y211905D01*
X6459580Y211905D02*
X6364342Y259524D01*
X6364342Y259524D02*
X5554819Y259524D01*
X5650057Y688096D02*
X5602438Y735715D01*
X5602438Y735715D02*
X5554819Y830953D01*
X5554819Y830953D02*
X5554819Y1069048D01*
X5554819Y1069048D02*
X5602438Y1164286D01*
X5602438Y1164286D02*
X5650057Y1211905D01*
X5650057Y1211905D02*
X5745295Y1259524D01*
X5745295Y1259524D02*
X5840533Y1259524D01*
X5840533Y1259524D02*
X5983390Y1211905D01*
X5983390Y1211905D02*
X6554819Y640477D01*
X6554819Y640477D02*
X6554819Y1259524D01*
X41857142Y-10859580D02*
X41809523Y-10907200D01*
X41809523Y-10907200D02*
X41666666Y-10954819D01*
X41666666Y-10954819D02*
X41571428Y-10954819D01*
X41571428Y-10954819D02*
X41428571Y-10907200D01*
X41428571Y-10907200D02*
X41333333Y-10811961D01*
X41333333Y-10811961D02*
X41285714Y-10716723D01*
X41285714Y-10716723D02*
X41238095Y-10526247D01*
X41238095Y-10526247D02*
X41238095Y-10383390D01*
X41238095Y-10383390D02*
X41285714Y-10192914D01*
X41285714Y-10192914D02*
X41333333Y-10097676D01*
X41333333Y-10097676D02*
X41428571Y-10002438D01*
X41428571Y-10002438D02*
X41571428Y-9954819D01*
X41571428Y-9954819D02*
X41666666Y-9954819D01*
X41666666Y-9954819D02*
X41809523Y-10002438D01*
X41809523Y-10002438D02*
X41857142Y-10050057D01*
X42809523Y-10954819D02*
X42238095Y-10954819D01*
X42523809Y-10954819D02*
X42523809Y-9954819D01*
X42523809Y-9954819D02*
X42428571Y-10097676D01*
X42428571Y-10097676D02*
X42333333Y-10192914D01*
X42333333Y-10192914D02*
X42238095Y-10240533D01*
X43714285Y-9954819D02*
X43238095Y-9954819D01*
X43238095Y-9954819D02*
X43190476Y-10431009D01*
X43190476Y-10431009D02*
X43238095Y-10383390D01*
X43238095Y-10383390D02*
X43333333Y-10335771D01*
X43333333Y-10335771D02*
X43571428Y-10335771D01*
X43571428Y-10335771D02*
X43666666Y-10383390D01*
X43666666Y-10383390D02*
X43714285Y-10431009D01*
X43714285Y-10431009D02*
X43761904Y-10526247D01*
X43761904Y-10526247D02*
X43761904Y-10764342D01*
X43761904Y-10764342D02*
X43714285Y-10859580D01*
X43714285Y-10859580D02*
X43666666Y-10907200D01*
X43666666Y-10907200D02*
X43571428Y-10954819D01*
X43571428Y-10954819D02*
X43333333Y-10954819D01*
X43333333Y-10954819D02*
X43238095Y-10907200D01*
X43238095Y-10907200D02*
X43190476Y-10859580D01*
X39751295Y-52850256D02*
X39696131Y-52888882D01*
X39696131Y-52888882D02*
X39547175Y-52910971D01*
X39547175Y-52910971D02*
X39453384Y-52894433D01*
X39453384Y-52894433D02*
X39320966Y-52822731D01*
X39320966Y-52822731D02*
X39243712Y-52712401D01*
X39243712Y-52712401D02*
X39213355Y-52610341D01*
X39213355Y-52610341D02*
X39199535Y-52414490D01*
X39199535Y-52414490D02*
X39224342Y-52273803D01*
X39224342Y-52273803D02*
X39304313Y-52094490D01*
X39304313Y-52094490D02*
X39367747Y-52008967D01*
X39367747Y-52008967D02*
X39478076Y-51931714D01*
X39478076Y-51931714D02*
X39627032Y-51909625D01*
X39627032Y-51909625D02*
X39720823Y-51926163D01*
X39720823Y-51926163D02*
X39853241Y-51997866D01*
X39853241Y-51997866D02*
X39891868Y-52053030D01*
X40236675Y-52017122D02*
X40846318Y-52124618D01*
X40846318Y-52124618D02*
X40451897Y-52441900D01*
X40451897Y-52441900D02*
X40592583Y-52466707D01*
X40592583Y-52466707D02*
X40678106Y-52530141D01*
X40678106Y-52530141D02*
X40716732Y-52585305D01*
X40716732Y-52585305D02*
X40747090Y-52687366D01*
X40747090Y-52687366D02*
X40705745Y-52921844D01*
X40705745Y-52921844D02*
X40642312Y-53007366D01*
X40642312Y-53007366D02*
X40587147Y-53045993D01*
X40587147Y-53045993D02*
X40485087Y-53076350D01*
X40485087Y-53076350D02*
X40203713Y-53026736D01*
X40203713Y-53026736D02*
X40118191Y-52963303D01*
X40118191Y-52963303D02*
X40079564Y-52908138D01*
X41610582Y-53274805D02*
X41047834Y-53175578D01*
X41329208Y-53225192D02*
X41502856Y-52240384D01*
X41502856Y-52240384D02*
X41384258Y-52364533D01*
X41384258Y-52364533D02*
X41273929Y-52441786D01*
X41273929Y-52441786D02*
X41171869Y-52472144D01*
X-53342858Y-39959580D02*
X-53390477Y-40007200D01*
X-53390477Y-40007200D02*
X-53533334Y-40054819D01*
X-53533334Y-40054819D02*
X-53628572Y-40054819D01*
X-53628572Y-40054819D02*
X-53771429Y-40007200D01*
X-53771429Y-40007200D02*
X-53866667Y-39911961D01*
X-53866667Y-39911961D02*
X-53914286Y-39816723D01*
X-53914286Y-39816723D02*
X-53961905Y-39626247D01*
X-53961905Y-39626247D02*
X-53961905Y-39483390D01*
X-53961905Y-39483390D02*
X-53914286Y-39292914D01*
X-53914286Y-39292914D02*
X-53866667Y-39197676D01*
X-53866667Y-39197676D02*
X-53771429Y-39102438D01*
X-53771429Y-39102438D02*
X-53628572Y-39054819D01*
X-53628572Y-39054819D02*
X-53533334Y-39054819D01*
X-53533334Y-39054819D02*
X-53390477Y-39102438D01*
X-53390477Y-39102438D02*
X-53342858Y-39150057D01*
X-52961905Y-39150057D02*
X-52914286Y-39102438D01*
X-52914286Y-39102438D02*
X-52819048Y-39054819D01*
X-52819048Y-39054819D02*
X-52580953Y-39054819D01*
X-52580953Y-39054819D02*
X-52485715Y-39102438D01*
X-52485715Y-39102438D02*
X-52438096Y-39150057D01*
X-52438096Y-39150057D02*
X-52390477Y-39245295D01*
X-52390477Y-39245295D02*
X-52390477Y-39340533D01*
X-52390477Y-39340533D02*
X-52438096Y-39483390D01*
X-52438096Y-39483390D02*
X-53009524Y-40054819D01*
X-53009524Y-40054819D02*
X-52390477Y-40054819D01*
X-51771429Y-39054819D02*
X-51676191Y-39054819D01*
X-51676191Y-39054819D02*
X-51580953Y-39102438D01*
X-51580953Y-39102438D02*
X-51533334Y-39150057D01*
X-51533334Y-39150057D02*
X-51485715Y-39245295D01*
X-51485715Y-39245295D02*
X-51438096Y-39435771D01*
X-51438096Y-39435771D02*
X-51438096Y-39673866D01*
X-51438096Y-39673866D02*
X-51485715Y-39864342D01*
X-51485715Y-39864342D02*
X-51533334Y-39959580D01*
X-51533334Y-39959580D02*
X-51580953Y-40007200D01*
X-51580953Y-40007200D02*
X-51676191Y-40054819D01*
X-51676191Y-40054819D02*
X-51771429Y-40054819D01*
X-51771429Y-40054819D02*
X-51866667Y-40007200D01*
X-51866667Y-40007200D02*
X-51914286Y-39959580D01*
X-51914286Y-39959580D02*
X-51961905Y-39864342D01*
X-51961905Y-39864342D02*
X-52009524Y-39673866D01*
X-52009524Y-39673866D02*
X-52009524Y-39435771D01*
X-52009524Y-39435771D02*
X-51961905Y-39245295D01*
X-51961905Y-39245295D02*
X-51914286Y-39150057D01*
X-51914286Y-39150057D02*
X-51866667Y-39102438D01*
X-51866667Y-39102438D02*
X-51771429Y-39054819D01*
D10*
X49756131Y-58165037D02*
X50178749Y-57258729D01*
X50274021Y-58406533D02*
X50127099Y-57707521D01*
X50696639Y-57500225D02*
X49937253Y-57776619D01*
X50998742Y-57641098D02*
X51559789Y-57902719D01*
X51559789Y-57902719D02*
X51096689Y-58107106D01*
X51096689Y-58107106D02*
X51226162Y-58167480D01*
X51226162Y-58167480D02*
X51292352Y-58250887D01*
X51292352Y-58250887D02*
X51315385Y-58314169D01*
X51315385Y-58314169D02*
X51318293Y-58420609D01*
X51318293Y-58420609D02*
X51217670Y-58636396D01*
X51217670Y-58636396D02*
X51134263Y-58702587D01*
X51134263Y-58702587D02*
X51070981Y-58725620D01*
X51070981Y-58725620D02*
X50964541Y-58728528D01*
X50964541Y-58728528D02*
X50705596Y-58607780D01*
X50705596Y-58607780D02*
X50639406Y-58524373D01*
X50639406Y-58524373D02*
X50616373Y-58461091D01*
X51864800Y-58150031D02*
X51928082Y-58126998D01*
X51928082Y-58126998D02*
X52034522Y-58124090D01*
X52034522Y-58124090D02*
X52250310Y-58224714D01*
X52250310Y-58224714D02*
X52316500Y-58308120D01*
X52316500Y-58308120D02*
X52339533Y-58371403D01*
X52339533Y-58371403D02*
X52342441Y-58477842D01*
X52342441Y-58477842D02*
X52302192Y-58564157D01*
X52302192Y-58564157D02*
X52198660Y-58673505D01*
X52198660Y-58673505D02*
X51439274Y-58949899D01*
X51439274Y-58949899D02*
X52000321Y-59211520D01*
X-44206642Y-23174299D02*
X-44206642Y-22174299D01*
X-43635214Y-23174299D02*
X-44063785Y-22602870D01*
X-43635214Y-22174299D02*
X-44206642Y-22745727D01*
X-42682833Y-23174299D02*
X-43254261Y-23174299D01*
X-42968547Y-23174299D02*
X-42968547Y-22174299D01*
X-42968547Y-22174299D02*
X-43063785Y-22317156D01*
X-43063785Y-22317156D02*
X-43159023Y-22412394D01*
X-43159023Y-22412394D02*
X-43254261Y-22460013D01*
X-41730452Y-23174299D02*
X-42301880Y-23174299D01*
X-42016166Y-23174299D02*
X-42016166Y-22174299D01*
X-42016166Y-22174299D02*
X-42111404Y-22317156D01*
X-42111404Y-22317156D02*
X-42206642Y-22412394D01*
X-42206642Y-22412394D02*
X-42301880Y-22460013D01*
D11*
X60491667Y20995181D02*
X60491667Y21995181D01*
X60491667Y21995181D02*
X60825000Y21280896D01*
X60825000Y21280896D02*
X61158333Y21995181D01*
X61158333Y21995181D02*
X61158333Y20995181D01*
X62205952Y21090420D02*
X62158333Y21042800D01*
X62158333Y21042800D02*
X62015476Y20995181D01*
X62015476Y20995181D02*
X61920238Y20995181D01*
X61920238Y20995181D02*
X61777381Y21042800D01*
X61777381Y21042800D02*
X61682143Y21138039D01*
X61682143Y21138039D02*
X61634524Y21233277D01*
X61634524Y21233277D02*
X61586905Y21423753D01*
X61586905Y21423753D02*
X61586905Y21566610D01*
X61586905Y21566610D02*
X61634524Y21757086D01*
X61634524Y21757086D02*
X61682143Y21852324D01*
X61682143Y21852324D02*
X61777381Y21947562D01*
X61777381Y21947562D02*
X61920238Y21995181D01*
X61920238Y21995181D02*
X62015476Y21995181D01*
X62015476Y21995181D02*
X62158333Y21947562D01*
X62158333Y21947562D02*
X62205952Y21899943D01*
X62634524Y21995181D02*
X62634524Y21185658D01*
X62634524Y21185658D02*
X62682143Y21090420D01*
X62682143Y21090420D02*
X62729762Y21042800D01*
X62729762Y21042800D02*
X62825000Y20995181D01*
X62825000Y20995181D02*
X63015476Y20995181D01*
X63015476Y20995181D02*
X63110714Y21042800D01*
X63110714Y21042800D02*
X63158333Y21090420D01*
X63158333Y21090420D02*
X63205952Y21185658D01*
X63205952Y21185658D02*
X63205952Y21995181D01*
X64205952Y20995181D02*
X63634524Y20995181D01*
X63920238Y20995181D02*
X63920238Y21995181D01*
X63920238Y21995181D02*
X63825000Y21852324D01*
X63825000Y21852324D02*
X63729762Y21757086D01*
X63729762Y21757086D02*
X63634524Y21709467D01*
X-34442858Y-1859580D02*
X-34490477Y-1907200D01*
X-34490477Y-1907200D02*
X-34633334Y-1954819D01*
X-34633334Y-1954819D02*
X-34728572Y-1954819D01*
X-34728572Y-1954819D02*
X-34871429Y-1907200D01*
X-34871429Y-1907200D02*
X-34966667Y-1811961D01*
X-34966667Y-1811961D02*
X-35014286Y-1716723D01*
X-35014286Y-1716723D02*
X-35061905Y-1526247D01*
X-35061905Y-1526247D02*
X-35061905Y-1383390D01*
X-35061905Y-1383390D02*
X-35014286Y-1192914D01*
X-35014286Y-1192914D02*
X-34966667Y-1097676D01*
X-34966667Y-1097676D02*
X-34871429Y-1002438D01*
X-34871429Y-1002438D02*
X-34728572Y-954819D01*
X-34728572Y-954819D02*
X-34633334Y-954819D01*
X-34633334Y-954819D02*
X-34490477Y-1002438D01*
X-34490477Y-1002438D02*
X-34442858Y-1050057D01*
X-33823810Y-954819D02*
X-33728572Y-954819D01*
X-33728572Y-954819D02*
X-33633334Y-1002438D01*
X-33633334Y-1002438D02*
X-33585715Y-1050057D01*
X-33585715Y-1050057D02*
X-33538096Y-1145295D01*
X-33538096Y-1145295D02*
X-33490477Y-1335771D01*
X-33490477Y-1335771D02*
X-33490477Y-1573866D01*
X-33490477Y-1573866D02*
X-33538096Y-1764342D01*
X-33538096Y-1764342D02*
X-33585715Y-1859580D01*
X-33585715Y-1859580D02*
X-33633334Y-1907200D01*
X-33633334Y-1907200D02*
X-33728572Y-1954819D01*
X-33728572Y-1954819D02*
X-33823810Y-1954819D01*
X-33823810Y-1954819D02*
X-33919048Y-1907200D01*
X-33919048Y-1907200D02*
X-33966667Y-1859580D01*
X-33966667Y-1859580D02*
X-34014286Y-1764342D01*
X-34014286Y-1764342D02*
X-34061905Y-1573866D01*
X-34061905Y-1573866D02*
X-34061905Y-1335771D01*
X-34061905Y-1335771D02*
X-34014286Y-1145295D01*
X-34014286Y-1145295D02*
X-33966667Y-1050057D01*
X-33966667Y-1050057D02*
X-33919048Y-1002438D01*
X-33919048Y-1002438D02*
X-33823810Y-954819D01*
X-32538096Y-1954819D02*
X-33109524Y-1954819D01*
X-32823810Y-1954819D02*
X-32823810Y-954819D01*
X-32823810Y-954819D02*
X-32919048Y-1097676D01*
X-32919048Y-1097676D02*
X-33014286Y-1192914D01*
X-33014286Y-1192914D02*
X-33109524Y-1240533D01*
X-34342858Y-39959580D02*
X-34390477Y-40007200D01*
X-34390477Y-40007200D02*
X-34533334Y-40054819D01*
X-34533334Y-40054819D02*
X-34628572Y-40054819D01*
X-34628572Y-40054819D02*
X-34771429Y-40007200D01*
X-34771429Y-40007200D02*
X-34866667Y-39911961D01*
X-34866667Y-39911961D02*
X-34914286Y-39816723D01*
X-34914286Y-39816723D02*
X-34961905Y-39626247D01*
X-34961905Y-39626247D02*
X-34961905Y-39483390D01*
X-34961905Y-39483390D02*
X-34914286Y-39292914D01*
X-34914286Y-39292914D02*
X-34866667Y-39197676D01*
X-34866667Y-39197676D02*
X-34771429Y-39102438D01*
X-34771429Y-39102438D02*
X-34628572Y-39054819D01*
X-34628572Y-39054819D02*
X-34533334Y-39054819D01*
X-34533334Y-39054819D02*
X-34390477Y-39102438D01*
X-34390477Y-39102438D02*
X-34342858Y-39150057D01*
X-33961905Y-39150057D02*
X-33914286Y-39102438D01*
X-33914286Y-39102438D02*
X-33819048Y-39054819D01*
X-33819048Y-39054819D02*
X-33580953Y-39054819D01*
X-33580953Y-39054819D02*
X-33485715Y-39102438D01*
X-33485715Y-39102438D02*
X-33438096Y-39150057D01*
X-33438096Y-39150057D02*
X-33390477Y-39245295D01*
X-33390477Y-39245295D02*
X-33390477Y-39340533D01*
X-33390477Y-39340533D02*
X-33438096Y-39483390D01*
X-33438096Y-39483390D02*
X-34009524Y-40054819D01*
X-34009524Y-40054819D02*
X-33390477Y-40054819D01*
X-32438096Y-40054819D02*
X-33009524Y-40054819D01*
X-32723810Y-40054819D02*
X-32723810Y-39054819D01*
X-32723810Y-39054819D02*
X-32819048Y-39197676D01*
X-32819048Y-39197676D02*
X-32914286Y-39292914D01*
X-32914286Y-39292914D02*
X-33009524Y-39340533D01*
D10*
X31993358Y5875701D02*
X31993358Y6875701D01*
X32564786Y5875701D02*
X32136215Y6447130D01*
X32564786Y6875701D02*
X31993358Y6304273D01*
X33183834Y6875701D02*
X33279072Y6875701D01*
X33279072Y6875701D02*
X33374310Y6828082D01*
X33374310Y6828082D02*
X33421929Y6780463D01*
X33421929Y6780463D02*
X33469548Y6685225D01*
X33469548Y6685225D02*
X33517167Y6494749D01*
X33517167Y6494749D02*
X33517167Y6256654D01*
X33517167Y6256654D02*
X33469548Y6066178D01*
X33469548Y6066178D02*
X33421929Y5970940D01*
X33421929Y5970940D02*
X33374310Y5923320D01*
X33374310Y5923320D02*
X33279072Y5875701D01*
X33279072Y5875701D02*
X33183834Y5875701D01*
X33183834Y5875701D02*
X33088596Y5923320D01*
X33088596Y5923320D02*
X33040977Y5970940D01*
X33040977Y5970940D02*
X32993358Y6066178D01*
X32993358Y6066178D02*
X32945739Y6256654D01*
X32945739Y6256654D02*
X32945739Y6494749D01*
X32945739Y6494749D02*
X32993358Y6685225D01*
X32993358Y6685225D02*
X33040977Y6780463D01*
X33040977Y6780463D02*
X33088596Y6828082D01*
X33088596Y6828082D02*
X33183834Y6875701D01*
X34421929Y6875701D02*
X33945739Y6875701D01*
X33945739Y6875701D02*
X33898120Y6399511D01*
X33898120Y6399511D02*
X33945739Y6447130D01*
X33945739Y6447130D02*
X34040977Y6494749D01*
X34040977Y6494749D02*
X34279072Y6494749D01*
X34279072Y6494749D02*
X34374310Y6447130D01*
X34374310Y6447130D02*
X34421929Y6399511D01*
X34421929Y6399511D02*
X34469548Y6304273D01*
X34469548Y6304273D02*
X34469548Y6066178D01*
X34469548Y6066178D02*
X34421929Y5970940D01*
X34421929Y5970940D02*
X34374310Y5923320D01*
X34374310Y5923320D02*
X34279072Y5875701D01*
X34279072Y5875701D02*
X34040977Y5875701D01*
X34040977Y5875701D02*
X33945739Y5923320D01*
X33945739Y5923320D02*
X33898120Y5970940D01*
X-63256642Y-42224299D02*
X-63256642Y-41224299D01*
X-62685214Y-42224299D02*
X-63113785Y-41652870D01*
X-62685214Y-41224299D02*
X-63256642Y-41795727D01*
X-62304261Y-41319537D02*
X-62256642Y-41271918D01*
X-62256642Y-41271918D02*
X-62161404Y-41224299D01*
X-62161404Y-41224299D02*
X-61923309Y-41224299D01*
X-61923309Y-41224299D02*
X-61828071Y-41271918D01*
X-61828071Y-41271918D02*
X-61780452Y-41319537D01*
X-61780452Y-41319537D02*
X-61732833Y-41414775D01*
X-61732833Y-41414775D02*
X-61732833Y-41510013D01*
X-61732833Y-41510013D02*
X-61780452Y-41652870D01*
X-61780452Y-41652870D02*
X-62351880Y-42224299D01*
X-62351880Y-42224299D02*
X-61732833Y-42224299D01*
X-61113785Y-41224299D02*
X-61018547Y-41224299D01*
X-61018547Y-41224299D02*
X-60923309Y-41271918D01*
X-60923309Y-41271918D02*
X-60875690Y-41319537D01*
X-60875690Y-41319537D02*
X-60828071Y-41414775D01*
X-60828071Y-41414775D02*
X-60780452Y-41605251D01*
X-60780452Y-41605251D02*
X-60780452Y-41843346D01*
X-60780452Y-41843346D02*
X-60828071Y-42033822D01*
X-60828071Y-42033822D02*
X-60875690Y-42129060D01*
X-60875690Y-42129060D02*
X-60923309Y-42176680D01*
X-60923309Y-42176680D02*
X-61018547Y-42224299D01*
X-61018547Y-42224299D02*
X-61113785Y-42224299D01*
X-61113785Y-42224299D02*
X-61209023Y-42176680D01*
X-61209023Y-42176680D02*
X-61256642Y-42129060D01*
X-61256642Y-42129060D02*
X-61304261Y-42033822D01*
X-61304261Y-42033822D02*
X-61351880Y-41843346D01*
X-61351880Y-41843346D02*
X-61351880Y-41605251D01*
X-61351880Y-41605251D02*
X-61304261Y-41414775D01*
X-61304261Y-41414775D02*
X-61256642Y-41319537D01*
X-61256642Y-41319537D02*
X-61209023Y-41271918D01*
X-61209023Y-41271918D02*
X-61113785Y-41224299D01*
X-6106642Y-6174299D02*
X-6106642Y-5174299D01*
X-5535214Y-6174299D02*
X-5963785Y-5602870D01*
X-5535214Y-5174299D02*
X-6106642Y-5745727D01*
X-4582833Y-6174299D02*
X-5154261Y-6174299D01*
X-4868547Y-6174299D02*
X-4868547Y-5174299D01*
X-4868547Y-5174299D02*
X-4963785Y-5317156D01*
X-4963785Y-5317156D02*
X-5059023Y-5412394D01*
X-5059023Y-5412394D02*
X-5154261Y-5460013D01*
X-4249499Y-5174299D02*
X-3630452Y-5174299D01*
X-3630452Y-5174299D02*
X-3963785Y-5555251D01*
X-3963785Y-5555251D02*
X-3820928Y-5555251D01*
X-3820928Y-5555251D02*
X-3725690Y-5602870D01*
X-3725690Y-5602870D02*
X-3678071Y-5650489D01*
X-3678071Y-5650489D02*
X-3630452Y-5745727D01*
X-3630452Y-5745727D02*
X-3630452Y-5983822D01*
X-3630452Y-5983822D02*
X-3678071Y-6079060D01*
X-3678071Y-6079060D02*
X-3725690Y-6126680D01*
X-3725690Y-6126680D02*
X-3820928Y-6174299D01*
X-3820928Y-6174299D02*
X-4106642Y-6174299D01*
X-4106642Y-6174299D02*
X-4201880Y-6126680D01*
X-4201880Y-6126680D02*
X-4249499Y-6079060D01*
X-63256642Y-4124299D02*
X-63256642Y-3124299D01*
X-62685214Y-4124299D02*
X-63113785Y-3552870D01*
X-62685214Y-3124299D02*
X-63256642Y-3695727D01*
X-62066166Y-3124299D02*
X-61970928Y-3124299D01*
X-61970928Y-3124299D02*
X-61875690Y-3171918D01*
X-61875690Y-3171918D02*
X-61828071Y-3219537D01*
X-61828071Y-3219537D02*
X-61780452Y-3314775D01*
X-61780452Y-3314775D02*
X-61732833Y-3505251D01*
X-61732833Y-3505251D02*
X-61732833Y-3743346D01*
X-61732833Y-3743346D02*
X-61780452Y-3933822D01*
X-61780452Y-3933822D02*
X-61828071Y-4029060D01*
X-61828071Y-4029060D02*
X-61875690Y-4076680D01*
X-61875690Y-4076680D02*
X-61970928Y-4124299D01*
X-61970928Y-4124299D02*
X-62066166Y-4124299D01*
X-62066166Y-4124299D02*
X-62161404Y-4076680D01*
X-62161404Y-4076680D02*
X-62209023Y-4029060D01*
X-62209023Y-4029060D02*
X-62256642Y-3933822D01*
X-62256642Y-3933822D02*
X-62304261Y-3743346D01*
X-62304261Y-3743346D02*
X-62304261Y-3505251D01*
X-62304261Y-3505251D02*
X-62256642Y-3314775D01*
X-62256642Y-3314775D02*
X-62209023Y-3219537D01*
X-62209023Y-3219537D02*
X-62161404Y-3171918D01*
X-62161404Y-3171918D02*
X-62066166Y-3124299D01*
X-61113785Y-3124299D02*
X-61018547Y-3124299D01*
X-61018547Y-3124299D02*
X-60923309Y-3171918D01*
X-60923309Y-3171918D02*
X-60875690Y-3219537D01*
X-60875690Y-3219537D02*
X-60828071Y-3314775D01*
X-60828071Y-3314775D02*
X-60780452Y-3505251D01*
X-60780452Y-3505251D02*
X-60780452Y-3743346D01*
X-60780452Y-3743346D02*
X-60828071Y-3933822D01*
X-60828071Y-3933822D02*
X-60875690Y-4029060D01*
X-60875690Y-4029060D02*
X-60923309Y-4076680D01*
X-60923309Y-4076680D02*
X-61018547Y-4124299D01*
X-61018547Y-4124299D02*
X-61113785Y-4124299D01*
X-61113785Y-4124299D02*
X-61209023Y-4076680D01*
X-61209023Y-4076680D02*
X-61256642Y-4029060D01*
X-61256642Y-4029060D02*
X-61304261Y-3933822D01*
X-61304261Y-3933822D02*
X-61351880Y-3743346D01*
X-61351880Y-3743346D02*
X-61351880Y-3505251D01*
X-61351880Y-3505251D02*
X-61304261Y-3314775D01*
X-61304261Y-3314775D02*
X-61256642Y-3219537D01*
X-61256642Y-3219537D02*
X-61209023Y-3171918D01*
X-61209023Y-3171918D02*
X-61113785Y-3124299D01*
D11*
X-15342858Y-8959580D02*
X-15390477Y-9007200D01*
X-15390477Y-9007200D02*
X-15533334Y-9054819D01*
X-15533334Y-9054819D02*
X-15628572Y-9054819D01*
X-15628572Y-9054819D02*
X-15771429Y-9007200D01*
X-15771429Y-9007200D02*
X-15866667Y-8911961D01*
X-15866667Y-8911961D02*
X-15914286Y-8816723D01*
X-15914286Y-8816723D02*
X-15961905Y-8626247D01*
X-15961905Y-8626247D02*
X-15961905Y-8483390D01*
X-15961905Y-8483390D02*
X-15914286Y-8292914D01*
X-15914286Y-8292914D02*
X-15866667Y-8197676D01*
X-15866667Y-8197676D02*
X-15771429Y-8102438D01*
X-15771429Y-8102438D02*
X-15628572Y-8054819D01*
X-15628572Y-8054819D02*
X-15533334Y-8054819D01*
X-15533334Y-8054819D02*
X-15390477Y-8102438D01*
X-15390477Y-8102438D02*
X-15342858Y-8150057D01*
X-14390477Y-9054819D02*
X-14961905Y-9054819D01*
X-14676191Y-9054819D02*
X-14676191Y-8054819D01*
X-14676191Y-8054819D02*
X-14771429Y-8197676D01*
X-14771429Y-8197676D02*
X-14866667Y-8292914D01*
X-14866667Y-8292914D02*
X-14961905Y-8340533D01*
X-14009524Y-8150057D02*
X-13961905Y-8102438D01*
X-13961905Y-8102438D02*
X-13866667Y-8054819D01*
X-13866667Y-8054819D02*
X-13628572Y-8054819D01*
X-13628572Y-8054819D02*
X-13533334Y-8102438D01*
X-13533334Y-8102438D02*
X-13485715Y-8150057D01*
X-13485715Y-8150057D02*
X-13438096Y-8245295D01*
X-13438096Y-8245295D02*
X-13438096Y-8340533D01*
X-13438096Y-8340533D02*
X-13485715Y-8483390D01*
X-13485715Y-8483390D02*
X-14057143Y-9054819D01*
X-14057143Y-9054819D02*
X-13438096Y-9054819D01*
X6459580Y-19890476D02*
X6507200Y-19938095D01*
X6507200Y-19938095D02*
X6554819Y-20080952D01*
X6554819Y-20080952D02*
X6554819Y-20176190D01*
X6554819Y-20176190D02*
X6507200Y-20319047D01*
X6507200Y-20319047D02*
X6411961Y-20414285D01*
X6411961Y-20414285D02*
X6316723Y-20461904D01*
X6316723Y-20461904D02*
X6126247Y-20509523D01*
X6126247Y-20509523D02*
X5983390Y-20509523D01*
X5983390Y-20509523D02*
X5792914Y-20461904D01*
X5792914Y-20461904D02*
X5697676Y-20414285D01*
X5697676Y-20414285D02*
X5602438Y-20319047D01*
X5602438Y-20319047D02*
X5554819Y-20176190D01*
X5554819Y-20176190D02*
X5554819Y-20080952D01*
X5554819Y-20080952D02*
X5602438Y-19938095D01*
X5602438Y-19938095D02*
X5650057Y-19890476D01*
X5554819Y-19461904D02*
X6364342Y-19461904D01*
X6364342Y-19461904D02*
X6459580Y-19414285D01*
X6459580Y-19414285D02*
X6507200Y-19366666D01*
X6507200Y-19366666D02*
X6554819Y-19271428D01*
X6554819Y-19271428D02*
X6554819Y-19080952D01*
X6554819Y-19080952D02*
X6507200Y-18985714D01*
X6507200Y-18985714D02*
X6459580Y-18938095D01*
X6459580Y-18938095D02*
X6364342Y-18890476D01*
X6364342Y-18890476D02*
X5554819Y-18890476D01*
X5554819Y-18509523D02*
X5554819Y-17890476D01*
X5554819Y-17890476D02*
X5935771Y-18223809D01*
X5935771Y-18223809D02*
X5935771Y-18080952D01*
X5935771Y-18080952D02*
X5983390Y-17985714D01*
X5983390Y-17985714D02*
X6031009Y-17938095D01*
X6031009Y-17938095D02*
X6126247Y-17890476D01*
X6126247Y-17890476D02*
X6364342Y-17890476D01*
X6364342Y-17890476D02*
X6459580Y-17938095D01*
X6459580Y-17938095D02*
X6507200Y-17985714D01*
X6507200Y-17985714D02*
X6554819Y-18080952D01*
X6554819Y-18080952D02*
X6554819Y-18366666D01*
X6554819Y-18366666D02*
X6507200Y-18461904D01*
X6507200Y-18461904D02*
X6459580Y-18509523D01*
D10*
X29813975Y-53170090D02*
X29987623Y-52185283D01*
X30376722Y-53269318D02*
X30053890Y-52632150D01*
X30550371Y-52284510D02*
X29888396Y-52748030D01*
X30878640Y-52342393D02*
X31488283Y-52449889D01*
X31488283Y-52449889D02*
X31093862Y-52767171D01*
X31093862Y-52767171D02*
X31234549Y-52791978D01*
X31234549Y-52791978D02*
X31320071Y-52855412D01*
X31320071Y-52855412D02*
X31358698Y-52910576D01*
X31358698Y-52910576D02*
X31389055Y-53012637D01*
X31389055Y-53012637D02*
X31347710Y-53247115D01*
X31347710Y-53247115D02*
X31284277Y-53332637D01*
X31284277Y-53332637D02*
X31229112Y-53371263D01*
X31229112Y-53371263D02*
X31127052Y-53401621D01*
X31127052Y-53401621D02*
X30845679Y-53352007D01*
X30845679Y-53352007D02*
X30760156Y-53288574D01*
X30760156Y-53288574D02*
X30721530Y-53233409D01*
X32252547Y-53600076D02*
X31689799Y-53500849D01*
X31971173Y-53550462D02*
X32144821Y-52565655D01*
X32144821Y-52565655D02*
X32026223Y-52689804D01*
X32026223Y-52689804D02*
X31915894Y-52767057D01*
X31915894Y-52767057D02*
X31813834Y-52797415D01*
%TO.C,K25*%
D11*
X31100000Y-19050000D02*
X31100000Y-21050000D01*
X31100000Y-31050000D02*
X31100000Y-33050000D01*
X31100000Y-33050000D02*
X33100000Y-33050000D01*
X33100000Y-19050000D02*
X31100000Y-19050000D01*
X43100000Y-19050000D02*
X45100000Y-19050000D01*
X43100000Y-33050000D02*
X45100000Y-33050000D01*
X45100000Y-19050000D02*
X45100000Y-21050000D01*
X45100000Y-33050000D02*
X45100000Y-31050000D01*
%TO.C,C22*%
D12*
X-18461252Y-26865000D02*
X-17938748Y-26865000D01*
X-18461252Y-28335000D02*
X-17938748Y-28335000D01*
%TO.C,JP1*%
X67850000Y-41650000D02*
X69850000Y-41650000D01*
X67850000Y-44450000D02*
X67850000Y-41650000D01*
X69850000Y-41650000D02*
X69850000Y-44450000D01*
X69850000Y-44450000D02*
X67850000Y-44450000D01*
%TO.C,K24*%
D11*
X12050000Y-17050000D02*
X12050000Y-19050000D01*
X12050000Y-29050000D02*
X12050000Y-31050000D01*
X12050000Y-31050000D02*
X14050000Y-31050000D01*
X14050000Y-17050000D02*
X12050000Y-17050000D01*
X24050000Y-17050000D02*
X26050000Y-17050000D01*
X24050000Y-31050000D02*
X26050000Y-31050000D01*
X26050000Y-17050000D02*
X26050000Y-19050000D01*
X26050000Y-31050000D02*
X26050000Y-29050000D01*
%TO.C,K21*%
X-45100000Y-29050000D02*
X-45100000Y-31050000D01*
X-45100000Y-41050000D02*
X-45100000Y-43050000D01*
X-45100000Y-43050000D02*
X-43100000Y-43050000D01*
X-43100000Y-29050000D02*
X-45100000Y-29050000D01*
X-33100000Y-29050000D02*
X-31100000Y-29050000D01*
X-33100000Y-43050000D02*
X-31100000Y-43050000D01*
X-31100000Y-29050000D02*
X-31100000Y-31050000D01*
X-31100000Y-43050000D02*
X-31100000Y-41050000D01*
%TO.C,K02*%
X-26050000Y21050000D02*
X-26050000Y19050000D01*
X-26050000Y9050000D02*
X-26050000Y7050000D01*
X-26050000Y7050000D02*
X-24050000Y7050000D01*
X-24050000Y21050000D02*
X-26050000Y21050000D01*
X-14050000Y21050000D02*
X-12050000Y21050000D01*
X-14050000Y7050000D02*
X-12050000Y7050000D01*
X-12050000Y21050000D02*
X-12050000Y19050000D01*
X-12050000Y7050000D02*
X-12050000Y9050000D01*
%TO.C,K10*%
X-64150000Y-10000000D02*
X-64150000Y-12000000D01*
X-64150000Y-22000000D02*
X-64150000Y-24000000D01*
X-64150000Y-24000000D02*
X-62150000Y-24000000D01*
X-62150000Y-10000000D02*
X-64150000Y-10000000D01*
X-52150000Y-10000000D02*
X-50150000Y-10000000D01*
X-52150000Y-24000000D02*
X-50150000Y-24000000D01*
X-50150000Y-10000000D02*
X-50150000Y-12000000D01*
X-50150000Y-24000000D02*
X-50150000Y-22000000D01*
%TO.C,C30*%
D12*
X15875683Y-50090568D02*
X16396198Y-50045027D01*
X16003802Y-51554973D02*
X16524317Y-51509432D01*
%TO.C,K04*%
D11*
X12050000Y21050000D02*
X12050000Y19050000D01*
X12050000Y9050000D02*
X12050000Y7050000D01*
X12050000Y7050000D02*
X14050000Y7050000D01*
X14050000Y21050000D02*
X12050000Y21050000D01*
X24050000Y21050000D02*
X26050000Y21050000D01*
X24050000Y7050000D02*
X26050000Y7050000D01*
X26050000Y21050000D02*
X26050000Y19050000D01*
X26050000Y7050000D02*
X26050000Y9050000D01*
%TO.C,K12*%
X-26050000Y2000000D02*
X-26050000Y0D01*
X-26050000Y-10000000D02*
X-26050000Y-12000000D01*
X-26050000Y-12000000D02*
X-24050000Y-12000000D01*
X-24050000Y2000000D02*
X-26050000Y2000000D01*
X-14050000Y2000000D02*
X-12050000Y2000000D01*
X-14050000Y-12000000D02*
X-12050000Y-12000000D01*
X-12050000Y2000000D02*
X-12050000Y0D01*
X-12050000Y-12000000D02*
X-12050000Y-10000000D01*
%TO.C,C32*%
D12*
X56652601Y-59355726D02*
X57126150Y-59576546D01*
X57273850Y-58023454D02*
X57747399Y-58244274D01*
%TO.C,U2*%
X1625003Y-5590001D02*
X3575001Y-5589996D01*
X1625003Y-15710002D02*
X3575005Y-15710006D01*
X5525003Y-5590000D02*
X3575001Y-5589996D01*
X5525003Y-15710001D02*
X3575005Y-15710006D01*
X875002Y-5645001D02*
X635005Y-5315004D01*
X1115006Y-5315001D01*
X875002Y-5645001D01*
G36*
X875002Y-5645001D02*
G01*
X635005Y-5315004D01*
X1115006Y-5315001D01*
X875002Y-5645001D01*
G37*
%TO.C,K30*%
D11*
X7316547Y-40786727D02*
X7490858Y-42779117D01*
X8362416Y-52741064D02*
X8536727Y-54733453D01*
X8536727Y-54733453D02*
X10529117Y-54559142D01*
X9308936Y-40612416D02*
X7316547Y-40786727D01*
X19270883Y-39740858D02*
X21263273Y-39566547D01*
X20491064Y-53687584D02*
X22483453Y-53513273D01*
X21263273Y-39566547D02*
X21437584Y-41558936D01*
X22483453Y-53513273D02*
X22309142Y-51520883D01*
%TO.C,U1*%
D12*
X1725003Y13490000D02*
X3675001Y13490005D01*
X1725003Y3369999D02*
X3675005Y3369995D01*
X5625003Y13490001D02*
X3675001Y13490005D01*
X5625003Y3370000D02*
X3675005Y3369995D01*
X975002Y13435000D02*
X735005Y13764997D01*
X1215006Y13765000D01*
X975002Y13435000D01*
G36*
X975002Y13435000D02*
G01*
X735005Y13764997D01*
X1215006Y13765000D01*
X975002Y13435000D01*
G37*
%TO.C,C24*%
X19538748Y-26865000D02*
X20061252Y-26865000D01*
X19538748Y-28335000D02*
X20061252Y-28335000D01*
%TO.C,C03*%
X638748Y16335000D02*
X1161252Y16335000D01*
X638748Y14865000D02*
X1161252Y14865000D01*
%TO.C,K01*%
D11*
X-45100000Y9050000D02*
X-45100000Y7050000D01*
X-45100000Y-2950000D02*
X-45100000Y-4950000D01*
X-45100000Y-4950000D02*
X-43100000Y-4950000D01*
X-43100000Y9050000D02*
X-45100000Y9050000D01*
X-33100000Y9050000D02*
X-31100000Y9050000D01*
X-33100000Y-4950000D02*
X-31100000Y-4950000D01*
X-31100000Y9050000D02*
X-31100000Y7050000D01*
X-31100000Y-4950000D02*
X-31100000Y-2950000D01*
%TO.C,C11*%
D12*
X-37461252Y-19865000D02*
X-36938748Y-19865000D01*
X-37461252Y-21335000D02*
X-36938748Y-21335000D01*
%TO.C,C14*%
X19538748Y-7865000D02*
X20061252Y-7865000D01*
X19538748Y-9335000D02*
X20061252Y-9335000D01*
%TO.C,CU1*%
X5365000Y15288748D02*
X5365000Y15811252D01*
X6835000Y15288748D02*
X6835000Y15811252D01*
%TO.C,K14*%
D11*
X12050000Y2000000D02*
X12050000Y0D01*
X12050000Y-10000000D02*
X12050000Y-12000000D01*
X12050000Y-12000000D02*
X14050000Y-12000000D01*
X14050000Y2000000D02*
X12050000Y2000000D01*
X24050000Y2000000D02*
X26050000Y2000000D01*
X24050000Y-12000000D02*
X26050000Y-12000000D01*
X26050000Y2000000D02*
X26050000Y0D01*
X26050000Y-12000000D02*
X26050000Y-10000000D01*
%TO.C,K23*%
X-7000000Y-12050000D02*
X-7000000Y-14050000D01*
X-7000000Y-24050000D02*
X-7000000Y-26050000D01*
X-7000000Y-26050000D02*
X-5000000Y-26050000D01*
X-5000000Y-12050000D02*
X-7000000Y-12050000D01*
X5000000Y-12050000D02*
X7000000Y-12050000D01*
X5000000Y-26050000D02*
X7000000Y-26050000D01*
X7000000Y-12050000D02*
X7000000Y-14050000D01*
X7000000Y-26050000D02*
X7000000Y-24050000D01*
%TO.C,K03*%
X-7000000Y26050000D02*
X-7000000Y24050000D01*
X-7000000Y14050000D02*
X-7000000Y12050000D01*
X-7000000Y12050000D02*
X-5000000Y12050000D01*
X-5000000Y26050000D02*
X-7000000Y26050000D01*
X5000000Y26050000D02*
X7000000Y26050000D01*
X5000000Y12050000D02*
X7000000Y12050000D01*
X7000000Y26050000D02*
X7000000Y24050000D01*
X7000000Y12050000D02*
X7000000Y14050000D01*
%TO.C,C04*%
D12*
X19738748Y11335000D02*
X20261252Y11335000D01*
X19738748Y9865000D02*
X20261252Y9865000D01*
%TO.C,C05*%
X38738748Y9335000D02*
X39261252Y9335000D01*
X38738748Y7865000D02*
X39261252Y7865000D01*
%TO.C,C23*%
X538748Y-21865000D02*
X1061252Y-21865000D01*
X538748Y-23335000D02*
X1061252Y-23335000D01*
%TO.C,U3*%
X1655003Y-24740001D02*
X3605001Y-24739996D01*
X1655003Y-34860002D02*
X3605005Y-34860006D01*
X5555003Y-24740000D02*
X3605001Y-24739996D01*
X5555003Y-34860001D02*
X3605005Y-34860006D01*
X905002Y-24795001D02*
X665005Y-24465004D01*
X1145006Y-24465001D01*
X905002Y-24795001D01*
G36*
X905002Y-24795001D02*
G01*
X665005Y-24465004D01*
X1145006Y-24465001D01*
X905002Y-24795001D01*
G37*
%TO.C,K22*%
D11*
X-26050000Y-17050000D02*
X-26050000Y-19050000D01*
X-26050000Y-29050000D02*
X-26050000Y-31050000D01*
X-26050000Y-31050000D02*
X-24050000Y-31050000D01*
X-24050000Y-17050000D02*
X-26050000Y-17050000D01*
X-14050000Y-17050000D02*
X-12050000Y-17050000D01*
X-14050000Y-31050000D02*
X-12050000Y-31050000D01*
X-12050000Y-17050000D02*
X-12050000Y-19050000D01*
X-12050000Y-31050000D02*
X-12050000Y-29050000D01*
%TO.C,J1*%
X62960000Y-33070000D02*
X62960000Y-39070000D01*
X62960000Y-33070000D02*
X74960000Y-33070000D01*
X74960000Y-39070000D02*
X62960000Y-39070000D01*
X74960000Y-39070000D02*
X74960000Y-33070000D01*
%TO.C,C10*%
D12*
X-56561252Y-19815000D02*
X-56038748Y-19815000D01*
X-56561252Y-21285000D02*
X-56038748Y-21285000D01*
%TO.C,C13*%
X638748Y-2865000D02*
X1161252Y-2865000D01*
X638748Y-4335000D02*
X1161252Y-4335000D01*
%TO.C,C02*%
X-18461252Y11235000D02*
X-17938748Y11235000D01*
X-18461252Y9765000D02*
X-17938748Y9765000D01*
%TO.C,K15*%
D11*
X31100000Y0D02*
X31100000Y-2000000D01*
X31100000Y-12000000D02*
X31100000Y-14000000D01*
X31100000Y-14000000D02*
X33100000Y-14000000D01*
X33100000Y0D02*
X31100000Y0D01*
X43100000Y0D02*
X45100000Y0D01*
X43100000Y-14000000D02*
X45100000Y-14000000D01*
X45100000Y0D02*
X45100000Y-2000000D01*
X45100000Y-14000000D02*
X45100000Y-12000000D01*
%TO.C,C00*%
D12*
X-56561252Y-765000D02*
X-56038748Y-765000D01*
X-56561252Y-2235000D02*
X-56038748Y-2235000D01*
%TO.C,C25*%
X38676248Y-28865000D02*
X39198752Y-28865000D01*
X38676248Y-30335000D02*
X39198752Y-30335000D01*
%TO.C,CU2*%
X5365000Y-3811252D02*
X5365000Y-3288748D01*
X6835000Y-3811252D02*
X6835000Y-3288748D01*
%TO.C,C15*%
X38738748Y-9765000D02*
X39261252Y-9765000D01*
X38738748Y-11235000D02*
X39261252Y-11235000D01*
%TO.C,C31*%
X36615086Y-52678468D02*
X37129652Y-52769200D01*
X36870348Y-51230800D02*
X37384914Y-51321532D01*
%TO.C,C20*%
X-56461252Y-38865000D02*
X-55938748Y-38865000D01*
X-56461252Y-40335000D02*
X-55938748Y-40335000D01*
%TO.C,K32*%
D11*
X48597518Y-58535827D02*
X50410133Y-59381063D01*
X49442754Y-56723211D02*
X48597518Y-58535827D01*
X54514173Y-45847518D02*
X53668937Y-47660133D01*
X56326789Y-46692754D02*
X54514173Y-45847518D01*
X59473211Y-63607246D02*
X61285827Y-64452482D01*
X61285827Y-64452482D02*
X62131063Y-62639867D01*
X65389867Y-50918937D02*
X67202482Y-51764173D01*
X67202482Y-51764173D02*
X66357246Y-53576789D01*
%TO.C,K11*%
X-45100000Y-10000000D02*
X-45100000Y-12000000D01*
X-45100000Y-22000000D02*
X-45100000Y-24000000D01*
X-45100000Y-24000000D02*
X-43100000Y-24000000D01*
X-43100000Y-10000000D02*
X-45100000Y-10000000D01*
X-33100000Y-10000000D02*
X-31100000Y-10000000D01*
X-33100000Y-24000000D02*
X-31100000Y-24000000D01*
X-31100000Y-10000000D02*
X-31100000Y-12000000D01*
X-31100000Y-24000000D02*
X-31100000Y-22000000D01*
%TO.C,MCU1*%
D12*
X54525000Y22720000D02*
X54525000Y-28080000D01*
X57065000Y22720000D02*
X54525000Y22720000D01*
X57065000Y-28080000D02*
X54525000Y-28080000D01*
X57065000Y-28080000D02*
X57065000Y22720000D01*
X69705000Y20180000D02*
X69705000Y-28140000D01*
X69705000Y-28140000D02*
X72365000Y-28140000D01*
X72365000Y22780000D02*
X71035000Y22780000D01*
X72365000Y21450000D02*
X72365000Y22780000D01*
X72365000Y20180000D02*
X69705000Y20180000D01*
X72365000Y-28140000D02*
X72365000Y20180000D01*
%TO.C,C01*%
X-37561252Y-765000D02*
X-37038748Y-765000D01*
X-37561252Y-2235000D02*
X-37038748Y-2235000D01*
%TO.C,C21*%
X-37461252Y-38865000D02*
X-36938748Y-38865000D01*
X-37461252Y-40335000D02*
X-36938748Y-40335000D01*
%TO.C,K05*%
D11*
X31100000Y19050000D02*
X31100000Y17050000D01*
X31100000Y7050000D02*
X31100000Y5050000D01*
X31100000Y5050000D02*
X33100000Y5050000D01*
X33100000Y19050000D02*
X31100000Y19050000D01*
X43100000Y19050000D02*
X45100000Y19050000D01*
X43100000Y5050000D02*
X45100000Y5050000D01*
X45100000Y19050000D02*
X45100000Y17050000D01*
X45100000Y5050000D02*
X45100000Y7050000D01*
%TO.C,K20*%
X-64150000Y-29050000D02*
X-64150000Y-31050000D01*
X-64150000Y-41050000D02*
X-64150000Y-43050000D01*
X-64150000Y-43050000D02*
X-62150000Y-43050000D01*
X-62150000Y-29050000D02*
X-64150000Y-29050000D01*
X-52150000Y-29050000D02*
X-50150000Y-29050000D01*
X-52150000Y-43050000D02*
X-50150000Y-43050000D01*
X-50150000Y-29050000D02*
X-50150000Y-31050000D01*
X-50150000Y-43050000D02*
X-50150000Y-41050000D01*
%TO.C,K13*%
X-7000000Y7000000D02*
X-7000000Y5000000D01*
X-7000000Y-5000000D02*
X-7000000Y-7000000D01*
X-7000000Y-7000000D02*
X-5000000Y-7000000D01*
X-5000000Y7000000D02*
X-7000000Y7000000D01*
X5000000Y7000000D02*
X7000000Y7000000D01*
X5000000Y-7000000D02*
X7000000Y-7000000D01*
X7000000Y7000000D02*
X7000000Y5000000D01*
X7000000Y-7000000D02*
X7000000Y-5000000D01*
%TO.C,K00*%
X-64150000Y9050000D02*
X-64150000Y7050000D01*
X-64150000Y-2950000D02*
X-64150000Y-4950000D01*
X-64150000Y-4950000D02*
X-62150000Y-4950000D01*
X-62150000Y9050000D02*
X-64150000Y9050000D01*
X-52150000Y9050000D02*
X-50150000Y9050000D01*
X-52150000Y-4950000D02*
X-50150000Y-4950000D01*
X-50150000Y9050000D02*
X-50150000Y7050000D01*
X-50150000Y-4950000D02*
X-50150000Y-2950000D01*
%TO.C,C12*%
D12*
X-18461252Y-7865000D02*
X-17938748Y-7865000D01*
X-18461252Y-9335000D02*
X-17938748Y-9335000D01*
%TO.C,CU3*%
X5365000Y-22961252D02*
X5365000Y-22438748D01*
X6835000Y-22961252D02*
X6835000Y-22438748D01*
%TO.C,K31*%
D11*
X28790808Y-53828117D02*
X30760424Y-54175413D01*
X29138105Y-51858502D02*
X28790808Y-53828117D01*
X31221883Y-40040808D02*
X30874587Y-42010424D01*
X33191498Y-40388105D02*
X31221883Y-40040808D01*
X40608502Y-55911895D02*
X42578117Y-56259192D01*
X42578117Y-56259192D02*
X42925413Y-54289576D01*
X43039576Y-42124587D02*
X45009192Y-42471883D01*
X45009192Y-42471883D02*
X44661895Y-44441498D01*
%TD*%
D13*
%TO.C,J1*%
X73460000Y-34320000D03*
X66460000Y-34320000D03*
X73460000Y-36070000D03*
X66460000Y-36070000D03*
%TD*%
D14*
X-67896552Y11570000D02*
G75*
G02*
X-66660000Y12806552I1236552J0D01*
G01*
X-67896552Y-45533448D02*
X-67896552Y11570000D01*
X-66670000Y-46750000D02*
G75*
G02*
X-67896540Y-45533448I-9900J1216600D01*
G01*
X-66660000Y12806552D02*
X-49851507Y12807782D01*
X-49851507Y12807782D02*
G75*
G02*
X-48624978Y11591230I9907J-1216582D01*
G01*
X-49841592Y-46750040D02*
X-66670000Y-46750000D01*
X-48625040Y-45523488D02*
G75*
G02*
X-49841592Y-46750100I-1216660J-9912D01*
G01*
X-48625040Y-45523488D02*
G75*
G02*
X-48125040Y-45023560I499940J-12D01*
G01*
X-48625000Y-28025000D02*
X-48625040Y-42523488D01*
X-48625000Y-28025000D02*
G75*
G02*
X-48125000Y-27525000I500000J0D01*
G01*
X-48624955Y-8974517D02*
X-48625000Y-25025000D01*
X-48624955Y-8974517D02*
G75*
G02*
X-48124955Y-8474545I499955J17D01*
G01*
X-48624915Y8581270D02*
X-48624955Y-5974517D01*
X-48624915Y8581270D02*
G75*
G02*
X-48124915Y9081215I499915J30D01*
G01*
X-48125040Y-43023488D02*
G75*
G02*
X-48625088Y-42523488I40J500088D01*
G01*
X-48125040Y-45023488D02*
G75*
G02*
X-47624983Y-45533448I-60J-500212D01*
G01*
X-48125000Y-25525000D02*
G75*
G02*
X-48625000Y-25025000I0J500000D01*
G01*
X-48125000Y-27525000D02*
G75*
G02*
X-47625000Y-28025000I0J-500000D01*
G01*
X-48124955Y-6474517D02*
G75*
G02*
X-48625017Y-5974517I55J500117D01*
G01*
X-48124955Y-8474517D02*
G75*
G02*
X-47624917Y-8974517I-45J-500083D01*
G01*
X-48124915Y11081270D02*
G75*
G02*
X-48624933Y11591230I15J500130D01*
G01*
X-48124915Y9081270D02*
G75*
G02*
X-47624930Y8581270I15J-499970D01*
G01*
X-47625040Y-42523488D02*
G75*
G02*
X-48125040Y-43023460I-499960J-12D01*
G01*
X-47625040Y-42523488D02*
X-47625000Y-28025000D01*
X-47625000Y-25025000D02*
G75*
G02*
X-48125000Y-25525000I-500000J0D01*
G01*
X-47625000Y-25025000D02*
X-47624955Y-8974517D01*
X-47624955Y-5974517D02*
G75*
G02*
X-48124955Y-6474445I-500045J117D01*
G01*
X-47624955Y-5974517D02*
X-47624915Y8581270D01*
X-47624915Y11581270D02*
G75*
G02*
X-48124915Y11081215I-499985J-70D01*
G01*
X-47624915Y11581270D02*
G75*
G02*
X-46408363Y12807856I1216615J9930D01*
G01*
X-46408363Y12807822D02*
X-30964374Y12807822D01*
X-46398448Y-46750000D02*
G75*
G02*
X-47624940Y-45533448I-9852J1216600D01*
G01*
X-46398448Y-46750000D02*
X-19400000Y-46750000D01*
X-29730000Y23570000D02*
X-29727822Y14044374D01*
X-29730000Y23570000D02*
G75*
G02*
X-28480000Y24806527I1236600J0D01*
G01*
X-29727822Y14044374D02*
G75*
G02*
X-30964374Y12807822I-1236578J26D01*
G01*
X-28480000Y24806552D02*
X-11910000Y24806552D01*
X-19400000Y-46750000D02*
G75*
G02*
X3790002Y-57089998I809300J-29359600D01*
G01*
X-10673448Y28570000D02*
X-10673448Y26043104D01*
X-10673448Y28570000D02*
G75*
G02*
X-9436896Y29806548I1236548J0D01*
G01*
X-10673448Y26043104D02*
G75*
G02*
X-11910000Y24806548I-1236552J-4D01*
G01*
X-9436896Y29806552D02*
X9530000Y29806552D01*
X7610000Y-58540000D02*
G75*
G02*
X3789969Y-57090030I-380000J4755900D01*
G01*
X9530000Y29806552D02*
G75*
G02*
X10766552Y28570000I0J-1236552D01*
G01*
X10766552Y28570000D02*
X10766552Y25980000D01*
X12003104Y24750000D02*
G75*
G02*
X10766583Y25980000I-6504J1230000D01*
G01*
X12003104Y24750000D02*
X28690000Y24750000D01*
X15940000Y-57820000D02*
X7610000Y-58540000D01*
X15940000Y-57820000D02*
G75*
G02*
X53910001Y-64959998I6272100J-71176300D01*
G01*
X28690000Y24750000D02*
G75*
G02*
X29900008Y23770002I0J-1237000D01*
G01*
X31110000Y22759999D02*
G75*
G02*
X29900001Y23770000I0J1229801D01*
G01*
X53910000Y-64960000D02*
X61613868Y-68641488D01*
X57485000Y10240000D02*
G75*
G02*
X58485000Y11240000I1000200J-200D01*
G01*
X57485000Y4640000D02*
X57485000Y10240000D01*
X58485000Y11240000D02*
X65677893Y11240000D01*
X58485000Y3640000D02*
G75*
G02*
X57485000Y4640000I10000J1010000D01*
G01*
X63630000Y-68110000D02*
G75*
G02*
X61613882Y-68641448I-1393000J1194600D01*
G01*
X63630000Y-68110000D02*
X74248728Y-45663239D01*
X65677893Y11240000D02*
G75*
G02*
X66677900Y10240000I7J-1000000D01*
G01*
X65685000Y3640000D02*
X58485000Y3640000D01*
X66677893Y10240000D02*
X66685000Y4640000D01*
X66685000Y4640000D02*
G75*
G02*
X65685000Y3640000I-1000000J0D01*
G01*
X73670000Y22760000D02*
X31110000Y22760000D01*
X73670000Y22760000D02*
G75*
G02*
X74960028Y21510000I49000J-1240100D01*
G01*
X74960000Y-42840000D02*
G75*
G02*
X74248732Y-45663241I-6436300J120300D01*
G01*
X74960000Y-42840000D02*
X74960000Y21510000D01*
M02*
