M48
; DRILL file KiCad 10.0.2-rc1 date 2026-08-12T02:26:00
; FORMAT={-:-/ absolute / metric / decimal}
; #@! TF.CreationDate,2026-08-12T02:26:00+09:00
; #@! TF.GenerationSoftware,Kicad,Pcbnew,10.0.2-rc1
; #@! TF.FileFunction,NonPlated,1,2,NPTH
FMAT,2
METRIC
; #@! TA.AperFunction,NonPlated,NPTH,ComponentDrill
T1C1.200
; #@! TA.AperFunction,NonPlated,NPTH,ComponentDrill
T2C1.702
%
G90
G05
T1
X66.46Y-34.32
X66.46Y-36.07
X73.46Y-34.32
X73.46Y-36.07
T2
X-62.23Y2.05
X-62.23Y-17.0
X-62.23Y-36.05
X-52.07Y2.05
X-52.07Y-17.0
X-52.07Y-36.05
X-43.18Y2.05
X-43.18Y-17.0
X-43.18Y-36.05
X-33.02Y2.05
X-33.02Y-17.0
X-33.02Y-36.05
X-24.13Y14.05
X-24.13Y-5.0
X-24.13Y-24.05
X-13.97Y14.05
X-13.97Y-5.0
X-13.97Y-24.05
X-5.08Y19.05
X-5.08Y0.0
X-5.08Y-19.05
X5.08Y19.05
X5.08Y0.0
X5.08Y-19.05
X9.839Y-47.593
X13.97Y14.05
X13.97Y-5.0
X13.97Y-24.05
X19.961Y-46.707
X24.13Y14.05
X24.13Y-5.0
X24.13Y-24.05
X31.897Y-47.268
X33.02Y12.05
X33.02Y-7.0
X33.02Y-26.05
X41.903Y-49.032
X43.18Y12.05
X43.18Y-7.0
X43.18Y-26.05
X53.296Y-53.003
X62.504Y-57.297
M30
