  0
SECTION
  2
HEADER
  9
$ANGBASE
  50
0.0
  9
$ANGDIR
  70
1
  9
$MEASUREMENT
  70
1
  9
$INSUNITS
  70
4
  0
ENDSEC
  0
SECTION
  2
TABLES
  0
TABLE
  2
LTYPE
  70
4
  0
LTYPE
  5
40F
  2
CONTINUOUS
  70
0
  3
Solid line
  72
65
  73
0
  40
0.0
  0
LTYPE
  5
410
  2
DASHDOT
 70
0
  3
Dash Dot ____ _ ____ _
 72
65
 73
4
 40
2.0
 49
1.25
 49
-0.25
 49
0.25
 49
-0.25
  0
LTYPE
  5
411
  2
DASHED
 70
0
  3
Dashed __ __ __ __ __
 72
65
 73
2
 40
0.75
 49
0.5
 49
-0.25
  0
LTYPE
  5
43B
  2
DOTTED
 70
0
  3
Dotted .  .  .  .
 72
65
 73
2
 40
0.2
 49
0.0
 49
-0.2
  0
ENDTAB
  0
TABLE
  2
STYLE
  70
4
  0
STYLE
  2
KICAD
  70
0
  40
0
  41
1
  42
1
  50
0
  71
0
  3
isocp.shx
  0
STYLE
  2
KICADB
  70
0
  40
0
  41
1
  42
1
  50
0
  71
0
  3
isocp.shx
  0
STYLE
  2
KICADI
  70
0
  40
0
  41
1
  42
1
  50
15
  71
0
  3
isocp.shx
  0
STYLE
  2
KICADBI
  70
0
  40
0
  41
1
  42
1
  50
15
  71
0
  3
isocp.shx
  0
ENDTAB
  0
TABLE
  2
LAYER
  70
1
  0
LAYER
  2
Edge.Cuts
  70
0
  62
254
  420
13685453
  6
CONTINUOUS
  0
ENDTAB
  0
ENDSEC
  0
SECTION
  2
ENTITIES
0
LINE
8
Edge.Cuts
6
CONTINUOUS
10
62.7399999999999949
20
-30.0090129999999995
11
62.7399999999999949
21
-39.25
0
LINE
8
Edge.Cuts
6
CONTINUOUS
10
74.4071890000000025
20
-39.2489069999999955
11
62.7399999999999949
21
-39.25
0
ARC
8
Edge.Cuts
10
74.4071890000000025
20
-39.7989069999999998
40
0.5499999999999999
50
-1.15568240
51
90.00000000
0
ARC
8
Edge.Cuts
10
-63.8999999999999986
20
-48.5
40
4.
50
-180.00000000
51
-0.00000000
0
ARC
8
Edge.Cuts
10
49.7609999999999957
20
-28.8889079999999971
40
0.5610919999999999
50
-181.13446712
51
-90.00000000
0
ARC
8
Edge.Cuts
10
62.1901129999999966
20
-29.9989059999999981
40
0.5499990000009091
50
-1.15578866
51
90.00010417
0
ARC
8
Edge.Cuts
10
48.6499999999999986
20
22.1999999999999993
40
0.5499999999999999
50
0.00000000
51
90.00000000
0
LINE
8
Edge.Cuts
6
CONTINUOUS
10
49.1999999999999957
20
-28.8999999999999986
11
49.1999999999999957
21
22.1999999999999993
0
LINE
8
Edge.Cuts
6
CONTINUOUS
10
62.1901119999999992
20
-29.4489069999999984
11
49.7509999999999977
21
-29.4489069999999984
0
ARC
8
Edge.Cuts
10
-31.4799999999999969
20
20.3000000000000007
40
1.75
50
-90.00000000
51
-0.00000000
0
ARC
8
Edge.Cuts
10
-18.5906999999999982
20
-76.1096000000000004
40
29.3707520954094754
50
82.22726251
51
91.57896345
0
ARC
8
Edge.Cuts
10
31.6999999999999993
20
24.5
40
4.0131035371642234
50
0.00000000
51
149.28109574
0
LINE
8
Edge.Cuts
6
CONTINUOUS
10
-10.6734479999999987
20
28.5700000000000003
11
-10.6734479999999987
21
26.0431039999999996
0
ARC
8
Edge.Cuts
10
7.2299999999999995
20
-53.7840999999999951
40
4.7710569908564286
50
-136.13881798
51
-85.43172895
0
LINE
8
Edge.Cuts
6
CONTINUOUS
10
10.766551999999999
20
28.5700000000000003
11
10.766551999999999
21
25.9800000000000004
0
LINE
8
Edge.Cuts
6
CONTINUOUS
10
63.6299999999999955
20
-68.1099999999999994
11
66.4572019999999952
21
-62.1405829999999995
0
ARC
8
Edge.Cuts
10
68.0938999999999908
20
-62.8870999999999967
40
1.7989074391121405
50
64.93940380
51
155.48171928
0
ARC
8
Edge.Cuts
10
-63.8999999999999986
20
14.5499999999999989
40
4.
50
0.00000000
51
180.00000000
0
ARC
8
Edge.Cuts
10
37.4634999999999962
20
24.5
40
1.7504003054984307
50
-180.00000000
51
-91.22538623
0
LINE
8
Edge.Cuts
6
CONTINUOUS
10
12.0031039999999987
20
24.75
11
25.1774570000000004
21
24.7455579999999991
0
LINE
8
Edge.Cuts
6
CONTINUOUS
10
-28.4800000000000004
20
24.8065519999999999
11
-11.9100000000000001
21
24.8065519999999999
0
ARC
8
Edge.Cuts
10
-58.1499999999999986
20
-48.5
40
1.75
50
90.00000000
51
180.00000000
0
ARC
8
Edge.Cuts
10
-11.9100000000000001
20
26.043099999999999
40
1.2365520000064696
50
-90.00000000
51
0.00018534
0
LINE
8
Edge.Cuts
6
CONTINUOUS
10
-58.1499999999999986
20
12.7999999999999989
11
-46.3999999999999986
21
12.8077819999999996
0
LINE
8
Edge.Cuts
6
CONTINUOUS
10
-46.3984479999999948
20
-46.75
11
-58.1499999999999986
21
-46.75
0
ARC
8
Edge.Cuts
10
-58.1499999999999986
20
14.5499999999999989
40
1.75
50
-180.00000000
51
-90.00000000
0
ARC
8
Edge.Cuts
10
-31.5
20
14.5499999999999989
40
4.0000499999999999
50
89.71352349
51
180.00000000
0
ARC
8
Edge.Cuts
10
-3.3348
20
-56.4384999999999977
40
4.5234081498356966
50
61.10556992
51
131.29566834
0
LINE
8
Edge.Cuts
6
CONTINUOUS
10
-46.4083630000000014
20
12.8078219999999998
11
-37.25
21
12.7999999999999989
0
ARC
8
Edge.Cuts
10
-18.5906999999999982
20
-76.1096000000000004
40
29.364762158921021
50
40.35860362
51
53.51487689
0
ARC
8
Edge.Cuts
10
11.996599999999999
20
25.9800000000000004
40
1.2300171958212616
50
-180.00000000
51
-89.69703392
0
LINE
8
Edge.Cuts
6
CONTINUOUS
10
-67.8999999999999915
20
-48.5
11
-67.8999999999999915
21
14.5499999999999989
0
LINE
8
Edge.Cuts
6
CONTINUOUS
10
-29.7300000000000004
20
23.5700000000000003
11
-29.7300000000000004
21
20.3000000000000007
0
ARC
8
Edge.Cuts
10
-9.1936999999999998
20
-50.1520999999999972
40
4.0740788038524736
50
-195.52127595
51
-45.14121050
0
ARC
8
Edge.Cuts
10
-37.25
20
14.5499999999999989
40
1.75
50
-90.00000000
51
-0.00000000
0
ARC
8
Edge.Cuts
10
-28.4933999999999976
20
23.5700000000000003
40
1.2365999999999999
50
89.37913376
51
180.00000000
0
LINE
8
Edge.Cuts
6
CONTINUOUS
10
-46.3984479999999948
20
-46.75
11
-19.3999999999999986
21
-46.75
0
ARC
8
Edge.Cuts
10
-14.8220999999999989
20
-48.7627999999999986
40
1.7590899387447474
50
-10.05722420
51
83.38300819
0
LINE
8
Edge.Cuts
6
CONTINUOUS
10
15.9399999999999995
20
-57.8200000000000003
11
7.6099999999999994
21
-58.5399999999999991
0
ARC
8
Edge.Cuts
10
9.5299999999999994
20
28.5700000000000003
40
1.2365519999999999
50
0.00000000
51
90.00000000
0
ARC
8
Edge.Cuts
10
22.2120999999999995
20
-128.9962999999999909
40
71.452116274467329
50
63.66463922
51
95.03593167
0
ARC
8
Edge.Cuts
10
25.2872999999999983
20
28.0765999999999991
40
3.3328814635387198
50
-91.88867646
51
-27.26083931
0
ARC
8
Edge.Cuts
10
-9.4368999999999996
20
28.5700000000000003
40
1.236548
50
89.99981466
51
180.00000000
0
LINE
8
Edge.Cuts
6
CONTINUOUS
10
-9.4368959999999991
20
29.8065519999999999
11
9.5299999999999994
21
29.8065519999999999
0
LINE
8
Edge.Cuts
6
CONTINUOUS
10
53.9099999999999966
20
-64.9599999999999937
11
61.6138679999999965
21
-68.6414879999999954
0
ARC
8
Edge.Cuts
10
62.2369999999999948
20
-66.9153999999999911
40
1.8350798783704212
50
-109.85000031
51
-40.61551818
0
ARC
8
Edge.Cuts
10
73.0499999999999972
20
-52.3999999999999986
40
1.8049928725801108
50
-201.44773633
51
-115.15062937
0
LINE
8
Edge.Cuts
6
CONTINUOUS
10
48.6499999999999986
20
22.75
11
37.4260669999999962
21
22.75
0
ARC
8
Edge.Cuts
10
68.523699999999991
20
-42.719699999999996
40
6.4374241572231359
50
-27.21008731
51
-1.07078287
0
LINE
8
Edge.Cuts
6
CONTINUOUS
10
74.9599999999999937
20
-42.8399999999999963
11
74.9570769999999982
21
-39.8099999999999952
0
LINE
8
Edge.Cuts
6
CONTINUOUS
10
74.2487279999999998
20
-45.6632389999999972
11
71.3740379999999988
21
-51.7399999999999949
0
ARC
8
Edge.Cuts
10
70.5600000000000023
20
-57.6400000000000006
40
3.998812323678119
50
-115.22384723
51
64.52433459
0
CIRCLE
8
Edge.Cuts
10
-9.1999999999999993
20
-50.1499999999999986
40
1.2
0
CIRCLE
8
Edge.Cuts
10
70.5600000000000023
20
-57.6400000000000006
40
1.2
0
CIRCLE
8
Edge.Cuts
10
-31.5
20
14.5499999999999989
40
1.2
0
CIRCLE
8
Edge.Cuts
10
-63.8999999999999986
20
-48.5
40
1.2
0
CIRCLE
8
Edge.Cuts
10
31.6999999999999993
20
24.5
40
1.2
0
CIRCLE
8
Edge.Cuts
10
-63.8999999999999986
20
14.5499999999999989
40
1.2
0
LINE
8
Edge.Cuts
6
CONTINUOUS
10
-31.0999999999999979
20
-4.9500000000000002
11
-45.1000000000000014
21
-4.9500000000000002
0
LINE
8
Edge.Cuts
6
CONTINUOUS
10
-31.0999999999999979
20
9.0499999999999989
11
-31.0999999999999979
21
-4.9500000000000002
0
LINE
8
Edge.Cuts
6
CONTINUOUS
10
-45.1000000000000014
20
-4.9500000000000002
11
-45.1000000000000014
21
9.0499999999999989
0
LINE
8
Edge.Cuts
6
CONTINUOUS
10
-45.1000000000000014
20
9.0499999999999989
11
-31.0999999999999979
21
9.0499999999999989
0
LINE
8
Edge.Cuts
6
CONTINUOUS
10
22.4834529999999972
20
-53.5132729999999981
11
8.5367269999999991
21
-54.7334529999999972
0
LINE
8
Edge.Cuts
6
CONTINUOUS
10
21.2632729999999981
20
-39.5665469999999999
11
22.4834529999999972
21
-53.5132729999999981
0
LINE
8
Edge.Cuts
6
CONTINUOUS
10
8.5367269999999991
20
-54.7334529999999972
11
7.3165469999999999
21
-40.7867269999999991
0
LINE
8
Edge.Cuts
6
CONTINUOUS
10
7.3165469999999999
20
-40.7867269999999991
11
21.2632729999999981
21
-39.5665469999999999
0
LINE
8
Edge.Cuts
6
CONTINUOUS
10
26.0499999999999972
20
7.0499999999999998
11
12.0499999999999989
21
7.0499999999999998
0
LINE
8
Edge.Cuts
6
CONTINUOUS
10
26.0499999999999972
20
21.0500000000000007
11
26.0499999999999972
21
7.0499999999999998
0
LINE
8
Edge.Cuts
6
CONTINUOUS
10
12.0499999999999989
20
7.0499999999999998
11
12.0499999999999989
21
21.0500000000000007
0
LINE
8
Edge.Cuts
6
CONTINUOUS
10
12.0499999999999989
20
21.0500000000000007
11
26.0499999999999972
21
21.0500000000000007
0
LINE
8
Edge.Cuts
6
CONTINUOUS
10
26.0499999999999972
20
-12.
11
12.0499999999999989
21
-12.
0
LINE
8
Edge.Cuts
6
CONTINUOUS
10
26.0499999999999972
20
2.
11
26.0499999999999972
21
-12.
0
LINE
8
Edge.Cuts
6
CONTINUOUS
10
12.0499999999999989
20
-12.
11
12.0499999999999989
21
2.
0
LINE
8
Edge.Cuts
6
CONTINUOUS
10
12.0499999999999989
20
2.
11
26.0499999999999972
21
2.
0
LINE
8
Edge.Cuts
6
CONTINUOUS
10
-12.0499999999999989
20
-12.
11
-26.0499999999999972
21
-12.
0
LINE
8
Edge.Cuts
6
CONTINUOUS
10
-12.0499999999999989
20
2.
11
-12.0499999999999989
21
-12.
0
LINE
8
Edge.Cuts
6
CONTINUOUS
10
-26.0499999999999972
20
-12.
11
-26.0499999999999972
21
2.
0
LINE
8
Edge.Cuts
6
CONTINUOUS
10
-26.0499999999999972
20
2.
11
-12.0499999999999989
21
2.
0
LINE
8
Edge.Cuts
6
CONTINUOUS
10
-12.0499999999999989
20
7.0499999999999998
11
-26.0499999999999972
21
7.0499999999999998
0
LINE
8
Edge.Cuts
6
CONTINUOUS
10
-12.0499999999999989
20
21.0500000000000007
11
-12.0499999999999989
21
7.0499999999999998
0
LINE
8
Edge.Cuts
6
CONTINUOUS
10
-26.0499999999999972
20
7.0499999999999998
11
-26.0499999999999972
21
21.0500000000000007
0
LINE
8
Edge.Cuts
6
CONTINUOUS
10
-26.0499999999999972
20
21.0500000000000007
11
-12.0499999999999989
21
21.0500000000000007
0
LINE
8
Edge.Cuts
6
CONTINUOUS
10
45.1000000000000014
20
-33.0499999999999972
11
31.0999999999999979
21
-33.0499999999999972
0
LINE
8
Edge.Cuts
6
CONTINUOUS
10
45.1000000000000014
20
-19.0500000000000007
11
45.1000000000000014
21
-33.0499999999999972
0
LINE
8
Edge.Cuts
6
CONTINUOUS
10
31.0999999999999979
20
-33.0499999999999972
11
31.0999999999999979
21
-19.0500000000000007
0
LINE
8
Edge.Cuts
6
CONTINUOUS
10
31.0999999999999979
20
-19.0500000000000007
11
45.1000000000000014
21
-19.0500000000000007
0
LINE
8
Edge.Cuts
6
CONTINUOUS
10
-50.1499999999999986
20
-24.
11
-64.1499999999999915
21
-24.
0
LINE
8
Edge.Cuts
6
CONTINUOUS
10
-50.1499999999999986
20
-10.
11
-50.1499999999999986
21
-24.
0
LINE
8
Edge.Cuts
6
CONTINUOUS
10
-64.1499999999999915
20
-24.
11
-64.1499999999999915
21
-10.
0
LINE
8
Edge.Cuts
6
CONTINUOUS
10
-64.1499999999999915
20
-10.
11
-50.1499999999999986
21
-10.
0
LINE
8
Edge.Cuts
6
CONTINUOUS
10
26.0499999999999972
20
-31.0499999999999972
11
12.0499999999999989
21
-31.0499999999999972
0
LINE
8
Edge.Cuts
6
CONTINUOUS
10
26.0499999999999972
20
-17.0500000000000007
11
26.0499999999999972
21
-31.0499999999999972
0
LINE
8
Edge.Cuts
6
CONTINUOUS
10
12.0499999999999989
20
-31.0499999999999972
11
12.0499999999999989
21
-17.0500000000000007
0
LINE
8
Edge.Cuts
6
CONTINUOUS
10
12.0499999999999989
20
-17.0500000000000007
11
26.0499999999999972
21
-17.0500000000000007
0
LINE
8
Edge.Cuts
6
CONTINUOUS
10
-12.0499999999999989
20
-31.0499999999999972
11
-26.0499999999999972
21
-31.0499999999999972
0
LINE
8
Edge.Cuts
6
CONTINUOUS
10
-12.0499999999999989
20
-17.0500000000000007
11
-12.0499999999999989
21
-31.0499999999999972
0
LINE
8
Edge.Cuts
6
CONTINUOUS
10
-26.0499999999999972
20
-31.0499999999999972
11
-26.0499999999999972
21
-17.0500000000000007
0
LINE
8
Edge.Cuts
6
CONTINUOUS
10
-26.0499999999999972
20
-17.0500000000000007
11
-12.0499999999999989
21
-17.0500000000000007
0
LINE
8
Edge.Cuts
6
CONTINUOUS
10
67.2024820000000034
20
-51.7641729999999995
11
61.2858269999999976
21
-64.4524820000000034
0
LINE
8
Edge.Cuts
6
CONTINUOUS
10
61.2858269999999976
20
-64.4524820000000034
11
48.5975180000000009
21
-58.5358269999999976
0
LINE
8
Edge.Cuts
6
CONTINUOUS
10
54.5141729999999995
20
-45.8475180000000009
11
67.2024820000000034
21
-51.7641729999999995
0
LINE
8
Edge.Cuts
6
CONTINUOUS
10
48.5975180000000009
20
-58.5358269999999976
11
54.5141729999999995
21
-45.8475180000000009
0
LINE
8
Edge.Cuts
6
CONTINUOUS
10
7.
20
-26.0499999999999972
11
-7.
21
-26.0499999999999972
0
LINE
8
Edge.Cuts
6
CONTINUOUS
10
7.
20
-12.0499999999999989
11
7.
21
-26.0499999999999972
0
LINE
8
Edge.Cuts
6
CONTINUOUS
10
-7.
20
-26.0499999999999972
11
-7.
21
-12.0499999999999989
0
LINE
8
Edge.Cuts
6
CONTINUOUS
10
-7.
20
-12.0499999999999989
11
7.
21
-12.0499999999999989
0
LINE
8
Edge.Cuts
6
CONTINUOUS
10
45.1000000000000014
20
-14.
11
31.0999999999999979
21
-14.
0
LINE
8
Edge.Cuts
6
CONTINUOUS
10
45.1000000000000014
20
0.
11
45.1000000000000014
21
-14.
0
LINE
8
Edge.Cuts
6
CONTINUOUS
10
31.0999999999999979
20
-14.
11
31.0999999999999979
21
0.
0
LINE
8
Edge.Cuts
6
CONTINUOUS
10
31.0999999999999979
20
0.
11
45.1000000000000014
21
0.
0
LINE
8
Edge.Cuts
6
CONTINUOUS
10
7.
20
12.0499999999999989
11
-7.
21
12.0499999999999989
0
LINE
8
Edge.Cuts
6
CONTINUOUS
10
7.
20
26.0499999999999972
11
7.
21
12.0499999999999989
0
LINE
8
Edge.Cuts
6
CONTINUOUS
10
-7.
20
12.0499999999999989
11
-7.
21
26.0499999999999972
0
LINE
8
Edge.Cuts
6
CONTINUOUS
10
-7.
20
26.0499999999999972
11
7.
21
26.0499999999999972
0
LINE
8
Edge.Cuts
6
CONTINUOUS
10
7.
20
-7.
11
-7.
21
-7.
0
LINE
8
Edge.Cuts
6
CONTINUOUS
10
7.
20
7.
11
7.
21
-7.
0
LINE
8
Edge.Cuts
6
CONTINUOUS
10
-7.
20
-7.
11
-7.
21
7.
0
LINE
8
Edge.Cuts
6
CONTINUOUS
10
-7.
20
7.
11
7.
21
7.
0
LINE
8
Edge.Cuts
6
CONTINUOUS
10
45.0091919999999988
20
-42.4718829999999983
11
42.5781169999999989
21
-56.2591919999999988
0
LINE
8
Edge.Cuts
6
CONTINUOUS
10
42.5781169999999989
20
-56.2591919999999988
11
28.7908079999999984
21
-53.8281169999999989
0
LINE
8
Edge.Cuts
6
CONTINUOUS
10
31.2218829999999983
20
-40.0408079999999984
11
45.0091919999999988
21
-42.4718829999999983
0
LINE
8
Edge.Cuts
6
CONTINUOUS
10
28.7908079999999984
20
-53.8281169999999989
11
31.2218829999999983
21
-40.0408079999999984
0
LINE
8
Edge.Cuts
6
CONTINUOUS
10
45.1000000000000014
20
5.0499999999999998
11
31.0999999999999979
21
5.0499999999999998
0
LINE
8
Edge.Cuts
6
CONTINUOUS
10
45.1000000000000014
20
19.0500000000000007
11
45.1000000000000014
21
5.0499999999999998
0
LINE
8
Edge.Cuts
6
CONTINUOUS
10
31.0999999999999979
20
5.0499999999999998
11
31.0999999999999979
21
19.0500000000000007
0
LINE
8
Edge.Cuts
6
CONTINUOUS
10
31.0999999999999979
20
19.0500000000000007
11
45.1000000000000014
21
19.0500000000000007
0
LINE
8
Edge.Cuts
6
CONTINUOUS
10
-50.1499999999999986
20
-43.0499999999999972
11
-64.1499999999999915
21
-43.0499999999999972
0
LINE
8
Edge.Cuts
6
CONTINUOUS
10
-50.1499999999999986
20
-29.0499999999999972
11
-50.1499999999999986
21
-43.0499999999999972
0
LINE
8
Edge.Cuts
6
CONTINUOUS
10
-64.1499999999999915
20
-43.0499999999999972
11
-64.1499999999999915
21
-29.0499999999999972
0
LINE
8
Edge.Cuts
6
CONTINUOUS
10
-64.1499999999999915
20
-29.0499999999999972
11
-50.1499999999999986
21
-29.0499999999999972
0
LINE
8
Edge.Cuts
6
CONTINUOUS
10
-31.0999999999999979
20
-24.
11
-45.1000000000000014
21
-24.
0
LINE
8
Edge.Cuts
6
CONTINUOUS
10
-31.0999999999999979
20
-10.
11
-31.0999999999999979
21
-24.
0
LINE
8
Edge.Cuts
6
CONTINUOUS
10
-45.1000000000000014
20
-24.
11
-45.1000000000000014
21
-10.
0
LINE
8
Edge.Cuts
6
CONTINUOUS
10
-45.1000000000000014
20
-10.
11
-31.0999999999999979
21
-10.
0
LINE
8
Edge.Cuts
6
CONTINUOUS
10
-50.1499999999999986
20
-4.9500000000000002
11
-64.1499999999999915
21
-4.9500000000000002
0
LINE
8
Edge.Cuts
6
CONTINUOUS
10
-50.1499999999999986
20
9.0499999999999989
11
-50.1499999999999986
21
-4.9500000000000002
0
LINE
8
Edge.Cuts
6
CONTINUOUS
10
-64.1499999999999915
20
-4.9500000000000002
11
-64.1499999999999915
21
9.0499999999999989
0
LINE
8
Edge.Cuts
6
CONTINUOUS
10
-64.1499999999999915
20
9.0499999999999989
11
-50.1499999999999986
21
9.0499999999999989
0
LINE
8
Edge.Cuts
6
CONTINUOUS
10
-31.0999999999999979
20
-43.0499999999999972
11
-45.1000000000000014
21
-43.0499999999999972
0
LINE
8
Edge.Cuts
6
CONTINUOUS
10
-31.0999999999999979
20
-29.0499999999999972
11
-31.0999999999999979
21
-43.0499999999999972
0
LINE
8
Edge.Cuts
6
CONTINUOUS
10
-45.1000000000000014
20
-43.0499999999999972
11
-45.1000000000000014
21
-29.0499999999999972
0
LINE
8
Edge.Cuts
6
CONTINUOUS
10
-45.1000000000000014
20
-29.0499999999999972
11
-31.0999999999999979
21
-29.0499999999999972
  0
ENDSEC
  0
EOF
