999
"DXF R12 Output" (www.mydxf.blogspot.com)
 0 
SECTION
 2 
HEADER
 9 
$ACADVER
 1 
AC1009
 9 
$EXTMIN
 10 
 0 
 20 
 0 
 9 
$EXTMAX
 10 
 8.5 
 20 
 11 
 0 
ENDSEC
 0 
SECTION
 2 
ENTITIES
0
POLYLINE
8
Edge.Cuts
62
254
70
0
10
0.000000
20
0.000000
66
1
0
VERTEX
8
Edge.Cuts
10
88.273345
20
142.440924
70
0
0
VERTEX
8
Edge.Cuts
10
89.317014
20
142.579386
70
0
0
VERTEX
8
Edge.Cuts
10
90.273342
20
142.976822
70
0
0
VERTEX
8
Edge.Cuts
10
91.095696
20
143.606309
70
0
0
VERTEX
8
Edge.Cuts
10
91.737442
20
144.440922
70
0
0
VERTEX
8
Edge.Cuts
10
92.139365
20
145.413997
70
0
0
VERTEX
8
Edge.Cuts
10
92.273340
20
146.440919
70
0
0
VERTEX
8
Edge.Cuts
10
92.139365
20
147.467842
70
0
0
VERTEX
8
Edge.Cuts
10
91.737442
20
148.440917
70
0
0
VERTEX
8
Edge.Cuts
10
91.095696
20
149.275530
70
0
0
VERTEX
8
Edge.Cuts
10
90.273342
20
149.905016
70
0
0
VERTEX
8
Edge.Cuts
10
89.317014
20
150.302452
70
0
0
VERTEX
8
Edge.Cuts
10
88.273345
20
150.440914
70
0
0
SEQEND
8
Edge.Cuts
0
POLYLINE
8
Edge.Cuts
62
254
70
0
10
0.000000
20
0.000000
66
1
0
VERTEX
8
Edge.Cuts
10
25.222581
20
150.440935
70
0
0
VERTEX
8
Edge.Cuts
10
88.272710
20
150.440935
70
0
0
SEQEND
8
Edge.Cuts
0
POLYLINE
8
Edge.Cuts
62
254
70
0
10
0.000000
20
0.000000
66
1
0
VERTEX
8
Edge.Cuts
10
25.223428
20
150.440914
70
0
0
VERTEX
8
Edge.Cuts
10
24.179758
20
150.302452
70
0
0
VERTEX
8
Edge.Cuts
10
23.223430
20
149.905016
70
0
0
VERTEX
8
Edge.Cuts
10
22.401077
20
149.275530
70
0
0
VERTEX
8
Edge.Cuts
10
21.759331
20
148.440917
70
0
0
VERTEX
8
Edge.Cuts
10
21.357407
20
147.467842
70
0
0
VERTEX
8
Edge.Cuts
10
21.223433
20
146.440919
70
0
0
VERTEX
8
Edge.Cuts
10
21.357407
20
145.413997
70
0
0
VERTEX
8
Edge.Cuts
10
21.759331
20
144.440922
70
0
0
VERTEX
8
Edge.Cuts
10
22.401077
20
143.606309
70
0
0
VERTEX
8
Edge.Cuts
10
23.223430
20
142.976822
70
0
0
VERTEX
8
Edge.Cuts
10
24.179758
20
142.579386
70
0
0
VERTEX
8
Edge.Cuts
10
25.223428
20
142.440924
70
0
0
SEQEND
8
Edge.Cuts
0
POLYLINE
8
Edge.Cuts
62
254
70
0
10
0.000000
20
0.000000
66
1
0
VERTEX
8
Edge.Cuts
10
26.973433
20
140.690927
70
0
0
VERTEX
8
Edge.Cuts
10
26.840221
20
141.360624
70
0
0
VERTEX
8
Edge.Cuts
10
26.460867
20
141.928365
70
0
0
VERTEX
8
Edge.Cuts
10
25.893125
20
142.307716
70
0
0
VERTEX
8
Edge.Cuts
10
25.223428
20
142.440924
70
0
0
SEQEND
8
Edge.Cuts
0
POLYLINE
8
Edge.Cuts
62
254
70
0
10
0.000000
20
0.000000
66
1
0
VERTEX
8
Edge.Cuts
10
88.273345
20
142.440924
70
0
0
VERTEX
8
Edge.Cuts
10
87.592173
20
142.303395
70
0
0
VERTEX
8
Edge.Cuts
10
87.035923
20
141.928355
70
0
0
VERTEX
8
Edge.Cuts
10
86.660888
20
141.372101
70
0
0
VERTEX
8
Edge.Cuts
10
86.523367
20
140.690927
70
0
0
SEQEND
8
Edge.Cuts
0
POLYLINE
8
Edge.Cuts
62
254
70
0
10
0.000000
20
0.000000
66
1
0
VERTEX
8
Edge.Cuts
10
86.523816
20
140.691052
70
0
0
VERTEX
8
Edge.Cuts
10
86.531754
20
128.940921
70
0
0
SEQEND
8
Edge.Cuts
0
POLYLINE
8
Edge.Cuts
62
254
70
0
10
0.000000
20
0.000000
66
1
0
VERTEX
8
Edge.Cuts
10
86.531754
20
128.949387
70
0
0
VERTEX
8
Edge.Cuts
10
86.523816
20
119.790847
70
0
0
SEQEND
8
Edge.Cuts
0
POLYLINE
8
Edge.Cuts
62
254
70
0
10
0.000000
20
0.000000
66
1
0
VERTEX
8
Edge.Cuts
10
26.974121
20
128.939333
70
0
0
VERTEX
8
Edge.Cuts
10
26.974121
20
140.691052
70
0
0
SEQEND
8
Edge.Cuts
0
POLYLINE
8
Edge.Cuts
62
254
70
0
10
0.000000
20
0.000000
66
1
0
VERTEX
8
Edge.Cuts
10
26.974121
20
128.939333
70
0
0
VERTEX
8
Edge.Cuts
10
26.974121
20
101.940966
70
0
0
SEQEND
8
Edge.Cuts
0
POLYLINE
8
Edge.Cuts
62
254
70
0
10
0.000000
20
0.000000
66
1
0
VERTEX
8
Edge.Cuts
10
92.273364
20
114.020961
70
0
0
VERTEX
8
Edge.Cuts
10
92.199229
20
114.807844
70
0
0
VERTEX
8
Edge.Cuts
10
91.974640
20
115.557848
70
0
0
VERTEX
8
Edge.Cuts
10
91.608293
20
116.249756
70
0
0
VERTEX
8
Edge.Cuts
10
91.108882
20
116.862348
70
0
0
VERTEX
8
Edge.Cuts
10
90.498790
20
117.364813
70
0
0
VERTEX
8
Edge.Cuts
10
89.808721
20
117.734611
70
0
0
VERTEX
8
Edge.Cuts
10
89.059848
20
117.962943
70
0
0
VERTEX
8
Edge.Cuts
10
88.273345
20
118.041006
70
0
0
SEQEND
8
Edge.Cuts
0
POLYLINE
8
Edge.Cuts
62
254
70
0
10
0.000000
20
0.000000
66
1
0
VERTEX
8
Edge.Cuts
10
86.523367
20
119.790953
70
0
0
VERTEX
8
Edge.Cuts
10
86.660888
20
119.109779
70
0
0
VERTEX
8
Edge.Cuts
10
87.035923
20
118.553525
70
0
0
VERTEX
8
Edge.Cuts
10
87.592173
20
118.178485
70
0
0
VERTEX
8
Edge.Cuts
10
88.273345
20
118.040956
70
0
0
SEQEND
8
Edge.Cuts
0
POLYLINE
8
Edge.Cuts
62
254
70
0
10
0.000000
20
0.000000
66
1
0
VERTEX
8
Edge.Cuts
10
97.292344
20
112.270869
70
0
0
VERTEX
8
Edge.Cuts
10
94.022099
20
112.270869
70
0
0
SEQEND
8
Edge.Cuts
0
POLYLINE
8
Edge.Cuts
62
254
70
0
10
0.000000
20
0.000000
66
1
0
VERTEX
8
Edge.Cuts
10
98.529879
20
111.020965
70
0
0
VERTEX
8
Edge.Cuts
10
98.439628
20
111.498290
70
0
0
VERTEX
8
Edge.Cuts
10
98.172483
20
111.904021
70
0
0
VERTEX
8
Edge.Cuts
10
97.769669
20
112.175546
70
0
0
VERTEX
8
Edge.Cuts
10
97.293350
20
112.270961
70
0
0
SEQEND
8
Edge.Cuts
0
POLYLINE
8
Edge.Cuts
62
254
70
0
10
0.000000
20
0.000000
66
1
0
VERTEX
8
Edge.Cuts
10
92.273364
20
114.020961
70
0
0
VERTEX
8
Edge.Cuts
10
92.410885
20
113.339787
70
0
0
VERTEX
8
Edge.Cuts
10
92.785919
20
112.783531
70
0
0
VERTEX
8
Edge.Cuts
10
93.342170
20
112.408491
70
0
0
VERTEX
8
Edge.Cuts
10
94.023342
20
112.270961
70
0
0
SEQEND
8
Edge.Cuts
0
POLYLINE
8
Edge.Cuts
62
254
70
0
10
0.000000
20
0.000000
66
1
0
VERTEX
8
Edge.Cuts
10
98.530593
20
111.020979
70
0
0
VERTEX
8
Edge.Cuts
10
98.530593
20
94.450992
70
0
0
SEQEND
8
Edge.Cuts
0
POLYLINE
8
Edge.Cuts
62
254
70
0
10
0.000000
20
0.000000
66
1
0
VERTEX
8
Edge.Cuts
10
26.714723
20
97.159459
70
0
0
VERTEX
8
Edge.Cuts
10
26.941686
20
99.544936
70
0
0
VERTEX
8
Edge.Cuts
10
26.973433
20
101.940976
70
0
0
SEQEND
8
Edge.Cuts
0
POLYLINE
8
Edge.Cuts
62
254
70
0
10
0.000000
20
0.000000
66
1
0
VERTEX
8
Edge.Cuts
10
24.653437
20
95.631024
70
0
0
VERTEX
8
Edge.Cuts
10
25.365393
20
95.651193
70
0
0
VERTEX
8
Edge.Cuts
10
26.010993
20
95.952005
70
0
0
VERTEX
8
Edge.Cuts
10
26.484400
20
96.484147
70
0
0
VERTEX
8
Edge.Cuts
10
26.708003
20
97.160379
70
0
0
SEQEND
8
Edge.Cuts
0
POLYLINE
8
Edge.Cuts
62
254
70
0
10
0.000000
20
0.000000
66
1
0
VERTEX
8
Edge.Cuts
10
102.292963
20
93.214437
70
0
0
VERTEX
8
Edge.Cuts
10
99.766196
20
93.214437
70
0
0
SEQEND
8
Edge.Cuts
0
POLYLINE
8
Edge.Cuts
62
254
70
0
10
0.000000
20
0.000000
66
1
0
VERTEX
8
Edge.Cuts
10
103.529889
20
91.977884
70
0
0
VERTEX
8
Edge.Cuts
10
103.435763
20
92.451093
70
0
0
VERTEX
8
Edge.Cuts
10
103.167711
20
92.852260
70
0
0
VERTEX
8
Edge.Cuts
10
102.766543
20
93.120310
70
0
0
VERTEX
8
Edge.Cuts
10
102.293334
20
93.214435
70
0
0
SEQEND
8
Edge.Cuts
0
POLYLINE
8
Edge.Cuts
62
254
70
0
10
0.000000
20
0.000000
66
1
0
VERTEX
8
Edge.Cuts
10
98.529879
20
94.450985
70
0
0
VERTEX
8
Edge.Cuts
10
98.624006
20
93.977777
70
0
0
VERTEX
8
Edge.Cuts
10
98.892057
20
93.576610
70
0
0
VERTEX
8
Edge.Cuts
10
99.293225
20
93.308560
70
0
0
VERTEX
8
Edge.Cuts
10
99.766434
20
93.214435
70
0
0
SEQEND
8
Edge.Cuts
0
POLYLINE
8
Edge.Cuts
62
254
70
0
10
0.000000
20
0.000000
66
1
0
VERTEX
8
Edge.Cuts
10
103.528566
20
91.977882
70
0
0
VERTEX
8
Edge.Cuts
10
103.528566
20
73.011011
70
0
0
SEQEND
8
Edge.Cuts
0
POLYLINE
8
Edge.Cuts
62
254
70
0
10
0.000000
20
0.000000
66
1
0
VERTEX
8
Edge.Cuts
10
24.661533
20
95.660185
70
0
0
VERTEX
8
Edge.Cuts
10
23.321469
20
95.801443
70
0
0
VERTEX
8
Edge.Cuts
10
22.040300
20
95.510123
70
0
0
VERTEX
8
Edge.Cuts
10
20.918098
20
94.826807
70
0
0
VERTEX
8
Edge.Cuts
10
20.054931
20
93.792075
70
0
0
VERTEX
8
Edge.Cuts
10
19.575822
20
92.532639
70
0
0
VERTEX
8
Edge.Cuts
10
19.529974
20
91.219567
70
0
0
VERTEX
8
Edge.Cuts
10
19.903733
20
89.959978
70
0
0
VERTEX
8
Edge.Cuts
10
20.683448
20
88.860992
70
0
0
SEQEND
8
Edge.Cuts
0
POLYLINE
8
Edge.Cuts
62
254
70
0
10
0.000000
20
0.000000
66
1
0
VERTEX
8
Edge.Cuts
10
21.245237
20
83.690100
70
0
0
VERTEX
8
Edge.Cuts
10
21.723216
20
85.000968
70
0
0
VERTEX
8
Edge.Cuts
10
21.781889
20
86.364368
70
0
0
VERTEX
8
Edge.Cuts
10
21.431789
20
87.683357
70
0
0
VERTEX
8
Edge.Cuts
10
20.683448
20
88.860992
70
0
0
SEQEND
8
Edge.Cuts
0
POLYLINE
8
Edge.Cuts
62
254
70
0
10
0.000000
20
0.000000
66
1
0
VERTEX
8
Edge.Cuts
10
16.629560
20
78.755569
70
0
0
VERTEX
8
Edge.Cuts
10
19.067738
20
81.081283
70
0
0
VERTEX
8
Edge.Cuts
10
21.223436
20
83.670999
70
0
0
SEQEND
8
Edge.Cuts
0
POLYLINE
8
Edge.Cuts
62
254
70
0
10
0.000000
20
0.000000
66
1
0
VERTEX
8
Edge.Cuts
10
16.633423
20
78.751036
70
0
0
VERTEX
8
Edge.Cuts
10
15.955589
20
77.936454
70
0
0
VERTEX
8
Edge.Cuts
10
15.478813
20
77.004096
70
0
0
VERTEX
8
Edge.Cuts
10
15.216850
20
75.990202
70
0
0
VERTEX
8
Edge.Cuts
10
15.183455
20
74.931010
70
0
0
SEQEND
8
Edge.Cuts
0
POLYLINE
8
Edge.Cuts
62
254
70
0
10
0.000000
20
0.000000
66
1
0
VERTEX
8
Edge.Cuts
10
102.293334
20
71.774462
70
0
0
VERTEX
8
Edge.Cuts
10
102.766542
20
71.868587
70
0
0
VERTEX
8
Edge.Cuts
10
103.167710
20
72.136637
70
0
0
VERTEX
8
Edge.Cuts
10
103.435761
20
72.537803
70
0
0
VERTEX
8
Edge.Cuts
10
103.529889
20
73.011012
70
0
0
SEQEND
8
Edge.Cuts
0
POLYLINE
8
Edge.Cuts
62
254
70
0
10
0.000000
20
0.000000
66
1
0
VERTEX
8
Edge.Cuts
10
102.292963
20
71.774456
70
0
0
VERTEX
8
Edge.Cuts
10
99.702696
20
71.774456
70
0
0
SEQEND
8
Edge.Cuts
0
POLYLINE
8
Edge.Cuts
62
254
70
0
10
0.000000
20
0.000000
66
1
0
VERTEX
8
Edge.Cuts
10
99.703331
20
71.774431
70
0
0
VERTEX
8
Edge.Cuts
10
99.231124
20
71.680177
70
0
0
VERTEX
8
Edge.Cuts
10
98.831285
20
71.411863
70
0
0
VERTEX
8
Edge.Cuts
10
98.565091
20
71.010610
70
0
0
VERTEX
8
Edge.Cuts
10
98.473337
20
70.537911
70
0
0
SEQEND
8
Edge.Cuts
0
POLYLINE
8
Edge.Cuts
62
254
70
0
10
0.000000
20
0.000000
66
1
0
VERTEX
8
Edge.Cuts
10
98.472385
20
70.537901
70
0
0
VERTEX
8
Edge.Cuts
10
98.469739
20
57.363573
70
0
0
SEQEND
8
Edge.Cuts
0
POLYLINE
8
Edge.Cuts
62
254
70
0
10
0.000000
20
0.000000
66
1
0
VERTEX
8
Edge.Cuts
10
15.903968
20
66.601012
70
0
0
VERTEX
8
Edge.Cuts
10
15.184302
20
74.931011
70
0
0
SEQEND
8
Edge.Cuts
0
POLYLINE
8
Edge.Cuts
62
254
70
0
10
0.000000
20
0.000000
66
1
0
VERTEX
8
Edge.Cuts
10
8.763455
20
28.631068
70
0
0
VERTEX
8
Edge.Cuts
10
10.788935
20
33.103076
70
0
0
VERTEX
8
Edge.Cuts
10
12.497057
20
37.687206
70
0
0
VERTEX
8
Edge.Cuts
10
13.884644
20
42.366575
70
0
0
VERTEX
8
Edge.Cuts
10
14.948522
20
47.124298
70
0
0
VERTEX
8
Edge.Cuts
10
15.685516
20
51.943488
70
0
0
VERTEX
8
Edge.Cuts
10
16.092450
20
56.807262
70
0
0
VERTEX
8
Edge.Cuts
10
16.166149
20
61.698734
70
0
0
VERTEX
8
Edge.Cuts
10
15.903439
20
66.601020
70
0
0
SEQEND
8
Edge.Cuts
0
POLYLINE
8
Edge.Cuts
62
254
70
0
10
0.000000
20
0.000000
66
1
0
VERTEX
8
Edge.Cuts
10
98.468866
20
57.363576
70
0
0
VERTEX
8
Edge.Cuts
10
98.571979
20
56.423575
70
0
0
VERTEX
8
Edge.Cuts
10
98.926030
20
55.565915
70
0
0
VERTEX
8
Edge.Cuts
10
99.502619
20
54.838951
70
0
0
VERTEX
8
Edge.Cuts
10
100.273348
20
54.291037
70
0
0
SEQEND
8
Edge.Cuts
0
POLYLINE
8
Edge.Cuts
62
254
70
0
10
0.000000
20
0.000000
66
1
0
VERTEX
8
Edge.Cuts
10
98.223333
20
46.827941
70
0
0
VERTEX
8
Edge.Cuts
10
99.523007
20
47.043861
70
0
0
VERTEX
8
Edge.Cuts
10
100.656362
20
47.649578
70
0
0
VERTEX
8
Edge.Cuts
10
101.540648
20
48.582008
70
0
0
VERTEX
8
Edge.Cuts
10
102.093114
20
49.778067
70
0
0
VERTEX
8
Edge.Cuts
10
102.229152
20
51.088512
70
0
0
VERTEX
8
Edge.Cuts
10
101.945261
20
52.341825
70
0
0
VERTEX
8
Edge.Cuts
10
101.280356
20
53.441501
70
0
0
VERTEX
8
Edge.Cuts
10
100.273348
20
54.291037
70
0
0
SEQEND
8
Edge.Cuts
0
POLYLINE
8
Edge.Cuts
62
254
70
0
10
0.000000
20
0.000000
66
1
0
VERTEX
8
Edge.Cuts
10
98.223333
20
46.827946
70
0
0
VERTEX
8
Edge.Cuts
10
97.551085
20
46.694153
70
0
0
VERTEX
8
Edge.Cuts
10
96.998933
20
46.328424
70
0
0
VERTEX
8
Edge.Cuts
10
96.621486
20
45.784215
70
0
0
VERTEX
8
Edge.Cuts
10
96.473354
20
45.114981
70
0
0
SEQEND
8
Edge.Cuts
0
POLYLINE
8
Edge.Cuts
62
254
70
0
10
0.000000
20
0.000000
66
1
0
VERTEX
8
Edge.Cuts
10
8.762873
20
28.631155
70
0
0
VERTEX
8
Edge.Cuts
10
5.082523
20
20.927292
70
0
0
SEQEND
8
Edge.Cuts
0
POLYLINE
8
Edge.Cuts
62
254
70
0
10
0.000000
20
0.000000
66
1
0
VERTEX
8
Edge.Cuts
10
5.082020
20
20.927194
70
0
0
VERTEX
8
Edge.Cuts
10
4.974437
20
20.379416
70
0
0
VERTEX
8
Edge.Cuts
10
5.033600
20
19.836331
70
0
0
VERTEX
8
Edge.Cuts
10
5.249834
20
19.334648
70
0
0
VERTEX
8
Edge.Cuts
10
5.613462
20
18.911080
70
0
0
SEQEND
8
Edge.Cuts
0
POLYLINE
8
Edge.Cuts
62
254
70
0
10
0.000000
20
0.000000
66
1
0
VERTEX
8
Edge.Cuts
10
5.614335
20
18.911170
70
0
0
VERTEX
8
Edge.Cuts
10
11.583327
20
16.083836
70
0
0
SEQEND
8
Edge.Cuts
0
POLYLINE
8
Edge.Cuts
62
254
70
0
10
0.000000
20
0.000000
66
1
0
VERTEX
8
Edge.Cuts
10
12.465897
20
13.685211
70
0
0
VERTEX
8
Edge.Cuts
10
12.633638
20
14.371066
70
0
0
VERTEX
8
Edge.Cuts
10
12.524494
20
15.068650
70
0
0
VERTEX
8
Edge.Cuts
10
12.155281
20
15.670494
70
0
0
VERTEX
8
Edge.Cuts
10
11.582878
20
16.083881
70
0
0
SEQEND
8
Edge.Cuts
0
POLYLINE
8
Edge.Cuts
62
254
70
0
10
0.000000
20
0.000000
66
1
0
VERTEX
8
Edge.Cuts
10
12.465923
20
13.685203
70
0
0
VERTEX
8
Edge.Cuts
10
12.196609
20
12.922797
70
0
0
VERTEX
8
Edge.Cuts
10
12.087592
20
12.145744
70
0
0
VERTEX
8
Edge.Cuts
10
12.319896
20
10.632900
70
0
0
VERTEX
8
Edge.Cuts
10
13.101739
20
9.317080
70
0
0
VERTEX
8
Edge.Cuts
10
13.679646
20
8.786306
70
0
0
VERTEX
8
Edge.Cuts
10
14.372027
20
8.368693
70
0
0
VERTEX
8
Edge.Cuts
10
15.133737
20
8.097415
70
0
0
VERTEX
8
Edge.Cuts
10
15.910506
20
7.986395
70
0
0
VERTEX
8
Edge.Cuts
10
17.423944
20
8.214801
70
0
0
VERTEX
8
Edge.Cuts
10
18.741775
20
8.993252
70
0
0
VERTEX
8
Edge.Cuts
10
19.274035
20
9.569789
70
0
0
VERTEX
8
Edge.Cuts
10
19.693431
20
10.261092
70
0
0
SEQEND
8
Edge.Cuts
0
POLYLINE
8
Edge.Cuts
62
254
70
0
10
0.000000
20
0.000000
66
1
0
VERTEX
8
Edge.Cuts
10
21.983450
20
11.171090
70
0
0
VERTEX
8
Edge.Cuts
10
21.308242
20
11.296388
70
0
0
VERTEX
8
Edge.Cuts
10
20.656028
20
11.168166
70
0
0
VERTEX
8
Edge.Cuts
10
20.094054
20
10.813187
70
0
0
VERTEX
8
Edge.Cuts
10
19.689568
20
10.258213
70
0
0
SEQEND
8
Edge.Cuts
0
POLYLINE
8
Edge.Cuts
62
254
70
0
10
0.000000
20
0.000000
66
1
0
VERTEX
8
Edge.Cuts
10
96.482721
20
8.871039
70
0
0
VERTEX
8
Edge.Cuts
10
96.472137
20
45.114941
70
0
0
SEQEND
8
Edge.Cuts
0
POLYLINE
8
Edge.Cuts
62
254
70
0
10
0.000000
20
0.000000
66
1
0
VERTEX
8
Edge.Cuts
10
95.233360
20
7.581067
70
0
0
VERTEX
8
Edge.Cuts
10
95.722651
20
7.677355
70
0
0
VERTEX
8
Edge.Cuts
10
96.134543
20
7.958465
70
0
0
VERTEX
8
Edge.Cuts
10
96.402534
20
8.379011
70
0
0
VERTEX
8
Edge.Cuts
10
96.483355
20
8.871094
70
0
0
SEQEND
8
Edge.Cuts
0
POLYLINE
8
Edge.Cuts
62
254
70
0
10
0.000000
20
0.000000
66
1
0
VERTEX
8
Edge.Cuts
10
28.058911
20
8.292396
70
0
0
VERTEX
8
Edge.Cuts
10
21.984085
20
11.167090
70
0
0
SEQEND
8
Edge.Cuts
0
POLYLINE
8
Edge.Cuts
62
254
70
0
10
0.000000
20
0.000000
66
1
0
VERTEX
8
Edge.Cuts
10
28.060181
20
8.292361
70
0
0
VERTEX
8
Edge.Cuts
10
29.431072
20
7.775022
70
0
0
VERTEX
8
Edge.Cuts
10
30.883440
20
7.581093
70
0
0
SEQEND
8
Edge.Cuts
0
POLYLINE
8
Edge.Cuts
62
254
70
0
10
0.000000
20
0.000000
66
1
0
VERTEX
8
Edge.Cuts
10
30.884657
20
7.581197
70
0
0
VERTEX
8
Edge.Cuts
10
95.233889
20
7.581197
70
0
0
SEQEND
8
Edge.Cuts
0
POLYLINE
8
Edge.Cuts
62
254
70
0
10
0.000000
20
0.000000
66
1
0
VERTEX
8
Edge.Cuts
10
23.573435
20
90.340990
70
0
0
VERTEX
8
Edge.Cuts
10
24.118182
20
90.451184
70
0
0
VERTEX
8
Edge.Cuts
10
24.562990
20
90.751255
70
0
0
VERTEX
8
Edge.Cuts
10
24.862868
20
91.196193
70
0
0
VERTEX
8
Edge.Cuts
10
24.972825
20
91.740988
70
0
0
VERTEX
8
Edge.Cuts
10
24.862868
20
92.285783
70
0
0
VERTEX
8
Edge.Cuts
10
24.562990
20
92.730722
70
0
0
VERTEX
8
Edge.Cuts
10
24.118182
20
93.030793
70
0
0
VERTEX
8
Edge.Cuts
10
23.573435
20
93.140987
70
0
0
VERTEX
8
Edge.Cuts
10
23.028688
20
93.030793
70
0
0
VERTEX
8
Edge.Cuts
10
22.583880
20
92.730722
70
0
0
VERTEX
8
Edge.Cuts
10
22.284003
20
92.285783
70
0
0
VERTEX
8
Edge.Cuts
10
22.174046
20
91.740988
70
0
0
VERTEX
8
Edge.Cuts
10
22.284003
20
91.196193
70
0
0
VERTEX
8
Edge.Cuts
10
22.583880
20
90.751255
70
0
0
VERTEX
8
Edge.Cuts
10
23.028688
20
90.451184
70
0
0
VERTEX
8
Edge.Cuts
10
23.573435
20
90.340990
70
0
0
VERTEX
8
Edge.Cuts
10
23.573435
20
90.340990
70
0
0
SEQEND
8
Edge.Cuts
0
POLYLINE
8
Edge.Cuts
62
254
70
0
10
0.000000
20
0.000000
66
1
0
VERTEX
8
Edge.Cuts
10
16.083434
20
10.581091
70
0
0
VERTEX
8
Edge.Cuts
10
16.627824
20
10.691605
70
0
0
VERTEX
8
Edge.Cuts
10
17.072270
20
10.991749
70
0
0
VERTEX
8
Edge.Cuts
10
17.371867
20
11.436564
70
0
0
VERTEX
8
Edge.Cuts
10
17.481711
20
11.981089
70
0
0
VERTEX
8
Edge.Cuts
10
17.371867
20
12.525614
70
0
0
VERTEX
8
Edge.Cuts
10
17.072270
20
12.970428
70
0
0
VERTEX
8
Edge.Cuts
10
16.627824
20
13.270572
70
0
0
VERTEX
8
Edge.Cuts
10
16.083434
20
13.381086
70
0
0
VERTEX
8
Edge.Cuts
10
15.539045
20
13.270572
70
0
0
VERTEX
8
Edge.Cuts
10
15.094599
20
12.970428
70
0
0
VERTEX
8
Edge.Cuts
10
14.795002
20
12.525614
70
0
0
VERTEX
8
Edge.Cuts
10
14.685158
20
11.981089
70
0
0
VERTEX
8
Edge.Cuts
10
14.795002
20
11.436564
70
0
0
VERTEX
8
Edge.Cuts
10
15.094599
20
10.991749
70
0
0
VERTEX
8
Edge.Cuts
10
15.539045
20
10.691605
70
0
0
VERTEX
8
Edge.Cuts
10
16.083434
20
10.581091
70
0
0
VERTEX
8
Edge.Cuts
10
16.083434
20
10.581091
70
0
0
SEQEND
8
Edge.Cuts
0
POLYLINE
8
Edge.Cuts
62
254
70
0
10
0.000000
20
0.000000
66
1
0
VERTEX
8
Edge.Cuts
10
88.273345
20
112.640962
70
0
0
VERTEX
8
Edge.Cuts
10
88.973344
20
112.828526
70
0
0
VERTEX
8
Edge.Cuts
10
89.485779
20
113.340962
70
0
0
VERTEX
8
Edge.Cuts
10
89.673344
20
114.040961
70
0
0
VERTEX
8
Edge.Cuts
10
89.485779
20
114.740960
70
0
0
VERTEX
8
Edge.Cuts
10
88.973344
20
115.253395
70
0
0
VERTEX
8
Edge.Cuts
10
88.273345
20
115.440959
70
0
0
VERTEX
8
Edge.Cuts
10
87.573346
20
115.253395
70
0
0
VERTEX
8
Edge.Cuts
10
87.060911
20
114.740960
70
0
0
VERTEX
8
Edge.Cuts
10
86.873346
20
114.040961
70
0
0
VERTEX
8
Edge.Cuts
10
87.060911
20
113.340962
70
0
0
VERTEX
8
Edge.Cuts
10
87.573346
20
112.828526
70
0
0
VERTEX
8
Edge.Cuts
10
88.273345
20
112.640962
70
0
0
VERTEX
8
Edge.Cuts
10
88.273345
20
112.640962
70
0
0
SEQEND
8
Edge.Cuts
0
POLYLINE
8
Edge.Cuts
62
254
70
0
10
0.000000
20
0.000000
66
1
0
VERTEX
8
Edge.Cuts
10
25.223428
20
145.040921
70
0
0
VERTEX
8
Edge.Cuts
10
25.923427
20
145.228485
70
0
0
VERTEX
8
Edge.Cuts
10
26.435862
20
145.740920
70
0
0
VERTEX
8
Edge.Cuts
10
26.623426
20
146.440919
70
0
0
VERTEX
8
Edge.Cuts
10
26.435862
20
147.140919
70
0
0
VERTEX
8
Edge.Cuts
10
25.923427
20
147.653354
70
0
0
VERTEX
8
Edge.Cuts
10
25.223428
20
147.840918
70
0
0
VERTEX
8
Edge.Cuts
10
24.523428
20
147.653354
70
0
0
VERTEX
8
Edge.Cuts
10
24.010993
20
147.140919
70
0
0
VERTEX
8
Edge.Cuts
10
23.823429
20
146.440919
70
0
0
VERTEX
8
Edge.Cuts
10
24.010993
20
145.740920
70
0
0
VERTEX
8
Edge.Cuts
10
24.523428
20
145.228485
70
0
0
VERTEX
8
Edge.Cuts
10
25.223428
20
145.040921
70
0
0
VERTEX
8
Edge.Cuts
10
25.223428
20
145.040921
70
0
0
SEQEND
8
Edge.Cuts
0
POLYLINE
8
Edge.Cuts
62
254
70
0
10
0.000000
20
0.000000
66
1
0
VERTEX
8
Edge.Cuts
10
98.223333
20
49.441042
70
0
0
VERTEX
8
Edge.Cuts
10
98.923332
20
49.628607
70
0
0
VERTEX
8
Edge.Cuts
10
99.435767
20
50.141042
70
0
0
VERTEX
8
Edge.Cuts
10
99.623331
20
50.841041
70
0
0
VERTEX
8
Edge.Cuts
10
99.435767
20
51.541040
70
0
0
VERTEX
8
Edge.Cuts
10
98.923332
20
52.053475
70
0
0
VERTEX
8
Edge.Cuts
10
98.223333
20
52.241040
70
0
0
VERTEX
8
Edge.Cuts
10
97.678390
20
52.131021
70
0
0
VERTEX
8
Edge.Cuts
10
97.233384
20
51.830989
70
0
0
VERTEX
8
Edge.Cuts
10
96.933353
20
51.385984
70
0
0
VERTEX
8
Edge.Cuts
10
96.823334
20
50.841041
70
0
0
VERTEX
8
Edge.Cuts
10
96.933353
20
50.296098
70
0
0
VERTEX
8
Edge.Cuts
10
97.233384
20
49.851092
70
0
0
VERTEX
8
Edge.Cuts
10
97.678390
20
49.551061
70
0
0
VERTEX
8
Edge.Cuts
10
98.223333
20
49.441042
70
0
0
VERTEX
8
Edge.Cuts
10
98.223333
20
49.441042
70
0
0
SEQEND
8
Edge.Cuts
0
POLYLINE
8
Edge.Cuts
62
254
70
0
10
0.000000
20
0.000000
66
1
0
VERTEX
8
Edge.Cuts
10
88.273345
20
145.040921
70
0
0
VERTEX
8
Edge.Cuts
10
88.973344
20
145.228485
70
0
0
VERTEX
8
Edge.Cuts
10
89.485779
20
145.740920
70
0
0
VERTEX
8
Edge.Cuts
10
89.673344
20
146.440919
70
0
0
VERTEX
8
Edge.Cuts
10
89.485779
20
147.140919
70
0
0
VERTEX
8
Edge.Cuts
10
88.973344
20
147.653354
70
0
0
VERTEX
8
Edge.Cuts
10
88.273345
20
147.840918
70
0
0
VERTEX
8
Edge.Cuts
10
87.573346
20
147.653354
70
0
0
VERTEX
8
Edge.Cuts
10
87.060911
20
147.140919
70
0
0
VERTEX
8
Edge.Cuts
10
86.873346
20
146.440919
70
0
0
VERTEX
8
Edge.Cuts
10
87.060911
20
145.740920
70
0
0
VERTEX
8
Edge.Cuts
10
87.573346
20
145.228485
70
0
0
VERTEX
8
Edge.Cuts
10
88.273345
20
145.040921
70
0
0
VERTEX
8
Edge.Cuts
10
88.273345
20
145.040921
70
0
0
SEQEND
8
Edge.Cuts
0
POLYLINE
8
Edge.Cuts
62
254
70
0
10
0.000000
20
0.000000
66
1
0
VERTEX
8
Edge.Cuts
10
42.771287
20
164.311962
70
0
0
VERTEX
8
Edge.Cuts
10
33.529403
20
164.311962
70
0
0
SEQEND
8
Edge.Cuts
0
POLYLINE
8
Edge.Cuts
62
254
70
0
10
0.000000
20
0.000000
66
1
0
VERTEX
8
Edge.Cuts
10
33.532049
20
152.644910
70
0
0
VERTEX
8
Edge.Cuts
10
33.529403
20
164.311962
70
0
0
SEQEND
8
Edge.Cuts
0
POLYLINE
8
Edge.Cuts
62
254
70
0
10
0.000000
20
0.000000
66
1
0
VERTEX
8
Edge.Cuts
10
32.970418
20
152.095017
70
0
0
VERTEX
8
Edge.Cuts
10
33.366484
20
152.252091
70
0
0
VERTEX
8
Edge.Cuts
10
33.531519
20
152.644905
70
0
0
SEQEND
8
Edge.Cuts
0
POLYLINE
8
Edge.Cuts
62
254
70
0
10
0.000000
20
0.000000
66
1
0
VERTEX
8
Edge.Cuts
10
24.280428
20
294.951914
70
0
0
VERTEX
8
Edge.Cuts
10
23.236758
20
294.813452
70
0
0
VERTEX
8
Edge.Cuts
10
22.280430
20
294.416016
70
0
0
VERTEX
8
Edge.Cuts
10
21.458077
20
293.786530
70
0
0
VERTEX
8
Edge.Cuts
10
20.816331
20
292.951917
70
0
0
VERTEX
8
Edge.Cuts
10
20.414407
20
291.978842
70
0
0
VERTEX
8
Edge.Cuts
10
20.280433
20
290.951919
70
0
0
VERTEX
8
Edge.Cuts
10
20.414407
20
289.924997
70
0
0
VERTEX
8
Edge.Cuts
10
20.816331
20
288.951922
70
0
0
VERTEX
8
Edge.Cuts
10
21.458077
20
288.117309
70
0
0
VERTEX
8
Edge.Cuts
10
22.280430
20
287.487822
70
0
0
VERTEX
8
Edge.Cuts
10
23.236758
20
287.090386
70
0
0
VERTEX
8
Edge.Cuts
10
24.280428
20
286.951924
70
0
0
SEQEND
8
Edge.Cuts
0
POLYLINE
8
Edge.Cuts
62
254
70
0
10
0.000000
20
0.000000
66
1
0
VERTEX
8
Edge.Cuts
10
43.902617
20
177.852045
70
0
0
VERTEX
8
Edge.Cuts
10
43.498695
20
177.691728
70
0
0
VERTEX
8
Edge.Cuts
10
43.330404
20
177.291063
70
0
0
SEQEND
8
Edge.Cuts
0
POLYLINE
8
Edge.Cuts
62
254
70
0
10
0.000000
20
0.000000
66
1
0
VERTEX
8
Edge.Cuts
10
42.770414
20
164.312079
70
0
0
VERTEX
8
Edge.Cuts
10
43.166479
20
164.469152
70
0
0
VERTEX
8
Edge.Cuts
10
43.331515
20
164.861967
70
0
0
SEQEND
8
Edge.Cuts
0
POLYLINE
8
Edge.Cuts
62
254
70
0
10
0.000000
20
0.000000
66
1
0
VERTEX
8
Edge.Cuts
10
94.980339
20
177.852061
70
0
0
VERTEX
8
Edge.Cuts
10
95.369258
20
178.013146
70
0
0
VERTEX
8
Edge.Cuts
10
95.530354
20
178.402060
70
0
0
SEQEND
8
Edge.Cuts
0
POLYLINE
8
Edge.Cuts
62
254
70
0
10
0.000000
20
0.000000
66
1
0
VERTEX
8
Edge.Cuts
10
43.879890
20
177.851997
70
0
0
VERTEX
8
Edge.Cuts
10
94.981450
20
177.851997
70
0
0
SEQEND
8
Edge.Cuts
0
POLYLINE
8
Edge.Cuts
62
254
70
0
10
0.000000
20
0.000000
66
1
0
VERTEX
8
Edge.Cuts
10
43.332203
20
164.862030
70
0
0
VERTEX
8
Edge.Cuts
10
43.332203
20
177.301136
70
0
0
SEQEND
8
Edge.Cuts
0
POLYLINE
8
Edge.Cuts
62
254
70
0
10
0.000000
20
0.000000
66
1
0
VERTEX
8
Edge.Cuts
10
91.330364
20
258.531961
70
0
0
VERTEX
8
Edge.Cuts
10
91.467885
20
257.850787
70
0
0
VERTEX
8
Edge.Cuts
10
91.842919
20
257.294531
70
0
0
VERTEX
8
Edge.Cuts
10
92.399170
20
256.919491
70
0
0
VERTEX
8
Edge.Cuts
10
93.080342
20
256.781961
70
0
0
SEQEND
8
Edge.Cuts
0
POLYLINE
8
Edge.Cuts
62
254
70
0
10
0.000000
20
0.000000
66
1
0
VERTEX
8
Edge.Cuts
10
25.771723
20
241.670459
70
0
0
VERTEX
8
Edge.Cuts
10
25.998686
20
244.055936
70
0
0
VERTEX
8
Edge.Cuts
10
26.030433
20
246.451976
70
0
0
SEQEND
8
Edge.Cuts
0
POLYLINE
8
Edge.Cuts
62
254
70
0
10
0.000000
20
0.000000
66
1
0
VERTEX
8
Edge.Cuts
10
97.280333
20
191.338941
70
0
0
VERTEX
8
Edge.Cuts
10
98.580007
20
191.554861
70
0
0
VERTEX
8
Edge.Cuts
10
99.713362
20
192.160578
70
0
0
VERTEX
8
Edge.Cuts
10
100.597648
20
193.093008
70
0
0
VERTEX
8
Edge.Cuts
10
101.150114
20
194.289067
70
0
0
VERTEX
8
Edge.Cuts
10
101.286152
20
195.599512
70
0
0
VERTEX
8
Edge.Cuts
10
101.002261
20
196.852825
70
0
0
VERTEX
8
Edge.Cuts
10
100.337356
20
197.952501
70
0
0
VERTEX
8
Edge.Cuts
10
99.330348
20
198.802037
70
0
0
SEQEND
8
Edge.Cuts
0
POLYLINE
8
Edge.Cuts
62
254
70
0
10
0.000000
20
0.000000
66
1
0
VERTEX
8
Edge.Cuts
10
101.349963
20
237.725437
70
0
0
VERTEX
8
Edge.Cuts
10
98.823196
20
237.725437
70
0
0
SEQEND
8
Edge.Cuts
0
POLYLINE
8
Edge.Cuts
62
254
70
0
10
0.000000
20
0.000000
66
1
0
VERTEX
8
Edge.Cuts
10
15.690423
20
223.262036
70
0
0
VERTEX
8
Edge.Cuts
10
15.012589
20
222.447454
70
0
0
VERTEX
8
Edge.Cuts
10
14.535813
20
221.515096
70
0
0
VERTEX
8
Edge.Cuts
10
14.273850
20
220.501202
70
0
0
VERTEX
8
Edge.Cuts
10
14.240455
20
219.442010
70
0
0
SEQEND
8
Edge.Cuts
0
POLYLINE
8
Edge.Cuts
62
254
70
0
10
0.000000
20
0.000000
66
1
0
VERTEX
8
Edge.Cuts
10
101.349963
20
216.285456
70
0
0
VERTEX
8
Edge.Cuts
10
98.759696
20
216.285456
70
0
0
SEQEND
8
Edge.Cuts
0
POLYLINE
8
Edge.Cuts
62
254
70
0
10
0.000000
20
0.000000
66
1
0
VERTEX
8
Edge.Cuts
10
4.671335
20
163.422170
70
0
0
VERTEX
8
Edge.Cuts
10
10.640327
20
160.594836
70
0
0
SEQEND
8
Edge.Cuts
0
POLYLINE
8
Edge.Cuts
62
254
70
0
10
0.000000
20
0.000000
66
1
0
VERTEX
8
Edge.Cuts
10
11.522897
20
158.196211
70
0
0
VERTEX
8
Edge.Cuts
10
11.690638
20
158.882066
70
0
0
VERTEX
8
Edge.Cuts
10
11.581494
20
159.579650
70
0
0
VERTEX
8
Edge.Cuts
10
11.212281
20
160.181494
70
0
0
VERTEX
8
Edge.Cuts
10
10.639878
20
160.594881
70
0
0
SEQEND
8
Edge.Cuts
0
POLYLINE
8
Edge.Cuts
62
254
70
0
10
0.000000
20
0.000000
66
1
0
VERTEX
8
Edge.Cuts
10
87.330345
20
286.951924
70
0
0
VERTEX
8
Edge.Cuts
10
88.374014
20
287.090386
70
0
0
VERTEX
8
Edge.Cuts
10
89.330342
20
287.487822
70
0
0
VERTEX
8
Edge.Cuts
10
90.152696
20
288.117309
70
0
0
VERTEX
8
Edge.Cuts
10
90.794442
20
288.951922
70
0
0
VERTEX
8
Edge.Cuts
10
91.196365
20
289.924997
70
0
0
VERTEX
8
Edge.Cuts
10
91.330340
20
290.951919
70
0
0
VERTEX
8
Edge.Cuts
10
91.196365
20
291.978842
70
0
0
VERTEX
8
Edge.Cuts
10
90.794442
20
292.951917
70
0
0
VERTEX
8
Edge.Cuts
10
90.152696
20
293.786530
70
0
0
VERTEX
8
Edge.Cuts
10
89.330342
20
294.416016
70
0
0
VERTEX
8
Edge.Cuts
10
88.374014
20
294.813452
70
0
0
VERTEX
8
Edge.Cuts
10
87.330345
20
294.951914
70
0
0
SEQEND
8
Edge.Cuts
0
POLYLINE
8
Edge.Cuts
62
254
70
0
10
0.000000
20
0.000000
66
1
0
VERTEX
8
Edge.Cuts
10
97.280333
20
191.338946
70
0
0
VERTEX
8
Edge.Cuts
10
96.608085
20
191.205153
70
0
0
VERTEX
8
Edge.Cuts
10
96.055933
20
190.839424
70
0
0
VERTEX
8
Edge.Cuts
10
95.678486
20
190.295215
70
0
0
VERTEX
8
Edge.Cuts
10
95.530354
20
189.625981
70
0
0
SEQEND
8
Edge.Cuts
0
POLYLINE
8
Edge.Cuts
62
254
70
0
10
0.000000
20
0.000000
66
1
0
VERTEX
8
Edge.Cuts
10
97.529385
20
215.048901
70
0
0
VERTEX
8
Edge.Cuts
10
97.526739
20
201.874573
70
0
0
SEQEND
8
Edge.Cuts
0
POLYLINE
8
Edge.Cuts
62
254
70
0
10
0.000000
20
0.000000
66
1
0
VERTEX
8
Edge.Cuts
10
97.587593
20
255.531979
70
0
0
VERTEX
8
Edge.Cuts
10
97.587593
20
238.961992
70
0
0
SEQEND
8
Edge.Cuts
0
POLYLINE
8
Edge.Cuts
62
254
70
0
10
0.000000
20
0.000000
66
1
0
VERTEX
8
Edge.Cuts
10
26.030433
20
285.201927
70
0
0
VERTEX
8
Edge.Cuts
10
25.897221
20
285.871624
70
0
0
VERTEX
8
Edge.Cuts
10
25.517867
20
286.439365
70
0
0
VERTEX
8
Edge.Cuts
10
24.950125
20
286.818716
70
0
0
VERTEX
8
Edge.Cuts
10
24.280428
20
286.951924
70
0
0
SEQEND
8
Edge.Cuts
0
POLYLINE
8
Edge.Cuts
62
254
70
0
10
0.000000
20
0.000000
66
1
0
VERTEX
8
Edge.Cuts
10
97.586879
20
238.961985
70
0
0
VERTEX
8
Edge.Cuts
10
97.681006
20
238.488777
70
0
0
VERTEX
8
Edge.Cuts
10
97.949057
20
238.087610
70
0
0
VERTEX
8
Edge.Cuts
10
98.350225
20
237.819560
70
0
0
VERTEX
8
Edge.Cuts
10
98.823434
20
237.725435
70
0
0
SEQEND
8
Edge.Cuts
0
POLYLINE
8
Edge.Cuts
62
254
70
0
10
0.000000
20
0.000000
66
1
0
VERTEX
8
Edge.Cuts
10
85.580816
20
285.202052
70
0
0
VERTEX
8
Edge.Cuts
10
85.588754
20
273.451921
70
0
0
SEQEND
8
Edge.Cuts
0
POLYLINE
8
Edge.Cuts
62
254
70
0
10
0.000000
20
0.000000
66
1
0
VERTEX
8
Edge.Cuts
10
26.031121
20
273.450333
70
0
0
VERTEX
8
Edge.Cuts
10
26.031121
20
285.202052
70
0
0
SEQEND
8
Edge.Cuts
0
POLYLINE
8
Edge.Cuts
62
254
70
0
10
0.000000
20
0.000000
66
1
0
VERTEX
8
Edge.Cuts
10
87.330345
20
286.951924
70
0
0
VERTEX
8
Edge.Cuts
10
86.649173
20
286.814395
70
0
0
VERTEX
8
Edge.Cuts
10
86.092923
20
286.439355
70
0
0
VERTEX
8
Edge.Cuts
10
85.717888
20
285.883101
70
0
0
VERTEX
8
Edge.Cuts
10
85.580367
20
285.201927
70
0
0
SEQEND
8
Edge.Cuts
0
POLYLINE
8
Edge.Cuts
62
254
70
0
10
0.000000
20
0.000000
66
1
0
VERTEX
8
Edge.Cuts
10
91.330364
20
258.531961
70
0
0
VERTEX
8
Edge.Cuts
10
91.256229
20
259.318844
70
0
0
VERTEX
8
Edge.Cuts
10
91.031640
20
260.068848
70
0
0
VERTEX
8
Edge.Cuts
10
90.665293
20
260.760756
70
0
0
VERTEX
8
Edge.Cuts
10
90.165882
20
261.373348
70
0
0
VERTEX
8
Edge.Cuts
10
89.555790
20
261.875813
70
0
0
VERTEX
8
Edge.Cuts
10
88.865721
20
262.245611
70
0
0
VERTEX
8
Edge.Cuts
10
88.116848
20
262.473943
70
0
0
VERTEX
8
Edge.Cuts
10
87.330345
20
262.552006
70
0
0
SEQEND
8
Edge.Cuts
0
POLYLINE
8
Edge.Cuts
62
254
70
0
10
0.000000
20
0.000000
66
1
0
VERTEX
8
Edge.Cuts
10
20.302237
20
228.201100
70
0
0
VERTEX
8
Edge.Cuts
10
20.780216
20
229.511968
70
0
0
VERTEX
8
Edge.Cuts
10
20.838889
20
230.875368
70
0
0
VERTEX
8
Edge.Cuts
10
20.488789
20
232.194357
70
0
0
VERTEX
8
Edge.Cuts
10
19.740448
20
233.371992
70
0
0
SEQEND
8
Edge.Cuts
0
POLYLINE
8
Edge.Cuts
62
254
70
0
10
0.000000
20
0.000000
66
1
0
VERTEX
8
Edge.Cuts
10
85.588754
20
273.460387
70
0
0
VERTEX
8
Edge.Cuts
10
85.580816
20
264.301847
70
0
0
SEQEND
8
Edge.Cuts
0
POLYLINE
8
Edge.Cuts
62
254
70
0
10
0.000000
20
0.000000
66
1
0
VERTEX
8
Edge.Cuts
10
15.686560
20
223.266569
70
0
0
VERTEX
8
Edge.Cuts
10
18.124738
20
225.592283
70
0
0
VERTEX
8
Edge.Cuts
10
20.280436
20
228.181999
70
0
0
SEQEND
8
Edge.Cuts
0
POLYLINE
8
Edge.Cuts
62
254
70
0
10
0.000000
20
0.000000
66
1
0
VERTEX
8
Edge.Cuts
10
98.760331
20
216.285431
70
0
0
VERTEX
8
Edge.Cuts
10
98.288124
20
216.191177
70
0
0
VERTEX
8
Edge.Cuts
10
97.888285
20
215.922863
70
0
0
VERTEX
8
Edge.Cuts
10
97.622091
20
215.521610
70
0
0
VERTEX
8
Edge.Cuts
10
97.530337
20
215.048911
70
0
0
SEQEND
8
Edge.Cuts
0
POLYLINE
8
Edge.Cuts
62
254
70
0
10
0.000000
20
0.000000
66
1
0
VERTEX
8
Edge.Cuts
10
24.279581
20
294.951935
70
0
0
VERTEX
8
Edge.Cuts
10
87.329710
20
294.951935
70
0
0
SEQEND
8
Edge.Cuts
0
POLYLINE
8
Edge.Cuts
62
254
70
0
10
0.000000
20
0.000000
66
1
0
VERTEX
8
Edge.Cuts
10
96.349344
20
256.781869
70
0
0
VERTEX
8
Edge.Cuts
10
93.079099
20
256.781869
70
0
0
SEQEND
8
Edge.Cuts
0
POLYLINE
8
Edge.Cuts
62
254
70
0
10
0.000000
20
0.000000
66
1
0
VERTEX
8
Edge.Cuts
10
23.718533
20
240.171185
70
0
0
VERTEX
8
Edge.Cuts
10
22.378469
20
240.312443
70
0
0
VERTEX
8
Edge.Cuts
10
21.097300
20
240.021123
70
0
0
VERTEX
8
Edge.Cuts
10
19.975098
20
239.337807
70
0
0
VERTEX
8
Edge.Cuts
10
19.111931
20
238.303075
70
0
0
VERTEX
8
Edge.Cuts
10
18.632822
20
237.043639
70
0
0
VERTEX
8
Edge.Cuts
10
18.586974
20
235.730567
70
0
0
VERTEX
8
Edge.Cuts
10
18.960733
20
234.470978
70
0
0
VERTEX
8
Edge.Cuts
10
19.740448
20
233.371992
70
0
0
SEQEND
8
Edge.Cuts
0
POLYLINE
8
Edge.Cuts
62
254
70
0
10
0.000000
20
0.000000
66
1
0
VERTEX
8
Edge.Cuts
10
85.580367
20
264.301953
70
0
0
VERTEX
8
Edge.Cuts
10
85.717888
20
263.620779
70
0
0
VERTEX
8
Edge.Cuts
10
86.092923
20
263.064525
70
0
0
VERTEX
8
Edge.Cuts
10
86.649173
20
262.689485
70
0
0
VERTEX
8
Edge.Cuts
10
87.330345
20
262.551956
70
0
0
SEQEND
8
Edge.Cuts
0
POLYLINE
8
Edge.Cuts
62
254
70
0
10
0.000000
20
0.000000
66
1
0
VERTEX
8
Edge.Cuts
10
97.586879
20
255.531965
70
0
0
VERTEX
8
Edge.Cuts
10
97.496628
20
256.009290
70
0
0
VERTEX
8
Edge.Cuts
10
97.229483
20
256.415021
70
0
0
VERTEX
8
Edge.Cuts
10
96.826669
20
256.686546
70
0
0
VERTEX
8
Edge.Cuts
10
96.350350
20
256.781961
70
0
0
SEQEND
8
Edge.Cuts
0
POLYLINE
8
Edge.Cuts
62
254
70
0
10
0.000000
20
0.000000
66
1
0
VERTEX
8
Edge.Cuts
10
26.031121
20
273.450333
70
0
0
VERTEX
8
Edge.Cuts
10
26.031121
20
246.451966
70
0
0
SEQEND
8
Edge.Cuts
0
POLYLINE
8
Edge.Cuts
62
254
70
0
10
0.000000
20
0.000000
66
1
0
VERTEX
8
Edge.Cuts
10
23.710437
20
240.142024
70
0
0
VERTEX
8
Edge.Cuts
10
24.422393
20
240.162193
70
0
0
VERTEX
8
Edge.Cuts
10
25.067993
20
240.463005
70
0
0
VERTEX
8
Edge.Cuts
10
25.541400
20
240.995147
70
0
0
VERTEX
8
Edge.Cuts
10
25.765003
20
241.671379
70
0
0
SEQEND
8
Edge.Cuts
0
POLYLINE
8
Edge.Cuts
62
254
70
0
10
0.000000
20
0.000000
66
1
0
VERTEX
8
Edge.Cuts
10
14.960968
20
211.112012
70
0
0
VERTEX
8
Edge.Cuts
10
14.241302
20
219.442011
70
0
0
SEQEND
8
Edge.Cuts
0
POLYLINE
8
Edge.Cuts
62
254
70
0
10
0.000000
20
0.000000
66
1
0
VERTEX
8
Edge.Cuts
10
101.350334
20
216.285462
70
0
0
VERTEX
8
Edge.Cuts
10
101.823542
20
216.379587
70
0
0
VERTEX
8
Edge.Cuts
10
102.224710
20
216.647637
70
0
0
VERTEX
8
Edge.Cuts
10
102.492761
20
217.048803
70
0
0
VERTEX
8
Edge.Cuts
10
102.586889
20
217.522012
70
0
0
SEQEND
8
Edge.Cuts
0
POLYLINE
8
Edge.Cuts
62
254
70
0
10
0.000000
20
0.000000
66
1
0
VERTEX
8
Edge.Cuts
10
7.820455
20
173.142068
70
0
0
VERTEX
8
Edge.Cuts
10
9.845935
20
177.614076
70
0
0
VERTEX
8
Edge.Cuts
10
11.554057
20
182.198206
70
0
0
VERTEX
8
Edge.Cuts
10
12.941644
20
186.877575
70
0
0
VERTEX
8
Edge.Cuts
10
14.005522
20
191.635298
70
0
0
VERTEX
8
Edge.Cuts
10
14.742516
20
196.454488
70
0
0
VERTEX
8
Edge.Cuts
10
15.149450
20
201.318262
70
0
0
VERTEX
8
Edge.Cuts
10
15.223149
20
206.209734
70
0
0
VERTEX
8
Edge.Cuts
10
14.960439
20
211.112020
70
0
0
SEQEND
8
Edge.Cuts
0
POLYLINE
8
Edge.Cuts
62
254
70
0
10
0.000000
20
0.000000
66
1
0
VERTEX
8
Edge.Cuts
10
97.525866
20
201.874576
70
0
0
VERTEX
8
Edge.Cuts
10
97.628979
20
200.934575
70
0
0
VERTEX
8
Edge.Cuts
10
97.983030
20
200.076915
70
0
0
VERTEX
8
Edge.Cuts
10
98.559619
20
199.349951
70
0
0
VERTEX
8
Edge.Cuts
10
99.330348
20
198.802037
70
0
0
SEQEND
8
Edge.Cuts
0
POLYLINE
8
Edge.Cuts
62
254
70
0
10
0.000000
20
0.000000
66
1
0
VERTEX
8
Edge.Cuts
10
102.586889
20
236.488884
70
0
0
VERTEX
8
Edge.Cuts
10
102.492763
20
236.962093
70
0
0
VERTEX
8
Edge.Cuts
10
102.224711
20
237.363260
70
0
0
VERTEX
8
Edge.Cuts
10
101.823543
20
237.631310
70
0
0
VERTEX
8
Edge.Cuts
10
101.350334
20
237.725435
70
0
0
SEQEND
8
Edge.Cuts
0
POLYLINE
8
Edge.Cuts
62
254
70
0
10
0.000000
20
0.000000
66
1
0
VERTEX
8
Edge.Cuts
10
102.585566
20
236.488882
70
0
0
VERTEX
8
Edge.Cuts
10
102.585566
20
217.522011
70
0
0
SEQEND
8
Edge.Cuts
0
POLYLINE
8
Edge.Cuts
62
254
70
0
10
0.000000
20
0.000000
66
1
0
VERTEX
8
Edge.Cuts
10
7.819873
20
173.142155
70
0
0
VERTEX
8
Edge.Cuts
10
4.139523
20
165.438292
70
0
0
SEQEND
8
Edge.Cuts
0
POLYLINE
8
Edge.Cuts
62
254
70
0
10
0.000000
20
0.000000
66
1
0
VERTEX
8
Edge.Cuts
10
4.139020
20
165.438194
70
0
0
VERTEX
8
Edge.Cuts
10
4.031437
20
164.890416
70
0
0
VERTEX
8
Edge.Cuts
10
4.090600
20
164.347331
70
0
0
VERTEX
8
Edge.Cuts
10
4.306834
20
163.845648
70
0
0
VERTEX
8
Edge.Cuts
10
4.670462
20
163.422080
70
0
0
SEQEND
8
Edge.Cuts
0
POLYLINE
8
Edge.Cuts
62
254
70
0
10
0.000000
20
0.000000
66
1
0
VERTEX
8
Edge.Cuts
10
21.040450
20
155.682090
70
0
0
VERTEX
8
Edge.Cuts
10
20.365242
20
155.807388
70
0
0
VERTEX
8
Edge.Cuts
10
19.713028
20
155.679166
70
0
0
VERTEX
8
Edge.Cuts
10
19.151054
20
155.324187
70
0
0
VERTEX
8
Edge.Cuts
10
18.746568
20
154.769213
70
0
0
SEQEND
8
Edge.Cuts
0
POLYLINE
8
Edge.Cuts
62
254
70
0
10
0.000000
20
0.000000
66
1
0
VERTEX
8
Edge.Cuts
10
95.529137
20
178.402065
70
0
0
VERTEX
8
Edge.Cuts
10
95.529137
20
189.625941
70
0
0
SEQEND
8
Edge.Cuts
0
POLYLINE
8
Edge.Cuts
62
254
70
0
10
0.000000
20
0.000000
66
1
0
VERTEX
8
Edge.Cuts
10
27.117181
20
152.803361
70
0
0
VERTEX
8
Edge.Cuts
10
28.488072
20
152.286022
70
0
0
VERTEX
8
Edge.Cuts
10
29.940440
20
152.092093
70
0
0
SEQEND
8
Edge.Cuts
0
POLYLINE
8
Edge.Cuts
62
254
70
0
10
0.000000
20
0.000000
66
1
0
VERTEX
8
Edge.Cuts
10
29.941657
20
152.092197
70
0
0
VERTEX
8
Edge.Cuts
10
32.971133
20
152.095107
70
0
0
SEQEND
8
Edge.Cuts
0
POLYLINE
8
Edge.Cuts
62
254
70
0
10
0.000000
20
0.000000
66
1
0
VERTEX
8
Edge.Cuts
10
27.115911
20
152.803396
70
0
0
VERTEX
8
Edge.Cuts
10
21.041085
20
155.678090
70
0
0
SEQEND
8
Edge.Cuts
0
POLYLINE
8
Edge.Cuts
62
254
70
0
10
0.000000
20
0.000000
66
1
0
VERTEX
8
Edge.Cuts
10
11.522923
20
158.196203
70
0
0
VERTEX
8
Edge.Cuts
10
11.253609
20
157.433797
70
0
0
VERTEX
8
Edge.Cuts
10
11.144592
20
156.656744
70
0
0
VERTEX
8
Edge.Cuts
10
11.376896
20
155.143900
70
0
0
VERTEX
8
Edge.Cuts
10
12.158739
20
153.828080
70
0
0
VERTEX
8
Edge.Cuts
10
12.736646
20
153.297306
70
0
0
VERTEX
8
Edge.Cuts
10
13.429027
20
152.879693
70
0
0
VERTEX
8
Edge.Cuts
10
14.190737
20
152.608415
70
0
0
VERTEX
8
Edge.Cuts
10
14.967506
20
152.497395
70
0
0
VERTEX
8
Edge.Cuts
10
16.480944
20
152.725801
70
0
0
VERTEX
8
Edge.Cuts
10
17.798775
20
153.504252
70
0
0
VERTEX
8
Edge.Cuts
10
18.331035
20
154.080789
70
0
0
VERTEX
8
Edge.Cuts
10
18.750431
20
154.772092
70
0
0
SEQEND
8
Edge.Cuts
0
POLYLINE
8
Edge.Cuts
62
254
70
0
10
0.000000
20
0.000000
66
1
0
VERTEX
8
Edge.Cuts
10
22.630435
20
235.051990
70
0
0
VERTEX
8
Edge.Cuts
10
23.230435
20
235.212759
70
0
0
VERTEX
8
Edge.Cuts
10
23.669665
20
235.651989
70
0
0
VERTEX
8
Edge.Cuts
10
23.830434
20
236.251988
70
0
0
VERTEX
8
Edge.Cuts
10
23.669665
20
236.851988
70
0
0
VERTEX
8
Edge.Cuts
10
23.230435
20
237.291218
70
0
0
VERTEX
8
Edge.Cuts
10
22.630435
20
237.451987
70
0
0
VERTEX
8
Edge.Cuts
10
22.030436
20
237.291218
70
0
0
VERTEX
8
Edge.Cuts
10
21.591206
20
236.851988
70
0
0
VERTEX
8
Edge.Cuts
10
21.430437
20
236.251988
70
0
0
VERTEX
8
Edge.Cuts
10
21.591206
20
235.651989
70
0
0
VERTEX
8
Edge.Cuts
10
22.030436
20
235.212759
70
0
0
VERTEX
8
Edge.Cuts
10
22.630435
20
235.051990
70
0
0
VERTEX
8
Edge.Cuts
10
22.630435
20
235.051990
70
0
0
SEQEND
8
Edge.Cuts
0
POLYLINE
8
Edge.Cuts
62
254
70
0
10
0.000000
20
0.000000
66
1
0
VERTEX
8
Edge.Cuts
10
15.140434
20
155.292090
70
0
0
VERTEX
8
Edge.Cuts
10
15.740434
20
155.452859
70
0
0
VERTEX
8
Edge.Cuts
10
16.179664
20
155.892089
70
0
0
VERTEX
8
Edge.Cuts
10
16.340433
20
156.492089
70
0
0
VERTEX
8
Edge.Cuts
10
16.179664
20
157.092088
70
0
0
VERTEX
8
Edge.Cuts
10
15.740434
20
157.531318
70
0
0
VERTEX
8
Edge.Cuts
10
15.140434
20
157.692088
70
0
0
VERTEX
8
Edge.Cuts
10
14.540435
20
157.531318
70
0
0
VERTEX
8
Edge.Cuts
10
14.101205
20
157.092088
70
0
0
VERTEX
8
Edge.Cuts
10
13.940436
20
156.492089
70
0
0
VERTEX
8
Edge.Cuts
10
14.101205
20
155.892089
70
0
0
VERTEX
8
Edge.Cuts
10
14.540435
20
155.452859
70
0
0
VERTEX
8
Edge.Cuts
10
15.140434
20
155.292090
70
0
0
VERTEX
8
Edge.Cuts
10
15.140434
20
155.292090
70
0
0
SEQEND
8
Edge.Cuts
0
POLYLINE
8
Edge.Cuts
62
254
70
0
10
0.000000
20
0.000000
66
1
0
VERTEX
8
Edge.Cuts
10
87.330345
20
257.351960
70
0
0
VERTEX
8
Edge.Cuts
10
87.930345
20
257.512730
70
0
0
VERTEX
8
Edge.Cuts
10
88.369575
20
257.951960
70
0
0
VERTEX
8
Edge.Cuts
10
88.530344
20
258.551959
70
0
0
VERTEX
8
Edge.Cuts
10
88.369575
20
259.151959
70
0
0
VERTEX
8
Edge.Cuts
10
87.930345
20
259.591189
70
0
0
VERTEX
8
Edge.Cuts
10
87.330345
20
259.751958
70
0
0
VERTEX
8
Edge.Cuts
10
86.730346
20
259.591189
70
0
0
VERTEX
8
Edge.Cuts
10
86.291115
20
259.151959
70
0
0
VERTEX
8
Edge.Cuts
10
86.130346
20
258.551959
70
0
0
VERTEX
8
Edge.Cuts
10
86.291115
20
257.951960
70
0
0
VERTEX
8
Edge.Cuts
10
86.730346
20
257.512730
70
0
0
VERTEX
8
Edge.Cuts
10
87.330345
20
257.351960
70
0
0
VERTEX
8
Edge.Cuts
10
87.330345
20
257.351960
70
0
0
SEQEND
8
Edge.Cuts
0
POLYLINE
8
Edge.Cuts
62
254
70
0
10
0.000000
20
0.000000
66
1
0
VERTEX
8
Edge.Cuts
10
24.280428
20
289.751922
70
0
0
VERTEX
8
Edge.Cuts
10
24.747078
20
289.846620
70
0
0
VERTEX
8
Edge.Cuts
10
25.128062
20
290.103880
70
0
0
VERTEX
8
Edge.Cuts
10
25.384884
20
290.485160
70
0
0
VERTEX
8
Edge.Cuts
10
25.479046
20
290.951919
70
0
0
VERTEX
8
Edge.Cuts
10
25.384884
20
291.418678
70
0
0
VERTEX
8
Edge.Cuts
10
25.128062
20
291.799958
70
0
0
VERTEX
8
Edge.Cuts
10
24.747078
20
292.057218
70
0
0
VERTEX
8
Edge.Cuts
10
24.280428
20
292.151917
70
0
0
VERTEX
8
Edge.Cuts
10
23.813777
20
292.057218
70
0
0
VERTEX
8
Edge.Cuts
10
23.432793
20
291.799958
70
0
0
VERTEX
8
Edge.Cuts
10
23.175972
20
291.418678
70
0
0
VERTEX
8
Edge.Cuts
10
23.081810
20
290.951919
70
0
0
VERTEX
8
Edge.Cuts
10
23.175972
20
290.485160
70
0
0
VERTEX
8
Edge.Cuts
10
23.432793
20
290.103880
70
0
0
VERTEX
8
Edge.Cuts
10
23.813777
20
289.846620
70
0
0
VERTEX
8
Edge.Cuts
10
24.280428
20
289.751922
70
0
0
VERTEX
8
Edge.Cuts
10
24.280428
20
289.751922
70
0
0
SEQEND
8
Edge.Cuts
0
POLYLINE
8
Edge.Cuts
62
254
70
0
10
0.000000
20
0.000000
66
1
0
VERTEX
8
Edge.Cuts
10
97.280333
20
194.152041
70
0
0
VERTEX
8
Edge.Cuts
10
97.880332
20
194.312810
70
0
0
VERTEX
8
Edge.Cuts
10
98.319562
20
194.752040
70
0
0
VERTEX
8
Edge.Cuts
10
98.480332
20
195.352040
70
0
0
VERTEX
8
Edge.Cuts
10
98.319562
20
195.952039
70
0
0
VERTEX
8
Edge.Cuts
10
97.880332
20
196.391269
70
0
0
VERTEX
8
Edge.Cuts
10
97.280333
20
196.552039
70
0
0
VERTEX
8
Edge.Cuts
10
96.680333
20
196.391269
70
0
0
VERTEX
8
Edge.Cuts
10
96.241103
20
195.952039
70
0
0
VERTEX
8
Edge.Cuts
10
96.080334
20
195.352040
70
0
0
VERTEX
8
Edge.Cuts
10
96.241103
20
194.752040
70
0
0
VERTEX
8
Edge.Cuts
10
96.680333
20
194.312810
70
0
0
VERTEX
8
Edge.Cuts
10
97.280333
20
194.152041
70
0
0
VERTEX
8
Edge.Cuts
10
97.280333
20
194.152041
70
0
0
SEQEND
8
Edge.Cuts
0
POLYLINE
8
Edge.Cuts
62
254
70
0
10
0.000000
20
0.000000
66
1
0
VERTEX
8
Edge.Cuts
10
87.330345
20
289.751922
70
0
0
VERTEX
8
Edge.Cuts
10
87.796995
20
289.846620
70
0
0
VERTEX
8
Edge.Cuts
10
88.177980
20
290.103880
70
0
0
VERTEX
8
Edge.Cuts
10
88.434801
20
290.485160
70
0
0
VERTEX
8
Edge.Cuts
10
88.528963
20
290.951919
70
0
0
VERTEX
8
Edge.Cuts
10
88.434801
20
291.418678
70
0
0
VERTEX
8
Edge.Cuts
10
88.177980
20
291.799958
70
0
0
VERTEX
8
Edge.Cuts
10
87.796995
20
292.057218
70
0
0
VERTEX
8
Edge.Cuts
10
87.330345
20
292.151917
70
0
0
VERTEX
8
Edge.Cuts
10
86.863695
20
292.057218
70
0
0
VERTEX
8
Edge.Cuts
10
86.482710
20
291.799958
70
0
0
VERTEX
8
Edge.Cuts
10
86.225889
20
291.418678
70
0
0
VERTEX
8
Edge.Cuts
10
86.131727
20
290.951919
70
0
0
VERTEX
8
Edge.Cuts
10
86.225889
20
290.485160
70
0
0
VERTEX
8
Edge.Cuts
10
86.482710
20
290.103880
70
0
0
VERTEX
8
Edge.Cuts
10
86.863695
20
289.846620
70
0
0
VERTEX
8
Edge.Cuts
10
87.330345
20
289.751922
70
0
0
VERTEX
8
Edge.Cuts
10
87.330345
20
289.751922
70
0
0
SEQEND
8
Edge.Cuts
0
POLYLINE
8
Edge.Cuts
62
254
70
0
10
0.000000
20
0.000000
66
1
0
VERTEX
8
Edge.Cuts
10
67.829943
20
258.151880
70
0
0
VERTEX
8
Edge.Cuts
10
67.829943
20
272.152024
70
0
0
SEQEND
8
Edge.Cuts
0
POLYLINE
8
Edge.Cuts
62
254
70
0
10
0.000000
20
0.000000
66
1
0
VERTEX
8
Edge.Cuts
10
81.831675
20
258.151880
70
0
0
VERTEX
8
Edge.Cuts
10
67.829943
20
258.151880
70
0
0
SEQEND
8
Edge.Cuts
0
POLYLINE
8
Edge.Cuts
62
254
70
0
10
0.000000
20
0.000000
66
1
0
VERTEX
8
Edge.Cuts
10
67.829943
20
272.152024
70
0
0
VERTEX
8
Edge.Cuts
10
81.831675
20
272.152024
70
0
0
SEQEND
8
Edge.Cuts
0
POLYLINE
8
Edge.Cuts
62
254
70
0
10
0.000000
20
0.000000
66
1
0
VERTEX
8
Edge.Cuts
10
81.831675
20
272.152024
70
0
0
VERTEX
8
Edge.Cuts
10
81.831675
20
258.151880
70
0
0
SEQEND
8
Edge.Cuts
0
POLYLINE
8
Edge.Cuts
62
254
70
0
10
0.000000
20
0.000000
66
1
0
VERTEX
8
Edge.Cuts
10
19.268379
20
204.568583
70
0
0
VERTEX
8
Edge.Cuts
10
18.046006
20
218.515282
70
0
0
SEQEND
8
Edge.Cuts
0
POLYLINE
8
Edge.Cuts
62
254
70
0
10
0.000000
20
0.000000
66
1
0
VERTEX
8
Edge.Cuts
10
33.214549
20
205.788761
70
0
0
VERTEX
8
Edge.Cuts
10
19.268379
20
204.568583
70
0
0
SEQEND
8
Edge.Cuts
0
POLYLINE
8
Edge.Cuts
62
254
70
0
10
0.000000
20
0.000000
66
1
0
VERTEX
8
Edge.Cuts
10
18.046006
20
218.515282
70
0
0
VERTEX
8
Edge.Cuts
10
31.994821
20
219.735460
70
0
0
SEQEND
8
Edge.Cuts
0
POLYLINE
8
Edge.Cuts
62
254
70
0
10
0.000000
20
0.000000
66
1
0
VERTEX
8
Edge.Cuts
10
31.994821
20
219.735460
70
0
0
VERTEX
8
Edge.Cuts
10
33.214549
20
205.788761
70
0
0
SEQEND
8
Edge.Cuts
0
POLYLINE
8
Edge.Cuts
62
254
70
0
10
0.000000
20
0.000000
66
1
0
VERTEX
8
Edge.Cuts
10
79.831428
20
201.002031
70
0
0
VERTEX
8
Edge.Cuts
10
79.831428
20
215.002017
70
0
0
SEQEND
8
Edge.Cuts
0
POLYLINE
8
Edge.Cuts
62
254
70
0
10
0.000000
20
0.000000
66
1
0
VERTEX
8
Edge.Cuts
10
93.830514
20
201.002031
70
0
0
VERTEX
8
Edge.Cuts
10
79.831428
20
201.002031
70
0
0
SEQEND
8
Edge.Cuts
0
POLYLINE
8
Edge.Cuts
62
254
70
0
10
0.000000
20
0.000000
66
1
0
VERTEX
8
Edge.Cuts
10
79.831428
20
215.002017
70
0
0
VERTEX
8
Edge.Cuts
10
93.830514
20
215.002017
70
0
0
SEQEND
8
Edge.Cuts
0
POLYLINE
8
Edge.Cuts
62
254
70
0
10
0.000000
20
0.000000
66
1
0
VERTEX
8
Edge.Cuts
10
93.830514
20
215.002017
70
0
0
VERTEX
8
Edge.Cuts
10
93.830514
20
201.002031
70
0
0
SEQEND
8
Edge.Cuts
0
POLYLINE
8
Edge.Cuts
62
254
70
0
10
0.000000
20
0.000000
66
1
0
VERTEX
8
Edge.Cuts
10
60.781452
20
201.002031
70
0
0
VERTEX
8
Edge.Cuts
10
60.781452
20
215.002017
70
0
0
SEQEND
8
Edge.Cuts
0
POLYLINE
8
Edge.Cuts
62
254
70
0
10
0.000000
20
0.000000
66
1
0
VERTEX
8
Edge.Cuts
10
74.780538
20
201.002031
70
0
0
VERTEX
8
Edge.Cuts
10
60.781452
20
201.002031
70
0
0
SEQEND
8
Edge.Cuts
0
POLYLINE
8
Edge.Cuts
62
254
70
0
10
0.000000
20
0.000000
66
1
0
VERTEX
8
Edge.Cuts
10
60.781452
20
215.002017
70
0
0
VERTEX
8
Edge.Cuts
10
74.780538
20
215.002017
70
0
0
SEQEND
8
Edge.Cuts
0
POLYLINE
8
Edge.Cuts
62
254
70
0
10
0.000000
20
0.000000
66
1
0
VERTEX
8
Edge.Cuts
10
74.780538
20
215.002017
70
0
0
VERTEX
8
Edge.Cuts
10
74.780538
20
201.002031
70
0
0
SEQEND
8
Edge.Cuts
0
POLYLINE
8
Edge.Cuts
62
254
70
0
10
0.000000
20
0.000000
66
1
0
VERTEX
8
Edge.Cuts
10
60.781452
20
239.101983
70
0
0
VERTEX
8
Edge.Cuts
10
60.781452
20
253.101969
70
0
0
SEQEND
8
Edge.Cuts
0
POLYLINE
8
Edge.Cuts
62
254
70
0
10
0.000000
20
0.000000
66
1
0
VERTEX
8
Edge.Cuts
10
74.780538
20
239.101983
70
0
0
VERTEX
8
Edge.Cuts
10
60.781452
20
239.101983
70
0
0
SEQEND
8
Edge.Cuts
0
POLYLINE
8
Edge.Cuts
62
254
70
0
10
0.000000
20
0.000000
66
1
0
VERTEX
8
Edge.Cuts
10
60.781452
20
253.101969
70
0
0
VERTEX
8
Edge.Cuts
10
74.780538
20
253.101969
70
0
0
SEQEND
8
Edge.Cuts
0
POLYLINE
8
Edge.Cuts
62
254
70
0
10
0.000000
20
0.000000
66
1
0
VERTEX
8
Edge.Cuts
10
74.780538
20
253.101969
70
0
0
VERTEX
8
Edge.Cuts
10
74.780538
20
239.101983
70
0
0
SEQEND
8
Edge.Cuts
0
POLYLINE
8
Edge.Cuts
62
254
70
0
10
0.000000
20
0.000000
66
1
0
VERTEX
8
Edge.Cuts
10
79.831428
20
239.101983
70
0
0
VERTEX
8
Edge.Cuts
10
79.831428
20
253.101969
70
0
0
SEQEND
8
Edge.Cuts
0
POLYLINE
8
Edge.Cuts
62
254
70
0
10
0.000000
20
0.000000
66
1
0
VERTEX
8
Edge.Cuts
10
93.830514
20
239.101983
70
0
0
VERTEX
8
Edge.Cuts
10
79.831428
20
239.101983
70
0
0
SEQEND
8
Edge.Cuts
0
POLYLINE
8
Edge.Cuts
62
254
70
0
10
0.000000
20
0.000000
66
1
0
VERTEX
8
Edge.Cuts
10
79.831428
20
253.101969
70
0
0
VERTEX
8
Edge.Cuts
10
93.830514
20
253.101969
70
0
0
SEQEND
8
Edge.Cuts
0
POLYLINE
8
Edge.Cuts
62
254
70
0
10
0.000000
20
0.000000
66
1
0
VERTEX
8
Edge.Cuts
10
93.830514
20
253.101969
70
0
0
VERTEX
8
Edge.Cuts
10
93.830514
20
239.101983
70
0
0
SEQEND
8
Edge.Cuts
0
POLYLINE
8
Edge.Cuts
62
254
70
0
10
0.000000
20
0.000000
66
1
0
VERTEX
8
Edge.Cuts
10
39.731228
20
181.951976
70
0
0
VERTEX
8
Edge.Cuts
10
39.731228
20
195.952120
70
0
0
SEQEND
8
Edge.Cuts
0
POLYLINE
8
Edge.Cuts
62
254
70
0
10
0.000000
20
0.000000
66
1
0
VERTEX
8
Edge.Cuts
10
53.730315
20
181.951976
70
0
0
VERTEX
8
Edge.Cuts
10
39.731228
20
181.951976
70
0
0
SEQEND
8
Edge.Cuts
0
POLYLINE
8
Edge.Cuts
62
254
70
0
10
0.000000
20
0.000000
66
1
0
VERTEX
8
Edge.Cuts
10
39.731228
20
195.952120
70
0
0
VERTEX
8
Edge.Cuts
10
53.730315
20
195.952120
70
0
0
SEQEND
8
Edge.Cuts
0
POLYLINE
8
Edge.Cuts
62
254
70
0
10
0.000000
20
0.000000
66
1
0
VERTEX
8
Edge.Cuts
10
53.730315
20
195.952120
70
0
0
VERTEX
8
Edge.Cuts
10
53.730315
20
181.951976
70
0
0
SEQEND
8
Edge.Cuts
0
POLYLINE
8
Edge.Cuts
62
254
70
0
10
0.000000
20
0.000000
66
1
0
VERTEX
8
Edge.Cuts
10
48.779967
20
277.201856
70
0
0
VERTEX
8
Edge.Cuts
10
48.779967
20
291.202000
70
0
0
SEQEND
8
Edge.Cuts
0
POLYLINE
8
Edge.Cuts
62
254
70
0
10
0.000000
20
0.000000
66
1
0
VERTEX
8
Edge.Cuts
10
62.781699
20
277.201856
70
0
0
VERTEX
8
Edge.Cuts
10
48.779967
20
277.201856
70
0
0
SEQEND
8
Edge.Cuts
0
POLYLINE
8
Edge.Cuts
62
254
70
0
10
0.000000
20
0.000000
66
1
0
VERTEX
8
Edge.Cuts
10
48.779967
20
291.202000
70
0
0
VERTEX
8
Edge.Cuts
10
62.781699
20
291.202000
70
0
0
SEQEND
8
Edge.Cuts
0
POLYLINE
8
Edge.Cuts
62
254
70
0
10
0.000000
20
0.000000
66
1
0
VERTEX
8
Edge.Cuts
10
62.781699
20
291.202000
70
0
0
VERTEX
8
Edge.Cuts
10
62.781699
20
277.201856
70
0
0
SEQEND
8
Edge.Cuts
0
POLYLINE
8
Edge.Cuts
62
254
70
0
10
0.000000
20
0.000000
66
1
0
VERTEX
8
Edge.Cuts
10
41.731476
20
201.002031
70
0
0
VERTEX
8
Edge.Cuts
10
41.731476
20
215.002017
70
0
0
SEQEND
8
Edge.Cuts
0
POLYLINE
8
Edge.Cuts
62
254
70
0
10
0.000000
20
0.000000
66
1
0
VERTEX
8
Edge.Cuts
10
55.730562
20
201.002031
70
0
0
VERTEX
8
Edge.Cuts
10
41.731476
20
201.002031
70
0
0
SEQEND
8
Edge.Cuts
0
POLYLINE
8
Edge.Cuts
62
254
70
0
10
0.000000
20
0.000000
66
1
0
VERTEX
8
Edge.Cuts
10
41.731476
20
215.002017
70
0
0
VERTEX
8
Edge.Cuts
10
55.730562
20
215.002017
70
0
0
SEQEND
8
Edge.Cuts
0
POLYLINE
8
Edge.Cuts
62
254
70
0
10
0.000000
20
0.000000
66
1
0
VERTEX
8
Edge.Cuts
10
55.730562
20
215.002017
70
0
0
VERTEX
8
Edge.Cuts
10
55.730562
20
201.002031
70
0
0
SEQEND
8
Edge.Cuts
0
POLYLINE
8
Edge.Cuts
62
254
70
0
10
0.000000
20
0.000000
66
1
0
VERTEX
8
Edge.Cuts
10
41.731476
20
239.101983
70
0
0
VERTEX
8
Edge.Cuts
10
41.731476
20
253.101969
70
0
0
SEQEND
8
Edge.Cuts
0
POLYLINE
8
Edge.Cuts
62
254
70
0
10
0.000000
20
0.000000
66
1
0
VERTEX
8
Edge.Cuts
10
55.730562
20
239.101983
70
0
0
VERTEX
8
Edge.Cuts
10
41.731476
20
239.101983
70
0
0
SEQEND
8
Edge.Cuts
0
POLYLINE
8
Edge.Cuts
62
254
70
0
10
0.000000
20
0.000000
66
1
0
VERTEX
8
Edge.Cuts
10
41.731476
20
253.101969
70
0
0
VERTEX
8
Edge.Cuts
10
55.730562
20
253.101969
70
0
0
SEQEND
8
Edge.Cuts
0
POLYLINE
8
Edge.Cuts
62
254
70
0
10
0.000000
20
0.000000
66
1
0
VERTEX
8
Edge.Cuts
10
55.730562
20
253.101969
70
0
0
VERTEX
8
Edge.Cuts
10
55.730562
20
239.101983
70
0
0
SEQEND
8
Edge.Cuts
0
POLYLINE
8
Edge.Cuts
62
254
70
0
10
0.000000
20
0.000000
66
1
0
VERTEX
8
Edge.Cuts
10
21.017273
20
159.849505
70
0
0
VERTEX
8
Edge.Cuts
10
8.327872
20
165.766375
70
0
0
SEQEND
8
Edge.Cuts
0
POLYLINE
8
Edge.Cuts
62
254
70
0
10
0.000000
20
0.000000
66
1
0
VERTEX
8
Edge.Cuts
10
8.327872
20
165.766375
70
0
0
VERTEX
8
Edge.Cuts
10
14.243948
20
178.454453
70
0
0
SEQEND
8
Edge.Cuts
0
POLYLINE
8
Edge.Cuts
62
254
70
0
10
0.000000
20
0.000000
66
1
0
VERTEX
8
Edge.Cuts
10
26.933349
20
172.537848
70
0
0
VERTEX
8
Edge.Cuts
10
21.017273
20
159.849505
70
0
0
SEQEND
8
Edge.Cuts
0
POLYLINE
8
Edge.Cuts
62
254
70
0
10
0.000000
20
0.000000
66
1
0
VERTEX
8
Edge.Cuts
10
14.243948
20
178.454453
70
0
0
VERTEX
8
Edge.Cuts
10
26.933349
20
172.537848
70
0
0
SEQEND
8
Edge.Cuts
0
POLYLINE
8
Edge.Cuts
62
254
70
0
10
0.000000
20
0.000000
66
1
0
VERTEX
8
Edge.Cuts
10
46.729449
20
220.052007
70
0
0
VERTEX
8
Edge.Cuts
10
46.729449
20
234.051993
70
0
0
SEQEND
8
Edge.Cuts
0
POLYLINE
8
Edge.Cuts
62
254
70
0
10
0.000000
20
0.000000
66
1
0
VERTEX
8
Edge.Cuts
10
60.731181
20
220.052007
70
0
0
VERTEX
8
Edge.Cuts
10
46.729449
20
220.052007
70
0
0
SEQEND
8
Edge.Cuts
0
POLYLINE
8
Edge.Cuts
62
254
70
0
10
0.000000
20
0.000000
66
1
0
VERTEX
8
Edge.Cuts
10
46.729449
20
234.051993
70
0
0
VERTEX
8
Edge.Cuts
10
60.731181
20
234.051993
70
0
0
SEQEND
8
Edge.Cuts
0
POLYLINE
8
Edge.Cuts
62
254
70
0
10
0.000000
20
0.000000
66
1
0
VERTEX
8
Edge.Cuts
10
60.731181
20
234.051993
70
0
0
VERTEX
8
Edge.Cuts
10
60.731181
20
220.052007
70
0
0
SEQEND
8
Edge.Cuts
0
POLYLINE
8
Edge.Cuts
62
254
70
0
10
0.000000
20
0.000000
66
1
0
VERTEX
8
Edge.Cuts
10
58.781204
20
181.951976
70
0
0
VERTEX
8
Edge.Cuts
10
58.781204
20
195.952120
70
0
0
SEQEND
8
Edge.Cuts
0
POLYLINE
8
Edge.Cuts
62
254
70
0
10
0.000000
20
0.000000
66
1
0
VERTEX
8
Edge.Cuts
10
72.780291
20
181.951976
70
0
0
VERTEX
8
Edge.Cuts
10
58.781204
20
181.951976
70
0
0
SEQEND
8
Edge.Cuts
0
POLYLINE
8
Edge.Cuts
62
254
70
0
10
0.000000
20
0.000000
66
1
0
VERTEX
8
Edge.Cuts
10
58.781204
20
195.952120
70
0
0
VERTEX
8
Edge.Cuts
10
72.780291
20
195.952120
70
0
0
SEQEND
8
Edge.Cuts
0
POLYLINE
8
Edge.Cuts
62
254
70
0
10
0.000000
20
0.000000
66
1
0
VERTEX
8
Edge.Cuts
10
72.780291
20
195.952120
70
0
0
VERTEX
8
Edge.Cuts
10
72.780291
20
181.951976
70
0
0
SEQEND
8
Edge.Cuts
0
POLYLINE
8
Edge.Cuts
62
254
70
0
10
0.000000
20
0.000000
66
1
0
VERTEX
8
Edge.Cuts
10
84.829401
20
220.052007
70
0
0
VERTEX
8
Edge.Cuts
10
84.829401
20
234.051993
70
0
0
SEQEND
8
Edge.Cuts
0
POLYLINE
8
Edge.Cuts
62
254
70
0
10
0.000000
20
0.000000
66
1
0
VERTEX
8
Edge.Cuts
10
98.831133
20
220.052007
70
0
0
VERTEX
8
Edge.Cuts
10
84.829401
20
220.052007
70
0
0
SEQEND
8
Edge.Cuts
0
POLYLINE
8
Edge.Cuts
62
254
70
0
10
0.000000
20
0.000000
66
1
0
VERTEX
8
Edge.Cuts
10
84.829401
20
234.051993
70
0
0
VERTEX
8
Edge.Cuts
10
98.831133
20
234.051993
70
0
0
SEQEND
8
Edge.Cuts
0
POLYLINE
8
Edge.Cuts
62
254
70
0
10
0.000000
20
0.000000
66
1
0
VERTEX
8
Edge.Cuts
10
98.831133
20
234.051993
70
0
0
VERTEX
8
Edge.Cuts
10
98.831133
20
220.052007
70
0
0
SEQEND
8
Edge.Cuts
0
POLYLINE
8
Edge.Cuts
62
254
70
0
10
0.000000
20
0.000000
66
1
0
VERTEX
8
Edge.Cuts
10
65.779425
20
220.052007
70
0
0
VERTEX
8
Edge.Cuts
10
65.779425
20
234.051993
70
0
0
SEQEND
8
Edge.Cuts
0
POLYLINE
8
Edge.Cuts
62
254
70
0
10
0.000000
20
0.000000
66
1
0
VERTEX
8
Edge.Cuts
10
79.781157
20
220.052007
70
0
0
VERTEX
8
Edge.Cuts
10
65.779425
20
220.052007
70
0
0
SEQEND
8
Edge.Cuts
0
POLYLINE
8
Edge.Cuts
62
254
70
0
10
0.000000
20
0.000000
66
1
0
VERTEX
8
Edge.Cuts
10
65.779425
20
234.051993
70
0
0
VERTEX
8
Edge.Cuts
10
79.781157
20
234.051993
70
0
0
SEQEND
8
Edge.Cuts
0
POLYLINE
8
Edge.Cuts
62
254
70
0
10
0.000000
20
0.000000
66
1
0
VERTEX
8
Edge.Cuts
10
79.781157
20
234.051993
70
0
0
VERTEX
8
Edge.Cuts
10
79.781157
20
220.052007
70
0
0
SEQEND
8
Edge.Cuts
0
POLYLINE
8
Edge.Cuts
62
254
70
0
10
0.000000
20
0.000000
66
1
0
VERTEX
8
Edge.Cuts
10
30.309428
20
182.042992
70
0
0
VERTEX
8
Edge.Cuts
10
16.522008
20
184.473981
70
0
0
SEQEND
8
Edge.Cuts
0
POLYLINE
8
Edge.Cuts
62
254
70
0
10
0.000000
20
0.000000
66
1
0
VERTEX
8
Edge.Cuts
10
16.522008
20
184.473981
70
0
0
VERTEX
8
Edge.Cuts
10
18.953525
20
198.261136
70
0
0
SEQEND
8
Edge.Cuts
0
POLYLINE
8
Edge.Cuts
62
254
70
0
10
0.000000
20
0.000000
66
1
0
VERTEX
8
Edge.Cuts
10
32.738300
20
195.830148
70
0
0
VERTEX
8
Edge.Cuts
10
30.309428
20
182.042992
70
0
0
SEQEND
8
Edge.Cuts
0
POLYLINE
8
Edge.Cuts
62
254
70
0
10
0.000000
20
0.000000
66
1
0
VERTEX
8
Edge.Cuts
10
18.953525
20
198.261136
70
0
0
VERTEX
8
Edge.Cuts
10
32.738300
20
195.830148
70
0
0
SEQEND
8
Edge.Cuts
0
POLYLINE
8
Edge.Cuts
62
254
70
0
10
0.000000
20
0.000000
66
1
0
VERTEX
8
Edge.Cuts
10
77.831180
20
181.951976
70
0
0
VERTEX
8
Edge.Cuts
10
77.831180
20
195.952120
70
0
0
SEQEND
8
Edge.Cuts
0
POLYLINE
8
Edge.Cuts
62
254
70
0
10
0.000000
20
0.000000
66
1
0
VERTEX
8
Edge.Cuts
10
91.830267
20
181.951976
70
0
0
VERTEX
8
Edge.Cuts
10
77.831180
20
181.951976
70
0
0
SEQEND
8
Edge.Cuts
0
POLYLINE
8
Edge.Cuts
62
254
70
0
10
0.000000
20
0.000000
66
1
0
VERTEX
8
Edge.Cuts
10
77.831180
20
195.952120
70
0
0
VERTEX
8
Edge.Cuts
10
91.830267
20
195.952120
70
0
0
SEQEND
8
Edge.Cuts
0
POLYLINE
8
Edge.Cuts
62
254
70
0
10
0.000000
20
0.000000
66
1
0
VERTEX
8
Edge.Cuts
10
91.830267
20
195.952120
70
0
0
VERTEX
8
Edge.Cuts
10
91.830267
20
181.951976
70
0
0
SEQEND
8
Edge.Cuts
0
POLYLINE
8
Edge.Cuts
62
254
70
0
10
0.000000
20
0.000000
66
1
0
VERTEX
8
Edge.Cuts
10
29.729991
20
277.201856
70
0
0
VERTEX
8
Edge.Cuts
10
29.729991
20
291.202000
70
0
0
SEQEND
8
Edge.Cuts
0
POLYLINE
8
Edge.Cuts
62
254
70
0
10
0.000000
20
0.000000
66
1
0
VERTEX
8
Edge.Cuts
10
43.731723
20
277.201856
70
0
0
VERTEX
8
Edge.Cuts
10
29.729991
20
277.201856
70
0
0
SEQEND
8
Edge.Cuts
0
POLYLINE
8
Edge.Cuts
62
254
70
0
10
0.000000
20
0.000000
66
1
0
VERTEX
8
Edge.Cuts
10
29.729991
20
291.202000
70
0
0
VERTEX
8
Edge.Cuts
10
43.731723
20
291.202000
70
0
0
SEQEND
8
Edge.Cuts
0
POLYLINE
8
Edge.Cuts
62
254
70
0
10
0.000000
20
0.000000
66
1
0
VERTEX
8
Edge.Cuts
10
43.731723
20
291.202000
70
0
0
VERTEX
8
Edge.Cuts
10
43.731723
20
277.201856
70
0
0
SEQEND
8
Edge.Cuts
0
POLYLINE
8
Edge.Cuts
62
254
70
0
10
0.000000
20
0.000000
66
1
0
VERTEX
8
Edge.Cuts
10
48.779967
20
258.151880
70
0
0
VERTEX
8
Edge.Cuts
10
48.779967
20
272.152024
70
0
0
SEQEND
8
Edge.Cuts
0
POLYLINE
8
Edge.Cuts
62
254
70
0
10
0.000000
20
0.000000
66
1
0
VERTEX
8
Edge.Cuts
10
62.781699
20
258.151880
70
0
0
VERTEX
8
Edge.Cuts
10
48.779967
20
258.151880
70
0
0
SEQEND
8
Edge.Cuts
0
POLYLINE
8
Edge.Cuts
62
254
70
0
10
0.000000
20
0.000000
66
1
0
VERTEX
8
Edge.Cuts
10
48.779967
20
272.152024
70
0
0
VERTEX
8
Edge.Cuts
10
62.781699
20
272.152024
70
0
0
SEQEND
8
Edge.Cuts
0
POLYLINE
8
Edge.Cuts
62
254
70
0
10
0.000000
20
0.000000
66
1
0
VERTEX
8
Edge.Cuts
10
62.781699
20
272.152024
70
0
0
VERTEX
8
Edge.Cuts
10
62.781699
20
258.151880
70
0
0
SEQEND
8
Edge.Cuts
0
POLYLINE
8
Edge.Cuts
62
254
70
0
10
0.000000
20
0.000000
66
1
0
VERTEX
8
Edge.Cuts
10
67.829943
20
277.201856
70
0
0
VERTEX
8
Edge.Cuts
10
67.829943
20
291.202000
70
0
0
SEQEND
8
Edge.Cuts
0
POLYLINE
8
Edge.Cuts
62
254
70
0
10
0.000000
20
0.000000
66
1
0
VERTEX
8
Edge.Cuts
10
81.831675
20
277.201856
70
0
0
VERTEX
8
Edge.Cuts
10
67.829943
20
277.201856
70
0
0
SEQEND
8
Edge.Cuts
0
POLYLINE
8
Edge.Cuts
62
254
70
0
10
0.000000
20
0.000000
66
1
0
VERTEX
8
Edge.Cuts
10
67.829943
20
291.202000
70
0
0
VERTEX
8
Edge.Cuts
10
81.831675
20
291.202000
70
0
0
SEQEND
8
Edge.Cuts
0
POLYLINE
8
Edge.Cuts
62
254
70
0
10
0.000000
20
0.000000
66
1
0
VERTEX
8
Edge.Cuts
10
81.831675
20
291.202000
70
0
0
VERTEX
8
Edge.Cuts
10
81.831675
20
277.201856
70
0
0
SEQEND
8
Edge.Cuts
0
POLYLINE
8
Edge.Cuts
62
254
70
0
10
0.000000
20
0.000000
66
1
0
VERTEX
8
Edge.Cuts
10
29.729991
20
258.151880
70
0
0
VERTEX
8
Edge.Cuts
10
29.729991
20
272.152024
70
0
0
SEQEND
8
Edge.Cuts
0
POLYLINE
8
Edge.Cuts
62
254
70
0
10
0.000000
20
0.000000
66
1
0
VERTEX
8
Edge.Cuts
10
43.731723
20
258.151880
70
0
0
VERTEX
8
Edge.Cuts
10
29.729991
20
258.151880
70
0
0
SEQEND
8
Edge.Cuts
0
POLYLINE
8
Edge.Cuts
62
254
70
0
10
0.000000
20
0.000000
66
1
0
VERTEX
8
Edge.Cuts
10
29.729991
20
272.152024
70
0
0
VERTEX
8
Edge.Cuts
10
43.731723
20
272.152024
70
0
0
SEQEND
8
Edge.Cuts
0
POLYLINE
8
Edge.Cuts
62
254
70
0
10
0.000000
20
0.000000
66
1
0
VERTEX
8
Edge.Cuts
10
43.731723
20
272.152024
70
0
0
VERTEX
8
Edge.Cuts
10
43.731723
20
258.151880
70
0
0
SEQEND
8
Edge.Cuts
0
POLYLINE
8
Edge.Cuts
62
254
70
0
10
0.000000
20
0.000000
66
1
0
VERTEX
8
Edge.Cuts
10
122.305655
20
141.934924
70
0
0
VERTEX
8
Edge.Cuts
10
121.261986
20
142.073386
70
0
0
VERTEX
8
Edge.Cuts
10
120.305658
20
142.470822
70
0
0
VERTEX
8
Edge.Cuts
10
119.483304
20
143.100309
70
0
0
VERTEX
8
Edge.Cuts
10
118.841558
20
143.934922
70
0
0
VERTEX
8
Edge.Cuts
10
118.439635
20
144.907997
70
0
0
VERTEX
8
Edge.Cuts
10
118.305660
20
145.934919
70
0
0
VERTEX
8
Edge.Cuts
10
118.439635
20
146.961842
70
0
0
VERTEX
8
Edge.Cuts
10
118.841558
20
147.934917
70
0
0
VERTEX
8
Edge.Cuts
10
119.483304
20
148.769530
70
0
0
VERTEX
8
Edge.Cuts
10
120.305658
20
149.399016
70
0
0
VERTEX
8
Edge.Cuts
10
121.261986
20
149.796452
70
0
0
VERTEX
8
Edge.Cuts
10
122.305655
20
149.934914
70
0
0
SEQEND
8
Edge.Cuts
0
POLYLINE
8
Edge.Cuts
62
254
70
0
10
0.000000
20
0.000000
66
1
0
VERTEX
8
Edge.Cuts
10
185.356419
20
149.934935
70
0
0
VERTEX
8
Edge.Cuts
10
122.306290
20
149.934935
70
0
0
SEQEND
8
Edge.Cuts
0
POLYLINE
8
Edge.Cuts
62
254
70
0
10
0.000000
20
0.000000
66
1
0
VERTEX
8
Edge.Cuts
10
185.355572
20
149.934914
70
0
0
VERTEX
8
Edge.Cuts
10
186.161711
20
149.853648
70
0
0
VERTEX
8
Edge.Cuts
10
186.912551
20
149.620575
70
0
0
VERTEX
8
Edge.Cuts
10
188.183996
20
148.763343
70
0
0
VERTEX
8
Edge.Cuts
10
189.041227
20
147.491898
70
0
0
VERTEX
8
Edge.Cuts
10
189.274301
20
146.741058
70
0
0
VERTEX
8
Edge.Cuts
10
189.355567
20
145.934919
70
0
0
VERTEX
8
Edge.Cuts
10
189.274301
20
145.128781
70
0
0
VERTEX
8
Edge.Cuts
10
189.041227
20
144.377941
70
0
0
VERTEX
8
Edge.Cuts
10
188.183996
20
143.106496
70
0
0
VERTEX
8
Edge.Cuts
10
186.912551
20
142.249264
70
0
0
VERTEX
8
Edge.Cuts
10
186.161711
20
142.016190
70
0
0
VERTEX
8
Edge.Cuts
10
185.355572
20
141.934924
70
0
0
SEQEND
8
Edge.Cuts
0
POLYLINE
8
Edge.Cuts
62
254
70
0
10
0.000000
20
0.000000
66
1
0
VERTEX
8
Edge.Cuts
10
183.605567
20
140.184927
70
0
0
VERTEX
8
Edge.Cuts
10
183.738779
20
140.854624
70
0
0
VERTEX
8
Edge.Cuts
10
184.118133
20
141.422365
70
0
0
VERTEX
8
Edge.Cuts
10
184.685875
20
141.801716
70
0
0
VERTEX
8
Edge.Cuts
10
185.355572
20
141.934924
70
0
0
SEQEND
8
Edge.Cuts
0
POLYLINE
8
Edge.Cuts
62
254
70
0
10
0.000000
20
0.000000
66
1
0
VERTEX
8
Edge.Cuts
10
122.305655
20
141.934924
70
0
0
VERTEX
8
Edge.Cuts
10
122.986827
20
141.797395
70
0
0
VERTEX
8
Edge.Cuts
10
123.543077
20
141.422355
70
0
0
VERTEX
8
Edge.Cuts
10
123.918112
20
140.866101
70
0
0
VERTEX
8
Edge.Cuts
10
124.055633
20
140.184927
70
0
0
SEQEND
8
Edge.Cuts
0
POLYLINE
8
Edge.Cuts
62
254
70
0
10
0.000000
20
0.000000
66
1
0
VERTEX
8
Edge.Cuts
10
124.055184
20
140.185052
70
0
0
VERTEX
8
Edge.Cuts
10
124.047246
20
128.434921
70
0
0
SEQEND
8
Edge.Cuts
0
POLYLINE
8
Edge.Cuts
62
254
70
0
10
0.000000
20
0.000000
66
1
0
VERTEX
8
Edge.Cuts
10
124.047246
20
128.443387
70
0
0
VERTEX
8
Edge.Cuts
10
124.055184
20
119.284847
70
0
0
SEQEND
8
Edge.Cuts
0
POLYLINE
8
Edge.Cuts
62
254
70
0
10
0.000000
20
0.000000
66
1
0
VERTEX
8
Edge.Cuts
10
183.604879
20
128.433333
70
0
0
VERTEX
8
Edge.Cuts
10
183.604879
20
140.185052
70
0
0
SEQEND
8
Edge.Cuts
0
POLYLINE
8
Edge.Cuts
62
254
70
0
10
0.000000
20
0.000000
66
1
0
VERTEX
8
Edge.Cuts
10
183.604879
20
128.433333
70
0
0
VERTEX
8
Edge.Cuts
10
183.604879
20
101.434966
70
0
0
SEQEND
8
Edge.Cuts
0
POLYLINE
8
Edge.Cuts
62
254
70
0
10
0.000000
20
0.000000
66
1
0
VERTEX
8
Edge.Cuts
10
118.305636
20
113.514961
70
0
0
VERTEX
8
Edge.Cuts
10
118.379771
20
114.301844
70
0
0
VERTEX
8
Edge.Cuts
10
118.604360
20
115.051848
70
0
0
VERTEX
8
Edge.Cuts
10
118.970707
20
115.743756
70
0
0
VERTEX
8
Edge.Cuts
10
119.470118
20
116.356348
70
0
0
VERTEX
8
Edge.Cuts
10
120.080210
20
116.858813
70
0
0
VERTEX
8
Edge.Cuts
10
120.770279
20
117.228611
70
0
0
VERTEX
8
Edge.Cuts
10
121.519152
20
117.456943
70
0
0
VERTEX
8
Edge.Cuts
10
122.305655
20
117.535006
70
0
0
SEQEND
8
Edge.Cuts
0
POLYLINE
8
Edge.Cuts
62
254
70
0
10
0.000000
20
0.000000
66
1
0
VERTEX
8
Edge.Cuts
10
124.055633
20
119.284953
70
0
0
VERTEX
8
Edge.Cuts
10
123.918112
20
118.603779
70
0
0
VERTEX
8
Edge.Cuts
10
123.543077
20
118.047525
70
0
0
VERTEX
8
Edge.Cuts
10
122.986827
20
117.672485
70
0
0
VERTEX
8
Edge.Cuts
10
122.305655
20
117.534956
70
0
0
SEQEND
8
Edge.Cuts
0
POLYLINE
8
Edge.Cuts
62
254
70
0
10
0.000000
20
0.000000
66
1
0
VERTEX
8
Edge.Cuts
10
113.286656
20
111.764869
70
0
0
VERTEX
8
Edge.Cuts
10
116.556901
20
111.764869
70
0
0
SEQEND
8
Edge.Cuts
0
POLYLINE
8
Edge.Cuts
62
254
70
0
10
0.000000
20
0.000000
66
1
0
VERTEX
8
Edge.Cuts
10
112.049121
20
110.514965
70
0
0
VERTEX
8
Edge.Cuts
10
112.139372
20
110.992290
70
0
0
VERTEX
8
Edge.Cuts
10
112.406517
20
111.398021
70
0
0
VERTEX
8
Edge.Cuts
10
112.809331
20
111.669546
70
0
0
VERTEX
8
Edge.Cuts
10
113.285650
20
111.764961
70
0
0
SEQEND
8
Edge.Cuts
0
POLYLINE
8
Edge.Cuts
62
254
70
0
10
0.000000
20
0.000000
66
1
0
VERTEX
8
Edge.Cuts
10
118.305636
20
113.514961
70
0
0
VERTEX
8
Edge.Cuts
10
118.168115
20
112.833787
70
0
0
VERTEX
8
Edge.Cuts
10
117.793081
20
112.277531
70
0
0
VERTEX
8
Edge.Cuts
10
117.236830
20
111.902491
70
0
0
VERTEX
8
Edge.Cuts
10
116.555658
20
111.764961
70
0
0
SEQEND
8
Edge.Cuts
0
POLYLINE
8
Edge.Cuts
62
254
70
0
10
0.000000
20
0.000000
66
1
0
VERTEX
8
Edge.Cuts
10
112.048407
20
110.514979
70
0
0
VERTEX
8
Edge.Cuts
10
112.048407
20
93.944992
70
0
0
SEQEND
8
Edge.Cuts
0
POLYLINE
8
Edge.Cuts
62
254
70
0
10
0.000000
20
0.000000
66
1
0
VERTEX
8
Edge.Cuts
10
183.864277
20
96.653459
70
0
0
VERTEX
8
Edge.Cuts
10
183.637314
20
99.038936
70
0
0
VERTEX
8
Edge.Cuts
10
183.605567
20
101.434976
70
0
0
SEQEND
8
Edge.Cuts
0
POLYLINE
8
Edge.Cuts
62
254
70
0
10
0.000000
20
0.000000
66
1
0
VERTEX
8
Edge.Cuts
10
185.925563
20
95.125024
70
0
0
VERTEX
8
Edge.Cuts
10
185.213607
20
95.145193
70
0
0
VERTEX
8
Edge.Cuts
10
184.568007
20
95.446005
70
0
0
VERTEX
8
Edge.Cuts
10
184.094600
20
95.978147
70
0
0
VERTEX
8
Edge.Cuts
10
183.870997
20
96.654379
70
0
0
SEQEND
8
Edge.Cuts
0
POLYLINE
8
Edge.Cuts
62
254
70
0
10
0.000000
20
0.000000
66
1
0
VERTEX
8
Edge.Cuts
10
108.286037
20
92.708437
70
0
0
VERTEX
8
Edge.Cuts
10
110.812804
20
92.708437
70
0
0
SEQEND
8
Edge.Cuts
0
POLYLINE
8
Edge.Cuts
62
254
70
0
10
0.000000
20
0.000000
66
1
0
VERTEX
8
Edge.Cuts
10
107.049111
20
91.471884
70
0
0
VERTEX
8
Edge.Cuts
10
107.143237
20
91.945093
70
0
0
VERTEX
8
Edge.Cuts
10
107.411289
20
92.346260
70
0
0
VERTEX
8
Edge.Cuts
10
107.812457
20
92.614310
70
0
0
VERTEX
8
Edge.Cuts
10
108.285666
20
92.708435
70
0
0
SEQEND
8
Edge.Cuts
0
POLYLINE
8
Edge.Cuts
62
254
70
0
10
0.000000
20
0.000000
66
1
0
VERTEX
8
Edge.Cuts
10
112.049121
20
93.944985
70
0
0
VERTEX
8
Edge.Cuts
10
111.954994
20
93.471777
70
0
0
VERTEX
8
Edge.Cuts
10
111.686943
20
93.070610
70
0
0
VERTEX
8
Edge.Cuts
10
111.285775
20
92.802560
70
0
0
VERTEX
8
Edge.Cuts
10
110.812566
20
92.708435
70
0
0
SEQEND
8
Edge.Cuts
0
POLYLINE
8
Edge.Cuts
62
254
70
0
10
0.000000
20
0.000000
66
1
0
VERTEX
8
Edge.Cuts
10
107.050434
20
91.471882
70
0
0
VERTEX
8
Edge.Cuts
10
107.050434
20
72.505011
70
0
0
SEQEND
8
Edge.Cuts
0
POLYLINE
8
Edge.Cuts
62
254
70
0
10
0.000000
20
0.000000
66
1
0
VERTEX
8
Edge.Cuts
10
185.917467
20
95.154185
70
0
0
VERTEX
8
Edge.Cuts
10
187.257531
20
95.295443
70
0
0
VERTEX
8
Edge.Cuts
10
188.538700
20
95.004123
70
0
0
VERTEX
8
Edge.Cuts
10
189.660902
20
94.320807
70
0
0
VERTEX
8
Edge.Cuts
10
190.524069
20
93.286075
70
0
0
VERTEX
8
Edge.Cuts
10
191.003178
20
92.026639
70
0
0
VERTEX
8
Edge.Cuts
10
191.049026
20
90.713567
70
0
0
VERTEX
8
Edge.Cuts
10
190.675267
20
89.453978
70
0
0
VERTEX
8
Edge.Cuts
10
189.895552
20
88.354992
70
0
0
SEQEND
8
Edge.Cuts
0
POLYLINE
8
Edge.Cuts
62
254
70
0
10
0.000000
20
0.000000
66
1
0
VERTEX
8
Edge.Cuts
10
189.333763
20
83.184100
70
0
0
VERTEX
8
Edge.Cuts
10
188.855784
20
84.494968
70
0
0
VERTEX
8
Edge.Cuts
10
188.797111
20
85.858368
70
0
0
VERTEX
8
Edge.Cuts
10
189.147211
20
87.177357
70
0
0
VERTEX
8
Edge.Cuts
10
189.895552
20
88.354992
70
0
0
SEQEND
8
Edge.Cuts
0
POLYLINE
8
Edge.Cuts
62
254
70
0
10
0.000000
20
0.000000
66
1
0
VERTEX
8
Edge.Cuts
10
193.949440
20
78.249569
70
0
0
VERTEX
8
Edge.Cuts
10
191.511262
20
80.575283
70
0
0
VERTEX
8
Edge.Cuts
10
189.355564
20
83.164999
70
0
0
SEQEND
8
Edge.Cuts
0
POLYLINE
8
Edge.Cuts
62
254
70
0
10
0.000000
20
0.000000
66
1
0
VERTEX
8
Edge.Cuts
10
193.945577
20
78.245036
70
0
0
VERTEX
8
Edge.Cuts
10
194.623411
20
77.430454
70
0
0
VERTEX
8
Edge.Cuts
10
195.100187
20
76.498096
70
0
0
VERTEX
8
Edge.Cuts
10
195.362150
20
75.484202
70
0
0
VERTEX
8
Edge.Cuts
10
195.395545
20
74.425010
70
0
0
SEQEND
8
Edge.Cuts
0
POLYLINE
8
Edge.Cuts
62
254
70
0
10
0.000000
20
0.000000
66
1
0
VERTEX
8
Edge.Cuts
10
108.285666
20
71.268462
70
0
0
VERTEX
8
Edge.Cuts
10
107.812458
20
71.362587
70
0
0
VERTEX
8
Edge.Cuts
10
107.411290
20
71.630637
70
0
0
VERTEX
8
Edge.Cuts
10
107.143239
20
72.031803
70
0
0
VERTEX
8
Edge.Cuts
10
107.049111
20
72.505012
70
0
0
SEQEND
8
Edge.Cuts
0
POLYLINE
8
Edge.Cuts
62
254
70
0
10
0.000000
20
0.000000
66
1
0
VERTEX
8
Edge.Cuts
10
108.286037
20
71.268456
70
0
0
VERTEX
8
Edge.Cuts
10
110.876304
20
71.268456
70
0
0
SEQEND
8
Edge.Cuts
0
POLYLINE
8
Edge.Cuts
62
254
70
0
10
0.000000
20
0.000000
66
1
0
VERTEX
8
Edge.Cuts
10
110.875669
20
71.268431
70
0
0
VERTEX
8
Edge.Cuts
10
111.347876
20
71.174177
70
0
0
VERTEX
8
Edge.Cuts
10
111.747715
20
70.905863
70
0
0
VERTEX
8
Edge.Cuts
10
112.013909
20
70.504610
70
0
0
VERTEX
8
Edge.Cuts
10
112.105663
20
70.031911
70
0
0
SEQEND
8
Edge.Cuts
0
POLYLINE
8
Edge.Cuts
62
254
70
0
10
0.000000
20
0.000000
66
1
0
VERTEX
8
Edge.Cuts
10
112.106615
20
70.031901
70
0
0
VERTEX
8
Edge.Cuts
10
112.109261
20
56.857573
70
0
0
SEQEND
8
Edge.Cuts
0
POLYLINE
8
Edge.Cuts
62
254
70
0
10
0.000000
20
0.000000
66
1
0
VERTEX
8
Edge.Cuts
10
194.675032
20
66.095012
70
0
0
VERTEX
8
Edge.Cuts
10
195.394698
20
74.425011
70
0
0
SEQEND
8
Edge.Cuts
0
POLYLINE
8
Edge.Cuts
62
254
70
0
10
0.000000
20
0.000000
66
1
0
VERTEX
8
Edge.Cuts
10
201.815545
20
28.125068
70
0
0
VERTEX
8
Edge.Cuts
10
199.790065
20
32.597076
70
0
0
VERTEX
8
Edge.Cuts
10
198.081943
20
37.181206
70
0
0
VERTEX
8
Edge.Cuts
10
196.694356
20
41.860575
70
0
0
VERTEX
8
Edge.Cuts
10
195.630478
20
46.618298
70
0
0
VERTEX
8
Edge.Cuts
10
194.893484
20
51.437488
70
0
0
VERTEX
8
Edge.Cuts
10
194.486550
20
56.301262
70
0
0
VERTEX
8
Edge.Cuts
10
194.412851
20
61.192734
70
0
0
VERTEX
8
Edge.Cuts
10
194.675561
20
66.095020
70
0
0
SEQEND
8
Edge.Cuts
0
POLYLINE
8
Edge.Cuts
62
254
70
0
10
0.000000
20
0.000000
66
1
0
VERTEX
8
Edge.Cuts
10
112.110134
20
56.857576
70
0
0
VERTEX
8
Edge.Cuts
10
112.007021
20
55.917575
70
0
0
VERTEX
8
Edge.Cuts
10
111.652970
20
55.059915
70
0
0
VERTEX
8
Edge.Cuts
10
111.076381
20
54.332951
70
0
0
VERTEX
8
Edge.Cuts
10
110.305652
20
53.785037
70
0
0
SEQEND
8
Edge.Cuts
0
POLYLINE
8
Edge.Cuts
62
254
70
0
10
0.000000
20
0.000000
66
1
0
VERTEX
8
Edge.Cuts
10
112.355667
20
46.321941
70
0
0
VERTEX
8
Edge.Cuts
10
111.055993
20
46.537861
70
0
0
VERTEX
8
Edge.Cuts
10
109.922638
20
47.143578
70
0
0
VERTEX
8
Edge.Cuts
10
109.038352
20
48.076008
70
0
0
VERTEX
8
Edge.Cuts
10
108.485886
20
49.272067
70
0
0
VERTEX
8
Edge.Cuts
10
108.349848
20
50.582512
70
0
0
VERTEX
8
Edge.Cuts
10
108.633739
20
51.835825
70
0
0
VERTEX
8
Edge.Cuts
10
109.298644
20
52.935501
70
0
0
VERTEX
8
Edge.Cuts
10
110.305652
20
53.785037
70
0
0
SEQEND
8
Edge.Cuts
0
POLYLINE
8
Edge.Cuts
62
254
70
0
10
0.000000
20
0.000000
66
1
0
VERTEX
8
Edge.Cuts
10
112.355667
20
46.321946
70
0
0
VERTEX
8
Edge.Cuts
10
113.027915
20
46.188153
70
0
0
VERTEX
8
Edge.Cuts
10
113.580067
20
45.822424
70
0
0
VERTEX
8
Edge.Cuts
10
113.957514
20
45.278215
70
0
0
VERTEX
8
Edge.Cuts
10
114.105646
20
44.608981
70
0
0
SEQEND
8
Edge.Cuts
0
POLYLINE
8
Edge.Cuts
62
254
70
0
10
0.000000
20
0.000000
66
1
0
VERTEX
8
Edge.Cuts
10
201.816127
20
28.125155
70
0
0
VERTEX
8
Edge.Cuts
10
205.496477
20
20.421292
70
0
0
SEQEND
8
Edge.Cuts
0
POLYLINE
8
Edge.Cuts
62
254
70
0
10
0.000000
20
0.000000
66
1
0
VERTEX
8
Edge.Cuts
10
205.496980
20
20.421194
70
0
0
VERTEX
8
Edge.Cuts
10
205.604563
20
19.873416
70
0
0
VERTEX
8
Edge.Cuts
10
205.545400
20
19.330331
70
0
0
VERTEX
8
Edge.Cuts
10
205.329166
20
18.828648
70
0
0
VERTEX
8
Edge.Cuts
10
204.965538
20
18.405080
70
0
0
SEQEND
8
Edge.Cuts
0
POLYLINE
8
Edge.Cuts
62
254
70
0
10
0.000000
20
0.000000
66
1
0
VERTEX
8
Edge.Cuts
10
204.964665
20
18.405170
70
0
0
VERTEX
8
Edge.Cuts
10
198.995673
20
15.577836
70
0
0
SEQEND
8
Edge.Cuts
0
POLYLINE
8
Edge.Cuts
62
254
70
0
10
0.000000
20
0.000000
66
1
0
VERTEX
8
Edge.Cuts
10
198.113103
20
13.179211
70
0
0
VERTEX
8
Edge.Cuts
10
197.945362
20
13.865066
70
0
0
VERTEX
8
Edge.Cuts
10
198.054506
20
14.562650
70
0
0
VERTEX
8
Edge.Cuts
10
198.423719
20
15.164494
70
0
0
VERTEX
8
Edge.Cuts
10
198.996122
20
15.577881
70
0
0
SEQEND
8
Edge.Cuts
0
POLYLINE
8
Edge.Cuts
62
254
70
0
10
0.000000
20
0.000000
66
1
0
VERTEX
8
Edge.Cuts
10
198.113077
20
13.179203
70
0
0
VERTEX
8
Edge.Cuts
10
198.382391
20
12.416797
70
0
0
VERTEX
8
Edge.Cuts
10
198.491408
20
11.639744
70
0
0
VERTEX
8
Edge.Cuts
10
198.259104
20
10.126900
70
0
0
VERTEX
8
Edge.Cuts
10
197.477261
20
8.811080
70
0
0
VERTEX
8
Edge.Cuts
10
196.899354
20
8.280306
70
0
0
VERTEX
8
Edge.Cuts
10
196.206973
20
7.862693
70
0
0
VERTEX
8
Edge.Cuts
10
195.445263
20
7.591415
70
0
0
VERTEX
8
Edge.Cuts
10
194.668494
20
7.480395
70
0
0
VERTEX
8
Edge.Cuts
10
193.155056
20
7.708801
70
0
0
VERTEX
8
Edge.Cuts
10
191.837225
20
8.487252
70
0
0
VERTEX
8
Edge.Cuts
10
191.304965
20
9.063789
70
0
0
VERTEX
8
Edge.Cuts
10
190.885569
20
9.755092
70
0
0
SEQEND
8
Edge.Cuts
0
POLYLINE
8
Edge.Cuts
62
254
70
0
10
0.000000
20
0.000000
66
1
0
VERTEX
8
Edge.Cuts
10
188.595550
20
10.665090
70
0
0
VERTEX
8
Edge.Cuts
10
189.270758
20
10.790388
70
0
0
VERTEX
8
Edge.Cuts
10
189.922972
20
10.662166
70
0
0
VERTEX
8
Edge.Cuts
10
190.484946
20
10.307187
70
0
0
VERTEX
8
Edge.Cuts
10
190.889432
20
9.752213
70
0
0
SEQEND
8
Edge.Cuts
0
POLYLINE
8
Edge.Cuts
62
254
70
0
10
0.000000
20
0.000000
66
1
0
VERTEX
8
Edge.Cuts
10
114.096279
20
8.365039
70
0
0
VERTEX
8
Edge.Cuts
10
114.106863
20
44.608941
70
0
0
SEQEND
8
Edge.Cuts
0
POLYLINE
8
Edge.Cuts
62
254
70
0
10
0.000000
20
0.000000
66
1
0
VERTEX
8
Edge.Cuts
10
115.345640
20
7.075067
70
0
0
VERTEX
8
Edge.Cuts
10
114.856349
20
7.171355
70
0
0
VERTEX
8
Edge.Cuts
10
114.444457
20
7.452465
70
0
0
VERTEX
8
Edge.Cuts
10
114.176466
20
7.873011
70
0
0
VERTEX
8
Edge.Cuts
10
114.095645
20
8.365094
70
0
0
SEQEND
8
Edge.Cuts
0
POLYLINE
8
Edge.Cuts
62
254
70
0
10
0.000000
20
0.000000
66
1
0
VERTEX
8
Edge.Cuts
10
182.520089
20
7.786396
70
0
0
VERTEX
8
Edge.Cuts
10
188.594915
20
10.661090
70
0
0
SEQEND
8
Edge.Cuts
0
POLYLINE
8
Edge.Cuts
62
254
70
0
10
0.000000
20
0.000000
66
1
0
VERTEX
8
Edge.Cuts
10
182.518819
20
7.786361
70
0
0
VERTEX
8
Edge.Cuts
10
181.147928
20
7.269022
70
0
0
VERTEX
8
Edge.Cuts
10
179.695560
20
7.075093
70
0
0
SEQEND
8
Edge.Cuts
0
POLYLINE
8
Edge.Cuts
62
254
70
0
10
0.000000
20
0.000000
66
1
0
VERTEX
8
Edge.Cuts
10
179.694343
20
7.075197
70
0
0
VERTEX
8
Edge.Cuts
10
115.345111
20
7.075197
70
0
0
SEQEND
8
Edge.Cuts
0
POLYLINE
8
Edge.Cuts
62
254
70
0
10
0.000000
20
0.000000
66
1
0
VERTEX
8
Edge.Cuts
10
187.005565
20
89.834990
70
0
0
VERTEX
8
Edge.Cuts
10
186.460818
20
89.945184
70
0
0
VERTEX
8
Edge.Cuts
10
186.016010
20
90.245255
70
0
0
VERTEX
8
Edge.Cuts
10
185.716132
20
90.690193
70
0
0
VERTEX
8
Edge.Cuts
10
185.606175
20
91.234988
70
0
0
VERTEX
8
Edge.Cuts
10
185.716132
20
91.779783
70
0
0
VERTEX
8
Edge.Cuts
10
186.016010
20
92.224722
70
0
0
VERTEX
8
Edge.Cuts
10
186.460818
20
92.524793
70
0
0
VERTEX
8
Edge.Cuts
10
187.005565
20
92.634987
70
0
0
VERTEX
8
Edge.Cuts
10
187.550312
20
92.524793
70
0
0
VERTEX
8
Edge.Cuts
10
187.995120
20
92.224722
70
0
0
VERTEX
8
Edge.Cuts
10
188.294997
20
91.779783
70
0
0
VERTEX
8
Edge.Cuts
10
188.404954
20
91.234988
70
0
0
VERTEX
8
Edge.Cuts
10
188.294997
20
90.690193
70
0
0
VERTEX
8
Edge.Cuts
10
187.995120
20
90.245255
70
0
0
VERTEX
8
Edge.Cuts
10
187.550312
20
89.945184
70
0
0
VERTEX
8
Edge.Cuts
10
187.005565
20
89.834990
70
0
0
VERTEX
8
Edge.Cuts
10
187.005565
20
89.834990
70
0
0
SEQEND
8
Edge.Cuts
0
POLYLINE
8
Edge.Cuts
62
254
70
0
10
0.000000
20
0.000000
66
1
0
VERTEX
8
Edge.Cuts
10
194.495566
20
10.075091
70
0
0
VERTEX
8
Edge.Cuts
10
193.951176
20
10.185605
70
0
0
VERTEX
8
Edge.Cuts
10
193.506730
20
10.485749
70
0
0
VERTEX
8
Edge.Cuts
10
193.207133
20
10.930564
70
0
0
VERTEX
8
Edge.Cuts
10
193.097289
20
11.475089
70
0
0
VERTEX
8
Edge.Cuts
10
193.207133
20
12.019614
70
0
0
VERTEX
8
Edge.Cuts
10
193.506730
20
12.464428
70
0
0
VERTEX
8
Edge.Cuts
10
193.951176
20
12.764572
70
0
0
VERTEX
8
Edge.Cuts
10
194.495566
20
12.875086
70
0
0
VERTEX
8
Edge.Cuts
10
195.039955
20
12.764572
70
0
0
VERTEX
8
Edge.Cuts
10
195.484401
20
12.464428
70
0
0
VERTEX
8
Edge.Cuts
10
195.783998
20
12.019614
70
0
0
VERTEX
8
Edge.Cuts
10
195.893842
20
11.475089
70
0
0
VERTEX
8
Edge.Cuts
10
195.783998
20
10.930564
70
0
0
VERTEX
8
Edge.Cuts
10
195.484401
20
10.485749
70
0
0
VERTEX
8
Edge.Cuts
10
195.039955
20
10.185605
70
0
0
VERTEX
8
Edge.Cuts
10
194.495566
20
10.075091
70
0
0
VERTEX
8
Edge.Cuts
10
194.495566
20
10.075091
70
0
0
SEQEND
8
Edge.Cuts
0
POLYLINE
8
Edge.Cuts
62
254
70
0
10
0.000000
20
0.000000
66
1
0
VERTEX
8
Edge.Cuts
10
122.305655
20
112.134962
70
0
0
VERTEX
8
Edge.Cuts
10
121.605656
20
112.322526
70
0
0
VERTEX
8
Edge.Cuts
10
121.093221
20
112.834962
70
0
0
VERTEX
8
Edge.Cuts
10
120.905656
20
113.534961
70
0
0
VERTEX
8
Edge.Cuts
10
121.093221
20
114.234960
70
0
0
VERTEX
8
Edge.Cuts
10
121.605656
20
114.747395
70
0
0
VERTEX
8
Edge.Cuts
10
122.305655
20
114.934959
70
0
0
VERTEX
8
Edge.Cuts
10
123.005654
20
114.747395
70
0
0
VERTEX
8
Edge.Cuts
10
123.518089
20
114.234960
70
0
0
VERTEX
8
Edge.Cuts
10
123.705654
20
113.534961
70
0
0
VERTEX
8
Edge.Cuts
10
123.518089
20
112.834962
70
0
0
VERTEX
8
Edge.Cuts
10
123.005654
20
112.322526
70
0
0
VERTEX
8
Edge.Cuts
10
122.305655
20
112.134962
70
0
0
VERTEX
8
Edge.Cuts
10
122.305655
20
112.134962
70
0
0
SEQEND
8
Edge.Cuts
0
POLYLINE
8
Edge.Cuts
62
254
70
0
10
0.000000
20
0.000000
66
1
0
VERTEX
8
Edge.Cuts
10
185.355572
20
144.534921
70
0
0
VERTEX
8
Edge.Cuts
10
184.655573
20
144.722485
70
0
0
VERTEX
8
Edge.Cuts
10
184.143138
20
145.234920
70
0
0
VERTEX
8
Edge.Cuts
10
183.955574
20
145.934919
70
0
0
VERTEX
8
Edge.Cuts
10
184.143138
20
146.634919
70
0
0
VERTEX
8
Edge.Cuts
10
184.655573
20
147.147354
70
0
0
VERTEX
8
Edge.Cuts
10
185.355572
20
147.334918
70
0
0
VERTEX
8
Edge.Cuts
10
186.055572
20
147.147354
70
0
0
VERTEX
8
Edge.Cuts
10
186.568007
20
146.634919
70
0
0
VERTEX
8
Edge.Cuts
10
186.755571
20
145.934919
70
0
0
VERTEX
8
Edge.Cuts
10
186.568007
20
145.234920
70
0
0
VERTEX
8
Edge.Cuts
10
186.055572
20
144.722485
70
0
0
VERTEX
8
Edge.Cuts
10
185.355572
20
144.534921
70
0
0
VERTEX
8
Edge.Cuts
10
185.355572
20
144.534921
70
0
0
SEQEND
8
Edge.Cuts
0
POLYLINE
8
Edge.Cuts
62
254
70
0
10
0.000000
20
0.000000
66
1
0
VERTEX
8
Edge.Cuts
10
112.355667
20
48.935042
70
0
0
VERTEX
8
Edge.Cuts
10
111.655668
20
49.122607
70
0
0
VERTEX
8
Edge.Cuts
10
111.143233
20
49.635042
70
0
0
VERTEX
8
Edge.Cuts
10
110.955669
20
50.335041
70
0
0
VERTEX
8
Edge.Cuts
10
111.143233
20
51.035040
70
0
0
VERTEX
8
Edge.Cuts
10
111.655668
20
51.547475
70
0
0
VERTEX
8
Edge.Cuts
10
112.355667
20
51.735040
70
0
0
VERTEX
8
Edge.Cuts
10
113.055667
20
51.547475
70
0
0
VERTEX
8
Edge.Cuts
10
113.568102
20
51.035040
70
0
0
VERTEX
8
Edge.Cuts
10
113.755666
20
50.335041
70
0
0
VERTEX
8
Edge.Cuts
10
113.568102
20
49.635042
70
0
0
VERTEX
8
Edge.Cuts
10
113.055667
20
49.122607
70
0
0
VERTEX
8
Edge.Cuts
10
112.355667
20
48.935042
70
0
0
VERTEX
8
Edge.Cuts
10
112.355667
20
48.935042
70
0
0
SEQEND
8
Edge.Cuts
0
POLYLINE
8
Edge.Cuts
62
254
70
0
10
0.000000
20
0.000000
66
1
0
VERTEX
8
Edge.Cuts
10
122.305655
20
144.534921
70
0
0
VERTEX
8
Edge.Cuts
10
121.605656
20
144.722485
70
0
0
VERTEX
8
Edge.Cuts
10
121.093221
20
145.234920
70
0
0
VERTEX
8
Edge.Cuts
10
120.905656
20
145.934919
70
0
0
VERTEX
8
Edge.Cuts
10
121.093221
20
146.634919
70
0
0
VERTEX
8
Edge.Cuts
10
121.605656
20
147.147354
70
0
0
VERTEX
8
Edge.Cuts
10
122.305655
20
147.334918
70
0
0
VERTEX
8
Edge.Cuts
10
123.005654
20
147.147354
70
0
0
VERTEX
8
Edge.Cuts
10
123.518089
20
146.634919
70
0
0
VERTEX
8
Edge.Cuts
10
123.705654
20
145.934919
70
0
0
VERTEX
8
Edge.Cuts
10
123.518089
20
145.234920
70
0
0
VERTEX
8
Edge.Cuts
10
123.005654
20
144.722485
70
0
0
VERTEX
8
Edge.Cuts
10
122.305655
20
144.534921
70
0
0
VERTEX
8
Edge.Cuts
10
122.305655
20
144.534921
70
0
0
SEQEND
8
Edge.Cuts
0
POLYLINE
8
Edge.Cuts
62
254
70
0
10
0.000000
20
0.000000
66
1
0
VERTEX
8
Edge.Cuts
10
164.863713
20
163.805962
70
0
0
VERTEX
8
Edge.Cuts
10
174.105597
20
163.805962
70
0
0
SEQEND
8
Edge.Cuts
0
POLYLINE
8
Edge.Cuts
62
254
70
0
10
0.000000
20
0.000000
66
1
0
VERTEX
8
Edge.Cuts
10
174.102951
20
152.138910
70
0
0
VERTEX
8
Edge.Cuts
10
174.105597
20
163.805962
70
0
0
SEQEND
8
Edge.Cuts
0
POLYLINE
8
Edge.Cuts
62
254
70
0
10
0.000000
20
0.000000
66
1
0
VERTEX
8
Edge.Cuts
10
174.664582
20
151.589017
70
0
0
VERTEX
8
Edge.Cuts
10
174.268516
20
151.746091
70
0
0
VERTEX
8
Edge.Cuts
10
174.103481
20
152.138905
70
0
0
SEQEND
8
Edge.Cuts
0
POLYLINE
8
Edge.Cuts
62
254
70
0
10
0.000000
20
0.000000
66
1
0
VERTEX
8
Edge.Cuts
10
183.354572
20
294.445914
70
0
0
VERTEX
8
Edge.Cuts
10
184.398242
20
294.307452
70
0
0
VERTEX
8
Edge.Cuts
10
185.354570
20
293.910016
70
0
0
VERTEX
8
Edge.Cuts
10
186.176923
20
293.280530
70
0
0
VERTEX
8
Edge.Cuts
10
186.818669
20
292.445917
70
0
0
VERTEX
8
Edge.Cuts
10
187.220593
20
291.472842
70
0
0
VERTEX
8
Edge.Cuts
10
187.354567
20
290.445919
70
0
0
VERTEX
8
Edge.Cuts
10
187.220593
20
289.418997
70
0
0
VERTEX
8
Edge.Cuts
10
186.818669
20
288.445922
70
0
0
VERTEX
8
Edge.Cuts
10
186.176923
20
287.611309
70
0
0
VERTEX
8
Edge.Cuts
10
185.354570
20
286.981822
70
0
0
VERTEX
8
Edge.Cuts
10
184.398242
20
286.584386
70
0
0
VERTEX
8
Edge.Cuts
10
183.354572
20
286.445924
70
0
0
SEQEND
8
Edge.Cuts
0
POLYLINE
8
Edge.Cuts
62
254
70
0
10
0.000000
20
0.000000
66
1
0
VERTEX
8
Edge.Cuts
10
163.732383
20
177.346045
70
0
0
VERTEX
8
Edge.Cuts
10
164.136305
20
177.185728
70
0
0
VERTEX
8
Edge.Cuts
10
164.304596
20
176.785063
70
0
0
SEQEND
8
Edge.Cuts
0
POLYLINE
8
Edge.Cuts
62
254
70
0
10
0.000000
20
0.000000
66
1
0
VERTEX
8
Edge.Cuts
10
164.864586
20
163.806079
70
0
0
VERTEX
8
Edge.Cuts
10
164.468521
20
163.963152
70
0
0
VERTEX
8
Edge.Cuts
10
164.303485
20
164.355967
70
0
0
SEQEND
8
Edge.Cuts
0
POLYLINE
8
Edge.Cuts
62
254
70
0
10
0.000000
20
0.000000
66
1
0
VERTEX
8
Edge.Cuts
10
112.654661
20
177.346061
70
0
0
VERTEX
8
Edge.Cuts
10
112.265742
20
177.507146
70
0
0
VERTEX
8
Edge.Cuts
10
112.104646
20
177.896060
70
0
0
SEQEND
8
Edge.Cuts
0
POLYLINE
8
Edge.Cuts
62
254
70
0
10
0.000000
20
0.000000
66
1
0
VERTEX
8
Edge.Cuts
10
163.755110
20
177.345997
70
0
0
VERTEX
8
Edge.Cuts
10
112.653550
20
177.345997
70
0
0
SEQEND
8
Edge.Cuts
0
POLYLINE
8
Edge.Cuts
62
254
70
0
10
0.000000
20
0.000000
66
1
0
VERTEX
8
Edge.Cuts
10
164.302797
20
164.356030
70
0
0
VERTEX
8
Edge.Cuts
10
164.302797
20
176.795136
70
0
0
SEQEND
8
Edge.Cuts
0
POLYLINE
8
Edge.Cuts
62
254
70
0
10
0.000000
20
0.000000
66
1
0
VERTEX
8
Edge.Cuts
10
116.304636
20
258.025961
70
0
0
VERTEX
8
Edge.Cuts
10
116.167115
20
257.344787
70
0
0
VERTEX
8
Edge.Cuts
10
115.792081
20
256.788531
70
0
0
VERTEX
8
Edge.Cuts
10
115.235830
20
256.413491
70
0
0
VERTEX
8
Edge.Cuts
10
114.554658
20
256.275961
70
0
0
SEQEND
8
Edge.Cuts
0
POLYLINE
8
Edge.Cuts
62
254
70
0
10
0.000000
20
0.000000
66
1
0
VERTEX
8
Edge.Cuts
10
181.863277
20
241.164459
70
0
0
VERTEX
8
Edge.Cuts
10
181.636314
20
243.549936
70
0
0
VERTEX
8
Edge.Cuts
10
181.604567
20
245.945976
70
0
0
SEQEND
8
Edge.Cuts
0
POLYLINE
8
Edge.Cuts
62
254
70
0
10
0.000000
20
0.000000
66
1
0
VERTEX
8
Edge.Cuts
10
110.354667
20
190.832941
70
0
0
VERTEX
8
Edge.Cuts
10
109.054993
20
191.048861
70
0
0
VERTEX
8
Edge.Cuts
10
107.921638
20
191.654578
70
0
0
VERTEX
8
Edge.Cuts
10
107.037352
20
192.587008
70
0
0
VERTEX
8
Edge.Cuts
10
106.484886
20
193.783067
70
0
0
VERTEX
8
Edge.Cuts
10
106.348848
20
195.093512
70
0
0
VERTEX
8
Edge.Cuts
10
106.632739
20
196.346825
70
0
0
VERTEX
8
Edge.Cuts
10
107.297644
20
197.446501
70
0
0
VERTEX
8
Edge.Cuts
10
108.304652
20
198.296037
70
0
0
SEQEND
8
Edge.Cuts
0
POLYLINE
8
Edge.Cuts
62
254
70
0
10
0.000000
20
0.000000
66
1
0
VERTEX
8
Edge.Cuts
10
106.285037
20
237.219437
70
0
0
VERTEX
8
Edge.Cuts
10
108.811804
20
237.219437
70
0
0
SEQEND
8
Edge.Cuts
0
POLYLINE
8
Edge.Cuts
62
254
70
0
10
0.000000
20
0.000000
66
1
0
VERTEX
8
Edge.Cuts
10
191.944577
20
222.756036
70
0
0
VERTEX
8
Edge.Cuts
10
192.622411
20
221.941454
70
0
0
VERTEX
8
Edge.Cuts
10
193.099187
20
221.009096
70
0
0
VERTEX
8
Edge.Cuts
10
193.361150
20
219.995202
70
0
0
VERTEX
8
Edge.Cuts
10
193.394545
20
218.936010
70
0
0
SEQEND
8
Edge.Cuts
0
POLYLINE
8
Edge.Cuts
62
254
70
0
10
0.000000
20
0.000000
66
1
0
VERTEX
8
Edge.Cuts
10
106.285037
20
215.779456
70
0
0
VERTEX
8
Edge.Cuts
10
108.875304
20
215.779456
70
0
0
SEQEND
8
Edge.Cuts
0
POLYLINE
8
Edge.Cuts
62
254
70
0
10
0.000000
20
0.000000
66
1
0
VERTEX
8
Edge.Cuts
10
202.963665
20
162.916170
70
0
0
VERTEX
8
Edge.Cuts
10
196.994673
20
160.088836
70
0
0
SEQEND
8
Edge.Cuts
0
POLYLINE
8
Edge.Cuts
62
254
70
0
10
0.000000
20
0.000000
66
1
0
VERTEX
8
Edge.Cuts
10
196.112103
20
157.690211
70
0
0
VERTEX
8
Edge.Cuts
10
195.944362
20
158.376066
70
0
0
VERTEX
8
Edge.Cuts
10
196.053506
20
159.073650
70
0
0
VERTEX
8
Edge.Cuts
10
196.422719
20
159.675494
70
0
0
VERTEX
8
Edge.Cuts
10
196.995122
20
160.088881
70
0
0
SEQEND
8
Edge.Cuts
0
POLYLINE
8
Edge.Cuts
62
254
70
0
10
0.000000
20
0.000000
66
1
0
VERTEX
8
Edge.Cuts
10
120.304655
20
286.445924
70
0
0
VERTEX
8
Edge.Cuts
10
119.260986
20
286.584386
70
0
0
VERTEX
8
Edge.Cuts
10
118.304658
20
286.981822
70
0
0
VERTEX
8
Edge.Cuts
10
117.482304
20
287.611309
70
0
0
VERTEX
8
Edge.Cuts
10
116.840558
20
288.445922
70
0
0
VERTEX
8
Edge.Cuts
10
116.438635
20
289.418997
70
0
0
VERTEX
8
Edge.Cuts
10
116.304660
20
290.445919
70
0
0
VERTEX
8
Edge.Cuts
10
116.438635
20
291.472842
70
0
0
VERTEX
8
Edge.Cuts
10
116.840558
20
292.445917
70
0
0
VERTEX
8
Edge.Cuts
10
117.482304
20
293.280530
70
0
0
VERTEX
8
Edge.Cuts
10
118.304658
20
293.910016
70
0
0
VERTEX
8
Edge.Cuts
10
119.260986
20
294.307452
70
0
0
VERTEX
8
Edge.Cuts
10
120.304655
20
294.445914
70
0
0
SEQEND
8
Edge.Cuts
0
POLYLINE
8
Edge.Cuts
62
254
70
0
10
0.000000
20
0.000000
66
1
0
VERTEX
8
Edge.Cuts
10
110.354667
20
190.832946
70
0
0
VERTEX
8
Edge.Cuts
10
111.026915
20
190.699153
70
0
0
VERTEX
8
Edge.Cuts
10
111.579067
20
190.333424
70
0
0
VERTEX
8
Edge.Cuts
10
111.956514
20
189.789215
70
0
0
VERTEX
8
Edge.Cuts
10
112.104646
20
189.119981
70
0
0
SEQEND
8
Edge.Cuts
0
POLYLINE
8
Edge.Cuts
62
254
70
0
10
0.000000
20
0.000000
66
1
0
VERTEX
8
Edge.Cuts
10
110.105615
20
214.542901
70
0
0
VERTEX
8
Edge.Cuts
10
110.108261
20
201.368573
70
0
0
SEQEND
8
Edge.Cuts
0
POLYLINE
8
Edge.Cuts
62
254
70
0
10
0.000000
20
0.000000
66
1
0
VERTEX
8
Edge.Cuts
10
110.047407
20
255.025979
70
0
0
VERTEX
8
Edge.Cuts
10
110.047407
20
238.455992
70
0
0
SEQEND
8
Edge.Cuts
0
POLYLINE
8
Edge.Cuts
62
254
70
0
10
0.000000
20
0.000000
66
1
0
VERTEX
8
Edge.Cuts
10
181.604567
20
284.695927
70
0
0
VERTEX
8
Edge.Cuts
10
181.737779
20
285.365624
70
0
0
VERTEX
8
Edge.Cuts
10
182.117133
20
285.933365
70
0
0
VERTEX
8
Edge.Cuts
10
182.684875
20
286.312716
70
0
0
VERTEX
8
Edge.Cuts
10
183.354572
20
286.445924
70
0
0
SEQEND
8
Edge.Cuts
0
POLYLINE
8
Edge.Cuts
62
254
70
0
10
0.000000
20
0.000000
66
1
0
VERTEX
8
Edge.Cuts
10
110.048121
20
238.455985
70
0
0
VERTEX
8
Edge.Cuts
10
109.953994
20
237.982777
70
0
0
VERTEX
8
Edge.Cuts
10
109.685943
20
237.581610
70
0
0
VERTEX
8
Edge.Cuts
10
109.284775
20
237.313560
70
0
0
VERTEX
8
Edge.Cuts
10
108.811566
20
237.219435
70
0
0
SEQEND
8
Edge.Cuts
0
POLYLINE
8
Edge.Cuts
62
254
70
0
10
0.000000
20
0.000000
66
1
0
VERTEX
8
Edge.Cuts
10
122.054184
20
284.696052
70
0
0
VERTEX
8
Edge.Cuts
10
122.046246
20
272.945921
70
0
0
SEQEND
8
Edge.Cuts
0
POLYLINE
8
Edge.Cuts
62
254
70
0
10
0.000000
20
0.000000
66
1
0
VERTEX
8
Edge.Cuts
10
181.603879
20
272.944333
70
0
0
VERTEX
8
Edge.Cuts
10
181.603879
20
284.696052
70
0
0
SEQEND
8
Edge.Cuts
0
POLYLINE
8
Edge.Cuts
62
254
70
0
10
0.000000
20
0.000000
66
1
0
VERTEX
8
Edge.Cuts
10
120.304655
20
286.445924
70
0
0
VERTEX
8
Edge.Cuts
10
120.985827
20
286.308395
70
0
0
VERTEX
8
Edge.Cuts
10
121.542077
20
285.933355
70
0
0
VERTEX
8
Edge.Cuts
10
121.917112
20
285.377101
70
0
0
VERTEX
8
Edge.Cuts
10
122.054633
20
284.695927
70
0
0
SEQEND
8
Edge.Cuts
0
POLYLINE
8
Edge.Cuts
62
254
70
0
10
0.000000
20
0.000000
66
1
0
VERTEX
8
Edge.Cuts
10
116.304636
20
258.025961
70
0
0
VERTEX
8
Edge.Cuts
10
116.378771
20
258.812844
70
0
0
VERTEX
8
Edge.Cuts
10
116.603360
20
259.562848
70
0
0
VERTEX
8
Edge.Cuts
10
116.969707
20
260.254756
70
0
0
VERTEX
8
Edge.Cuts
10
117.469118
20
260.867348
70
0
0
VERTEX
8
Edge.Cuts
10
118.079210
20
261.369813
70
0
0
VERTEX
8
Edge.Cuts
10
118.769279
20
261.739611
70
0
0
VERTEX
8
Edge.Cuts
10
119.518152
20
261.967943
70
0
0
VERTEX
8
Edge.Cuts
10
120.304655
20
262.046006
70
0
0
SEQEND
8
Edge.Cuts
0
POLYLINE
8
Edge.Cuts
62
254
70
0
10
0.000000
20
0.000000
66
1
0
VERTEX
8
Edge.Cuts
10
187.332763
20
227.695100
70
0
0
VERTEX
8
Edge.Cuts
10
186.854784
20
229.005968
70
0
0
VERTEX
8
Edge.Cuts
10
186.796111
20
230.369368
70
0
0
VERTEX
8
Edge.Cuts
10
187.146211
20
231.688357
70
0
0
VERTEX
8
Edge.Cuts
10
187.894552
20
232.865992
70
0
0
SEQEND
8
Edge.Cuts
0
POLYLINE
8
Edge.Cuts
62
254
70
0
10
0.000000
20
0.000000
66
1
0
VERTEX
8
Edge.Cuts
10
122.046246
20
272.954387
70
0
0
VERTEX
8
Edge.Cuts
10
122.054184
20
263.795847
70
0
0
SEQEND
8
Edge.Cuts
0
POLYLINE
8
Edge.Cuts
62
254
70
0
10
0.000000
20
0.000000
66
1
0
VERTEX
8
Edge.Cuts
10
191.948440
20
222.760569
70
0
0
VERTEX
8
Edge.Cuts
10
189.510262
20
225.086283
70
0
0
VERTEX
8
Edge.Cuts
10
187.354564
20
227.675999
70
0
0
SEQEND
8
Edge.Cuts
0
POLYLINE
8
Edge.Cuts
62
254
70
0
10
0.000000
20
0.000000
66
1
0
VERTEX
8
Edge.Cuts
10
108.874669
20
215.779431
70
0
0
VERTEX
8
Edge.Cuts
10
109.346876
20
215.685177
70
0
0
VERTEX
8
Edge.Cuts
10
109.746715
20
215.416863
70
0
0
VERTEX
8
Edge.Cuts
10
110.012909
20
215.015610
70
0
0
VERTEX
8
Edge.Cuts
10
110.104663
20
214.542911
70
0
0
SEQEND
8
Edge.Cuts
0
POLYLINE
8
Edge.Cuts
62
254
70
0
10
0.000000
20
0.000000
66
1
0
VERTEX
8
Edge.Cuts
10
183.355419
20
294.445935
70
0
0
VERTEX
8
Edge.Cuts
10
120.305290
20
294.445935
70
0
0
SEQEND
8
Edge.Cuts
0
POLYLINE
8
Edge.Cuts
62
254
70
0
10
0.000000
20
0.000000
66
1
0
VERTEX
8
Edge.Cuts
10
111.285656
20
256.275869
70
0
0
VERTEX
8
Edge.Cuts
10
114.555901
20
256.275869
70
0
0
SEQEND
8
Edge.Cuts
0
POLYLINE
8
Edge.Cuts
62
254
70
0
10
0.000000
20
0.000000
66
1
0
VERTEX
8
Edge.Cuts
10
183.916467
20
239.665185
70
0
0
VERTEX
8
Edge.Cuts
10
185.256531
20
239.806443
70
0
0
VERTEX
8
Edge.Cuts
10
186.537700
20
239.515123
70
0
0
VERTEX
8
Edge.Cuts
10
187.659902
20
238.831807
70
0
0
VERTEX
8
Edge.Cuts
10
188.523069
20
237.797075
70
0
0
VERTEX
8
Edge.Cuts
10
189.002178
20
236.537639
70
0
0
VERTEX
8
Edge.Cuts
10
189.048026
20
235.224567
70
0
0
VERTEX
8
Edge.Cuts
10
188.674267
20
233.964978
70
0
0
VERTEX
8
Edge.Cuts
10
187.894552
20
232.865992
70
0
0
SEQEND
8
Edge.Cuts
0
POLYLINE
8
Edge.Cuts
62
254
70
0
10
0.000000
20
0.000000
66
1
0
VERTEX
8
Edge.Cuts
10
122.054633
20
263.795953
70
0
0
VERTEX
8
Edge.Cuts
10
121.917112
20
263.114779
70
0
0
VERTEX
8
Edge.Cuts
10
121.542077
20
262.558525
70
0
0
VERTEX
8
Edge.Cuts
10
120.985827
20
262.183485
70
0
0
VERTEX
8
Edge.Cuts
10
120.304655
20
262.045956
70
0
0
SEQEND
8
Edge.Cuts
0
POLYLINE
8
Edge.Cuts
62
254
70
0
10
0.000000
20
0.000000
66
1
0
VERTEX
8
Edge.Cuts
10
110.048121
20
255.025965
70
0
0
VERTEX
8
Edge.Cuts
10
110.138372
20
255.503290
70
0
0
VERTEX
8
Edge.Cuts
10
110.405517
20
255.909021
70
0
0
VERTEX
8
Edge.Cuts
10
110.808331
20
256.180546
70
0
0
VERTEX
8
Edge.Cuts
10
111.284650
20
256.275961
70
0
0
SEQEND
8
Edge.Cuts
0
POLYLINE
8
Edge.Cuts
62
254
70
0
10
0.000000
20
0.000000
66
1
0
VERTEX
8
Edge.Cuts
10
181.603879
20
272.944333
70
0
0
VERTEX
8
Edge.Cuts
10
181.603879
20
245.945966
70
0
0
SEQEND
8
Edge.Cuts
0
POLYLINE
8
Edge.Cuts
62
254
70
0
10
0.000000
20
0.000000
66
1
0
VERTEX
8
Edge.Cuts
10
183.924563
20
239.636024
70
0
0
VERTEX
8
Edge.Cuts
10
183.212607
20
239.656193
70
0
0
VERTEX
8
Edge.Cuts
10
182.567007
20
239.957005
70
0
0
VERTEX
8
Edge.Cuts
10
182.093600
20
240.489147
70
0
0
VERTEX
8
Edge.Cuts
10
181.869997
20
241.165379
70
0
0
SEQEND
8
Edge.Cuts
0
POLYLINE
8
Edge.Cuts
62
254
70
0
10
0.000000
20
0.000000
66
1
0
VERTEX
8
Edge.Cuts
10
192.674032
20
210.606012
70
0
0
VERTEX
8
Edge.Cuts
10
193.393698
20
218.936011
70
0
0
SEQEND
8
Edge.Cuts
0
POLYLINE
8
Edge.Cuts
62
254
70
0
10
0.000000
20
0.000000
66
1
0
VERTEX
8
Edge.Cuts
10
106.284666
20
215.779462
70
0
0
VERTEX
8
Edge.Cuts
10
105.811458
20
215.873587
70
0
0
VERTEX
8
Edge.Cuts
10
105.410290
20
216.141637
70
0
0
VERTEX
8
Edge.Cuts
10
105.142239
20
216.542803
70
0
0
VERTEX
8
Edge.Cuts
10
105.048111
20
217.016012
70
0
0
SEQEND
8
Edge.Cuts
0
POLYLINE
8
Edge.Cuts
62
254
70
0
10
0.000000
20
0.000000
66
1
0
VERTEX
8
Edge.Cuts
10
199.814545
20
172.636068
70
0
0
VERTEX
8
Edge.Cuts
10
197.789065
20
177.108076
70
0
0
VERTEX
8
Edge.Cuts
10
196.080943
20
181.692206
70
0
0
VERTEX
8
Edge.Cuts
10
194.693356
20
186.371575
70
0
0
VERTEX
8
Edge.Cuts
10
193.629478
20
191.129298
70
0
0
VERTEX
8
Edge.Cuts
10
192.892484
20
195.948488
70
0
0
VERTEX
8
Edge.Cuts
10
192.485550
20
200.812262
70
0
0
VERTEX
8
Edge.Cuts
10
192.411851
20
205.703734
70
0
0
VERTEX
8
Edge.Cuts
10
192.674561
20
210.606020
70
0
0
SEQEND
8
Edge.Cuts
0
POLYLINE
8
Edge.Cuts
62
254
70
0
10
0.000000
20
0.000000
66
1
0
VERTEX
8
Edge.Cuts
10
110.109134
20
201.368576
70
0
0
VERTEX
8
Edge.Cuts
10
110.006021
20
200.428575
70
0
0
VERTEX
8
Edge.Cuts
10
109.651970
20
199.570915
70
0
0
VERTEX
8
Edge.Cuts
10
109.075381
20
198.843951
70
0
0
VERTEX
8
Edge.Cuts
10
108.304652
20
198.296037
70
0
0
SEQEND
8
Edge.Cuts
0
POLYLINE
8
Edge.Cuts
62
254
70
0
10
0.000000
20
0.000000
66
1
0
VERTEX
8
Edge.Cuts
10
105.048111
20
235.982884
70
0
0
VERTEX
8
Edge.Cuts
10
105.142237
20
236.456093
70
0
0
VERTEX
8
Edge.Cuts
10
105.410289
20
236.857260
70
0
0
VERTEX
8
Edge.Cuts
10
105.811457
20
237.125310
70
0
0
VERTEX
8
Edge.Cuts
10
106.284666
20
237.219435
70
0
0
SEQEND
8
Edge.Cuts
0
POLYLINE
8
Edge.Cuts
62
254
70
0
10
0.000000
20
0.000000
66
1
0
VERTEX
8
Edge.Cuts
10
105.049434
20
235.982882
70
0
0
VERTEX
8
Edge.Cuts
10
105.049434
20
217.016011
70
0
0
SEQEND
8
Edge.Cuts
0
POLYLINE
8
Edge.Cuts
62
254
70
0
10
0.000000
20
0.000000
66
1
0
VERTEX
8
Edge.Cuts
10
199.815127
20
172.636155
70
0
0
VERTEX
8
Edge.Cuts
10
203.495477
20
164.932292
70
0
0
SEQEND
8
Edge.Cuts
0
POLYLINE
8
Edge.Cuts
62
254
70
0
10
0.000000
20
0.000000
66
1
0
VERTEX
8
Edge.Cuts
10
203.495980
20
164.932194
70
0
0
VERTEX
8
Edge.Cuts
10
203.603563
20
164.384416
70
0
0
VERTEX
8
Edge.Cuts
10
203.544400
20
163.841331
70
0
0
VERTEX
8
Edge.Cuts
10
203.328166
20
163.339648
70
0
0
VERTEX
8
Edge.Cuts
10
202.964538
20
162.916080
70
0
0
SEQEND
8
Edge.Cuts
0
POLYLINE
8
Edge.Cuts
62
254
70
0
10
0.000000
20
0.000000
66
1
0
VERTEX
8
Edge.Cuts
10
186.594550
20
155.176090
70
0
0
VERTEX
8
Edge.Cuts
10
187.269758
20
155.301388
70
0
0
VERTEX
8
Edge.Cuts
10
187.921972
20
155.173166
70
0
0
VERTEX
8
Edge.Cuts
10
188.483946
20
154.818187
70
0
0
VERTEX
8
Edge.Cuts
10
188.888432
20
154.263213
70
0
0
SEQEND
8
Edge.Cuts
0
POLYLINE
8
Edge.Cuts
62
254
70
0
10
0.000000
20
0.000000
66
1
0
VERTEX
8
Edge.Cuts
10
112.105863
20
177.896065
70
0
0
VERTEX
8
Edge.Cuts
10
112.105863
20
189.119941
70
0
0
SEQEND
8
Edge.Cuts
0
POLYLINE
8
Edge.Cuts
62
254
70
0
10
0.000000
20
0.000000
66
1
0
VERTEX
8
Edge.Cuts
10
180.517819
20
152.297361
70
0
0
VERTEX
8
Edge.Cuts
10
179.146928
20
151.780022
70
0
0
VERTEX
8
Edge.Cuts
10
177.694560
20
151.586093
70
0
0
SEQEND
8
Edge.Cuts
0
POLYLINE
8
Edge.Cuts
62
254
70
0
10
0.000000
20
0.000000
66
1
0
VERTEX
8
Edge.Cuts
10
177.693343
20
151.586197
70
0
0
VERTEX
8
Edge.Cuts
10
174.663867
20
151.589107
70
0
0
SEQEND
8
Edge.Cuts
0
POLYLINE
8
Edge.Cuts
62
254
70
0
10
0.000000
20
0.000000
66
1
0
VERTEX
8
Edge.Cuts
10
180.519089
20
152.297396
70
0
0
VERTEX
8
Edge.Cuts
10
186.593915
20
155.172090
70
0
0
SEQEND
8
Edge.Cuts
0
POLYLINE
8
Edge.Cuts
62
254
70
0
10
0.000000
20
0.000000
66
1
0
VERTEX
8
Edge.Cuts
10
196.112077
20
157.690203
70
0
0
VERTEX
8
Edge.Cuts
10
196.381391
20
156.927797
70
0
0
VERTEX
8
Edge.Cuts
10
196.490408
20
156.150744
70
0
0
VERTEX
8
Edge.Cuts
10
196.258104
20
154.637900
70
0
0
VERTEX
8
Edge.Cuts
10
195.476261
20
153.322080
70
0
0
VERTEX
8
Edge.Cuts
10
194.898354
20
152.791306
70
0
0
VERTEX
8
Edge.Cuts
10
194.205973
20
152.373693
70
0
0
VERTEX
8
Edge.Cuts
10
193.444263
20
152.102415
70
0
0
VERTEX
8
Edge.Cuts
10
192.667494
20
151.991395
70
0
0
VERTEX
8
Edge.Cuts
10
191.154056
20
152.219801
70
0
0
VERTEX
8
Edge.Cuts
10
189.836225
20
152.998252
70
0
0
VERTEX
8
Edge.Cuts
10
189.303965
20
153.574789
70
0
0
VERTEX
8
Edge.Cuts
10
188.884569
20
154.266092
70
0
0
SEQEND
8
Edge.Cuts
0
POLYLINE
8
Edge.Cuts
62
254
70
0
10
0.000000
20
0.000000
66
1
0
VERTEX
8
Edge.Cuts
10
185.004565
20
234.545990
70
0
0
VERTEX
8
Edge.Cuts
10
184.404565
20
234.706759
70
0
0
VERTEX
8
Edge.Cuts
10
183.965335
20
235.145989
70
0
0
VERTEX
8
Edge.Cuts
10
183.804566
20
235.745988
70
0
0
VERTEX
8
Edge.Cuts
10
183.965335
20
236.345988
70
0
0
VERTEX
8
Edge.Cuts
10
184.404565
20
236.785218
70
0
0
VERTEX
8
Edge.Cuts
10
185.004565
20
236.945987
70
0
0
VERTEX
8
Edge.Cuts
10
185.604564
20
236.785218
70
0
0
VERTEX
8
Edge.Cuts
10
186.043794
20
236.345988
70
0
0
VERTEX
8
Edge.Cuts
10
186.204563
20
235.745988
70
0
0
VERTEX
8
Edge.Cuts
10
186.043794
20
235.145989
70
0
0
VERTEX
8
Edge.Cuts
10
185.604564
20
234.706759
70
0
0
VERTEX
8
Edge.Cuts
10
185.004565
20
234.545990
70
0
0
VERTEX
8
Edge.Cuts
10
185.004565
20
234.545990
70
0
0
SEQEND
8
Edge.Cuts
0
POLYLINE
8
Edge.Cuts
62
254
70
0
10
0.000000
20
0.000000
66
1
0
VERTEX
8
Edge.Cuts
10
192.494566
20
154.786090
70
0
0
VERTEX
8
Edge.Cuts
10
191.894566
20
154.946859
70
0
0
VERTEX
8
Edge.Cuts
10
191.455336
20
155.386089
70
0
0
VERTEX
8
Edge.Cuts
10
191.294567
20
155.986089
70
0
0
VERTEX
8
Edge.Cuts
10
191.455336
20
156.586088
70
0
0
VERTEX
8
Edge.Cuts
10
191.894566
20
157.025318
70
0
0
VERTEX
8
Edge.Cuts
10
192.494566
20
157.186088
70
0
0
VERTEX
8
Edge.Cuts
10
193.094565
20
157.025318
70
0
0
VERTEX
8
Edge.Cuts
10
193.533795
20
156.586088
70
0
0
VERTEX
8
Edge.Cuts
10
193.694564
20
155.986089
70
0
0
VERTEX
8
Edge.Cuts
10
193.533795
20
155.386089
70
0
0
VERTEX
8
Edge.Cuts
10
193.094565
20
154.946859
70
0
0
VERTEX
8
Edge.Cuts
10
192.494566
20
154.786090
70
0
0
VERTEX
8
Edge.Cuts
10
192.494566
20
154.786090
70
0
0
SEQEND
8
Edge.Cuts
0
POLYLINE
8
Edge.Cuts
62
254
70
0
10
0.000000
20
0.000000
66
1
0
VERTEX
8
Edge.Cuts
10
120.304655
20
256.845960
70
0
0
VERTEX
8
Edge.Cuts
10
119.704655
20
257.006730
70
0
0
VERTEX
8
Edge.Cuts
10
119.265425
20
257.445960
70
0
0
VERTEX
8
Edge.Cuts
10
119.104656
20
258.045959
70
0
0
VERTEX
8
Edge.Cuts
10
119.265425
20
258.645959
70
0
0
VERTEX
8
Edge.Cuts
10
119.704655
20
259.085189
70
0
0
VERTEX
8
Edge.Cuts
10
120.304655
20
259.245958
70
0
0
VERTEX
8
Edge.Cuts
10
120.904654
20
259.085189
70
0
0
VERTEX
8
Edge.Cuts
10
121.343885
20
258.645959
70
0
0
VERTEX
8
Edge.Cuts
10
121.504654
20
258.045959
70
0
0
VERTEX
8
Edge.Cuts
10
121.343885
20
257.445960
70
0
0
VERTEX
8
Edge.Cuts
10
120.904654
20
257.006730
70
0
0
VERTEX
8
Edge.Cuts
10
120.304655
20
256.845960
70
0
0
VERTEX
8
Edge.Cuts
10
120.304655
20
256.845960
70
0
0
SEQEND
8
Edge.Cuts
0
POLYLINE
8
Edge.Cuts
62
254
70
0
10
0.000000
20
0.000000
66
1
0
VERTEX
8
Edge.Cuts
10
183.354572
20
289.245922
70
0
0
VERTEX
8
Edge.Cuts
10
182.887922
20
289.340620
70
0
0
VERTEX
8
Edge.Cuts
10
182.506938
20
289.597880
70
0
0
VERTEX
8
Edge.Cuts
10
182.250116
20
289.979160
70
0
0
VERTEX
8
Edge.Cuts
10
182.155954
20
290.445919
70
0
0
VERTEX
8
Edge.Cuts
10
182.250116
20
290.912678
70
0
0
VERTEX
8
Edge.Cuts
10
182.506938
20
291.293958
70
0
0
VERTEX
8
Edge.Cuts
10
182.887922
20
291.551218
70
0
0
VERTEX
8
Edge.Cuts
10
183.354572
20
291.645917
70
0
0
VERTEX
8
Edge.Cuts
10
183.821223
20
291.551218
70
0
0
VERTEX
8
Edge.Cuts
10
184.202207
20
291.293958
70
0
0
VERTEX
8
Edge.Cuts
10
184.459028
20
290.912678
70
0
0
VERTEX
8
Edge.Cuts
10
184.553190
20
290.445919
70
0
0
VERTEX
8
Edge.Cuts
10
184.459028
20
289.979160
70
0
0
VERTEX
8
Edge.Cuts
10
184.202207
20
289.597880
70
0
0
VERTEX
8
Edge.Cuts
10
183.821223
20
289.340620
70
0
0
VERTEX
8
Edge.Cuts
10
183.354572
20
289.245922
70
0
0
VERTEX
8
Edge.Cuts
10
183.354572
20
289.245922
70
0
0
SEQEND
8
Edge.Cuts
0
POLYLINE
8
Edge.Cuts
62
254
70
0
10
0.000000
20
0.000000
66
1
0
VERTEX
8
Edge.Cuts
10
110.354667
20
193.646041
70
0
0
VERTEX
8
Edge.Cuts
10
109.754668
20
193.806810
70
0
0
VERTEX
8
Edge.Cuts
10
109.315438
20
194.246040
70
0
0
VERTEX
8
Edge.Cuts
10
109.154668
20
194.846040
70
0
0
VERTEX
8
Edge.Cuts
10
109.315438
20
195.446039
70
0
0
VERTEX
8
Edge.Cuts
10
109.754668
20
195.885269
70
0
0
VERTEX
8
Edge.Cuts
10
110.354667
20
196.046039
70
0
0
VERTEX
8
Edge.Cuts
10
110.821761
20
195.951737
70
0
0
VERTEX
8
Edge.Cuts
10
111.203195
20
195.694567
70
0
0
VERTEX
8
Edge.Cuts
10
111.460364
20
195.313133
70
0
0
VERTEX
8
Edge.Cuts
10
111.554666
20
194.846040
70
0
0
VERTEX
8
Edge.Cuts
10
111.460364
20
194.378946
70
0
0
VERTEX
8
Edge.Cuts
10
111.203195
20
193.997512
70
0
0
VERTEX
8
Edge.Cuts
10
110.821761
20
193.740343
70
0
0
VERTEX
8
Edge.Cuts
10
110.354667
20
193.646041
70
0
0
VERTEX
8
Edge.Cuts
10
110.354667
20
193.646041
70
0
0
SEQEND
8
Edge.Cuts
0
POLYLINE
8
Edge.Cuts
62
254
70
0
10
0.000000
20
0.000000
66
1
0
VERTEX
8
Edge.Cuts
10
120.304655
20
289.245922
70
0
0
VERTEX
8
Edge.Cuts
10
119.838005
20
289.340620
70
0
0
VERTEX
8
Edge.Cuts
10
119.457020
20
289.597880
70
0
0
VERTEX
8
Edge.Cuts
10
119.200199
20
289.979160
70
0
0
VERTEX
8
Edge.Cuts
10
119.106037
20
290.445919
70
0
0
VERTEX
8
Edge.Cuts
10
119.200199
20
290.912678
70
0
0
VERTEX
8
Edge.Cuts
10
119.457020
20
291.293958
70
0
0
VERTEX
8
Edge.Cuts
10
119.838005
20
291.551218
70
0
0
VERTEX
8
Edge.Cuts
10
120.304655
20
291.645917
70
0
0
VERTEX
8
Edge.Cuts
10
120.771305
20
291.551218
70
0
0
VERTEX
8
Edge.Cuts
10
121.152290
20
291.293958
70
0
0
VERTEX
8
Edge.Cuts
10
121.409111
20
290.912678
70
0
0
VERTEX
8
Edge.Cuts
10
121.503273
20
290.445919
70
0
0
VERTEX
8
Edge.Cuts
10
121.409111
20
289.979160
70
0
0
VERTEX
8
Edge.Cuts
10
121.152290
20
289.597880
70
0
0
VERTEX
8
Edge.Cuts
10
120.771305
20
289.340620
70
0
0
VERTEX
8
Edge.Cuts
10
120.304655
20
289.245922
70
0
0
VERTEX
8
Edge.Cuts
10
120.304655
20
289.245922
70
0
0
SEQEND
8
Edge.Cuts
0
POLYLINE
8
Edge.Cuts
62
254
70
0
10
0.000000
20
0.000000
66
1
0
VERTEX
8
Edge.Cuts
10
139.805057
20
257.645880
70
0
0
VERTEX
8
Edge.Cuts
10
139.805057
20
271.646024
70
0
0
SEQEND
8
Edge.Cuts
0
POLYLINE
8
Edge.Cuts
62
254
70
0
10
0.000000
20
0.000000
66
1
0
VERTEX
8
Edge.Cuts
10
125.803325
20
257.645880
70
0
0
VERTEX
8
Edge.Cuts
10
139.805057
20
257.645880
70
0
0
SEQEND
8
Edge.Cuts
0
POLYLINE
8
Edge.Cuts
62
254
70
0
10
0.000000
20
0.000000
66
1
0
VERTEX
8
Edge.Cuts
10
139.805057
20
271.646024
70
0
0
VERTEX
8
Edge.Cuts
10
125.803325
20
271.646024
70
0
0
SEQEND
8
Edge.Cuts
0
POLYLINE
8
Edge.Cuts
62
254
70
0
10
0.000000
20
0.000000
66
1
0
VERTEX
8
Edge.Cuts
10
125.803325
20
271.646024
70
0
0
VERTEX
8
Edge.Cuts
10
125.803325
20
257.645880
70
0
0
SEQEND
8
Edge.Cuts
0
POLYLINE
8
Edge.Cuts
62
254
70
0
10
0.000000
20
0.000000
66
1
0
VERTEX
8
Edge.Cuts
10
188.366621
20
204.062583
70
0
0
VERTEX
8
Edge.Cuts
10
189.588994
20
218.009282
70
0
0
SEQEND
8
Edge.Cuts
0
POLYLINE
8
Edge.Cuts
62
254
70
0
10
0.000000
20
0.000000
66
1
0
VERTEX
8
Edge.Cuts
10
174.420451
20
205.282761
70
0
0
VERTEX
8
Edge.Cuts
10
188.366621
20
204.062583
70
0
0
SEQEND
8
Edge.Cuts
0
POLYLINE
8
Edge.Cuts
62
254
70
0
10
0.000000
20
0.000000
66
1
0
VERTEX
8
Edge.Cuts
10
189.588994
20
218.009282
70
0
0
VERTEX
8
Edge.Cuts
10
175.640179
20
219.229460
70
0
0
SEQEND
8
Edge.Cuts
0
POLYLINE
8
Edge.Cuts
62
254
70
0
10
0.000000
20
0.000000
66
1
0
VERTEX
8
Edge.Cuts
10
175.640179
20
219.229460
70
0
0
VERTEX
8
Edge.Cuts
10
174.420451
20
205.282761
70
0
0
SEQEND
8
Edge.Cuts
0
POLYLINE
8
Edge.Cuts
62
254
70
0
10
0.000000
20
0.000000
66
1
0
VERTEX
8
Edge.Cuts
10
127.803572
20
200.496031
70
0
0
VERTEX
8
Edge.Cuts
10
127.803572
20
214.496017
70
0
0
SEQEND
8
Edge.Cuts
0
POLYLINE
8
Edge.Cuts
62
254
70
0
10
0.000000
20
0.000000
66
1
0
VERTEX
8
Edge.Cuts
10
113.804486
20
200.496031
70
0
0
VERTEX
8
Edge.Cuts
10
127.803572
20
200.496031
70
0
0
SEQEND
8
Edge.Cuts
0
POLYLINE
8
Edge.Cuts
62
254
70
0
10
0.000000
20
0.000000
66
1
0
VERTEX
8
Edge.Cuts
10
127.803572
20
214.496017
70
0
0
VERTEX
8
Edge.Cuts
10
113.804486
20
214.496017
70
0
0
SEQEND
8
Edge.Cuts
0
POLYLINE
8
Edge.Cuts
62
254
70
0
10
0.000000
20
0.000000
66
1
0
VERTEX
8
Edge.Cuts
10
113.804486
20
214.496017
70
0
0
VERTEX
8
Edge.Cuts
10
113.804486
20
200.496031
70
0
0
SEQEND
8
Edge.Cuts
0
POLYLINE
8
Edge.Cuts
62
254
70
0
10
0.000000
20
0.000000
66
1
0
VERTEX
8
Edge.Cuts
10
146.853548
20
200.496031
70
0
0
VERTEX
8
Edge.Cuts
10
146.853548
20
214.496017
70
0
0
SEQEND
8
Edge.Cuts
0
POLYLINE
8
Edge.Cuts
62
254
70
0
10
0.000000
20
0.000000
66
1
0
VERTEX
8
Edge.Cuts
10
132.854462
20
200.496031
70
0
0
VERTEX
8
Edge.Cuts
10
146.853548
20
200.496031
70
0
0
SEQEND
8
Edge.Cuts
0
POLYLINE
8
Edge.Cuts
62
254
70
0
10
0.000000
20
0.000000
66
1
0
VERTEX
8
Edge.Cuts
10
146.853548
20
214.496017
70
0
0
VERTEX
8
Edge.Cuts
10
132.854462
20
214.496017
70
0
0
SEQEND
8
Edge.Cuts
0
POLYLINE
8
Edge.Cuts
62
254
70
0
10
0.000000
20
0.000000
66
1
0
VERTEX
8
Edge.Cuts
10
132.854462
20
214.496017
70
0
0
VERTEX
8
Edge.Cuts
10
132.854462
20
200.496031
70
0
0
SEQEND
8
Edge.Cuts
0
POLYLINE
8
Edge.Cuts
62
254
70
0
10
0.000000
20
0.000000
66
1
0
VERTEX
8
Edge.Cuts
10
146.853548
20
238.595983
70
0
0
VERTEX
8
Edge.Cuts
10
146.853548
20
252.595969
70
0
0
SEQEND
8
Edge.Cuts
0
POLYLINE
8
Edge.Cuts
62
254
70
0
10
0.000000
20
0.000000
66
1
0
VERTEX
8
Edge.Cuts
10
132.854462
20
238.595983
70
0
0
VERTEX
8
Edge.Cuts
10
146.853548
20
238.595983
70
0
0
SEQEND
8
Edge.Cuts
0
POLYLINE
8
Edge.Cuts
62
254
70
0
10
0.000000
20
0.000000
66
1
0
VERTEX
8
Edge.Cuts
10
146.853548
20
252.595969
70
0
0
VERTEX
8
Edge.Cuts
10
132.854462
20
252.595969
70
0
0
SEQEND
8
Edge.Cuts
0
POLYLINE
8
Edge.Cuts
62
254
70
0
10
0.000000
20
0.000000
66
1
0
VERTEX
8
Edge.Cuts
10
132.854462
20
252.595969
70
0
0
VERTEX
8
Edge.Cuts
10
132.854462
20
238.595983
70
0
0
SEQEND
8
Edge.Cuts
0
POLYLINE
8
Edge.Cuts
62
254
70
0
10
0.000000
20
0.000000
66
1
0
VERTEX
8
Edge.Cuts
10
127.803572
20
238.595983
70
0
0
VERTEX
8
Edge.Cuts
10
127.803572
20
252.595969
70
0
0
SEQEND
8
Edge.Cuts
0
POLYLINE
8
Edge.Cuts
62
254
70
0
10
0.000000
20
0.000000
66
1
0
VERTEX
8
Edge.Cuts
10
113.804486
20
238.595983
70
0
0
VERTEX
8
Edge.Cuts
10
127.803572
20
238.595983
70
0
0
SEQEND
8
Edge.Cuts
0
POLYLINE
8
Edge.Cuts
62
254
70
0
10
0.000000
20
0.000000
66
1
0
VERTEX
8
Edge.Cuts
10
127.803572
20
252.595969
70
0
0
VERTEX
8
Edge.Cuts
10
113.804486
20
252.595969
70
0
0
SEQEND
8
Edge.Cuts
0
POLYLINE
8
Edge.Cuts
62
254
70
0
10
0.000000
20
0.000000
66
1
0
VERTEX
8
Edge.Cuts
10
113.804486
20
252.595969
70
0
0
VERTEX
8
Edge.Cuts
10
113.804486
20
238.595983
70
0
0
SEQEND
8
Edge.Cuts
0
POLYLINE
8
Edge.Cuts
62
254
70
0
10
0.000000
20
0.000000
66
1
0
VERTEX
8
Edge.Cuts
10
167.903772
20
181.445976
70
0
0
VERTEX
8
Edge.Cuts
10
167.903772
20
195.446120
70
0
0
SEQEND
8
Edge.Cuts
0
POLYLINE
8
Edge.Cuts
62
254
70
0
10
0.000000
20
0.000000
66
1
0
VERTEX
8
Edge.Cuts
10
153.904685
20
181.445976
70
0
0
VERTEX
8
Edge.Cuts
10
167.903772
20
181.445976
70
0
0
SEQEND
8
Edge.Cuts
0
POLYLINE
8
Edge.Cuts
62
254
70
0
10
0.000000
20
0.000000
66
1
0
VERTEX
8
Edge.Cuts
10
167.903772
20
195.446120
70
0
0
VERTEX
8
Edge.Cuts
10
153.904685
20
195.446120
70
0
0
SEQEND
8
Edge.Cuts
0
POLYLINE
8
Edge.Cuts
62
254
70
0
10
0.000000
20
0.000000
66
1
0
VERTEX
8
Edge.Cuts
10
153.904685
20
195.446120
70
0
0
VERTEX
8
Edge.Cuts
10
153.904685
20
181.445976
70
0
0
SEQEND
8
Edge.Cuts
0
POLYLINE
8
Edge.Cuts
62
254
70
0
10
0.000000
20
0.000000
66
1
0
VERTEX
8
Edge.Cuts
10
158.855033
20
276.695856
70
0
0
VERTEX
8
Edge.Cuts
10
158.855033
20
290.696000
70
0
0
SEQEND
8
Edge.Cuts
0
POLYLINE
8
Edge.Cuts
62
254
70
0
10
0.000000
20
0.000000
66
1
0
VERTEX
8
Edge.Cuts
10
144.853301
20
276.695856
70
0
0
VERTEX
8
Edge.Cuts
10
158.855033
20
276.695856
70
0
0
SEQEND
8
Edge.Cuts
0
POLYLINE
8
Edge.Cuts
62
254
70
0
10
0.000000
20
0.000000
66
1
0
VERTEX
8
Edge.Cuts
10
158.855033
20
290.696000
70
0
0
VERTEX
8
Edge.Cuts
10
144.853301
20
290.696000
70
0
0
SEQEND
8
Edge.Cuts
0
POLYLINE
8
Edge.Cuts
62
254
70
0
10
0.000000
20
0.000000
66
1
0
VERTEX
8
Edge.Cuts
10
144.853301
20
290.696000
70
0
0
VERTEX
8
Edge.Cuts
10
144.853301
20
276.695856
70
0
0
SEQEND
8
Edge.Cuts
0
POLYLINE
8
Edge.Cuts
62
254
70
0
10
0.000000
20
0.000000
66
1
0
VERTEX
8
Edge.Cuts
10
165.903524
20
200.496031
70
0
0
VERTEX
8
Edge.Cuts
10
165.903524
20
214.496017
70
0
0
SEQEND
8
Edge.Cuts
0
POLYLINE
8
Edge.Cuts
62
254
70
0
10
0.000000
20
0.000000
66
1
0
VERTEX
8
Edge.Cuts
10
151.904438
20
200.496031
70
0
0
VERTEX
8
Edge.Cuts
10
165.903524
20
200.496031
70
0
0
SEQEND
8
Edge.Cuts
0
POLYLINE
8
Edge.Cuts
62
254
70
0
10
0.000000
20
0.000000
66
1
0
VERTEX
8
Edge.Cuts
10
165.903524
20
214.496017
70
0
0
VERTEX
8
Edge.Cuts
10
151.904438
20
214.496017
70
0
0
SEQEND
8
Edge.Cuts
0
POLYLINE
8
Edge.Cuts
62
254
70
0
10
0.000000
20
0.000000
66
1
0
VERTEX
8
Edge.Cuts
10
151.904438
20
214.496017
70
0
0
VERTEX
8
Edge.Cuts
10
151.904438
20
200.496031
70
0
0
SEQEND
8
Edge.Cuts
0
POLYLINE
8
Edge.Cuts
62
254
70
0
10
0.000000
20
0.000000
66
1
0
VERTEX
8
Edge.Cuts
10
165.903524
20
238.595983
70
0
0
VERTEX
8
Edge.Cuts
10
165.903524
20
252.595969
70
0
0
SEQEND
8
Edge.Cuts
0
POLYLINE
8
Edge.Cuts
62
254
70
0
10
0.000000
20
0.000000
66
1
0
VERTEX
8
Edge.Cuts
10
151.904438
20
238.595983
70
0
0
VERTEX
8
Edge.Cuts
10
165.903524
20
238.595983
70
0
0
SEQEND
8
Edge.Cuts
0
POLYLINE
8
Edge.Cuts
62
254
70
0
10
0.000000
20
0.000000
66
1
0
VERTEX
8
Edge.Cuts
10
165.903524
20
252.595969
70
0
0
VERTEX
8
Edge.Cuts
10
151.904438
20
252.595969
70
0
0
SEQEND
8
Edge.Cuts
0
POLYLINE
8
Edge.Cuts
62
254
70
0
10
0.000000
20
0.000000
66
1
0
VERTEX
8
Edge.Cuts
10
151.904438
20
252.595969
70
0
0
VERTEX
8
Edge.Cuts
10
151.904438
20
238.595983
70
0
0
SEQEND
8
Edge.Cuts
0
POLYLINE
8
Edge.Cuts
62
254
70
0
10
0.000000
20
0.000000
66
1
0
VERTEX
8
Edge.Cuts
10
186.617727
20
159.343505
70
0
0
VERTEX
8
Edge.Cuts
10
199.307128
20
165.260375
70
0
0
SEQEND
8
Edge.Cuts
0
POLYLINE
8
Edge.Cuts
62
254
70
0
10
0.000000
20
0.000000
66
1
0
VERTEX
8
Edge.Cuts
10
199.307128
20
165.260375
70
0
0
VERTEX
8
Edge.Cuts
10
193.391052
20
177.948453
70
0
0
SEQEND
8
Edge.Cuts
0
POLYLINE
8
Edge.Cuts
62
254
70
0
10
0.000000
20
0.000000
66
1
0
VERTEX
8
Edge.Cuts
10
180.701651
20
172.031848
70
0
0
VERTEX
8
Edge.Cuts
10
186.617727
20
159.343505
70
0
0
SEQEND
8
Edge.Cuts
0
POLYLINE
8
Edge.Cuts
62
254
70
0
10
0.000000
20
0.000000
66
1
0
VERTEX
8
Edge.Cuts
10
193.391052
20
177.948453
70
0
0
VERTEX
8
Edge.Cuts
10
180.701651
20
172.031848
70
0
0
SEQEND
8
Edge.Cuts
0
POLYLINE
8
Edge.Cuts
62
254
70
0
10
0.000000
20
0.000000
66
1
0
VERTEX
8
Edge.Cuts
10
160.905551
20
219.546007
70
0
0
VERTEX
8
Edge.Cuts
10
160.905551
20
233.545993
70
0
0
SEQEND
8
Edge.Cuts
0
POLYLINE
8
Edge.Cuts
62
254
70
0
10
0.000000
20
0.000000
66
1
0
VERTEX
8
Edge.Cuts
10
146.903819
20
219.546007
70
0
0
VERTEX
8
Edge.Cuts
10
160.905551
20
219.546007
70
0
0
SEQEND
8
Edge.Cuts
0
POLYLINE
8
Edge.Cuts
62
254
70
0
10
0.000000
20
0.000000
66
1
0
VERTEX
8
Edge.Cuts
10
160.905551
20
233.545993
70
0
0
VERTEX
8
Edge.Cuts
10
146.903819
20
233.545993
70
0
0
SEQEND
8
Edge.Cuts
0
POLYLINE
8
Edge.Cuts
62
254
70
0
10
0.000000
20
0.000000
66
1
0
VERTEX
8
Edge.Cuts
10
146.903819
20
233.545993
70
0
0
VERTEX
8
Edge.Cuts
10
146.903819
20
219.546007
70
0
0
SEQEND
8
Edge.Cuts
0
POLYLINE
8
Edge.Cuts
62
254
70
0
10
0.000000
20
0.000000
66
1
0
VERTEX
8
Edge.Cuts
10
148.853796
20
181.445976
70
0
0
VERTEX
8
Edge.Cuts
10
148.853796
20
195.446120
70
0
0
SEQEND
8
Edge.Cuts
0
POLYLINE
8
Edge.Cuts
62
254
70
0
10
0.000000
20
0.000000
66
1
0
VERTEX
8
Edge.Cuts
10
134.854709
20
181.445976
70
0
0
VERTEX
8
Edge.Cuts
10
148.853796
20
181.445976
70
0
0
SEQEND
8
Edge.Cuts
0
POLYLINE
8
Edge.Cuts
62
254
70
0
10
0.000000
20
0.000000
66
1
0
VERTEX
8
Edge.Cuts
10
148.853796
20
195.446120
70
0
0
VERTEX
8
Edge.Cuts
10
134.854709
20
195.446120
70
0
0
SEQEND
8
Edge.Cuts
0
POLYLINE
8
Edge.Cuts
62
254
70
0
10
0.000000
20
0.000000
66
1
0
VERTEX
8
Edge.Cuts
10
134.854709
20
195.446120
70
0
0
VERTEX
8
Edge.Cuts
10
134.854709
20
181.445976
70
0
0
SEQEND
8
Edge.Cuts
0
POLYLINE
8
Edge.Cuts
62
254
70
0
10
0.000000
20
0.000000
66
1
0
VERTEX
8
Edge.Cuts
10
122.805599
20
219.546007
70
0
0
VERTEX
8
Edge.Cuts
10
122.805599
20
233.545993
70
0
0
SEQEND
8
Edge.Cuts
0
POLYLINE
8
Edge.Cuts
62
254
70
0
10
0.000000
20
0.000000
66
1
0
VERTEX
8
Edge.Cuts
10
108.803867
20
219.546007
70
0
0
VERTEX
8
Edge.Cuts
10
122.805599
20
219.546007
70
0
0
SEQEND
8
Edge.Cuts
0
POLYLINE
8
Edge.Cuts
62
254
70
0
10
0.000000
20
0.000000
66
1
0
VERTEX
8
Edge.Cuts
10
122.805599
20
233.545993
70
0
0
VERTEX
8
Edge.Cuts
10
108.803867
20
233.545993
70
0
0
SEQEND
8
Edge.Cuts
0
POLYLINE
8
Edge.Cuts
62
254
70
0
10
0.000000
20
0.000000
66
1
0
VERTEX
8
Edge.Cuts
10
108.803867
20
233.545993
70
0
0
VERTEX
8
Edge.Cuts
10
108.803867
20
219.546007
70
0
0
SEQEND
8
Edge.Cuts
0
POLYLINE
8
Edge.Cuts
62
254
70
0
10
0.000000
20
0.000000
66
1
0
VERTEX
8
Edge.Cuts
10
141.855575
20
219.546007
70
0
0
VERTEX
8
Edge.Cuts
10
141.855575
20
233.545993
70
0
0
SEQEND
8
Edge.Cuts
0
POLYLINE
8
Edge.Cuts
62
254
70
0
10
0.000000
20
0.000000
66
1
0
VERTEX
8
Edge.Cuts
10
127.853843
20
219.546007
70
0
0
VERTEX
8
Edge.Cuts
10
141.855575
20
219.546007
70
0
0
SEQEND
8
Edge.Cuts
0
POLYLINE
8
Edge.Cuts
62
254
70
0
10
0.000000
20
0.000000
66
1
0
VERTEX
8
Edge.Cuts
10
141.855575
20
233.545993
70
0
0
VERTEX
8
Edge.Cuts
10
127.853843
20
233.545993
70
0
0
SEQEND
8
Edge.Cuts
0
POLYLINE
8
Edge.Cuts
62
254
70
0
10
0.000000
20
0.000000
66
1
0
VERTEX
8
Edge.Cuts
10
127.853843
20
233.545993
70
0
0
VERTEX
8
Edge.Cuts
10
127.853843
20
219.546007
70
0
0
SEQEND
8
Edge.Cuts
0
POLYLINE
8
Edge.Cuts
62
254
70
0
10
0.000000
20
0.000000
66
1
0
VERTEX
8
Edge.Cuts
10
177.325572
20
181.536992
70
0
0
VERTEX
8
Edge.Cuts
10
191.112992
20
183.967981
70
0
0
SEQEND
8
Edge.Cuts
0
POLYLINE
8
Edge.Cuts
62
254
70
0
10
0.000000
20
0.000000
66
1
0
VERTEX
8
Edge.Cuts
10
191.112992
20
183.967981
70
0
0
VERTEX
8
Edge.Cuts
10
188.681475
20
197.755136
70
0
0
SEQEND
8
Edge.Cuts
0
POLYLINE
8
Edge.Cuts
62
254
70
0
10
0.000000
20
0.000000
66
1
0
VERTEX
8
Edge.Cuts
10
174.896700
20
195.324148
70
0
0
VERTEX
8
Edge.Cuts
10
177.325572
20
181.536992
70
0
0
SEQEND
8
Edge.Cuts
0
POLYLINE
8
Edge.Cuts
62
254
70
0
10
0.000000
20
0.000000
66
1
0
VERTEX
8
Edge.Cuts
10
188.681475
20
197.755136
70
0
0
VERTEX
8
Edge.Cuts
10
174.896700
20
195.324148
70
0
0
SEQEND
8
Edge.Cuts
0
POLYLINE
8
Edge.Cuts
62
254
70
0
10
0.000000
20
0.000000
66
1
0
VERTEX
8
Edge.Cuts
10
129.803820
20
181.445976
70
0
0
VERTEX
8
Edge.Cuts
10
129.803820
20
195.446120
70
0
0
SEQEND
8
Edge.Cuts
0
POLYLINE
8
Edge.Cuts
62
254
70
0
10
0.000000
20
0.000000
66
1
0
VERTEX
8
Edge.Cuts
10
115.804733
20
181.445976
70
0
0
VERTEX
8
Edge.Cuts
10
129.803820
20
181.445976
70
0
0
SEQEND
8
Edge.Cuts
0
POLYLINE
8
Edge.Cuts
62
254
70
0
10
0.000000
20
0.000000
66
1
0
VERTEX
8
Edge.Cuts
10
129.803820
20
195.446120
70
0
0
VERTEX
8
Edge.Cuts
10
115.804733
20
195.446120
70
0
0
SEQEND
8
Edge.Cuts
0
POLYLINE
8
Edge.Cuts
62
254
70
0
10
0.000000
20
0.000000
66
1
0
VERTEX
8
Edge.Cuts
10
115.804733
20
195.446120
70
0
0
VERTEX
8
Edge.Cuts
10
115.804733
20
181.445976
70
0
0
SEQEND
8
Edge.Cuts
0
POLYLINE
8
Edge.Cuts
62
254
70
0
10
0.000000
20
0.000000
66
1
0
VERTEX
8
Edge.Cuts
10
177.905009
20
276.695856
70
0
0
VERTEX
8
Edge.Cuts
10
177.905009
20
290.696000
70
0
0
SEQEND
8
Edge.Cuts
0
POLYLINE
8
Edge.Cuts
62
254
70
0
10
0.000000
20
0.000000
66
1
0
VERTEX
8
Edge.Cuts
10
163.903277
20
276.695856
70
0
0
VERTEX
8
Edge.Cuts
10
177.905009
20
276.695856
70
0
0
SEQEND
8
Edge.Cuts
0
POLYLINE
8
Edge.Cuts
62
254
70
0
10
0.000000
20
0.000000
66
1
0
VERTEX
8
Edge.Cuts
10
177.905009
20
290.696000
70
0
0
VERTEX
8
Edge.Cuts
10
163.903277
20
290.696000
70
0
0
SEQEND
8
Edge.Cuts
0
POLYLINE
8
Edge.Cuts
62
254
70
0
10
0.000000
20
0.000000
66
1
0
VERTEX
8
Edge.Cuts
10
163.903277
20
290.696000
70
0
0
VERTEX
8
Edge.Cuts
10
163.903277
20
276.695856
70
0
0
SEQEND
8
Edge.Cuts
0
POLYLINE
8
Edge.Cuts
62
254
70
0
10
0.000000
20
0.000000
66
1
0
VERTEX
8
Edge.Cuts
10
158.855033
20
257.645880
70
0
0
VERTEX
8
Edge.Cuts
10
158.855033
20
271.646024
70
0
0
SEQEND
8
Edge.Cuts
0
POLYLINE
8
Edge.Cuts
62
254
70
0
10
0.000000
20
0.000000
66
1
0
VERTEX
8
Edge.Cuts
10
144.853301
20
257.645880
70
0
0
VERTEX
8
Edge.Cuts
10
158.855033
20
257.645880
70
0
0
SEQEND
8
Edge.Cuts
0
POLYLINE
8
Edge.Cuts
62
254
70
0
10
0.000000
20
0.000000
66
1
0
VERTEX
8
Edge.Cuts
10
158.855033
20
271.646024
70
0
0
VERTEX
8
Edge.Cuts
10
144.853301
20
271.646024
70
0
0
SEQEND
8
Edge.Cuts
0
POLYLINE
8
Edge.Cuts
62
254
70
0
10
0.000000
20
0.000000
66
1
0
VERTEX
8
Edge.Cuts
10
144.853301
20
271.646024
70
0
0
VERTEX
8
Edge.Cuts
10
144.853301
20
257.645880
70
0
0
SEQEND
8
Edge.Cuts
0
POLYLINE
8
Edge.Cuts
62
254
70
0
10
0.000000
20
0.000000
66
1
0
VERTEX
8
Edge.Cuts
10
139.805057
20
276.695856
70
0
0
VERTEX
8
Edge.Cuts
10
139.805057
20
290.696000
70
0
0
SEQEND
8
Edge.Cuts
0
POLYLINE
8
Edge.Cuts
62
254
70
0
10
0.000000
20
0.000000
66
1
0
VERTEX
8
Edge.Cuts
10
125.803325
20
276.695856
70
0
0
VERTEX
8
Edge.Cuts
10
139.805057
20
276.695856
70
0
0
SEQEND
8
Edge.Cuts
0
POLYLINE
8
Edge.Cuts
62
254
70
0
10
0.000000
20
0.000000
66
1
0
VERTEX
8
Edge.Cuts
10
139.805057
20
290.696000
70
0
0
VERTEX
8
Edge.Cuts
10
125.803325
20
290.696000
70
0
0
SEQEND
8
Edge.Cuts
0
POLYLINE
8
Edge.Cuts
62
254
70
0
10
0.000000
20
0.000000
66
1
0
VERTEX
8
Edge.Cuts
10
125.803325
20
290.696000
70
0
0
VERTEX
8
Edge.Cuts
10
125.803325
20
276.695856
70
0
0
SEQEND
8
Edge.Cuts
0
POLYLINE
8
Edge.Cuts
62
254
70
0
10
0.000000
20
0.000000
66
1
0
VERTEX
8
Edge.Cuts
10
177.905009
20
257.645880
70
0
0
VERTEX
8
Edge.Cuts
10
177.905009
20
271.646024
70
0
0
SEQEND
8
Edge.Cuts
0
POLYLINE
8
Edge.Cuts
62
254
70
0
10
0.000000
20
0.000000
66
1
0
VERTEX
8
Edge.Cuts
10
163.903277
20
257.645880
70
0
0
VERTEX
8
Edge.Cuts
10
177.905009
20
257.645880
70
0
0
SEQEND
8
Edge.Cuts
0
POLYLINE
8
Edge.Cuts
62
254
70
0
10
0.000000
20
0.000000
66
1
0
VERTEX
8
Edge.Cuts
10
177.905009
20
271.646024
70
0
0
VERTEX
8
Edge.Cuts
10
163.903277
20
271.646024
70
0
0
SEQEND
8
Edge.Cuts
0
POLYLINE
8
Edge.Cuts
62
254
70
0
10
0.000000
20
0.000000
66
1
0
VERTEX
8
Edge.Cuts
10
163.903277
20
271.646024
70
0
0
VERTEX
8
Edge.Cuts
10
163.903277
20
257.645880
70
0
0
SEQEND
8
Edge.Cuts
 0 
ENDSEC
 0 
EOF